<?xml version="1.0" encoding="UTF-8" standalone="no"?>
<!-- Created with Inkscape (http://www.inkscape.org/) -->

<svg
   width="85.862343mm"
   height="31.260925mm"
   viewBox="0 0 85.862343 31.260925"
   version="1.1"
   id="svg1"
   xmlns="http://www.w3.org/2000/svg"
   xmlns:svg="http://www.w3.org/2000/svg">
  <desc property="dc:creator">Michael Koksharov: https://github.com/LuciferaseMaster/PrePrint-Template-for-AnyRxiv/tree/master/preprint_logos</desc>
  <defs
     id="defs1" />
  <g
     id="layer1"
     transform="translate(-110.86042,-53.445821)">
    <g
       id="text3"
       style="font-size:25.4px;line-height:10.0542px;font-family:'EB Garamond';-inkscape-font-specification:'EB Garamond';text-align:center;letter-spacing:0.232833px;text-anchor:middle;fill:#bd2736;stroke-width:0.365125"
       aria-label="bioRχiv&#10;the preprint server for biology">
      <path
         style="font-weight:500;font-size:26.4583px;-inkscape-font-specification:'EB Garamond, Medium';letter-spacing:0px;fill:#000000"
         d="m 117.44854,72.469339 q -0.66146,0 -1.27,-0.132292 -0.60854,-0.105833 -1.13771,-0.238124 -0.50271,-0.132292 -0.89958,-0.238125 -0.39687,-0.132291 -0.55562,-0.132291 -0.21167,0 -0.39688,0.105833 -0.15875,0.105833 -0.3175,0.238124 -0.18521,0.15875 -0.29104,0.15875 -0.15875,0 -0.29104,-0.105833 -0.13229,-0.105833 -0.13229,-0.238125 0,-0.238124 0.10583,-0.846665 0.13229,-0.608541 0.13229,-1.296457 l -0.0529,-12.461859 q 0,-0.687916 -0.29105,-1.190624 -0.29104,-0.529166 -0.84666,-0.740832 -0.13229,-0.05292 -0.23813,-0.132291 -0.10583,-0.105834 -0.10583,-0.264583 0,-0.132292 0.0794,-0.211667 0.10583,-0.07937 0.23812,-0.105833 0.42333,-0.07937 1.08479,-0.291041 0.66146,-0.238125 1.24354,-0.47625 0.60854,-0.238124 0.87312,-0.343958 0.18521,-0.07937 0.26459,-0.07937 0.10583,0 0.15875,0.07937 0.0529,0.05292 0.0529,0.15875 0,0.132292 -0.0529,0.820207 -0.0265,0.661458 -0.0265,1.56104 l -0.0265,5.503326 q 0,0.449792 0.0529,0.635 0.0794,0.185208 0.18521,0.185208 0.8202,-0.634999 1.82562,-1.005416 1.03187,-0.396874 1.87854,-0.396874 1.34937,0 2.43416,0.687916 1.08479,0.687915 1.71979,1.904997 0.66146,1.190624 0.66146,2.698747 0,1.825622 -0.76729,3.227912 -0.76729,1.40229 -2.14312,2.196039 -1.34938,0.767291 -3.14854,0.767291 z m 0.55562,-0.926041 q 0.89958,0 1.53458,-0.60854 0.66146,-0.635 1.00542,-1.693332 0.37041,-1.058332 0.37041,-2.32833 0,-1.058332 -0.34395,-2.143122 -0.34396,-1.084791 -1.08479,-1.799165 -0.74084,-0.740832 -1.87854,-0.740832 -0.84667,0 -1.5875,0.264583 -0.74083,0.264583 -1.27,0.714374 v 5.318118 q 0,0.899582 0.44979,1.587498 0.47625,0.687916 1.21708,1.058332 0.76729,0.370416 1.5875,0.370416 z"
         id="path1" />
      <path
         style="font-weight:500;font-size:26.4583px;-inkscape-font-specification:'EB Garamond, Medium';letter-spacing:0.806979px;fill:#000000"
         d="m 125.43893,72.178298 q -0.21166,0 -0.37041,-0.07937 -0.13229,-0.07937 -0.13229,-0.238125 0,-0.211666 0.15875,-0.291041 0.1852,-0.105833 0.39687,-0.15875 0.60854,-0.15875 0.89958,-0.343958 0.29104,-0.185208 0.29104,-0.661457 v -5.714993 q 0,-0.793749 -0.26458,-1.269999 -0.26458,-0.502707 -0.92604,-0.60854 -0.13229,-0.02646 -0.21167,-0.105834 -0.0529,-0.105833 -0.0529,-0.291041 0,-0.3175 0.23812,-0.343958 1.16417,-0.264583 1.98437,-0.687916 0.84667,-0.449791 1.27,-0.714374 0.29104,-0.185208 0.42334,-0.185208 0.21166,0 0.21166,0.211667 0,0.291041 -0.0794,0.92604 -0.0529,0.634999 -0.13229,1.375832 -0.0529,0.740832 -0.0529,1.375831 v 6.032493 q 0,0.423332 0.29104,0.634999 0.29104,0.211666 0.89958,0.370416 0.21167,0.05292 0.37042,0.15875 0.18521,0.07937 0.18521,0.291041 0,0.3175 -0.47625,0.3175 -0.50271,0 -0.89958,-0.05292 -0.39688,-0.02646 -0.7673,-0.05292 -0.34395,-0.02646 -0.8202,-0.02646 -0.44979,0 -0.82021,0.02646 -0.37042,0.02646 -0.74083,0.05292 -0.34396,0.05292 -0.87313,0.05292 z m 2.38125,-13.520191 q -0.66146,0 -1.13771,-0.449792 -0.44979,-0.476249 -0.44979,-1.137706 0,-0.687916 0.44979,-1.137707 0.47625,-0.47625 1.13771,-0.47625 0.68792,0 1.16417,0.47625 0.47625,0.449791 0.47625,1.137707 0,0.661457 -0.47625,1.137706 -0.47625,0.449792 -1.16417,0.449792 z"
         id="path2" />
      <path
         style="font-weight:500;font-size:28.2222px;-inkscape-font-specification:'EB Garamond, Medium';letter-spacing:0px;fill:#000000"
         d="m 138.72543,72.144034 q -1.60867,0 -2.93511,-0.733778 -1.29822,-0.761999 -2.06022,-2.06022 -0.762,-1.298222 -0.762,-2.963331 0,-1.241777 0.47978,-2.398887 0.47977,-1.157111 1.35466,-2.088443 0.87489,-0.931333 2.032,-1.467555 1.15711,-0.564444 2.48355,-0.564444 1.66511,0 3.01978,0.818444 1.35466,0.790222 2.14489,2.088443 0.79022,1.298221 0.79022,2.850442 0,1.693332 -0.73378,3.189109 -0.73378,1.495777 -2.20133,2.427109 -1.43933,0.903111 -3.61244,0.903111 z m 0.59266,-0.987777 q 0.81845,0 1.46756,-0.310445 0.64911,-0.338666 1.016,-1.015999 0.33866,-0.649111 0.45155,-1.580443 0.14111,-0.959555 0.14111,-1.947332 0,-1.41111 -0.45155,-2.652887 -0.45156,-1.241777 -1.24178,-2.003776 -0.79022,-0.761999 -1.86266,-0.761999 -0.64911,0 -1.18534,0.225777 -0.508,0.197556 -0.93133,0.705555 -0.53622,0.649111 -0.70555,1.693332 -0.16934,1.015999 -0.16934,2.229554 0,1.354666 0.45156,2.596442 0.45155,1.241777 1.21355,2.031999 0.79022,0.790222 1.80622,0.790222 z"
         id="path3" />
      <path
         style="font-weight:500;-inkscape-font-specification:'EB Garamond, Medium';letter-spacing:-3.175px"
         d="m 162.40384,72.632323 q -0.9144,0 -1.651,-0.2032 -0.7112,-0.1778 -1.2954,-0.5588 -0.5588,-0.381 -1.016,-0.9398 -0.5842,-0.762 -1.143,-1.4732 -0.5334,-0.7112 -1.1176,-1.6002 -0.5842,-0.9144 -1.3716,-2.2098 -0.3302,-0.635 -0.9398,-0.9398 -0.4318,-0.2286 -0.889,-0.3048 -0.4318,-0.1016 -0.7112,-0.127 -0.1778,0 -0.2794,0.1524 -0.0762,0.127 -0.0762,0.3556 v 4.5974 q 0,0.8128 0.4064,1.3462 0.4064,0.508 1.397,0.6858 0.3556,0.0762 0.5334,0.1778 0.2032,0.1016 0.2032,0.3048 0,0.1524 -0.1778,0.2286 -0.1778,0.0762 -0.4826,0.0762 -0.635,0 -1.143,-0.0508 -0.4826,-0.0254 -0.9398,-0.0508 -0.4318,-0.0508 -0.9144,-0.0508 -0.6096,0 -1.1684,0.0508 -0.5334,0.0254 -1.0922,0.0508 -0.5334,0.0508 -1.1938,0.0508 -0.2794,0 -0.4826,-0.0762 -0.1778,-0.0508 -0.1778,-0.2286 0,-0.3302 0.7366,-0.4826 0.9652,-0.1778 1.3716,-0.5588 0.4318,-0.381 0.4318,-1.27 v -11.0236 q 0,-0.8636 -0.1016,-1.2954 -0.1016,-0.4572 -0.4318,-0.635 -0.3048,-0.2032 -0.9906,-0.3048 -0.4064,-0.0508 -0.5842,-0.1778 -0.1778,-0.1524 -0.1778,-0.3302 0,-0.1524 0.1778,-0.2286 0.2032,-0.1016 0.4826,-0.1016 0.7366,0 1.143,0.0254 0.4064,0.0254 0.762,0.0508 0.381,0 0.9398,0 0.508,0 0.9144,-0.0254 0.4064,-0.0508 0.9144,-0.0762 0.508,-0.0508 1.2954,-0.0508 2.8448,0 4.3434,1.0414 1.524,1.016 1.524,3.0988 0,1.143 -0.4826,1.9558 -0.4572,0.8128 -1.1684,1.3462 -0.7112,0.5334 -1.4224,0.8382 -0.1016,0.0254 -0.1016,0.127 0.0254,0.0762 0.0762,0.2032 0.7874,1.1684 1.4986,2.2352 0.7366,1.0414 1.5494,2.032 0.8382,0.9652 1.905,1.9558 0.7112,0.6604 1.4732,0.7874 0.7874,0.127 1.6764,0.127 0.381,0 0.381,0.3556 0,0.4318 -0.4064,0.6604 -0.381,0.254 -0.9398,0.3556 -0.5588,0.1016 -1.0668,0.1016 z m -9.271,-9.017 q 1.0922,0 1.8542,-0.4826 0.7874,-0.508 1.1938,-1.3208 0.4318,-0.8382 0.4318,-1.8034 0,-1.0922 -0.2794,-1.9304 -0.2794,-0.8382 -1.016,-1.2954 -0.7366,-0.4826 -2.1082,-0.4826 -0.7112,0 -0.9652,0.508 -0.254,0.4826 -0.2794,1.8542 -0.0254,0.6096 -0.0508,1.6256 0,1.016 0,2.413 0,0.6096 0.3302,0.762 0.3302,0.1524 0.889,0.1524 z"
         id="path4" />
      <path
         style="font-family:'Palatino Linotype';-inkscape-font-specification:'Palatino Linotype';letter-spacing:0.119062px;fill:#000000"
         d="m 162.44501,62.243923 -0.23565,-0.359668 q 1.20303,-0.979785 2.04639,-1.488281 0.84336,-0.520899 1.56269,-0.520899 0.68213,0 1.16583,0.434082 0.48369,0.42168 1.16582,2.282031 0.69453,1.860352 1.27744,3.59668 h 0.18603 q 1.25264,-1.847949 4.08037,-6.56084 l 0.33487,-0.08682 q 0.40927,0.384473 0.86816,1.128613 -1.5875,1.686719 -5.15937,6.312793 0.50849,1.475879 1.41386,3.857129 0.91778,2.38125 1.27744,3.026172 0.35967,0.657324 0.83096,0.942578 0.48369,0.297656 1.09141,0.297656 0.44648,0 0.88056,-0.16123 0.43409,-0.148828 1.5503,-1.066602 l 0.0992,0.520899 q -2.0836,2.406054 -3.86954,2.406054 -0.66972,0 -1.12861,-0.285254 -0.44648,-0.285254 -0.74414,-0.706933 -0.28525,-0.42168 -0.5333,-0.954981 -0.24805,-0.533301 -0.90537,-2.430859 l -1.14102,-3.212207 h -0.14883 q -1.02939,1.823144 -2.29443,4.415234 -1.25264,2.604492 -1.52549,3.286621 l -0.28525,0.186035 q -0.75654,-0.409277 -1.20303,-1.041796 0.32246,-0.483692 1.67432,-2.530078 l 2.19521,-3.299024 q 0.83096,-1.265039 1.21543,-1.934765 -0.60771,-1.79834 -1.26504,-3.497461 -0.65732,-1.711524 -0.97978,-2.319239 -0.31006,-0.607714 -0.69453,-0.855761 -0.37207,-0.248047 -0.78135,-0.248047 -0.44649,0 -0.88057,0.198437 -0.43408,0.186035 -1.14101,0.669727 z"
         id="path5" />
      <path
         style="font-weight:500;font-size:26.4583px;-inkscape-font-specification:'EB Garamond, Medium';letter-spacing:0.529167px;fill:#000000"
         d="m 177.26231,72.008298 q -0.21167,0 -0.37042,-0.07937 -0.13229,-0.07937 -0.13229,-0.238125 0,-0.211666 0.15875,-0.291041 0.18521,-0.105833 0.39688,-0.15875 0.60854,-0.15875 0.89958,-0.343958 0.29104,-0.185208 0.29104,-0.661457 v -5.714993 q 0,-0.793749 -0.26458,-1.269999 -0.26459,-0.502707 -0.92604,-0.60854 -0.13229,-0.02646 -0.21167,-0.105834 -0.0529,-0.105833 -0.0529,-0.291041 0,-0.3175 0.23813,-0.343958 1.16416,-0.264583 1.98437,-0.687916 0.84667,-0.449791 1.27,-0.714374 0.29104,-0.185208 0.42333,-0.185208 0.21167,0 0.21167,0.211667 0,0.291041 -0.0794,0.92604 -0.0529,0.634999 -0.13229,1.375832 -0.0529,0.740832 -0.0529,1.375831 v 6.032493 q 0,0.423332 0.29104,0.634999 0.29104,0.211666 0.89958,0.370416 0.21167,0.05292 0.37042,0.15875 0.1852,0.07938 0.1852,0.291041 0,0.3175 -0.47625,0.3175 -0.5027,0 -0.89958,-0.05292 -0.39687,-0.02646 -0.76729,-0.05292 -0.34396,-0.02646 -0.82021,-0.02646 -0.44979,0 -0.8202,0.02646 -0.37042,0.02646 -0.74084,0.05292 -0.34395,0.05292 -0.87312,0.05292 z m 2.38125,-13.520192 q -0.66146,0 -1.13771,-0.449791 -0.44979,-0.476249 -0.44979,-1.137706 0,-0.687916 0.44979,-1.137707 0.47625,-0.47625 1.13771,-0.47625 0.68791,0 1.16416,0.47625 0.47625,0.449791 0.47625,1.137707 0,0.661457 -0.47625,1.137706 -0.47625,0.449791 -1.16416,0.449791 z"
         id="path6" />
      <path
         style="font-weight:500;font-size:28.2222px;-inkscape-font-specification:'EB Garamond, Medium';fill:#000000"
         d="m 190.06233,72.431589 q -0.14111,0 -0.31045,-0.423333 -0.16933,-0.395111 -0.28222,-0.705555 -0.19755,-0.479777 -0.42333,-1.044221 -0.19756,-0.564444 -0.36689,-1.044222 -0.64911,-1.721554 -1.38289,-3.358442 -0.73378,-1.636887 -1.43933,-3.330219 -0.22578,-0.564444 -0.62089,-0.959555 -0.36689,-0.423333 -0.81844,-0.564444 -0.254,-0.112889 -0.39511,-0.197556 -0.11289,-0.112888 -0.11289,-0.310444 0,-0.197555 0.22577,-0.225777 0.22578,-0.05644 0.36689,-0.05644 0.62089,0 0.90311,0.02822 0.31045,0.02822 0.59267,0.08467 0.31044,0.02822 0.81844,0.02822 0.56445,0 0.87489,-0.02822 0.33867,-0.05644 0.67733,-0.08467 0.36689,-0.02822 0.95956,-0.02822 0.14111,0 0.36689,0.05644 0.22578,0.05644 0.22578,0.225777 0,0.225778 -0.19756,0.338667 -0.19756,0.08467 -0.45155,0.197555 -0.28223,0.112889 -0.45156,0.423333 -0.14111,0.310444 -0.14111,0.733777 0,0.225778 0,0.451555 0.0282,0.197556 0.11289,0.366889 l 2.11666,5.475107 q 0.0282,0.02822 0.0282,0.02822 0.0282,0 0.0565,-0.02822 l 1.97555,-5.136441 q 0.11289,-0.253999 0.14111,-0.536221 0.0565,-0.310445 0.0565,-0.536222 0,-0.536222 -0.19756,-0.818444 -0.16933,-0.282222 -0.59266,-0.423333 -0.33867,-0.112889 -0.508,-0.197555 -0.14111,-0.112889 -0.14111,-0.310445 0,-0.197555 0.19755,-0.253999 0.19756,-0.05644 0.39511,-0.05644 0.47978,0.02822 0.93134,0.08467 0.47977,0.02822 1.10066,0.02822 0.62089,0 0.93133,-0.02822 0.31045,-0.05644 0.81845,-0.08467 0.22578,0 0.42333,0.05644 0.19756,0.05644 0.19756,0.225777 0,0.338667 -0.62089,0.536222 -0.45156,0.141111 -0.93134,0.649111 -0.47977,0.507999 -0.76199,1.213554 l -2.20134,5.390441 q -0.0847,0.141111 -0.254,0.536221 -0.14111,0.366889 -0.31044,0.818444 -0.16933,0.423333 -0.31044,0.762 -0.11289,0.338666 -0.14112,0.39511 -0.0564,0.08467 -0.19755,0.423333 -0.14111,0.310445 -0.31044,0.649111 -0.14112,0.366889 -0.28223,0.564444 z"
         id="path7" />
      <path
         style="font-weight:500;font-size:5.64444px;font-family:'Fira Sans';-inkscape-font-specification:'Fira Sans, Medium';font-variant-caps:small-caps;letter-spacing:0.0449792px;fill:#000000"
         d="m 113.66299,81.438616 -0.0734,0.5588 h -0.85795 v 2.635954 h -0.72249 v -2.635954 h -0.89182 v -0.5588 z m 3.09298,0 v 3.194754 h -0.72249 v -1.388533 h -1.1176 v 1.388533 h -0.72249 v -3.194754 h 0.72249 v 1.241777 h 1.1176 v -1.241777 z m 2.9688,0 -0.0734,0.519289 h -1.22484 v 0.790221 h 1.0668 v 0.513645 h -1.0668 v 0.846666 h 1.30386 v 0.524933 h -2.02071 v -3.194754 z m 3.26213,0 q 0.6604,0 1.02164,0.259645 0.36689,0.259644 0.36689,0.773288 0,0.541866 -0.36689,0.812799 -0.36124,0.270933 -0.9652,0.270933 h -0.38382 v 1.078089 h -0.71684 v -3.194754 z m 0,1.591733 q 0.31609,0 0.47977,-0.124178 0.16369,-0.129822 0.16369,-0.428978 0,-0.524933 -0.65475,-0.524933 h -0.31609 v 1.078089 z m 3.11555,0.361244 h -0.3556 v 1.241777 h -0.72249 v -3.194754 h 1.04987 q 1.36595,0 1.36595,0.953911 0,0.321733 -0.16368,0.536222 -0.15805,0.208844 -0.49672,0.338666 l 0.86925,1.365955 h -0.81845 z m -0.3556,-0.502356 h 0.36689 q 0.29351,0 0.44027,-0.112888 0.14675,-0.118534 0.14675,-0.372533 0,-0.237067 -0.1524,-0.344311 -0.1524,-0.112889 -0.47413,-0.112889 h -0.32738 z m 4.47587,-1.450621 -0.0734,0.519289 h -1.22485 v 0.790221 h 1.0668 v 0.513645 h -1.0668 v 0.846666 h 1.30387 v 0.524933 h -2.02071 v -3.194754 z m 1.80604,0 q 0.6604,0 1.02164,0.259645 0.36689,0.259644 0.36689,0.773288 0,0.541866 -0.36689,0.812799 -0.36124,0.270933 -0.9652,0.270933 h -0.38382 v 1.078089 h -0.71685 v -3.194754 z m 0,1.591733 q 0.31608,0 0.47977,-0.124178 0.16369,-0.129822 0.16369,-0.428978 0,-0.524933 -0.65475,-0.524933 h -0.31609 v 1.078089 z m 3.11555,0.361244 h -0.3556 v 1.241777 h -0.72249 v -3.194754 h 1.04987 q 1.36595,0 1.36595,0.953911 0,0.321733 -0.16369,0.536222 -0.15804,0.208844 -0.49671,0.338666 l 0.86925,1.365955 h -0.81845 z m -0.3556,-0.502356 h 0.36689 q 0.29351,0 0.44027,-0.112888 0.14675,-0.118534 0.14675,-0.372533 0,-0.237067 -0.1524,-0.344311 -0.1524,-0.112889 -0.47413,-0.112889 h -0.32738 z m 3.18329,-1.450621 v 3.194754 h -0.72249 v -3.194754 z m 3.49937,3.194754 h -0.92569 l -1.08373,-2.539999 0.0169,0.135467 q 0.0452,0.310444 0.0677,0.581377 0.0282,0.270933 0.0282,0.615244 v 1.207911 h -0.64911 v -3.194754 h 0.90311 l 1.10066,2.545643 q -0.10724,-0.592666 -0.10724,-1.202266 v -1.343377 h 0.64911 z m 3.10991,-3.194754 -0.0734,0.5588 h -0.85795 v 2.635954 h -0.72249 v -2.635954 h -0.89182 v -0.5588 z m 2.9912,-0.06773 q 0.36125,0 0.63782,0.1016 0.27658,0.1016 0.50236,0.3048 l -0.34996,0.395111 q -0.34431,-0.270934 -0.73942,-0.270934 -0.23706,0 -0.37253,0.08467 -0.13547,0.08467 -0.13547,0.248355 0,0.107245 0.0508,0.174978 0.0565,0.06773 0.19191,0.129822 0.14112,0.06209 0.42334,0.146756 0.50235,0.1524 0.75071,0.383822 0.24835,0.225777 0.24835,0.637821 0,0.293511 -0.15804,0.519289 -0.1524,0.225777 -0.45156,0.3556 -0.29351,0.124177 -0.69426,0.124177 -0.4064,0 -0.72814,-0.118533 -0.32173,-0.124178 -0.54186,-0.333022 l 0.36124,-0.412044 q 0.38947,0.327377 0.88054,0.327377 0.26528,0 0.42333,-0.107244 0.15804,-0.112889 0.15804,-0.299155 0,-0.124178 -0.0564,-0.2032 -0.0508,-0.08467 -0.18627,-0.1524 -0.13546,-0.06773 -0.38946,-0.141111 -0.5588,-0.163689 -0.79587,-0.389466 -0.23142,-0.231422 -0.23142,-0.592667 0,-0.423333 0.33866,-0.666044 0.34431,-0.248355 0.8636,-0.248355 z m 3.90577,0.06773 -0.0734,0.519289 h -1.22485 v 0.790221 h 1.0668 v 0.513645 h -1.0668 v 0.846666 h 1.30387 v 0.524933 h -2.02071 v -3.194754 z m 1.83991,1.952977 h -0.3556 v 1.241777 h -0.72249 v -3.194754 h 1.04987 q 1.36595,0 1.36595,0.953911 0,0.321733 -0.16369,0.536222 -0.15804,0.208844 -0.49671,0.338666 l 0.86925,1.365955 h -0.81845 z m -0.3556,-0.502356 h 0.36689 q 0.29351,0 0.44026,-0.112888 0.14676,-0.118534 0.14676,-0.372533 0,-0.237067 -0.1524,-0.344311 -0.1524,-0.112889 -0.47413,-0.112889 h -0.32738 z m 4.78631,-1.450621 -0.97649,3.194754 h -0.87489 l -1.00471,-3.194754 h 0.762 l 0.69427,2.619021 0.66604,-2.619021 z m 2.48902,0 -0.0734,0.519289 h -1.22485 v 0.790221 h 1.0668 v 0.513645 h -1.0668 v 0.846666 h 1.30387 v 0.524933 h -2.02071 v -3.194754 z m 1.83991,1.952977 h -0.3556 v 1.241777 h -0.72249 v -3.194754 h 1.04987 q 1.36596,0 1.36596,0.953911 0,0.321733 -0.16369,0.536222 -0.15805,0.208844 -0.49671,0.338666 l 0.86924,1.365955 h -0.81844 z m -0.3556,-0.502356 h 0.36689 q 0.29351,0 0.44027,-0.112888 0.14675,-0.118534 0.14675,-0.372533 0,-0.237067 -0.1524,-0.344311 -0.1524,-0.112889 -0.47413,-0.112889 h -0.32738 z m 5.88115,-1.450621 -0.079,0.519289 h -1.16275 v 0.869244 h 1.01035 v 0.519288 h -1.01035 v 1.286933 h -0.72249 v -3.194754 z m 1.78347,-0.06773 q 0.69991,0 1.09502,0.440266 0.40075,0.434622 0.40075,1.2192 0,0.784577 -0.40075,1.230487 -0.40076,0.445911 -1.09502,0.445911 -0.69991,0 -1.10067,-0.440266 -0.40075,-0.440266 -0.40075,-1.236132 0,-0.508 0.18062,-0.880533 0.18626,-0.378178 0.52493,-0.575733 0.33867,-0.2032 0.79587,-0.2032 z m 0,0.530577 q -0.36689,0 -0.5588,0.270934 -0.19191,0.270933 -0.19191,0.857955 0,0.59831 0.19191,0.874888 0.19191,0.270933 0.5588,0.270933 0.37253,0 0.5588,-0.270933 0.18626,-0.270933 0.18626,-0.874888 0,-0.587022 -0.19191,-0.857955 -0.18626,-0.270934 -0.55315,-0.270934 z m 3.31876,1.490133 h -0.3556 v 1.241777 h -0.72249 v -3.194754 h 1.04986 q 1.36596,0 1.36596,0.953911 0,0.321733 -0.16369,0.536222 -0.15804,0.208844 -0.49671,0.338666 l 0.86924,1.365955 h -0.81844 z m -0.3556,-0.502356 h 0.36688 q 0.29352,0 0.44027,-0.112888 0.14676,-0.118534 0.14676,-0.372533 0,-0.237067 -0.1524,-0.344311 -0.1524,-0.112889 -0.47414,-0.112889 h -0.32737 z m 5.64972,0.0508 q 0.762,0.141111 0.762,0.762 0,0.507999 -0.37817,0.722488 -0.37818,0.208845 -1.06116,0.208845 h -1.05551 v -3.194754 h 0.92005 q 0.69426,0 1.06115,0.197556 0.36689,0.191911 0.36689,0.632177 0,0.287867 -0.16933,0.445911 -0.16934,0.1524 -0.44592,0.225777 z m -1.01599,-0.987777 v 0.767644 h 0.34995 q 0.25965,0 0.4064,-0.09596 0.14676,-0.1016 0.14676,-0.293511 0,-0.208844 -0.15805,-0.293511 -0.1524,-0.08467 -0.47413,-0.08467 z m 0.34431,2.156177 q 0.33302,0 0.508,-0.09031 0.17497,-0.09596 0.17497,-0.349956 0,-0.242711 -0.16933,-0.355599 -0.16933,-0.112889 -0.4572,-0.112889 h -0.40075 v 0.908755 z m 2.85591,-2.669821 v 3.194754 h -0.72249 v -3.194754 z m 2.24067,-0.06773 q 0.69991,0 1.09502,0.440266 0.40075,0.434622 0.40075,1.2192 0,0.784577 -0.40075,1.230487 -0.40076,0.445911 -1.09502,0.445911 -0.69991,0 -1.10067,-0.440266 -0.40075,-0.440266 -0.40075,-1.236132 0,-0.508 0.18062,-0.880533 0.18627,-0.378178 0.52493,-0.575733 0.33867,-0.2032 0.79587,-0.2032 z m 0,0.530577 q -0.36689,0 -0.5588,0.270934 -0.19191,0.270933 -0.19191,0.857955 0,0.59831 0.19191,0.874888 0.19191,0.270933 0.5588,0.270933 0.37253,0 0.5588,-0.270933 0.18626,-0.270933 0.18626,-0.874888 0,-0.587022 -0.19191,-0.857955 -0.18626,-0.270934 -0.55315,-0.270934 z m 2.95751,-0.462844 v 2.619021 h 1.34338 l -0.079,0.575733 h -1.9812 v -3.194754 z m 2.99702,-0.06773 q 0.69991,0 1.09502,0.440266 0.40075,0.434622 0.40075,1.2192 0,0.784577 -0.40075,1.230487 -0.40076,0.445911 -1.09502,0.445911 -0.69991,0 -1.10067,-0.440266 -0.40075,-0.440266 -0.40075,-1.236132 0,-0.508 0.18062,-0.880533 0.18626,-0.378178 0.52493,-0.575733 0.33867,-0.2032 0.79587,-0.2032 z m 0,0.530577 q -0.36689,0 -0.5588,0.270934 -0.19191,0.270933 -0.19191,0.857955 0,0.59831 0.19191,0.874888 0.19191,0.270933 0.5588,0.270933 0.37253,0 0.5588,-0.270933 0.18626,-0.270933 0.18626,-0.874888 0,-0.587022 -0.19191,-0.857955 -0.18626,-0.270934 -0.55315,-0.270934 z m 3.59533,-0.530577 q 0.63782,0 1.1176,0.383822 l -0.38946,0.395111 q -0.16934,-0.129822 -0.32738,-0.186267 -0.15805,-0.06209 -0.36125,-0.06209 -0.37817,0 -0.62088,0.282222 -0.23707,0.282222 -0.23707,0.846667 0,0.615243 0.18627,0.880532 0.18626,0.265289 0.56444,0.265289 0.28787,0 0.508,-0.112889 v -0.75071 h -0.47978 l -0.0677,-0.513645 h 1.24178 v 1.580444 q -0.254,0.158044 -0.56445,0.242711 -0.3048,0.08467 -0.63782,0.08467 -0.73378,0 -1.1176,-0.423333 -0.38382,-0.428977 -0.38382,-1.253065 0,-0.519289 0.20884,-0.891822 0.20885,-0.378178 0.56445,-0.570089 0.36124,-0.197555 0.79586,-0.197555 z m 4.2388,0.06773 -1.08938,1.986843 v 1.207911 h -0.72813 v -1.202266 l -1.08374,-1.992488 h 0.79023 l 0.67168,1.444977 0.67169,-1.444977 z"
         id="path8" />
    </g>
  </g>
</svg>
