<?xml version="1.0" encoding="UTF-8" standalone="no"?>
<!-- Created with Inkscape (http://www.inkscape.org/) -->

<svg
   width="85.654572mm"
   height="23.230892mm"
   viewBox="0 0 85.654572 23.230892"
   version="1.1"
   id="svg1"
   xmlns="http://www.w3.org/2000/svg"
   xmlns:svg="http://www.w3.org/2000/svg">
  <desc property="dc:creator">Michael Koksharov: https://github.com/LuciferaseMaster/PrePrint-Template-for-AnyRxiv/tree/master/preprint_logos</desc>
  <defs
     id="defs1" />
  <g
     id="layer1"
     transform="translate(-62.628499,-133.31459)">
    <g
       id="text3"
       style="font-size:25.4px;line-height:10.3188px;font-family:'EB Garamond';-inkscape-font-specification:'EB Garamond';letter-spacing:0.232833px;fill:#bd2736;stroke-width:0.6"
       aria-label="bioRχiv">
      <path
         style="font-size:22.5778px;font-family:Coconat;-inkscape-font-specification:Coconat;letter-spacing:1.85473px;fill:#000000;stroke:#000000"
         d="m 63.041389,150.63825 0.02258,-0.0452 q 0.428979,-1.12889 0.428979,-5.1929 v -7.87965 q 0,-1.87396 -0.564445,-2.55129 l 2.415824,-1.35467 v 6.70561 q 1.806224,-1.64818 3.860804,-1.64818 1.919113,0 3.251203,1.51271 1.354668,1.51271 1.354668,3.81565 0,2.82223 -1.783646,4.76392 -1.783646,1.91911 -4.583293,1.91911 -1.603024,0 -2.935114,-0.6096 l -1.399824,0.54187 z m 2.302935,-2.21262 q 1.106312,1.17404 2.822225,1.17404 1.64818,0 2.619025,-1.17404 0.970846,-1.17405 0.970846,-3.29636 0,-2.2352 -0.948268,-3.56729 -0.92569,-1.35467 -2.619025,-1.35467 -1.512713,0 -2.844803,1.10631 z"
         id="path1" />
      <path
         style="font-size:22.5778px;font-family:Coconat;-inkscape-font-specification:Coconat;letter-spacing:2.11931px;fill:#000000;stroke:#000000"
         d="m 77.810608,150.41248 q 0.293511,-1.03858 0.338667,-5.21548 l 0.02258,-2.50613 q 0,-0.72249 -0.135466,-1.37725 -0.135467,-0.65475 -0.270934,-0.94827 -0.112889,-0.29351 -0.180622,-0.33866 l 2.415824,-1.35467 -0.02258,6.52498 q -0.02258,3.43183 0.338668,5.21548 z m 2.009424,-13.81762 q -0.361245,0.33867 -0.857957,0.33867 -0.496711,0 -0.857956,-0.33867 -0.361245,-0.36124 -0.361245,-0.88053 0,-0.51929 0.361245,-0.85796 0.361245,-0.36124 0.857956,-0.36124 0.496712,0 0.857957,0.36124 0.361245,0.33867 0.361245,0.85796 0,0.51929 -0.361245,0.88053 z"
         id="path2" />
      <path
         style="font-size:22.5778px;font-family:Coconat;-inkscape-font-specification:Coconat;letter-spacing:0.531812px;fill:#000000;stroke:#000000"
         d="m 89.886718,150.96083 q -2.348091,0 -3.883382,-1.58044 -1.53529,-1.60303 -1.53529,-3.95112 0,-2.70934 1.761068,-4.56072 1.761069,-1.87395 4.334938,-1.87395 2.46098,0 3.90596,1.51271 1.467557,1.51271 1.467557,4.01885 0,2.73191 -1.738491,4.58329 -1.738491,1.85138 -4.31236,1.85138 z m 0.745067,-1.12889 q 1.490135,0 2.370669,-1.15147 0.903113,-1.17404 0.903113,-3.13831 0,-2.39325 -1.128891,-3.88338 -1.12889,-1.51272 -2.935114,-1.51272 -1.53529,0 -2.46098,1.17405 -0.92569,1.17405 -0.92569,3.13831 0,2.25778 1.196624,3.81565 1.219201,1.55787 2.980269,1.55787 z"
         id="path3" />
      <path
         style="font-weight:500;-inkscape-font-specification:'EB Garamond, Medium';letter-spacing:-3.43958px"
         d="m 113.62848,151.24588 q -0.9144,0 -1.651,-0.2032 -0.7112,-0.1778 -1.2954,-0.5588 -0.5588,-0.381 -1.016,-0.9398 -0.5842,-0.762 -1.143,-1.4732 -0.5334,-0.7112 -1.1176,-1.6002 -0.5842,-0.9144 -1.3716,-2.2098 -0.3302,-0.635 -0.9398,-0.9398 -0.4318,-0.2286 -0.889,-0.3048 -0.4318,-0.1016 -0.7112,-0.127 -0.1778,0 -0.2794,0.1524 -0.0762,0.127 -0.0762,0.3556 v 4.5974 q 0,0.8128 0.4064,1.3462 0.4064,0.508 1.397,0.6858 0.3556,0.0762 0.5334,0.1778 0.2032,0.1016 0.2032,0.3048 0,0.1524 -0.1778,0.2286 -0.1778,0.0762 -0.4826,0.0762 -0.635,0 -1.143,-0.0508 -0.4826,-0.0254 -0.9398,-0.0508 -0.4318,-0.0508 -0.9144,-0.0508 -0.6096,0 -1.1684,0.0508 -0.5334,0.0254 -1.092202,0.0508 -0.5334,0.0508 -1.1938,0.0508 -0.2794,0 -0.4826,-0.0762 -0.1778,-0.0508 -0.1778,-0.2286 0,-0.3302 0.7366,-0.4826 0.9652,-0.1778 1.371602,-0.5588 0.4318,-0.381 0.4318,-1.27 v -11.0236 q 0,-0.8636 -0.1016,-1.2954 -0.1016,-0.4572 -0.431802,-0.635 -0.3048,-0.2032 -0.9906,-0.3048 -0.4064,-0.0508 -0.5842,-0.1778 -0.1778,-0.1524 -0.1778,-0.3302 0,-0.1524 0.1778,-0.2286 0.2032,-0.1016 0.4826,-0.1016 0.7366,0 1.143,0.0254 0.406402,0.0254 0.762002,0.0508 0.381,0 0.9398,0 0.508,0 0.9144,-0.0254 0.4064,-0.0508 0.9144,-0.0762 0.508,-0.0508 1.2954,-0.0508 2.8448,0 4.3434,1.0414 1.524,1.016 1.524,3.0988 0,1.143 -0.4826,1.9558 -0.4572,0.8128 -1.1684,1.3462 -0.7112,0.5334 -1.4224,0.8382 -0.1016,0.0254 -0.1016,0.127 0.0254,0.0762 0.0762,0.2032 0.7874,1.1684 1.4986,2.2352 0.7366,1.0414 1.5494,2.032 0.8382,0.9652 1.905,1.9558 0.7112,0.6604 1.4732,0.7874 0.7874,0.127 1.6764,0.127 0.381,0 0.381,0.3556 0,0.4318 -0.4064,0.6604 -0.381,0.254 -0.9398,0.3556 -0.5588,0.1016 -1.0668,0.1016 z m -9.271,-9.017 q 1.0922,0 1.8542,-0.4826 0.7874,-0.508 1.1938,-1.3208 0.4318,-0.8382 0.4318,-1.8034 0,-1.0922 -0.2794,-1.9304 -0.2794,-0.8382 -1.016,-1.2954 -0.7366,-0.4826 -2.1082,-0.4826 -0.7112,0 -0.9652,0.508 -0.254,0.4826 -0.2794,1.8542 -0.0254,0.6096 -0.0508,1.6256 0,1.016 0,2.413 0,0.6096 0.3302,0.762 0.3302,0.1524 0.889,0.1524 z"
         id="path4" />
      <path
         style="font-family:'Palatino Linotype';-inkscape-font-specification:'Palatino Linotype';letter-spacing:0.79375px;fill:#000000"
         d="m 113.40506,141.68748 -0.23564,-0.35967 q 1.20303,-0.97979 2.04639,-1.48828 0.84336,-0.5209 1.56269,-0.5209 0.68213,0 1.16582,0.43408 0.48369,0.42168 1.16582,2.28203 0.69453,1.86035 1.27744,3.59668 h 0.18604 q 1.25263,-1.84795 4.08037,-6.56084 l 0.33486,-0.0868 q 0.40928,0.38448 0.86817,1.12862 -1.5875,1.68672 -5.15938,6.31279 0.5085,1.47588 1.41387,3.85713 0.91777,2.38125 1.27744,3.02617 0.35967,0.65733 0.83096,0.94258 0.48369,0.29766 1.0914,0.29766 0.44649,0 0.88057,-0.16123 0.43408,-0.14883 1.55029,-1.06661 l 0.0992,0.5209 q -2.08359,2.40606 -3.86953,2.40606 -0.66973,0 -1.12861,-0.28526 -0.44649,-0.28525 -0.74414,-0.70693 -0.28526,-0.42168 -0.5333,-0.95498 -0.24805,-0.5333 -0.90538,-2.43086 l -1.14101,-3.21221 h -0.14883 q -1.02939,1.82315 -2.29443,4.41524 -1.25264,2.60449 -1.52549,3.28662 l -0.28525,0.18603 q -0.75655,-0.40927 -1.20303,-1.04179 0.32246,-0.48369 1.67431,-2.53008 l 2.19522,-3.29903 q 0.83096,-1.26503 1.21543,-1.93476 -0.60772,-1.79834 -1.26504,-3.49746 -0.65732,-1.71152 -0.97979,-2.31924 -0.31005,-0.60771 -0.69453,-0.85576 -0.37207,-0.24805 -0.78134,-0.24805 -0.44649,0 -0.88057,0.19844 -0.43408,0.18603 -1.14102,0.66973 z"
         id="path5" />
      <path
         style="font-size:21.8722px;font-family:'Coconat Demi';-inkscape-font-specification:'Coconat Demi, Normal';font-variant-caps:small-caps;letter-spacing:0.529167px;fill:#000000"
         d="m 129.09814,150.59248 q 0.28434,-1.00613 0.32808,-5.05248 l 0.0219,-2.42782 q 0,-0.69991 -0.13123,-1.3342 -0.13123,-0.63429 -0.26247,-0.91863 -0.10936,-0.28434 -0.17498,-0.32809 l 3.06211,-1.31233 -0.0219,6.32107 q -0.0219,3.32457 0.32808,5.05248 z m 2.60279,-13.49515 q -0.45932,0.37183 -1.13736,0.37183 -0.67803,0 -1.15922,-0.3937 -0.45932,-0.3937 -0.45932,-0.94051 0,-0.5468 0.45932,-0.9405 0.48119,-0.3937 1.15922,-0.3937 0.67804,0 1.13736,0.3937 0.45931,0.37182 0.45931,0.9405 0,0.56868 -0.45931,0.96238 z"
         id="path6" />
      <path
         style="font-size:21.8722px;font-family:'Coconat Demi';-inkscape-font-specification:'Coconat Demi, Normal';font-variant-caps:small-caps;fill:#000000"
         d="m 142.26822,150.52435 -1.26859,0.17498 -5.1181,-8.94573 q -0.61242,-1.09361 -1.55292,-2.3622 h 3.65266 q 0.26246,1.04986 0.87488,2.31845 l 3.47768,6.27732 2.90901,-5.68677 q 0.56867,-1.31233 0.91863,-2.909 h 2.1216 q -0.98425,1.50918 -1.68416,2.86526 z"
         id="path7" />
    </g>
  </g>
</svg>
