<?xml version="1.0" encoding="UTF-8" standalone="no"?>
<!-- Created with Inkscape (http://www.inkscape.org/) -->

<svg
   width="85.862343mm"
   height="23.656109mm"
   viewBox="0 0 85.862343 23.656109"
   version="1.1"
   id="svg1"
   xmlns="http://www.w3.org/2000/svg"
   xmlns:svg="http://www.w3.org/2000/svg">
  <desc property="dc:creator">Michael Koksharov: https://github.com/LuciferaseMaster/PrePrint-Template-for-AnyRxiv/tree/master/preprint_logos</desc>
  <defs
     id="defs1" />
  <g
     id="layer1"
     transform="translate(-110.97684,-53.445821)">
    <g
       id="text3"
       style="font-size:25.4px;line-height:10.0542px;font-family:'EB Garamond';-inkscape-font-specification:'EB Garamond';text-align:center;letter-spacing:0.232833px;text-anchor:middle;fill:#bd2736;stroke-width:0.365125"
       aria-label="bioRχiv">
      <path
         style="font-weight:500;font-size:26.4583px;-inkscape-font-specification:'EB Garamond, Medium';letter-spacing:0px;fill:#000000"
         d="m 117.56495,72.469339 q -0.66145,0 -1.26999,-0.132292 -0.60855,-0.105833 -1.13771,-0.238124 -0.50271,-0.132292 -0.89958,-0.238125 -0.39688,-0.132291 -0.55563,-0.132291 -0.21166,0 -0.39687,0.105833 -0.15875,0.105833 -0.3175,0.238124 -0.18521,0.15875 -0.29104,0.15875 -0.15875,0 -0.29104,-0.105833 -0.1323,-0.105833 -0.1323,-0.238125 0,-0.238124 0.10584,-0.846665 0.13229,-0.608541 0.13229,-1.296457 l -0.0529,-12.461859 q 0,-0.687916 -0.29104,-1.190624 -0.29104,-0.529166 -0.84666,-0.740832 -0.1323,-0.05292 -0.23813,-0.132291 -0.10583,-0.105834 -0.10583,-0.264583 0,-0.132292 0.0794,-0.211667 0.10584,-0.07937 0.23813,-0.105833 0.42333,-0.07937 1.08479,-0.291041 0.66145,-0.238125 1.24354,-0.47625 0.60854,-0.238124 0.87312,-0.343958 0.18521,-0.07937 0.26458,-0.07937 0.10584,0 0.15875,0.07937 0.0529,0.05292 0.0529,0.15875 0,0.132292 -0.0529,0.820207 -0.0265,0.661458 -0.0265,1.56104 l -0.0265,5.503326 q 0,0.449792 0.0529,0.635 0.0794,0.185208 0.18521,0.185208 0.82021,-0.634999 1.82562,-1.005416 1.03188,-0.396874 1.87854,-0.396874 1.34938,0 2.43417,0.687916 1.08479,0.687915 1.71979,1.904997 0.66145,1.190624 0.66145,2.698747 0,1.825622 -0.76729,3.227912 -0.76729,1.40229 -2.14312,2.196039 -1.34937,0.767291 -3.14854,0.767291 z m 0.55563,-0.926041 q 0.89958,0 1.53458,-0.60854 0.66146,-0.635 1.00541,-1.693332 0.37042,-1.058332 0.37042,-2.32833 0,-1.058332 -0.34396,-2.143122 -0.34395,-1.084791 -1.08479,-1.799165 -0.74083,-0.740832 -1.87854,-0.740832 -0.84666,0 -1.58749,0.264583 -0.74084,0.264583 -1.27,0.714374 v 5.318118 q 0,0.899582 0.44979,1.587498 0.47625,0.687916 1.21708,1.058332 0.76729,0.370416 1.5875,0.370416 z"
         id="path10" />
      <path
         style="font-weight:500;font-size:26.4583px;-inkscape-font-specification:'EB Garamond, Medium';letter-spacing:0.806979px;fill:#000000"
         d="m 125.55535,72.178298 q -0.21167,0 -0.37042,-0.07937 -0.13229,-0.07937 -0.13229,-0.238125 0,-0.211666 0.15875,-0.291041 0.18521,-0.105833 0.39688,-0.15875 0.60854,-0.15875 0.89958,-0.343958 0.29104,-0.185208 0.29104,-0.661457 v -5.714993 q 0,-0.793749 -0.26458,-1.269999 -0.26459,-0.502707 -0.92604,-0.60854 -0.13229,-0.02646 -0.21167,-0.105834 -0.0529,-0.105833 -0.0529,-0.291041 0,-0.3175 0.23813,-0.343958 1.16416,-0.264583 1.98437,-0.687916 0.84667,-0.449791 1.27,-0.714374 0.29104,-0.185208 0.42333,-0.185208 0.21167,0 0.21167,0.211667 0,0.291041 -0.0794,0.92604 -0.0529,0.634999 -0.13229,1.375832 -0.0529,0.740832 -0.0529,1.375831 v 6.032493 q 0,0.423332 0.29104,0.634999 0.29104,0.211666 0.89958,0.370416 0.21167,0.05292 0.37042,0.15875 0.1852,0.07937 0.1852,0.291041 0,0.3175 -0.47625,0.3175 -0.5027,0 -0.89958,-0.05292 -0.39687,-0.02646 -0.76729,-0.05292 -0.34396,-0.02646 -0.82021,-0.02646 -0.44979,0 -0.8202,0.02646 -0.37042,0.02646 -0.74084,0.05292 -0.34395,0.05292 -0.87312,0.05292 z m 2.38125,-13.520191 q -0.66146,0 -1.13771,-0.449792 -0.44979,-0.476249 -0.44979,-1.137706 0,-0.687916 0.44979,-1.137707 0.47625,-0.47625 1.13771,-0.47625 0.68791,0 1.16416,0.47625 0.47625,0.449791 0.47625,1.137707 0,0.661457 -0.47625,1.137706 -0.47625,0.449792 -1.16416,0.449792 z"
         id="path11" />
      <path
         style="font-weight:500;font-size:28.2222px;-inkscape-font-specification:'EB Garamond, Medium';letter-spacing:0px;fill:#000000"
         d="m 138.84184,72.144034 q -1.60866,0 -2.93511,-0.733778 -1.29822,-0.761999 -2.06022,-2.06022 -0.762,-1.298222 -0.762,-2.963331 0,-1.241777 0.47978,-2.398887 0.47978,-1.157111 1.35467,-2.088443 0.87489,-0.931333 2.032,-1.467555 1.15711,-0.564444 2.48355,-0.564444 1.66511,0 3.01978,0.818444 1.35466,0.790222 2.14488,2.088443 0.79022,1.298221 0.79022,2.850442 0,1.693332 -0.73377,3.189109 -0.73378,1.495777 -2.20133,2.427109 -1.43934,0.903111 -3.61245,0.903111 z m 0.59267,-0.987777 q 0.81844,0 1.46755,-0.310445 0.64912,-0.338666 1.016,-1.015999 0.33867,-0.649111 0.45156,-1.580443 0.14111,-0.959555 0.14111,-1.947332 0,-1.41111 -0.45156,-2.652887 -0.45155,-1.241777 -1.24177,-2.003776 -0.79022,-0.761999 -1.86267,-0.761999 -0.64911,0 -1.18533,0.225777 -0.508,0.197556 -0.93133,0.705555 -0.53622,0.649111 -0.70556,1.693332 -0.16933,1.015999 -0.16933,2.229554 0,1.354666 0.45155,2.596442 0.45156,1.241777 1.21356,2.031999 0.79022,0.790222 1.80622,0.790222 z"
         id="path12" />
      <path
         style="font-weight:500;-inkscape-font-specification:'EB Garamond, Medium';letter-spacing:-3.175px"
         d="m 162.52026,72.632323 q -0.9144,0 -1.651,-0.2032 -0.7112,-0.1778 -1.2954,-0.5588 -0.5588,-0.381 -1.016,-0.9398 -0.5842,-0.762 -1.143,-1.4732 -0.5334,-0.7112 -1.1176,-1.6002 -0.5842,-0.9144 -1.3716,-2.2098 -0.3302,-0.635 -0.9398,-0.9398 -0.4318,-0.2286 -0.889,-0.3048 -0.4318,-0.1016 -0.7112,-0.127 -0.1778,0 -0.2794,0.1524 -0.0762,0.127 -0.0762,0.3556 v 4.5974 q 0,0.8128 0.4064,1.3462 0.4064,0.508 1.397,0.6858 0.3556,0.0762 0.5334,0.1778 0.2032,0.1016 0.2032,0.3048 0,0.1524 -0.1778,0.2286 -0.1778,0.0762 -0.4826,0.0762 -0.635,0 -1.143,-0.0508 -0.4826,-0.0254 -0.9398,-0.0508 -0.4318,-0.0508 -0.9144,-0.0508 -0.6096,0 -1.1684,0.0508 -0.5334,0.0254 -1.0922,0.0508 -0.5334,0.0508 -1.1938,0.0508 -0.2794,0 -0.4826,-0.0762 -0.1778,-0.0508 -0.1778,-0.2286 0,-0.3302 0.7366,-0.4826 0.9652,-0.1778 1.3716,-0.5588 0.4318,-0.381 0.4318,-1.27 v -11.0236 q 0,-0.8636 -0.1016,-1.2954 -0.1016,-0.4572 -0.4318,-0.635 -0.3048,-0.2032 -0.9906,-0.3048 -0.4064,-0.0508 -0.5842,-0.1778 -0.1778,-0.1524 -0.1778,-0.3302 0,-0.1524 0.1778,-0.2286 0.2032,-0.1016 0.4826,-0.1016 0.7366,0 1.143,0.0254 0.4064,0.0254 0.762,0.0508 0.381,0 0.9398,0 0.508,0 0.9144,-0.0254 0.4064,-0.0508 0.9144,-0.0762 0.508,-0.0508 1.2954,-0.0508 2.8448,0 4.3434,1.0414 1.524,1.016 1.524,3.0988 0,1.143 -0.4826,1.9558 -0.4572,0.8128 -1.1684,1.3462 -0.7112,0.5334 -1.4224,0.8382 -0.1016,0.0254 -0.1016,0.127 0.0254,0.0762 0.0762,0.2032 0.7874,1.1684 1.4986,2.2352 0.7366,1.0414 1.5494,2.032 0.8382,0.9652 1.905,1.9558 0.7112,0.6604 1.4732,0.7874 0.7874,0.127 1.6764,0.127 0.381,0 0.381,0.3556 0,0.4318 -0.4064,0.6604 -0.381,0.254 -0.9398,0.3556 -0.5588,0.1016 -1.0668,0.1016 z m -9.271,-9.017 q 1.0922,0 1.8542,-0.4826 0.7874,-0.508 1.1938,-1.3208 0.4318,-0.8382 0.4318,-1.8034 0,-1.0922 -0.2794,-1.9304 -0.2794,-0.8382 -1.016,-1.2954 -0.7366,-0.4826 -2.1082,-0.4826 -0.7112,0 -0.9652,0.508 -0.254,0.4826 -0.2794,1.8542 -0.0254,0.6096 -0.0508,1.6256 0,1.016 0,2.413 0,0.6096 0.3302,0.762 0.3302,0.1524 0.889,0.1524 z"
         id="path13" />
      <path
         style="font-family:'Palatino Linotype';-inkscape-font-specification:'Palatino Linotype';letter-spacing:0.119062px;fill:#000000"
         d="m 162.56142,62.243923 -0.23564,-0.359668 q 1.20303,-0.979785 2.04639,-1.488281 0.84336,-0.520899 1.56269,-0.520899 0.68213,0 1.16582,0.434082 0.48369,0.42168 1.16582,2.282031 0.69453,1.860352 1.27744,3.59668 h 0.18604 q 1.25264,-1.847949 4.08037,-6.56084 l 0.33486,-0.08682 q 0.40928,0.384473 0.86817,1.128613 -1.5875,1.686719 -5.15938,6.312793 0.5085,1.475879 1.41387,3.857129 0.91777,2.38125 1.27744,3.026172 0.35967,0.657324 0.83096,0.942578 0.48369,0.297656 1.0914,0.297656 0.44649,0 0.88057,-0.16123 0.43408,-0.148828 1.55029,-1.066602 l 0.0992,0.520899 q -2.08359,2.406054 -3.86953,2.406054 -0.66973,0 -1.12861,-0.285254 -0.44649,-0.285254 -0.74414,-0.706933 -0.28526,-0.42168 -0.5333,-0.954981 -0.24805,-0.533301 -0.90538,-2.430859 l -1.14101,-3.212207 h -0.14883 q -1.02939,1.823144 -2.29443,4.415234 -1.25264,2.604492 -1.52549,3.286621 l -0.28525,0.186035 q -0.75655,-0.409277 -1.20303,-1.041796 0.32246,-0.483692 1.67431,-2.530078 l 2.19522,-3.299024 q 0.83096,-1.265039 1.21543,-1.934765 -0.60772,-1.79834 -1.26504,-3.497461 -0.65732,-1.711524 -0.97979,-2.319239 -0.31005,-0.607714 -0.69453,-0.855761 -0.37207,-0.248047 -0.78134,-0.248047 -0.44649,0 -0.88057,0.198437 -0.43408,0.186035 -1.14102,0.669727 z"
         id="path14" />
      <path
         style="font-weight:500;font-size:26.4583px;-inkscape-font-specification:'EB Garamond, Medium';letter-spacing:0.529167px;fill:#000000"
         d="m 177.37873,72.008298 q -0.21167,0 -0.37042,-0.07937 -0.13229,-0.07937 -0.13229,-0.238125 0,-0.211666 0.15875,-0.291041 0.18521,-0.105833 0.39687,-0.15875 0.60854,-0.15875 0.89959,-0.343958 0.29104,-0.185208 0.29104,-0.661457 v -5.714993 q 0,-0.793749 -0.26459,-1.269999 -0.26458,-0.502707 -0.92604,-0.60854 -0.13229,-0.02646 -0.21166,-0.105834 -0.0529,-0.105833 -0.0529,-0.291041 0,-0.3175 0.23813,-0.343958 1.16416,-0.264583 1.98437,-0.687916 0.84666,-0.449791 1.27,-0.714374 0.29104,-0.185208 0.42333,-0.185208 0.21167,0 0.21167,0.211667 0,0.291041 -0.0794,0.92604 -0.0529,0.634999 -0.13229,1.375832 -0.0529,0.740832 -0.0529,1.375831 v 6.032493 q 0,0.423332 0.29104,0.634999 0.29105,0.211666 0.89959,0.370416 0.21166,0.05292 0.37041,0.15875 0.18521,0.07938 0.18521,0.291041 0,0.3175 -0.47625,0.3175 -0.50271,0 -0.89958,-0.05292 -0.39688,-0.02646 -0.76729,-0.05292 -0.34396,-0.02646 -0.82021,-0.02646 -0.44979,0 -0.82021,0.02646 -0.37041,0.02646 -0.74083,0.05292 -0.34396,0.05292 -0.87312,0.05292 z m 2.38124,-13.520192 q -0.66145,0 -1.1377,-0.449791 -0.44979,-0.476249 -0.44979,-1.137706 0,-0.687916 0.44979,-1.137707 0.47625,-0.47625 1.1377,-0.47625 0.68792,0 1.16417,0.47625 0.47625,0.449791 0.47625,1.137707 0,0.661457 -0.47625,1.137706 -0.47625,0.449791 -1.16417,0.449791 z"
         id="path15" />
      <path
         style="font-weight:500;font-size:28.2222px;-inkscape-font-specification:'EB Garamond, Medium';fill:#000000"
         d="m 190.17874,72.431589 q -0.14111,0 -0.31044,-0.423333 -0.16933,-0.395111 -0.28222,-0.705555 -0.19756,-0.479777 -0.42334,-1.044221 -0.19755,-0.564444 -0.36688,-1.044222 -0.64912,-1.721554 -1.38289,-3.358442 -0.73378,-1.636887 -1.43933,-3.330219 -0.22578,-0.564444 -0.62089,-0.959555 -0.36689,-0.423333 -0.81845,-0.564444 -0.254,-0.112889 -0.39511,-0.197556 -0.11289,-0.112888 -0.11289,-0.310444 0,-0.197555 0.22578,-0.225777 0.22578,-0.05644 0.36689,-0.05644 0.62089,0 0.90311,0.02822 0.31044,0.02822 0.59267,0.08467 0.31044,0.02822 0.81844,0.02822 0.56444,0 0.87489,-0.02822 0.33866,-0.05644 0.67733,-0.08467 0.36689,-0.02822 0.95956,-0.02822 0.14111,0 0.36688,0.05644 0.22578,0.05644 0.22578,0.225777 0,0.225778 -0.19755,0.338667 -0.19756,0.08467 -0.45156,0.197555 -0.28222,0.112889 -0.45155,0.423333 -0.14111,0.310444 -0.14111,0.733777 0,0.225778 0,0.451555 0.0282,0.197556 0.11288,0.366889 l 2.11667,5.475107 q 0.0282,0.02822 0.0282,0.02822 0.0282,0 0.0565,-0.02822 l 1.97555,-5.136441 q 0.11289,-0.253999 0.14111,-0.536221 0.0564,-0.310445 0.0564,-0.536222 0,-0.536222 -0.19756,-0.818444 -0.16933,-0.282222 -0.59267,-0.423333 -0.33866,-0.112889 -0.508,-0.197555 -0.14111,-0.112889 -0.14111,-0.310445 0,-0.197555 0.19756,-0.253999 0.19755,-0.05644 0.39511,-0.05644 0.47978,0.02822 0.93133,0.08467 0.47978,0.02822 1.10067,0.02822 0.62089,0 0.93133,-0.02822 0.31044,-0.05644 0.81844,-0.08467 0.22578,0 0.42334,0.05644 0.19755,0.05644 0.19755,0.225777 0,0.338667 -0.62089,0.536222 -0.45155,0.141111 -0.93133,0.649111 -0.47978,0.507999 -0.762,1.213554 l -2.20133,5.390441 q -0.0847,0.141111 -0.254,0.536221 -0.14111,0.366889 -0.31044,0.818444 -0.16934,0.423333 -0.31045,0.762 -0.11289,0.338666 -0.14111,0.39511 -0.0564,0.08467 -0.19755,0.423333 -0.14112,0.310445 -0.31045,0.649111 -0.14111,0.366889 -0.28222,0.564444 z"
         id="path16" />
    </g>
  </g>
</svg>
