<?xml version="1.0" encoding="UTF-8" standalone="no"?>
<!-- Created with Inkscape (http://www.inkscape.org/) -->

<svg
   width="85.951904mm"
   height="22.4886mm"
   viewBox="0 0 85.951905 22.4886"
   version="1.1"
   id="svg1"
   xmlns="http://www.w3.org/2000/svg"
   xmlns:svg="http://www.w3.org/2000/svg">
  <desc property="dc:creator">Michael Koksharov: https://github.com/LuciferaseMaster/PrePrint-Template-for-AnyRxiv/tree/master/preprint_logos</desc>
  <defs
     id="defs1" />
  <g
     id="layer1"
     transform="translate(-62.568198,-133.61459)">
    <g
       id="text3"
       style="font-size:25.4px;line-height:9.78958px;font-family:'EB Garamond';-inkscape-font-specification:'EB Garamond';letter-spacing:0.232833px;fill:#bd2736;stroke-width:0.365"
       aria-label="bioRχiv">
      <path
         style="font-weight:500;letter-spacing:0.796396px;fill:#000000;stroke:#000000"
         d="m 62.750698,134.20349 h 1.5748 q 1.2446,0 1.6002,-0.4064 h 0.0762 v 15.367 q 1.1684,0.3048 2.1082,0.3048 2.0574,0 3.2258,-1.1938 1.1684,-1.1938 1.1684,-3.1242 0,-1.9304 -0.9906,-3.1496 -0.9652,-1.2192 -2.8194,-1.2192 -1.0668,0 -2.1336,0.5588 l 1.3716,-2.159 q 0.8128,-0.2794 1.8034,-0.2794 2.2352,0 3.7846,1.6256 1.5494,1.6256 1.5494,4.1656 0,2.9972 -2.032,4.7752 -2.032,1.778 -5.4864,1.778 -1.4224,0 -4.6228,-0.4572 v -0.0762 q 0.127,-0.0508 0.2286,-0.127 0.1016,-0.0762 0.1778,-0.127 0.0762,-0.0762 0.127,-0.1778 0.0508,-0.127 0.0762,-0.1778 0.0508,-0.0762 0.0762,-0.2286 0.0254,-0.1524 0.0254,-0.2032 0.0254,-0.0762 0.0254,-0.254 0.0254,-0.1778 0.0254,-0.2286 0,-0.0508 0,-0.254 0,-0.2032 0,-0.254 v -11.684 q 0,-0.1016 0,-0.4572 0,-0.381 0,-0.4826 0,-0.127 -0.0254,-0.4064 -0.0254,-0.2794 -0.1016,-0.4064 -0.0508,-0.127 -0.1524,-0.3302 -0.1016,-0.2032 -0.2794,-0.3556 -0.1524,-0.1524 -0.381,-0.2794 z"
         id="path10" />
      <path
         style="font-weight:500;letter-spacing:1.06098px;fill:#000000;stroke:#000000"
         d="m 77.263118,139.23269 h 1.5494 q 1.1938,0 1.651,-0.4064 h 0.0762 v 9.271 q 0,0.127 0,0.4318 0,0.2794 0,0.4064 0,0.127 0,0.381 0.0254,0.2286 0.0508,0.3556 0.0508,0.127 0.1016,0.3302 0.0762,0.1778 0.1778,0.3048 0.127,0.127 0.2794,0.2794 0.1524,0.127 0.3556,0.254 v 0.0762 h -4.2418 v -0.0762 q 0.2286,-0.127 0.4064,-0.2794 0.1778,-0.1524 0.2794,-0.3556 0.1016,-0.2032 0.1524,-0.3302 0.0762,-0.127 0.1016,-0.4064 0.0254,-0.3048 0.0254,-0.4064 0,-0.1016 0,-0.4826 0,-0.381 0,-0.4826 v -6.0706 q 0,-0.1016 0,-0.4572 0,-0.381 0,-0.4826 0,-0.127 -0.0254,-0.4064 -0.0254,-0.3048 -0.1016,-0.4064 -0.0508,-0.127 -0.1524,-0.3302 -0.1016,-0.2286 -0.2794,-0.3556 -0.1778,-0.1524 -0.4064,-0.2794 z m 3.0988,-4.2164 q 0.4572,0.4572 0.4572,1.0922 0,0.635 -0.4572,1.1176 -0.4318,0.4826 -1.0668,0.4826 -0.7112,0 -1.1938,-0.4826 -0.4572,-0.4826 -0.4572,-1.1938 0,-0.635 0.4826,-1.0668 0.508,-0.4318 1.1684,-0.4318 0.635,0 1.0668,0.4826 z m 10.230374,15.8806 q -2.667,0 -4.5466,-1.7018 -1.8796,-1.7272 -1.8796,-4.3688 0,-2.794 1.9558,-4.5212 1.9558,-1.7526 4.7752,-1.7526 2.54,0 4.2418,1.4986 2.0828,1.8288 2.0828,4.5466 0,2.6924 -1.9558,4.4958 -1.9304,1.8034 -4.6736,1.8034 z m 0.127,-1.6764 q 1.7272,0 2.8194,-1.1684 1.1176,-1.1938 1.1176,-2.921 0,-2.0066 -1.0668,-3.4544 -1.0414,-1.4478 -2.9718,-1.4478 -1.7272,0 -2.8194,1.1938 -1.0668,1.1938 -1.0668,2.9464 0,1.905 1.0668,3.3782 1.0922,1.4732 2.921,1.4732 z"
         id="path11" />
      <path
         style="font-weight:500;letter-spacing:0.661458px;stroke:#bd2736"
         d="m 99.857459,134.20349 h 6.045201 q 2.4892,0 3.8608,1.143 1.397,1.143 1.397,2.9464 0,1.6002 -1.1938,2.8448 -1.1938,1.2446 -2.8448,1.6256 l 3.6576,4.5974 q 1.5748,1.9558 4.1148,3.556 h -2.3368 q -1.905,0 -2.9464,-1.27 l -3.0988,-3.8354 -2.3368,-3.5814 q 1.8288,-0.2794 3.0988,-1.143 1.2954,-0.8636 1.2954,-2.4892 0,-1.3208 -0.9652,-2.0828 -0.9652,-0.7874 -2.3114,-0.7366 -0.7366,0.0254 -1.7272,0.2032 v 11.3792 q 0,0.0762 0,0.4572 0,0.381 0,0.5334 0,0.127 0.0254,0.508 0.0254,0.3556 0.0508,0.5334 0.0508,0.1524 0.127,0.4572 0.1016,0.2794 0.2032,0.4318 0.127,0.1524 0.3048,0.3302 0.2032,0.1524 0.4318,0.2286 v 0.0762 h -4.851401 v -0.0762 q 0.279401,-0.1016 0.457201,-0.254 0.2032,-0.1778 0.3302,-0.4572 0.127,-0.2794 0.2032,-0.4826 0.0762,-0.2032 0.1016,-0.5842 0.0254,-0.4064 0.0254,-0.5588 0.0254,-0.1778 0,-0.6096 0,-0.4572 0,-0.5334 v -9.5758 q 0,-0.0762 0,-0.508 0.0254,-0.4572 0,-0.6096 0,-0.1778 -0.0254,-0.5842 -0.0254,-0.4064 -0.1016,-0.6096 -0.0762,-0.2032 -0.2032,-0.4826 -0.127,-0.2794 -0.3302,-0.4318 -0.1778,-0.1778 -0.457201,-0.2794 z"
         id="path12" />
      <path
         style="letter-spacing:1.06098px;fill:#000000;stroke:#000000"
         d="m 121.55014,147.25929 2.0574,5.08 q 0.6604,1.651 1.0922,2.1336 0.4318,0.4826 1.0922,0.4826 0.9144,0 0.9144,0.3302 0,0.3048 -0.5842,0.4572 -0.5588,0.1778 -1.3716,0.1778 -1.3462,0 -2.0828,-0.762 -0.7366,-0.762 -1.6764,-3.175 l -1.1938,-3.048 q -0.762,0.889 -1.143,1.397 -0.381,0.4826 -1.0922,1.5748 -0.6858,1.1176 -1.6764,2.921 -0.0508,0.1016 -0.1524,0.254 -0.0762,0.1524 -0.127,0.2286 -0.0254,0.1016 -0.1016,0.2032 -0.0762,0.127 -0.127,0.1778 -0.0508,0.0508 -0.1016,0.1016 -0.0508,0.0762 -0.127,0.1016 -0.0508,0.0254 -0.127,0.0254 -0.4826,0 -0.4826,-0.6096 0,-2.1082 4.7244,-7.493 l -1.4478,-3.556 q -0.762,-1.905 -1.2446,-2.6924 -0.4572,-0.7874 -0.8636,-1.016 -0.4064,-0.2286 -1.1938,-0.2286 -0.6096,0 -0.6096,-0.3048 0,-0.6604 2.032,-0.6604 0.7874,0 1.3462,0.2286 0.5842,0.2032 0.9906,0.7112 0.4064,0.508 0.635,0.9398 0.2286,0.4064 0.5588,1.2192 l 1.524,3.6068 0.0762,0.0254 q 1.9558,-2.2606 4.064,-6.2992 0.2286,-0.4318 0.6096,-0.4318 0.3556,0 0.3556,0.635 0,1.0668 -1.651,3.5052 -1.651,2.4384 -2.8956,3.7592 z"
         id="path13" />
      <path
         style="font-weight:500;letter-spacing:0.859896px;fill:#000000;stroke:#000000"
         d="m 129.13591,139.06269 h 1.5494 q 1.1938,0 1.651,-0.4064 h 0.0762 v 9.271 q 0,0.127 0,0.4318 0,0.2794 0,0.4064 0,0.127 0,0.381 0.0254,0.2286 0.0508,0.3556 0.0508,0.127 0.1016,0.3302 0.0762,0.1778 0.1778,0.3048 0.127,0.127 0.2794,0.2794 0.1524,0.127 0.3556,0.254 v 0.0762 h -4.2418 v -0.0762 q 0.2286,-0.127 0.4064,-0.2794 0.1778,-0.1524 0.2794,-0.3556 0.1016,-0.2032 0.1524,-0.3302 0.0762,-0.127 0.1016,-0.4064 0.0254,-0.3048 0.0254,-0.4064 0,-0.1016 0,-0.4826 0,-0.381 0,-0.4826 v -6.0706 q 0,-0.1016 0,-0.4572 0,-0.381 0,-0.4826 0,-0.127 -0.0254,-0.4064 -0.0254,-0.3048 -0.1016,-0.4064 -0.0508,-0.127 -0.1524,-0.3302 -0.1016,-0.2286 -0.2794,-0.3556 -0.1778,-0.1524 -0.4064,-0.2794 z m 3.0988,-4.2164 q 0.4572,0.4572 0.4572,1.0922 0,0.635 -0.4572,1.1176 -0.4318,0.4826 -1.0668,0.4826 -0.7112,0 -1.1938,-0.4826 -0.4572,-0.4826 -0.4572,-1.1938 0,-0.635 0.4826,-1.0668 0.508,-0.4318 1.1684,-0.4318 0.635,0 1.0668,0.4826 z"
         id="path14" />
      <path
         style="font-weight:500;fill:#000000;stroke:#000000"
         d="m 134.46921,138.97269 h 1.3716 q 0.1016,0 0.381,0 0.2794,0 0.381,0 0.127,0 0.3556,0 0.2286,-0.0254 0.3556,-0.0508 0.1524,-0.0254 0.3048,-0.0762 0.1778,-0.0762 0.3048,-0.1778 h 0.0762 q 0.0508,0.4826 0.4064,1.27 l 3.683,8.2042 2.921,-6.2738 q 0.254,-0.5334 0.3556,-0.8382 0.127,-0.3048 0.1778,-0.7366 0.0762,-0.4318 -0.127,-0.7366 -0.2032,-0.3048 -0.6858,-0.508 v -0.0762 h 3.6068 l -5.7658,12.1412 q -1.524,-0.889 -1.9304,-1.3208 -0.4826,-0.508 -0.8382,-1.3208 l -3.0734,-6.7056 q -0.0762,-0.1524 -0.2032,-0.4318 -0.1016,-0.2794 -0.1524,-0.381 -0.0508,-0.1016 -0.1524,-0.3048 -0.1016,-0.2286 -0.1778,-0.3048 -0.0508,-0.1016 -0.1778,-0.254 -0.127,-0.1778 -0.254,-0.2794 -0.127,-0.1016 -0.2794,-0.2286 -0.1778,-0.1524 -0.381,-0.2794 -0.2286,-0.127 -0.4826,-0.254 z"
         id="path15" />
    </g>
  </g>
</svg>
