<?xml version="1.0" encoding="UTF-8" standalone="no"?>
<!-- Created with Inkscape (http://www.inkscape.org/) -->

<svg
   width="86.63588mm"
   height="29.631899mm"
   viewBox="0 0 86.63588 29.631899"
   version="1.1"
   id="svg1"
   xmlns="http://www.w3.org/2000/svg"
   xmlns:svg="http://www.w3.org/2000/svg">
  <desc property="dc:creator">Michael Koksharov: https://github.com/LuciferaseMaster/PrePrint-Template-for-AnyRxiv/tree/master/preprint_logos</desc>
  <defs
     id="defs1" />
  <g
     id="layer1"
     transform="translate(-61.912498,-133.61459)">
    <g
       id="text3"
       style="font-size:25.4px;line-height:9.78958px;font-family:'EB Garamond';-inkscape-font-specification:'EB Garamond';letter-spacing:0.232833px;fill:#bd2736;stroke-width:0.365"
       aria-label="bioRχiv&#10; the preprint server for biology">
      <path
         style="font-weight:500;letter-spacing:0.796396px;fill:#000000;stroke:#000000"
         d="m 62.750698,134.20349 h 1.5748 q 1.2446,0 1.6002,-0.4064 h 0.0762 v 15.367 q 1.1684,0.3048 2.1082,0.3048 2.0574,0 3.2258,-1.1938 1.1684,-1.1938 1.1684,-3.1242 0,-1.9304 -0.9906,-3.1496 -0.9652,-1.2192 -2.8194,-1.2192 -1.0668,0 -2.1336,0.5588 l 1.3716,-2.159 q 0.8128,-0.2794 1.8034,-0.2794 2.2352,0 3.7846,1.6256 1.5494,1.6256 1.5494,4.1656 0,2.9972 -2.032,4.7752 -2.032,1.778 -5.4864,1.778 -1.4224,0 -4.6228,-0.4572 v -0.0762 q 0.127,-0.0508 0.2286,-0.127 0.1016,-0.0762 0.1778,-0.127 0.0762,-0.0762 0.127,-0.1778 0.0508,-0.127 0.0762,-0.1778 0.0508,-0.0762 0.0762,-0.2286 0.0254,-0.1524 0.0254,-0.2032 0.0254,-0.0762 0.0254,-0.254 0.0254,-0.1778 0.0254,-0.2286 0,-0.0508 0,-0.254 0,-0.2032 0,-0.254 v -11.684 q 0,-0.1016 0,-0.4572 0,-0.381 0,-0.4826 0,-0.127 -0.0254,-0.4064 -0.0254,-0.2794 -0.1016,-0.4064 -0.0508,-0.127 -0.1524,-0.3302 -0.1016,-0.2032 -0.2794,-0.3556 -0.1524,-0.1524 -0.381,-0.2794 z"
         id="path1" />
      <path
         style="font-weight:500;letter-spacing:1.06098px;fill:#000000;stroke:#000000"
         d="m 77.263118,139.23269 h 1.5494 q 1.1938,0 1.651,-0.4064 h 0.0762 v 9.271 q 0,0.127 0,0.4318 0,0.2794 0,0.4064 0,0.127 0,0.381 0.0254,0.2286 0.0508,0.3556 0.0508,0.127 0.1016,0.3302 0.0762,0.1778 0.1778,0.3048 0.127,0.127 0.2794,0.2794 0.1524,0.127 0.3556,0.254 v 0.0762 h -4.2418 v -0.0762 q 0.2286,-0.127 0.4064,-0.2794 0.1778,-0.1524 0.2794,-0.3556 0.1016,-0.2032 0.1524,-0.3302 0.0762,-0.127 0.1016,-0.4064 0.0254,-0.3048 0.0254,-0.4064 0,-0.1016 0,-0.4826 0,-0.381 0,-0.4826 v -6.0706 q 0,-0.1016 0,-0.4572 0,-0.381 0,-0.4826 0,-0.127 -0.0254,-0.4064 -0.0254,-0.3048 -0.1016,-0.4064 -0.0508,-0.127 -0.1524,-0.3302 -0.1016,-0.2286 -0.2794,-0.3556 -0.1778,-0.1524 -0.4064,-0.2794 z m 3.0988,-4.2164 q 0.4572,0.4572 0.4572,1.0922 0,0.635 -0.4572,1.1176 -0.4318,0.4826 -1.0668,0.4826 -0.7112,0 -1.1938,-0.4826 -0.4572,-0.4826 -0.4572,-1.1938 0,-0.635 0.4826,-1.0668 0.508,-0.4318 1.1684,-0.4318 0.635,0 1.0668,0.4826 z m 10.230374,15.8806 q -2.667,0 -4.5466,-1.7018 -1.8796,-1.7272 -1.8796,-4.3688 0,-2.794 1.9558,-4.5212 1.9558,-1.7526 4.7752,-1.7526 2.54,0 4.2418,1.4986 2.0828,1.8288 2.0828,4.5466 0,2.6924 -1.9558,4.4958 -1.9304,1.8034 -4.6736,1.8034 z m 0.127,-1.6764 q 1.7272,0 2.8194,-1.1684 1.1176,-1.1938 1.1176,-2.921 0,-2.0066 -1.0668,-3.4544 -1.0414,-1.4478 -2.9718,-1.4478 -1.7272,0 -2.8194,1.1938 -1.0668,1.1938 -1.0668,2.9464 0,1.905 1.0668,3.3782 1.0922,1.4732 2.921,1.4732 z"
         id="path2" />
      <path
         style="font-weight:500;letter-spacing:0.661458px;stroke:#bd2736"
         d="m 99.857459,134.20349 h 6.045201 q 2.4892,0 3.8608,1.143 1.397,1.143 1.397,2.9464 0,1.6002 -1.1938,2.8448 -1.1938,1.2446 -2.8448,1.6256 l 3.6576,4.5974 q 1.5748,1.9558 4.1148,3.556 h -2.3368 q -1.905,0 -2.9464,-1.27 l -3.0988,-3.8354 -2.3368,-3.5814 q 1.8288,-0.2794 3.0988,-1.143 1.2954,-0.8636 1.2954,-2.4892 0,-1.3208 -0.9652,-2.0828 -0.9652,-0.7874 -2.3114,-0.7366 -0.7366,0.0254 -1.7272,0.2032 v 11.3792 q 0,0.0762 0,0.4572 0,0.381 0,0.5334 0,0.127 0.0254,0.508 0.0254,0.3556 0.0508,0.5334 0.0508,0.1524 0.127,0.4572 0.1016,0.2794 0.2032,0.4318 0.127,0.1524 0.3048,0.3302 0.2032,0.1524 0.4318,0.2286 v 0.0762 h -4.851401 v -0.0762 q 0.279401,-0.1016 0.457201,-0.254 0.2032,-0.1778 0.3302,-0.4572 0.127,-0.2794 0.2032,-0.4826 0.0762,-0.2032 0.1016,-0.5842 0.0254,-0.4064 0.0254,-0.5588 0.0254,-0.1778 0,-0.6096 0,-0.4572 0,-0.5334 v -9.5758 q 0,-0.0762 0,-0.508 0.0254,-0.4572 0,-0.6096 0,-0.1778 -0.0254,-0.5842 -0.0254,-0.4064 -0.1016,-0.6096 -0.0762,-0.2032 -0.2032,-0.4826 -0.127,-0.2794 -0.3302,-0.4318 -0.1778,-0.1778 -0.457201,-0.2794 z"
         id="path3" />
      <path
         style="letter-spacing:1.06098px;fill:#000000;stroke:#000000"
         d="m 121.55014,147.25929 2.0574,5.08 q 0.6604,1.651 1.0922,2.1336 0.4318,0.4826 1.0922,0.4826 0.9144,0 0.9144,0.3302 0,0.3048 -0.5842,0.4572 -0.5588,0.1778 -1.3716,0.1778 -1.3462,0 -2.0828,-0.762 -0.7366,-0.762 -1.6764,-3.175 l -1.1938,-3.048 q -0.762,0.889 -1.143,1.397 -0.381,0.4826 -1.0922,1.5748 -0.6858,1.1176 -1.6764,2.921 -0.0508,0.1016 -0.1524,0.254 -0.0762,0.1524 -0.127,0.2286 -0.0254,0.1016 -0.1016,0.2032 -0.0762,0.127 -0.127,0.1778 -0.0508,0.0508 -0.1016,0.1016 -0.0508,0.0762 -0.127,0.1016 -0.0508,0.0254 -0.127,0.0254 -0.4826,0 -0.4826,-0.6096 0,-2.1082 4.7244,-7.493 l -1.4478,-3.556 q -0.762,-1.905 -1.2446,-2.6924 -0.4572,-0.7874 -0.8636,-1.016 -0.4064,-0.2286 -1.1938,-0.2286 -0.6096,0 -0.6096,-0.3048 0,-0.6604 2.032,-0.6604 0.7874,0 1.3462,0.2286 0.5842,0.2032 0.9906,0.7112 0.4064,0.508 0.635,0.9398 0.2286,0.4064 0.5588,1.2192 l 1.524,3.6068 0.0762,0.0254 q 1.9558,-2.2606 4.064,-6.2992 0.2286,-0.4318 0.6096,-0.4318 0.3556,0 0.3556,0.635 0,1.0668 -1.651,3.5052 -1.651,2.4384 -2.8956,3.7592 z"
         id="path4" />
      <path
         style="font-weight:500;letter-spacing:0.859896px;fill:#000000;stroke:#000000"
         d="m 129.13591,139.06269 h 1.5494 q 1.1938,0 1.651,-0.4064 h 0.0762 v 9.271 q 0,0.127 0,0.4318 0,0.2794 0,0.4064 0,0.127 0,0.381 0.0254,0.2286 0.0508,0.3556 0.0508,0.127 0.1016,0.3302 0.0762,0.1778 0.1778,0.3048 0.127,0.127 0.2794,0.2794 0.1524,0.127 0.3556,0.254 v 0.0762 h -4.2418 v -0.0762 q 0.2286,-0.127 0.4064,-0.2794 0.1778,-0.1524 0.2794,-0.3556 0.1016,-0.2032 0.1524,-0.3302 0.0762,-0.127 0.1016,-0.4064 0.0254,-0.3048 0.0254,-0.4064 0,-0.1016 0,-0.4826 0,-0.381 0,-0.4826 v -6.0706 q 0,-0.1016 0,-0.4572 0,-0.381 0,-0.4826 0,-0.127 -0.0254,-0.4064 -0.0254,-0.3048 -0.1016,-0.4064 -0.0508,-0.127 -0.1524,-0.3302 -0.1016,-0.2286 -0.2794,-0.3556 -0.1778,-0.1524 -0.4064,-0.2794 z m 3.0988,-4.2164 q 0.4572,0.4572 0.4572,1.0922 0,0.635 -0.4572,1.1176 -0.4318,0.4826 -1.0668,0.4826 -0.7112,0 -1.1938,-0.4826 -0.4572,-0.4826 -0.4572,-1.1938 0,-0.635 0.4826,-1.0668 0.508,-0.4318 1.1684,-0.4318 0.635,0 1.0668,0.4826 z"
         id="path5" />
      <path
         style="font-weight:500;fill:#000000;stroke:#000000"
         d="m 134.46921,138.97269 h 1.3716 q 0.1016,0 0.381,0 0.2794,0 0.381,0 0.127,0 0.3556,0 0.2286,-0.0254 0.3556,-0.0508 0.1524,-0.0254 0.3048,-0.0762 0.1778,-0.0762 0.3048,-0.1778 h 0.0762 q 0.0508,0.4826 0.4064,1.27 l 3.683,8.2042 2.921,-6.2738 q 0.254,-0.5334 0.3556,-0.8382 0.127,-0.3048 0.1778,-0.7366 0.0762,-0.4318 -0.127,-0.7366 -0.2032,-0.3048 -0.6858,-0.508 v -0.0762 h 3.6068 l -5.7658,12.1412 q -1.524,-0.889 -1.9304,-1.3208 -0.4826,-0.508 -0.8382,-1.3208 l -3.0734,-6.7056 q -0.0762,-0.1524 -0.2032,-0.4318 -0.1016,-0.2794 -0.1524,-0.381 -0.0508,-0.1016 -0.1524,-0.3048 -0.1016,-0.2286 -0.1778,-0.3048 -0.0508,-0.1016 -0.1778,-0.254 -0.127,-0.1778 -0.254,-0.2794 -0.127,-0.1016 -0.2794,-0.2286 -0.1778,-0.1524 -0.381,-0.2794 -0.2286,-0.127 -0.4826,-0.254 z"
         id="path6" />
      <path
         style="font-size:5.99722px;letter-spacing:0px;fill:#000000"
         d="m 65.708741,160.6197 h -0.863599 v 2.56681 h -0.6477 v -2.56681 h -0.8636 v -0.55174 h 2.374899 z m 3.400424,2.56681 h -0.6477 v -1.31938 h -1.469319 v 1.31938 h -0.647699 v -3.11855 h 0.647699 v 1.24142 h 1.469319 v -1.24142 h 0.6477 z m 2.914642,0 h -1.835149 v -3.11855 h 1.835149 v 0.50976 h -1.187449 v 0.76165 h 1.133474 v 0.49177 h -1.133474 v 0.83961 h 1.187449 z m 4.479927,-2.12901 q 0,0.50976 -0.371828,0.81562 -0.36583,0.29986 -0.965552,0.29986 -0.119945,0 -0.275873,-0.012 v 1.02552 h -0.647699 v -3.11855 q 0.791633,-0.018 1.019527,-0.018 0.593725,0 0.917575,0.26987 0.32385,0.26388 0.32385,0.73766 z m -0.689681,0.042 q 0,-0.23989 -0.155927,-0.38382 -0.155928,-0.14393 -0.449792,-0.14393 -0.233891,0 -0.317853,0.006 v 1.05551 q 0.09596,0.024 0.275873,0.024 0.305858,0 0.47378,-0.14393 0.173919,-0.14393 0.173919,-0.41381 z m 3.784242,2.08703 h -0.79763 l -0.893586,-1.2834 h -0.02999 v 1.2834 h -0.6477 v -3.11855 q 0.341842,-0.018 1.019527,-0.018 0.563739,0 0.869597,0.2219 0.305859,0.2159 0.305859,0.6417 0,0.37183 -0.233892,0.60572 -0.227894,0.22789 -0.617714,0.28786 0.04798,0.06 0.251884,0.33585 z m -0.857602,-2.20697 q 0,-0.20991 -0.155928,-0.31786 -0.155928,-0.11394 -0.4318,-0.11394 -0.191911,0 -0.275872,0.012 v 0.89959 q 0.179916,0.012 0.299861,0.012 0.25788,0 0.407811,-0.13194 0.155928,-0.13794 0.155928,-0.35983 z m 3.418419,2.20697 h -1.83515 v -3.11855 h 1.83515 v 0.50976 h -1.18745 v 0.76165 h 1.133475 v 0.49177 h -1.133475 v 0.83961 h 1.18745 z m 3.18453,-2.12901 q 0,0.50976 -0.371827,0.81562 -0.365831,0.29986 -0.965553,0.29986 -0.119944,0 -0.275872,-0.012 v 1.02552 h -0.6477 v -3.11855 q 0.791633,-0.018 1.019528,-0.018 0.593724,0 0.917574,0.26987 0.32385,0.26388 0.32385,0.73766 z m -0.68968,0.042 q 0,-0.23989 -0.155928,-0.38382 -0.155927,-0.14393 -0.449791,-0.14393 -0.233892,0 -0.317853,0.006 v 1.05551 q 0.09596,0.024 0.275872,0.024 0.305858,0 0.473781,-0.14393 0.173919,-0.14393 0.173919,-0.41381 z m 3.784241,2.08703 h -0.797631 l -0.893585,-1.2834 H 86.717 v 1.2834 h -0.647699 v -3.11855 q 0.341841,-0.018 1.019527,-0.018 0.563739,0 0.869597,0.2219 0.305858,0.2159 0.305858,0.6417 0,0.37183 -0.233891,0.60572 -0.227895,0.22789 -0.617714,0.28786 0.04798,0.06 0.251883,0.33585 z M 87.5806,160.97954 q 0,-0.20991 -0.155928,-0.31786 -0.155927,-0.11394 -0.431799,-0.11394 -0.191911,0 -0.275873,0.012 v 0.89959 q 0.179917,0.012 0.299861,0.012 0.257881,0 0.407811,-0.13194 0.155928,-0.13794 0.155928,-0.35983 z m 2.230971,2.20697 h -0.6477 v -3.11855 h 0.6477 z m 3.946171,0 h -0.8636 L 91.82064,161.4953 q -0.167923,-0.25788 -0.317853,-0.59373 h -0.006 q 0.01799,0.25788 0.01799,0.6537 l 0.006,1.63124 H 90.89107 v -3.11855 h 0.8636 l 1.049514,1.66123 q 0.2159,0.34784 0.341841,0.61172 h 0.006 q -0.01799,-0.29387 -0.01799,-0.89959 l -0.006,-1.37336 h 0.629708 z m 2.992613,-2.56681 h -0.863599 v 2.56681 h -0.6477 v -2.56681 h -0.8636 v -0.55174 h 2.374899 z m 3.796245,1.57727 q 0,0.47378 -0.37783,0.76165 -0.371824,0.28787 -0.971546,0.28787 -0.317853,0 -0.641702,-0.078 l 0.02399,-0.58173 q 0.299861,0.11995 0.689681,0.11995 0.239889,0 0.407811,-0.10795 0.167922,-0.11395 0.167922,-0.32985 0,-0.14993 -0.143933,-0.23989 -0.137936,-0.096 -0.341842,-0.15593 -0.203905,-0.066 -0.407811,-0.14993 -0.197908,-0.084 -0.341841,-0.26387 -0.137936,-0.18592 -0.137936,-0.46779 0,-0.44979 0.335844,-0.71367 0.335844,-0.26388 0.941563,-0.26388 0.281872,0 0.593722,0.054 l -0.024,0.55174 q -0.28187,-0.0899 -0.59372,-0.0899 -0.569736,0 -0.569736,0.38982 0,0.14393 0.143933,0.23988 0.143933,0.096 0.347839,0.16193 0.203905,0.066 0.407814,0.15593 0.2039,0.084 0.34784,0.26987 0.14393,0.17992 0.14393,0.44979 z m 2.66876,0.98954 h -1.83515 v -3.11855 h 1.83515 v 0.50976 h -1.18745 v 0.76165 h 1.13347 v 0.49177 h -1.13347 v 0.83961 h 1.18745 z m 3.29248,0 h -0.79763 l -0.89359,-1.2834 h -0.03 v 1.2834 h -0.6477 v -3.11855 q 0.34184,-0.018 1.01953,-0.018 0.56373,0 0.86959,0.2219 0.30586,0.2159 0.30586,0.6417 0,0.37183 -0.23389,0.60572 -0.2279,0.22789 -0.61771,0.28786 0.048,0.06 0.25188,0.33585 z m -0.8576,-2.20697 q 0,-0.20991 -0.15593,-0.31786 -0.15593,-0.11394 -0.4318,-0.11394 -0.19191,0 -0.27587,0.012 v 0.89959 q 0.17991,0.012 0.29986,0.012 0.25788,0 0.40781,-0.13194 0.15593,-0.13794 0.15593,-0.35983 z m 4.15008,-0.91158 -1.18745,3.11855 h -0.75565 l -1.19344,-3.11855 h 0.71367 l 0.60571,1.60725 q 0.12595,0.33585 0.25789,0.81563 h 0.006 q 0.11995,-0.4438 0.25788,-0.80363 l 0.62371,-1.61925 z m 2.36291,3.11855 h -1.83515 v -3.11855 h 1.83515 v 0.50976 h -1.18745 v 0.76165 h 1.13347 v 0.49177 h -1.13347 v 0.83961 h 1.18745 z m 3.29248,0 h -0.79763 l -0.89359,-1.2834 h -0.03 v 1.2834 h -0.6477 v -3.11855 q 0.34184,-0.018 1.01952,-0.018 0.56374,0 0.8696,0.2219 0.30586,0.2159 0.30586,0.6417 0,0.37183 -0.23389,0.60572 -0.2279,0.22789 -0.61772,0.28786 0.048,0.06 0.25189,0.33585 z m -0.8576,-2.20697 q 0,-0.20991 -0.15593,-0.31786 -0.15593,-0.11394 -0.4318,-0.11394 -0.19191,0 -0.27587,0.012 v 0.89959 q 0.17991,0.012 0.29986,0.012 0.25788,0 0.40781,-0.13194 0.15593,-0.13794 0.15593,-0.35983 z m 4.70182,-0.40182 h -1.16346 v 0.80963 h 1.10349 v 0.49777 h -1.10349 v 1.30139 h -0.6477 v -3.11855 h 1.81116 z m 3.69429,1.01953 q 0,0.74965 -0.47378,1.19945 -0.46778,0.44379 -1.16346,0.44379 -0.73766,0 -1.12748,-0.4258 -0.38982,-0.4318 -0.38982,-1.15747 0,-0.74365 0.47378,-1.19344 0.47378,-0.4498 1.14547,-0.4498 0.70168,0 1.11548,0.40782 0.41981,0.40781 0.41981,1.17545 z m -0.69568,0.042 q 0,-0.50976 -0.23989,-0.78563 -0.23389,-0.27588 -0.6417,-0.27588 -0.37183,0 -0.62971,0.27588 -0.25788,0.26987 -0.25788,0.75565 0,0.47378 0.2099,0.76764 0.2159,0.29386 0.6537,0.29386 0.39582,0 0.6477,-0.26387 0.25788,-0.26988 0.25788,-0.76765 z m 3.83222,1.54728 h -0.79763 l -0.89358,-1.2834 h -0.03 v 1.2834 h -0.6477 v -3.11855 q 0.34184,-0.018 1.01953,-0.018 0.56374,0 0.8696,0.2219 0.30586,0.2159 0.30586,0.6417 0,0.37183 -0.2339,0.60572 -0.22789,0.22789 -0.61771,0.28786 0.048,0.06 0.25188,0.33585 z m -0.8576,-2.20697 q 0,-0.20991 -0.15593,-0.31786 -0.15592,-0.11394 -0.4318,-0.11394 -0.19191,0 -0.27587,0.012 v 0.89959 q 0.17992,0.012 0.29986,0.012 0.25788,0 0.40781,-0.13194 0.15593,-0.13794 0.15593,-0.35983 z m 5.21759,1.24742 q 0,0.38982 -0.30586,0.68368 -0.30586,0.28787 -1.00753,0.28787 -0.16193,0 -1.01353,-0.012 v -3.11855 q 0.13193,0 0.52775,-0.006 0.39582,-0.006 0.61771,-0.006 1.12748,0 1.12748,0.76164 0,0.23989 -0.13793,0.42581 -0.13194,0.17991 -0.37183,0.27587 v 0.006 q 0.27587,0.066 0.4198,0.25788 0.14394,0.18592 0.14394,0.4438 z m -0.73766,-1.31339 q 0,-0.40182 -0.56974,-0.40182 -0.06,0 -0.19191,0.006 -0.12594,0 -0.17992,0 v 0.85161 q 0.10196,0.006 0.24589,0.006 0.69568,0 0.69568,-0.46178 z m 0.054,1.32538 q 0,-0.44979 -0.71966,-0.44979 -0.19791,0 -0.27588,0.006 v 0.91158 q 0.11995,0.024 0.36584,0.024 0.31185,0 0.46778,-0.13194 0.16192,-0.13194 0.16192,-0.35984 z m 2.23097,0.94756 h -0.6477 v -3.11855 h 0.6477 z m 3.92819,-1.58926 q 0,0.74965 -0.47378,1.19945 -0.46778,0.44379 -1.16346,0.44379 -0.73766,0 -1.12748,-0.4258 -0.38982,-0.4318 -0.38982,-1.15747 0,-0.74365 0.47378,-1.19344 0.47378,-0.4498 1.14547,-0.4498 0.70168,0 1.11548,0.40782 0.41981,0.40781 0.41981,1.17545 z m -0.69568,0.042 q 0,-0.50976 -0.23989,-0.78563 -0.23389,-0.27588 -0.6417,-0.27588 -0.37183,0 -0.62971,0.27588 -0.25788,0.26987 -0.25788,0.75565 0,0.47378 0.2099,0.76764 0.2159,0.29386 0.6537,0.29386 0.39582,0 0.6477,-0.26387 0.25788,-0.26988 0.25788,-0.76765 z m 3.18453,1.54728 h -1.72121 v -3.11855 h 0.6477 v 2.55482 h 1.07351 z m 3.50836,-1.58926 q 0,0.74965 -0.47378,1.19945 -0.46778,0.44379 -1.16346,0.44379 -0.73765,0 -1.12747,-0.4258 -0.38982,-0.4318 -0.38982,-1.15747 0,-0.74365 0.47378,-1.19344 0.47378,-0.4498 1.14547,-0.4498 0.70167,0 1.11548,0.40782 0.4198,0.40781 0.4198,1.17545 z m -0.69567,0.042 q 0,-0.50976 -0.23989,-0.78563 -0.23389,-0.27588 -0.6417,-0.27588 -0.37183,0 -0.62971,0.27588 -0.25788,0.26987 -0.25788,0.75565 0,0.47378 0.2099,0.76764 0.2159,0.29386 0.6537,0.29386 0.39581,0 0.6477,-0.26387 0.25788,-0.26988 0.25788,-0.76765 z m 3.95816,1.38536 q -0.54575,0.2099 -1.16346,0.2099 -0.72566,0 -1.16946,-0.40181 -0.44379,-0.40182 -0.44379,-1.14547 0,-0.71967 0.46778,-1.19345 0.47378,-0.47378 1.26542,-0.47378 0.49177,0 0.97754,0.14394 l -0.11394,0.56373 q -0.4318,-0.16792 -0.85761,-0.16792 -0.45579,0 -0.75565,0.28187 -0.29386,0.28187 -0.29386,0.79163 0,0.49178 0.26987,0.76165 0.26988,0.26988 0.71367,0.26988 0.23389,0 0.45579,-0.06 v -1.04951 h 0.6477 z m 3.32246,-2.95663 -1.10349,2.07504 v 1.04351 h -0.6477 V 162.149 l -1.09149,-2.08104 h 0.71367 l 0.46178,0.89359 q 0.14993,0.29386 0.25189,0.57573 h 0.006 q 0.096,-0.23989 0.28187,-0.60572 l 0.45579,-0.8636 z"
         id="path7" />
    </g>
  </g>
</svg>
