<?xml version="1.0" encoding="UTF-8" standalone="no"?>
<!-- Created with Inkscape (http://www.inkscape.org/) -->

<svg
   width="99.818153mm"
   height="29.536163mm"
   viewBox="0 0 99.818153 29.536163"
   version="1.1"
   id="svg1"
   xmlns="http://www.w3.org/2000/svg"
   xmlns:svg="http://www.w3.org/2000/svg">
  <desc property="dc:creator">Michael Koksharov: https://github.com/LuciferaseMaster/PrePrint-Template-for-AnyRxiv/tree/master/preprint_logos</desc>
  <defs
     id="defs1" />
  <g
     id="layer1"
     transform="translate(-71.172919,-8.9958313)">
    <g
       id="text3"
       style="font-size:24.6px;line-height:10.3188px;font-family:'EB Garamond';-inkscape-font-specification:'EB Garamond';letter-spacing:0.225499px;stroke-width:0.353503"
       aria-label="medRχiv&#10;the preprint server for health sciences">
      <path
         style="font-weight:500;letter-spacing:0.79375px;stroke:#000000"
         d="m 71.652961,14.436983 h 1.5744 q 1.107,0 1.5252,-0.3198 h 0.0738 v 1.9434 q 0.6642,-1.0086 1.4514,-1.476 0.8118,-0.4674 2.0172,-0.4674 2.4846,0 3.8376,2.1402 1.5498,-2.1402 3.936,-2.1402 2.4846,0 3.444,1.3038 0.9594,1.2792 0.9594,3.813 v 3.7884 q 0,0.0738 0,0.3936 0,0.3198 0,0.4182 0,0.0984 0.0246,0.3936 0.0246,0.2706 0.0492,0.3936 0.0492,0.0984 0.123,0.3198 0.0738,0.1968 0.1968,0.3198 0.123,0.0984 0.2952,0.2214 0.1722,0.123 0.3936,0.1968 v 0.0738 h -4.2558 v -0.0738 q 0.2214,-0.123 0.3936,-0.2706 0.1722,-0.1476 0.2706,-0.3444 0.0984,-0.1968 0.1476,-0.3198 0.0738,-0.123 0.0984,-0.3936 0.0246,-0.2952 0.0246,-0.3936 0,-0.0984 0,-0.4674 0,-0.369 0,-0.4674 v -3.1734 q 0,-4.1082 -2.7552,-4.1082 -1.5744,0 -2.214,0.9348 -0.615,0.9348 -0.615,2.7798 v 3.567 q 0,0.123 0,0.4182 0,0.2706 0,0.3936 0,0.123 0,0.369 0.0246,0.2214 0.0492,0.3444 0.0492,0.123 0.0984,0.3198 0.0738,0.1722 0.1722,0.2952 0.123,0.123 0.2706,0.2706 0.1476,0.123 0.3444,0.246 v 0.0738 h -4.1082 v -0.0738 q 0.2214,-0.123 0.3936,-0.2706 0.1722,-0.1476 0.2706,-0.3444 0.0984,-0.1968 0.1476,-0.3198 0.0738,-0.123 0.0984,-0.3936 0.0246,-0.2952 0.0246,-0.3936 0,-0.0984 0,-0.4674 0,-0.369 0,-0.4674 v -3.3948 q 0,-1.845 -0.8118,-2.8536 -0.7872,-1.0332 -1.9926,-1.0332 -2.7798,0 -2.7798,3.5178 v 3.7638 q 0,0.0984 0,0.4674 0,0.3444 0,0.4674 0,0.0984 0.0246,0.3936 0.0246,0.2706 0.0738,0.3936 0.0738,0.123 0.1722,0.3198 0.0984,0.1968 0.246,0.3444 0.1722,0.1476 0.3936,0.2706 v 0.0738 h -4.0836 v -0.0738 q 0.2214,-0.123 0.3936,-0.2706 0.1722,-0.1476 0.2706,-0.3444 0.0984,-0.1968 0.1476,-0.3198 0.0738,-0.123 0.0984,-0.3936 0.0246,-0.2952 0.0246,-0.3936 0,-0.0984 0,-0.4674 0,-0.369 0,-0.4674 v -5.8794 q 0,-0.0984 0,-0.4428 0,-0.369 0,-0.4674 0,-0.123 -0.0246,-0.3936 -0.0246,-0.2952 -0.0984,-0.3936 -0.0492,-0.123 -0.1476,-0.3198 -0.0984,-0.2214 -0.2706,-0.3444 -0.1722,-0.1476 -0.3936,-0.2706 z m 33.659369,5.2644 h -9.028203 q 0.0246,2.214 1.4022,3.4932 1.3776,1.2546 3.517803,1.2546 2.3616,0 4.0344,-1.3038 h 0.0738 l -1.23,2.3124 q -1.476,0.615 -3.3948,0.615 -3.099603,0 -5.092203,-1.722 -1.968,-1.7466 -1.968,-4.3296 0,-2.583 1.6974,-4.2312 1.722,-1.6728 4.4526,-1.6728 2.484603,0 4.034403,1.599 1.5744,1.599 1.5006,3.9852 z m -8.929803,-1.4268 h 6.346803 q -0.3936,-2.5338 -3.173403,-2.5338 -1.23,0 -2.091,0.6888 -0.861,0.6888 -1.0824,1.845 z"
         id="path1" />
      <path
         style="font-weight:500;letter-spacing:1.32292px;stroke:#000000"
         d="m 115.87229,9.5661828 h 1.6728 q 1.1562,0 1.4268,-0.3936 h 0.0738 V 23.046983 q 0,0.123 0,0.4182 0,0.2706 0,0.3936 0,0.123 0,0.369 0.0246,0.2214 0.0492,0.3444 0.0492,0.123 0.0984,0.3198 0.0738,0.1722 0.1722,0.2952 0.123,0.123 0.2706,0.2706 0.1476,0.123 0.3444,0.2214 v 0.0738 h -3.1734 v -5.2644 q 0,-0.0984 0,-0.4182 0,-0.3198 0,-0.4428 0,-0.1476 -0.0246,-0.4182 0,-0.2952 -0.0246,-0.4674 -0.0246,-0.1722 -0.0738,-0.3936 -0.0246,-0.246 -0.0984,-0.4428 -0.0738,-0.1968 -0.1722,-0.3936 -0.4428,-0.861 -1.3038,-1.3038 -0.861,-0.4674 -1.8696,-0.4674 -1.476,0 -2.5338,1.1808 -1.0332,1.1808 -1.0332,2.8536 0,1.9188 1.23,3.2964 1.23,1.3776 3.1242,1.3776 0.984,0 2.1156,-0.7134 l -1.4514,2.214 q -0.4182,0.123 -1.2792,0.123 -2.7306,0 -4.4772,-1.6236 -1.7466,-1.6236 -1.7466,-4.3296 0,-2.5092 1.6482,-4.2558 1.6728,-1.7466 4.182,-1.7466 2.1648,0 3.7884,1.4268 v -3.2472 q 0,-0.0984 0,-0.4428 0,-0.369 0,-0.4674 0,-0.123 -0.0246,-0.3936 -0.0246,-0.2952 -0.0984,-0.4182 -0.0492,-0.123 -0.1476,-0.3198 -0.0984,-0.1968 -0.2706,-0.3444002 -0.1722,-0.1476 -0.3936,-0.2706 z"
         id="path2" />
      <path
         style="font-weight:500;letter-spacing:0.79375px;fill:#0e4c92;stroke:#0e4c92"
         d="m 123.14841,9.9051581 h 5.8548 q 2.4108,0 3.7392,1.1069999 1.353,1.107 1.353,2.8536 0,1.5498 -1.1562,2.7552 -1.1562,1.2054 -2.7552,1.5744 l 3.5424,4.4526 q 1.5252,1.8942 3.9852,3.444 h -2.2632 q -1.845,0 -2.8536,-1.23 l -3.0012,-3.7146 -2.2632,-3.4686 q 1.7712,-0.2706 3.0012,-1.107 1.2546,-0.8364 1.2546,-2.4108 0,-1.2792 -0.9348,-2.0172 -0.9348,-0.7626 -2.2386,-0.7134 -0.7134,0.0246 -1.6728,0.1968 v 11.0208 q 0,0.0738 0,0.4428 0,0.369 0,0.5166 0,0.123 0.0246,0.492 0.0246,0.3444 0.0492,0.5166 0.0492,0.1476 0.123,0.4428 0.0984,0.2706 0.1968,0.4182 0.123,0.1476 0.2952,0.3198 0.1968,0.1476 0.4182,0.2214 v 0.0738 h -4.6986 v -0.0738 q 0.2706,-0.0984 0.4428,-0.246 0.1968,-0.1722 0.3198,-0.4428 0.123,-0.2706 0.1968,-0.4674 0.0738,-0.1968 0.0984,-0.5658 0.0246,-0.3936 0.0246,-0.5412 0.0246,-0.1722 0,-0.5904 0,-0.4428 0,-0.5166 v -9.2742 q 0,-0.0738 0,-0.492 0.0246,-0.4428 0,-0.5904 0,-0.1722 -0.0246,-0.5658 -0.0246,-0.3936 -0.0984,-0.5904 -0.0738,-0.1968 -0.1968,-0.4674 -0.123,-0.2706 -0.3198,-0.4182 -0.1722,-0.1722 -0.4428,-0.2705999 z"
         id="path3" />
      <path
         style="letter-spacing:1.32292px;stroke:#000000"
         d="m 144.31098,22.549753 1.9926,4.92 q 0.6396,1.599 1.0578,2.0664 0.4182,0.4674 1.0578,0.4674 0.8856,0 0.8856,0.3198 0,0.2952 -0.5658,0.4428 -0.5412,0.1722 -1.3284,0.1722 -1.3038,0 -2.0172,-0.738 -0.7134,-0.738 -1.6236,-3.075 l -1.1562,-2.952 q -0.738,0.861 -1.107,1.353 -0.369,0.4674 -1.0578,1.5252 -0.6642,1.0824 -1.6236,2.829 -0.0492,0.0984 -0.1476,0.246 -0.0738,0.1476 -0.123,0.2214 -0.0246,0.0984 -0.0984,0.1968 -0.0738,0.123 -0.123,0.1722 -0.0492,0.0492 -0.0984,0.0984 -0.0492,0.0738 -0.123,0.0984 -0.0492,0.0246 -0.123,0.0246 -0.4674,0 -0.4674,-0.5904 0,-2.0418 4.5756,-7.257 l -1.4022,-3.444 q -0.738,-1.845 -1.2054,-2.6076 -0.4428,-0.7626 -0.8364,-0.984 -0.3936,-0.2214 -1.1562,-0.2214 -0.5904,0 -0.5904,-0.2952 0,-0.6396 1.968,-0.6396 0.7626,0 1.3038,0.2214 0.5658,0.1968 0.9594,0.6888 0.3936,0.492 0.615,0.9102 0.2214,0.3936 0.5412,1.1808 l 1.476,3.4932 0.0738,0.0246 q 1.8942,-2.1894 3.936,-6.1008 0.2214,-0.4182 0.5904,-0.4182 0.3444,0 0.3444,0.615 0,1.0332 -1.599,3.3948 -1.599,2.3616 -2.8044,3.6408 z"
         id="path4" />
      <path
         style="font-weight:500;letter-spacing:1.05833px;stroke:#000000"
         d="m 151.95319,14.611313 h 1.5006 q 1.1562,0 1.599,-0.3936 h 0.0738 v 8.979 q 0,0.123 0,0.4182 0,0.2706 0,0.3936 0,0.123 0,0.369 0.0246,0.2214 0.0492,0.3444 0.0492,0.123 0.0984,0.3198 0.0738,0.1722 0.1722,0.2952 0.123,0.123 0.2706,0.2706 0.1476,0.123 0.3444,0.246 v 0.0738 h -4.1082 v -0.0738 q 0.2214,-0.123 0.3936,-0.2706 0.1722,-0.1476 0.2706,-0.3444 0.0984,-0.1968 0.1476,-0.3198 0.0738,-0.123 0.0984,-0.3936 0.0246,-0.2952 0.0246,-0.3936 0,-0.0984 0,-0.4674 0,-0.369 0,-0.4674 v -5.8794 q 0,-0.0984 0,-0.4428 0,-0.369 0,-0.4674 0,-0.123 -0.0246,-0.3936 -0.0246,-0.2952 -0.0984,-0.3936 -0.0492,-0.123 -0.1476,-0.3198 -0.0984,-0.2214 -0.2706,-0.3444 -0.1722,-0.1476 -0.3936,-0.2706 z m 3.0012,-4.0836 q 0.4428,0.4428 0.4428,1.0578 0,0.615 -0.4428,1.0824 -0.4182,0.4674 -1.0332,0.4674 -0.6888,0 -1.1562,-0.4674 -0.4428,-0.4674 -0.4428,-1.1562 0,-0.615 0.4674,-1.0332 0.492,-0.4182 1.1316,-0.4182 0.615,0 1.0332,0.4674 z"
         id="path5" />
      <path
         style="font-weight:500;stroke:#000000"
         d="m 157.34401,14.524148 h 1.3284 q 0.0984,0 0.369,0 0.2706,0 0.369,0 0.123,0 0.3444,0 0.2214,-0.0246 0.3444,-0.0492 0.1476,-0.0246 0.2952,-0.0738 0.1722,-0.0738 0.2952,-0.1722 h 0.0738 q 0.0492,0.4674 0.3936,1.23 l 3.567,7.9458 2.829,-6.0762 q 0.246,-0.5166 0.3444,-0.8118 0.123,-0.2952 0.1722,-0.7134 0.0738,-0.4182 -0.123,-0.7134 -0.1968,-0.2952 -0.6642,-0.492 v -0.0738 h 3.4932 l -5.5842,11.7588 q -1.476,-0.861 -1.8696,-1.2792 -0.4674,-0.492 -0.8118,-1.2792 l -2.9766,-6.4944 q -0.0738,-0.1476 -0.1968,-0.4182 -0.0984,-0.2706 -0.1476,-0.369 -0.0492,-0.0984 -0.1476,-0.2952 -0.0984,-0.2214 -0.1722,-0.2952 -0.0492,-0.0984 -0.1722,-0.246 -0.123,-0.1722 -0.246,-0.2706 -0.123,-0.0984 -0.2706,-0.2214 -0.1722,-0.1476 -0.369,-0.2706 -0.2214,-0.123 -0.4674,-0.246 z"
         id="path6" />
      <path
         style="font-size:5.80832px;letter-spacing:0px"
         d="m 73.473014,35.987951 h -0.836398 v 2.485961 h -0.627299 v -2.485961 h -0.836398 v -0.534366 h 2.300095 z"
         id="path7" />
      <path
         style="font-size:5.80832px;letter-spacing:-0.079375px"
         d="m 76.766332,38.473912 h -0.627299 v -1.277831 h -1.423038 v 1.277831 h -0.627299 v -3.020327 h 0.627299 v 1.202322 h 1.423038 v -1.202322 h 0.627299 z m 2.743462,0 h -1.777346 v -3.020327 h 1.777346 v 0.493707 h -1.150048 v 0.737657 h 1.097773 v 0.476282 h -1.097773 v 0.813165 h 1.150048 z m 4.180068,-2.061954 q 0,0.493707 -0.360116,0.789931 -0.354307,0.290416 -0.935139,0.290416 -0.116167,0 -0.267183,-0.01162 v 0.993223 h -0.627299 v -3.020327 q 0.766699,-0.01742 0.987415,-0.01742 0.575023,0 0.888673,0.261375 0.313649,0.255566 0.313649,0.714423 z m -0.667957,0.04066 q 0,-0.232333 -0.151016,-0.371732 -0.151016,-0.1394 -0.435624,-0.1394 -0.226525,0 -0.307841,0.0058 v 1.022265 q 0.09293,0.02323 0.267183,0.02323 0.296224,0 0.458857,-0.1394 0.168441,-0.139399 0.168441,-0.400774 z m 3.585671,2.021296 h -0.772507 l -0.86544,-1.242981 h -0.02904 v 1.242981 h -0.627299 v -3.020327 q 0.331074,-0.01742 0.987415,-0.01742 0.545982,0 0.842206,0.214908 0.296224,0.2091 0.296224,0.62149 0,0.360116 -0.226524,0.586641 -0.220716,0.220716 -0.598257,0.278799 0.04647,0.05808 0.243949,0.325266 z m -0.83059,-2.137462 q 0,-0.203291 -0.151017,-0.307841 -0.151016,-0.110358 -0.418199,-0.110358 -0.185866,0 -0.267182,0.01162 v 0.871248 q 0.174249,0.01162 0.290416,0.01162 0.249757,0 0.394965,-0.127783 0.151017,-0.133591 0.151017,-0.348499 z m 3.231372,2.137462 h -1.777346 v -3.020327 h 1.777346 v 0.493707 H 87.85831 v 0.737657 h 1.097773 v 0.476282 H 87.85831 v 0.813165 h 1.150048 z m 3.004848,-2.061954 q 0,0.493707 -0.360116,0.789931 -0.354307,0.290416 -0.935139,0.290416 -0.116167,0 -0.267183,-0.01162 v 0.993223 H 89.82347 v -3.020327 q 0.766698,-0.01742 0.987414,-0.01742 0.575024,0 0.888673,0.261375 0.313649,0.255566 0.313649,0.714423 z m -0.667957,0.04066 q 0,-0.232333 -0.151016,-0.371732 -0.151016,-0.1394 -0.435624,-0.1394 -0.226524,0 -0.307841,0.0058 v 1.022265 q 0.09293,0.02323 0.267183,0.02323 0.296224,0 0.458857,-0.1394 0.168441,-0.139399 0.168441,-0.400774 z m 3.585671,2.021296 h -0.772507 l -0.865439,-1.242981 h -0.02904 v 1.242981 h -0.627299 v -3.020327 q 0.331075,-0.01742 0.987415,-0.01742 0.545982,0 0.842206,0.214908 0.296224,0.2091 0.296224,0.62149 0,0.360116 -0.226524,0.586641 -0.220716,0.220716 -0.598257,0.278799 0.04647,0.05808 0.243949,0.325266 z M 94.10033,36.33645 q 0,-0.203291 -0.151016,-0.307841 -0.151017,-0.110358 -0.418199,-0.110358 -0.185867,0 -0.267183,0.01162 v 0.871248 q 0.17425,0.01162 0.290416,0.01162 0.249758,0 0.394966,-0.127783 0.151016,-0.133591 0.151016,-0.348499 z m 2.081325,2.137462 h -0.627299 v -3.020327 h 0.627299 z m 3.7425,0 h -0.836398 l -1.039689,-1.637947 q -0.162633,-0.249757 -0.307841,-0.575023 h -0.0058 q 0.01742,0.249757 0.01742,0.633107 l 0.0058,1.579863 h -0.609874 v -3.020327 h 0.836398 l 1.016456,1.608905 q 0.2091,0.336882 0.331074,0.592448 h 0.0058 Q 99.32009,37.370331 99.32009,36.78369 l -0.0058,-1.330105 h 0.609874 z m 2.818975,-2.485961 h -0.8364 v 2.485961 h -0.62729 v -2.485961 h -0.8364 v -0.534366 h 2.30009 z m 3.51792,1.527588 q 0,0.458857 -0.36592,0.737656 -0.36012,0.2788 -0.94095,0.2788 -0.30784,0 -0.62149,-0.07551 l 0.0232,-0.563407 q 0.29042,0.116166 0.66796,0.116166 0.23233,0 0.39496,-0.10455 0.16264,-0.110358 0.16264,-0.319457 0,-0.145208 -0.1394,-0.232333 -0.13359,-0.09293 -0.33108,-0.151017 -0.19748,-0.06389 -0.39496,-0.145208 -0.19168,-0.08132 -0.33108,-0.255566 -0.13359,-0.180058 -0.13359,-0.453049 0,-0.435624 0.32527,-0.69119 0.32526,-0.255566 0.9119,-0.255566 0.273,0 0.57503,0.05227 l -0.0232,0.534366 q -0.273,-0.08713 -0.57503,-0.08713 -0.55179,0 -0.55179,0.377541 0,0.139399 0.1394,0.232332 0.1394,0.09293 0.33688,0.156825 0.19749,0.06389 0.39497,0.151016 0.19748,0.08132 0.33688,0.261375 0.1394,0.174249 0.1394,0.435624 z m 2.50533,0.958373 h -1.77735 v -3.020327 h 1.77735 v 0.493707 h -1.15005 v 0.737657 h 1.09777 v 0.476282 h -1.09777 v 0.813165 h 1.15005 z m 3.1094,0 h -0.77251 l -0.86544,-1.242981 h -0.029 v 1.242981 h -0.6273 v -3.020327 q 0.33108,-0.01742 0.98742,-0.01742 0.54598,0 0.8422,0.214908 0.29623,0.2091 0.29623,0.62149 0,0.360116 -0.22653,0.586641 -0.22071,0.220716 -0.59825,0.278799 0.0465,0.05808 0.24395,0.325266 z m -0.83059,-2.137462 q 0,-0.203291 -0.15102,-0.307841 -0.15101,-0.110358 -0.4182,-0.110358 -0.18586,0 -0.26718,0.01162 v 0.871248 q 0.17425,0.01162 0.29042,0.01162 0.24975,0 0.39496,-0.127783 0.15102,-0.133591 0.15102,-0.348499 z m 3.93999,-0.882865 -1.15005,3.020327 h -0.73185 l -1.15585,-3.020327 h 0.69119 l 0.58664,1.55663 q 0.12197,0.325266 0.24976,0.789931 h 0.006 q 0.11617,-0.429815 0.24976,-0.778314 l 0.60407,-1.568247 z m 2.2091,3.020327 h -1.77734 v -3.020327 h 1.77734 v 0.493707 h -1.15004 v 0.737657 h 1.09777 v 0.476282 h -1.09777 v 0.813165 h 1.15004 z m 3.1094,0 h -0.77251 l -0.86544,-1.242981 h -0.029 v 1.242981 h -0.6273 v -3.020327 q 0.33108,-0.01742 0.98742,-0.01742 0.54598,0 0.8422,0.214908 0.29623,0.2091 0.29623,0.62149 0,0.360116 -0.22653,0.586641 -0.22071,0.220716 -0.59825,0.278799 0.0465,0.05808 0.24395,0.325266 z m -0.83059,-2.137462 q 0,-0.203291 -0.15102,-0.307841 -0.15101,-0.110358 -0.41819,-0.110358 -0.18587,0 -0.26719,0.01162 v 0.871248 q 0.17425,0.01162 0.29042,0.01162 0.24976,0 0.39496,-0.127783 0.15102,-0.133591 0.15102,-0.348499 z m 4.39498,-0.389158 h -1.12681 v 0.784124 h 1.06873 v 0.48209 h -1.06873 v 1.260406 h -0.6273 v -3.020327 h 1.75411 z m 3.49855,0.987415 q 0,0.72604 -0.45886,1.161664 -0.45305,0.429815 -1.12681,0.429815 -0.71443,0 -1.09197,-0.41239 -0.37754,-0.418199 -0.37754,-1.121006 0,-0.720232 0.45886,-1.155856 0.45886,-0.435624 1.10939,-0.435624 0.67957,0 1.08034,0.394966 0.40659,0.394966 0.40659,1.138431 z m -0.67377,0.04066 q 0,-0.493707 -0.23233,-0.76089 -0.22653,-0.267183 -0.62149,-0.267183 -0.36012,0 -0.60987,0.267183 -0.24976,0.261374 -0.24976,0.731848 0,0.458858 0.20329,0.743465 0.2091,0.284608 0.63311,0.284608 0.38334,0 0.62729,-0.255566 0.24976,-0.261374 0.24976,-0.743465 z m 3.63214,1.498547 h -0.7725 l -0.86544,-1.242981 h -0.029 v 1.242981 h -0.6273 v -3.020327 q 0.33107,-0.01742 0.98741,-0.01742 0.54598,0 0.84221,0.214908 0.29622,0.2091 0.29622,0.62149 0,0.360116 -0.22652,0.586641 -0.22072,0.220716 -0.59826,0.278799 0.0465,0.05808 0.24395,0.325266 z M 129.4944,36.33645 q 0,-0.203291 -0.15101,-0.307841 -0.15102,-0.110358 -0.4182,-0.110358 -0.18587,0 -0.26718,0.01162 v 0.871248 q 0.17425,0.01162 0.29041,0.01162 0.24976,0 0.39497,-0.127783 0.15101,-0.133591 0.15101,-0.348499 z m 5.31851,2.137462 h -0.6273 v -1.277831 h -1.42304 v 1.277831 h -0.6273 v -3.020327 h 0.6273 v 1.202322 h 1.42304 v -1.202322 h 0.6273 z m 2.74346,0 h -1.77735 v -3.020327 h 1.77735 v 0.493707 h -1.15005 v 0.737657 h 1.09777 v 0.476282 h -1.09777 v 0.813165 h 1.15005 z m 3.43466,0 h -0.697 l -0.21491,-0.586641 h -1.2604 l -0.22072,0.586641 h -0.6273 l 1.14424,-3.020327 h 0.73766 z m -1.06873,-1.03969 -0.31365,-0.848014 q -0.0871,-0.226525 -0.15682,-0.476283 h -0.006 q -0.0697,0.255566 -0.15102,0.470474 l -0.32526,0.853823 z m 3.27202,1.03969 h -1.66699 v -3.020327 h 0.6273 v 2.474344 h 1.03969 z m 2.20911,-2.485961 h -0.8364 v 2.485961 h -0.6273 v -2.485961 h -0.8364 v -0.534366 h 2.3001 z m 3.21394,2.485961 h -0.6273 v -1.277831 h -1.42304 v 1.277831 h -0.6273 v -3.020327 h 0.6273 v 1.202322 h 1.42304 v -1.202322 h 0.6273 z m 3.91869,-0.958373 q 0,0.458857 -0.36592,0.737656 -0.36012,0.2788 -0.94095,0.2788 -0.30784,0 -0.62149,-0.07551 l 0.0232,-0.563407 q 0.29041,0.116166 0.66795,0.116166 0.23233,0 0.39497,-0.10455 0.16263,-0.110358 0.16263,-0.319457 0,-0.145208 -0.1394,-0.232333 -0.13359,-0.09293 -0.33107,-0.151017 -0.19749,-0.06389 -0.39497,-0.145208 -0.19167,-0.08132 -0.33107,-0.255566 -0.13359,-0.180058 -0.13359,-0.453049 0,-0.435624 0.32526,-0.69119 0.32527,-0.255566 0.91191,-0.255566 0.27299,0 0.57502,0.05227 l -0.0232,0.534366 q -0.27299,-0.08713 -0.57503,-0.08713 -0.55179,0 -0.55179,0.377541 0,0.139399 0.1394,0.232332 0.1394,0.09293 0.33689,0.156825 0.19748,0.06389 0.39496,0.151016 0.19748,0.08132 0.33688,0.261375 0.1394,0.174249 0.1394,0.435624 z m 2.77832,0.865439 q -0.38335,0.133592 -0.81316,0.133592 -0.72604,0 -1.10939,-0.389158 -0.37754,-0.394965 -0.37754,-1.097772 0,-0.69119 0.41239,-1.150047 0.41239,-0.464666 1.21394,-0.464666 0.36592,0 0.65053,0.08132 l -0.0581,0.551791 q -0.31945,-0.10455 -0.63891,-0.10455 -0.43562,0 -0.67377,0.284608 -0.23814,0.284607 -0.23814,0.743465 0,0.48209 0.24395,0.737656 0.24976,0.255566 0.70281,0.255566 0.34269,0 0.63311,-0.139399 z m 1.30301,0.09293 h -0.6273 v -3.020327 h 0.6273 z m 2.74347,0 h -1.77735 v -3.020327 h 1.77735 v 0.493707 h -1.15005 v 0.737657 h 1.09777 v 0.476282 h -1.09777 v 0.813165 h 1.15005 z m 3.59149,0 h -0.8364 l -1.03969,-1.637947 q -0.16263,-0.249757 -0.30784,-0.575023 h -0.006 q 0.0174,0.249757 0.0174,0.633107 l 0.006,1.579863 h -0.60987 v -3.020327 h 0.8364 l 1.01645,1.608905 q 0.2091,0.336882 0.33108,0.592448 h 0.006 q -0.0174,-0.284607 -0.0174,-0.871248 l -0.006,-1.330105 h 0.60988 z m 2.98741,-0.09293 q -0.38335,0.133592 -0.81316,0.133592 -0.72604,0 -1.10939,-0.389158 -0.37754,-0.394965 -0.37754,-1.097772 0,-0.69119 0.41239,-1.150047 0.41239,-0.464666 1.21394,-0.464666 0.36592,0 0.65053,0.08132 l -0.0581,0.551791 q -0.31946,-0.10455 -0.63892,-0.10455 -0.43562,0 -0.67376,0.284608 -0.23815,0.284607 -0.23815,0.743465 0,0.48209 0.24395,0.737656 0.24976,0.255566 0.70281,0.255566 0.34269,0 0.63311,-0.139399 z m 2.45306,0.09293 h -1.77735 v -3.020327 h 1.77735 v 0.493707 h -1.15005 v 0.737657 h 1.09777 v 0.476282 h -1.09777 v 0.813165 h 1.15005 z m 2.59825,-0.958373 q 0,0.458857 -0.36592,0.737656 -0.36012,0.2788 -0.94095,0.2788 -0.30784,0 -0.62149,-0.07551 l 0.0232,-0.563407 q 0.29042,0.116166 0.66796,0.116166 0.23233,0 0.39497,-0.10455 0.16263,-0.110358 0.16263,-0.319457 0,-0.145208 -0.1394,-0.232333 -0.13359,-0.09293 -0.33107,-0.151017 -0.19749,-0.06389 -0.39497,-0.145208 -0.19167,-0.08132 -0.33107,-0.255566 -0.13359,-0.180058 -0.13359,-0.453049 0,-0.435624 0.32526,-0.69119 0.32527,-0.255566 0.91191,-0.255566 0.27299,0 0.57502,0.05227 l -0.0232,0.534366 q -0.27299,-0.08713 -0.57503,-0.08713 -0.55179,0 -0.55179,0.377541 0,0.139399 0.1394,0.232332 0.1394,0.09293 0.33689,0.156825 0.19748,0.06389 0.39496,0.151016 0.19748,0.08132 0.33688,0.261375 0.1394,0.174249 0.1394,0.435624 z"
         id="path8" />
    </g>
  </g>
</svg>
