<?xml version="1.0" encoding="UTF-8" standalone="no"?>
<!-- Created with Inkscape (http://www.inkscape.org/) -->

<svg
   width="100.65654mm"
   height="29.178566mm"
   viewBox="0 0 100.65654 29.178566"
   version="1.1"
   id="svg1"
   xmlns="http://www.w3.org/2000/svg"
   xmlns:svg="http://www.w3.org/2000/svg">
  <desc property="dc:creator">Michael Koksharov: https://github.com/LuciferaseMaster/PrePrint-Template-for-AnyRxiv/tree/master/preprint_logos</desc>
  <defs
     id="defs1" />
  <g
     id="layer1"
     transform="translate(-59.795833,-128.5875)">
    <g
       id="text3-4"
       style="font-size:25.4px;line-height:10.3188px;font-family:'EB Garamond';-inkscape-font-specification:'EB Garamond';letter-spacing:0.232833px;fill:#bd2736;stroke-width:0.7"
       aria-label="medRχiv">
      <path
         style="font-size:21.8722px;font-family:Coconat;-inkscape-font-specification:Coconat;letter-spacing:1.45521px;fill:#000000;stroke:#000000"
         d="m 61.274756,145.2753 q 0.284339,-1.00612 0.328083,-5.05248 l 0.02187,-2.42781 q 0,-0.69991 -0.131233,-1.33421 -0.131233,-0.65616 -0.262466,-0.9405 -0.109361,-0.28434 -0.174978,-0.32809 l 2.340325,-1.31233 v 2.23097 q 0.743655,-0.98425 1.749776,-1.59667 1.027994,-0.61242 2.121604,-0.61242 2.821514,0 3.521424,2.55904 0.765527,-1.09361 1.837265,-1.81539 1.09361,-0.74365 2.296581,-0.74365 1.902881,0 2.821514,1.13735 0.940504,1.11548 0.940504,3.6964 v 1.48731 q 0,3.87138 0.328083,5.05248 h -2.427814 q 0.328083,-1.64042 0.328083,-5.05248 v -1.3342 q 0,-1.83727 -0.612422,-2.58092 -0.612421,-0.76553 -1.946625,-0.7874 -0.940505,-0.0219 -1.859137,0.50306 -0.896761,0.52493 -1.531054,1.39982 0.06562,0.63429 0.06562,1.31233 v 1.48731 q 0,3.87138 0.328083,5.05248 h -2.427814 q 0.328083,-1.64042 0.328083,-5.05248 v -1.3342 q 0,-1.83727 -0.612422,-2.58092 -0.612421,-0.76553 -1.946625,-0.7874 -0.896761,-0.0219 -1.793521,0.48119 -0.874888,0.50306 -1.531054,1.3342 v 2.88713 q -0.02187,3.32458 0.328083,5.05248 z"
         id="path1" />
      <path
         style="font-size:21.8722px;font-family:Coconat;-inkscape-font-specification:Coconat;letter-spacing:1.05833px;fill:#000000;stroke:#000000"
         d="m 87.598665,134.99537 q -2.952747,0 -3.149597,3.63078 l 6.014855,-0.30621 q -0.371828,-3.32457 -2.865258,-3.32457 z m -5.16184,4.85562 q 0,-2.55904 1.596671,-4.2432 1.596671,-1.70603 3.827635,-1.70603 2.165348,0 3.412063,1.44356 1.268588,1.42169 1.268588,4.13385 h -8.092714 q 0.08749,2.1216 1.159226,3.43393 1.09361,1.29046 3.083981,1.29046 2.18722,0 3.805762,-1.70603 l 0.06562,0.0437 q -1.421693,2.9965 -4.636906,2.9965 -2.449687,0 -3.980741,-1.55293 -1.509182,-1.55293 -1.509182,-4.13385 z"
         id="path2" />
      <path
         style="font-size:21.8722px;font-family:'Coconat Demi';-inkscape-font-specification:'Coconat Demi';letter-spacing:-0.264583px;fill:#000000"
         d="m 108.25449,141.71013 q 0,1.46544 0.56867,2.60279 l -3.12772,1.31233 v -2.16534 q -2.55905,2.09973 -4.63691,2.09973 -2.602789,0 -4.155715,-1.46544 -1.531054,-1.48731 -1.531054,-4.06823 0,-2.66841 2.121604,-4.39631 2.121603,-1.7279 4.811885,-1.7279 1.90288,0 3.39019,0.61242 v -2.09973 q 0,-1.66229 -0.54681,-2.49344 l 3.1496,-1.20297 z m -9.076966,-5.57741 q -1.115482,1.11548 -1.115482,3.1496 0,2.03411 1.159226,3.23708 1.181102,1.1811 2.755902,1.1811 2.03411,0 3.71827,-1.20297 v -6.03673 q -1.42169,-1.46543 -3.80576,-1.46543 -1.59667,0 -2.712156,1.13735 z"
         id="path3" />
      <path
         style="font-weight:500;-inkscape-font-specification:'EB Garamond, Medium';letter-spacing:-3.43958px;fill:#0e4c92"
         d="m 125.93008,145.8087 q -0.9144,0 -1.651,-0.2032 -0.7112,-0.1778 -1.2954,-0.5588 -0.5588,-0.381 -1.016,-0.9398 -0.5842,-0.762 -1.143,-1.4732 -0.5334,-0.7112 -1.1176,-1.6002 -0.5842,-0.9144 -1.3716,-2.2098 -0.3302,-0.635 -0.9398,-0.9398 -0.4318,-0.2286 -0.889,-0.3048 -0.4318,-0.1016 -0.7112,-0.127 -0.1778,0 -0.2794,0.1524 -0.0762,0.127 -0.0762,0.3556 v 4.5974 q 0,0.8128 0.4064,1.3462 0.4064,0.508 1.397,0.6858 0.3556,0.0762 0.5334,0.1778 0.2032,0.1016 0.2032,0.3048 0,0.1524 -0.1778,0.2286 -0.1778,0.0762 -0.4826,0.0762 -0.635,0 -1.143,-0.0508 -0.4826,-0.0254 -0.9398,-0.0508 -0.4318,-0.0508 -0.9144,-0.0508 -0.6096,0 -1.1684,0.0508 -0.5334,0.0254 -1.0922,0.0508 -0.5334,0.0508 -1.1938,0.0508 -0.2794,0 -0.4826,-0.0762 -0.1778,-0.0508 -0.1778,-0.2286 0,-0.3302 0.7366,-0.4826 0.9652,-0.1778 1.3716,-0.5588 0.4318,-0.381 0.4318,-1.27 v -11.0236 q 0,-0.8636 -0.1016,-1.2954 -0.1016,-0.4572 -0.4318,-0.635 -0.3048,-0.2032 -0.9906,-0.3048 -0.4064,-0.0508 -0.5842,-0.1778 -0.1778,-0.1524 -0.1778,-0.3302 0,-0.1524 0.1778,-0.2286 0.2032,-0.1016 0.4826,-0.1016 0.7366,0 1.143,0.0254 0.4064,0.0254 0.762,0.0508 0.381,0 0.9398,0 0.508,0 0.9144,-0.0254 0.4064,-0.0508 0.9144,-0.0762 0.508,-0.0508 1.2954,-0.0508 2.8448,0 4.3434,1.0414 1.524,1.016 1.524,3.0988 0,1.143 -0.4826,1.9558 -0.4572,0.8128 -1.1684,1.3462 -0.7112,0.5334 -1.4224,0.8382 -0.1016,0.0254 -0.1016,0.127 0.0254,0.0762 0.0762,0.2032 0.7874,1.1684 1.4986,2.2352 0.7366,1.0414 1.5494,2.032 0.8382,0.9652 1.905,1.9558 0.7112,0.6604 1.4732,0.7874 0.7874,0.127 1.6764,0.127 0.381,0 0.381,0.3556 0,0.4318 -0.4064,0.6604 -0.381,0.254 -0.9398,0.3556 -0.5588,0.1016 -1.0668,0.1016 z m -9.271,-9.017 q 1.0922,0 1.8542,-0.4826 0.7874,-0.508 1.1938,-1.3208 0.4318,-0.8382 0.4318,-1.8034 0,-1.0922 -0.2794,-1.9304 -0.2794,-0.8382 -1.016,-1.2954 -0.7366,-0.4826 -2.1082,-0.4826 -0.7112,0 -0.9652,0.508 -0.254,0.4826 -0.2794,1.8542 -0.0254,0.6096 -0.0508,1.6256 0,1.016 0,2.413 0,0.6096 0.3302,0.762 0.3302,0.1524 0.889,0.1524 z"
         id="path4" />
      <path
         style="font-family:'Palatino Linotype';-inkscape-font-specification:'Palatino Linotype';letter-spacing:0.79375px;fill:#000000"
         d="m 125.70666,136.2503 -0.23565,-0.35967 q 1.20303,-0.97978 2.04639,-1.48828 0.84336,-0.5209 1.56269,-0.5209 0.68213,0 1.16583,0.43408 0.48369,0.42168 1.16582,2.28203 0.69453,1.86036 1.27744,3.59668 h 0.18603 q 1.25264,-1.84794 4.08037,-6.56084 l 0.33487,-0.0868 q 0.40927,0.38447 0.86816,1.12861 -1.5875,1.68672 -5.15937,6.31279 0.50849,1.47588 1.41386,3.85713 0.91778,2.38125 1.27744,3.02618 0.35967,0.65732 0.83096,0.94257 0.48369,0.29766 1.09141,0.29766 0.44648,0 0.88056,-0.16123 0.43409,-0.14883 1.5503,-1.0666 l 0.0992,0.5209 q -2.0836,2.40605 -3.86954,2.40605 -0.66972,0 -1.12861,-0.28525 -0.44648,-0.28526 -0.74414,-0.70694 -0.28525,-0.42168 -0.5333,-0.95498 -0.24805,-0.5333 -0.90537,-2.43086 l -1.14102,-3.2122 h -0.14883 q -1.02939,1.82314 -2.29443,4.41523 -1.25264,2.60449 -1.52549,3.28662 l -0.28525,0.18604 q -0.75654,-0.40928 -1.20303,-1.0418 0.32246,-0.48369 1.67432,-2.53008 l 2.19521,-3.29902 q 0.83096,-1.26504 1.21543,-1.93477 -0.60771,-1.79834 -1.26504,-3.49746 -0.65732,-1.71152 -0.97978,-2.31924 -0.31006,-0.60771 -0.69453,-0.85576 -0.37207,-0.24804 -0.78135,-0.24804 -0.44648,0 -0.88057,0.19843 -0.43408,0.18604 -1.14101,0.66973 z"
         id="path5" />
      <path
         style="font-size:21.8722px;font-family:'Coconat Demi';-inkscape-font-specification:'Coconat Demi, Normal';font-variant-caps:small-caps;letter-spacing:0.396875px;fill:#000000"
         d="m 141.39973,145.1553 q 0.28434,-1.00612 0.32809,-5.05248 l 0.0219,-2.42781 q 0,-0.69991 -0.13123,-1.33421 -0.13124,-0.63429 -0.26247,-0.91863 -0.10936,-0.28434 -0.17498,-0.32808 l 3.06211,-1.31233 -0.0219,6.32106 q -0.0219,3.32458 0.32808,5.05248 z m 2.6028,-13.49515 q -0.45932,0.37183 -1.13736,0.37183 -0.67804,0 -1.15922,-0.3937 -0.45932,-0.3937 -0.45932,-0.94051 0,-0.5468 0.45932,-0.9405 0.48118,-0.3937 1.15922,-0.3937 0.67804,0 1.13736,0.3937 0.45931,0.37183 0.45931,0.9405 0,0.56868 -0.45931,0.96238 z"
         id="path6" />
      <path
         style="font-size:21.8722px;font-family:'Coconat Demi';-inkscape-font-specification:'Coconat Demi, Normal';font-variant-caps:small-caps;fill:#000000"
         d="m 154.43752,145.08717 -1.26859,0.17498 -5.11809,-8.94573 q -0.61242,-1.09361 -1.55293,-2.3622 h 3.65266 q 0.26247,1.04987 0.87489,2.31845 l 3.47768,6.27733 2.909,-5.68678 q 0.56868,-1.31233 0.91863,-2.909 h 2.12161 q -0.98425,1.50918 -1.68416,2.86526 z"
         id="path7" />
    </g>
    <path
       style="font-weight:500;font-size:5.64444px;line-height:10.3188px;font-family:'Fira Sans';-inkscape-font-specification:'Fira Sans, Medium';font-variant-caps:small-caps;letter-spacing:-0.105833px;stroke-width:0.6"
       d="m 62.341476,154.49793 -0.07338,0.5588 h -0.857955 v 2.63596 h -0.722488 v -2.63596 h -0.891822 v -0.5588 z m 2.942167,0 v 3.19476 h -0.722489 v -1.38853 h -1.117599 v 1.38853 h -0.722488 v -3.19476 h 0.722488 v 1.24178 h 1.117599 v -1.24178 z m 2.817985,0 -0.07338,0.51929 h -1.224844 v 0.79022 h 1.066799 v 0.51365 h -1.066799 v 0.84667 h 1.303866 v 0.52493 h -2.02071 v -3.19476 z m 2.960506,0 q 0.660399,0 1.021644,0.25965 0.366888,0.25964 0.366888,0.77329 0,0.54186 -0.366888,0.8128 -0.361245,0.27093 -0.9652,0.27093 h -0.383822 v 1.07809 h -0.716844 v -3.19476 z m 0,1.59174 q 0.316089,0 0.479777,-0.12418 0.163689,-0.12982 0.163689,-0.42898 0,-0.52493 -0.654755,-0.52493 h -0.316089 v 1.07809 z m 2.964742,0.36124 h -0.355599 v 1.24178 h -0.722489 v -3.19476 h 1.049866 q 1.365955,0 1.365955,0.95392 0,0.32173 -0.163689,0.53622 -0.158044,0.20884 -0.496711,0.33866 l 0.869244,1.36596 h -0.818444 z m -0.355599,-0.50235 h 0.366888 q 0.293511,0 0.440267,-0.11289 0.146755,-0.11854 0.146755,-0.37254 0,-0.23706 -0.1524,-0.34431 -0.1524,-0.11289 -0.474133,-0.11289 h -0.327377 z m 4.325051,-1.45063 -0.07338,0.51929 h -1.224843 v 0.79022 h 1.066799 v 0.51365 h -1.066799 v 0.84667 h 1.303865 v 0.52493 h -2.020709 v -3.19476 z m 1.655228,0 q 0.6604,0 1.021644,0.25965 0.366888,0.25964 0.366888,0.77329 0,0.54186 -0.366888,0.8128 -0.361244,0.27093 -0.965199,0.27093 h -0.383822 v 1.07809 h -0.716844 v -3.19476 z m 0,1.59174 q 0.316089,0 0.479778,-0.12418 0.163688,-0.12982 0.163688,-0.42898 0,-0.52493 -0.654755,-0.52493 h -0.316088 v 1.07809 z m 2.964743,0.36124 h -0.3556 v 1.24178 H 81.53821 v -3.19476 h 1.049866 q 1.365955,0 1.365955,0.95392 0,0.32173 -0.163689,0.53622 -0.158044,0.20884 -0.496711,0.33866 l 0.869244,1.36596 h -0.818444 z m -0.3556,-0.50235 h 0.366888 q 0.293511,0 0.440267,-0.11289 0.146755,-0.11854 0.146755,-0.37254 0,-0.23706 -0.1524,-0.34431 -0.1524,-0.11289 -0.474133,-0.11289 h -0.327377 z m 3.032474,-1.45063 v 3.19476 h -0.722488 v -3.19476 z m 3.348562,3.19476 h -0.925688 l -1.083732,-2.54 0.01693,0.13547 q 0.04515,0.31044 0.06773,0.58137 0.02822,0.27094 0.02822,0.61525 v 1.20791 h -0.64911 v -3.19476 h 0.90311 l 1.100666,2.54565 q -0.107244,-0.59267 -0.107244,-1.20227 v -1.34338 h 0.64911 z m 2.959096,-3.19476 -0.07338,0.5588 h -0.857954 v 2.63596 H 89.94701 v -2.63596 h -0.891821 v -0.5588 z m 2.689578,-0.0677 q 0.361244,0 0.637822,0.1016 0.276577,0.1016 0.502355,0.3048 l -0.349956,0.39511 q -0.34431,-0.27093 -0.739421,-0.27093 -0.237067,0 -0.372533,0.0847 -0.135467,0.0847 -0.135467,0.24835 0,0.10725 0.0508,0.17498 0.05644,0.0677 0.191911,0.12982 0.141111,0.0621 0.423333,0.14676 0.502355,0.1524 0.750711,0.38382 0.248355,0.22578 0.248355,0.63782 0,0.29351 -0.158044,0.51929 -0.1524,0.22578 -0.451555,0.3556 -0.293511,0.12418 -0.694267,0.12418 -0.406399,0 -0.728132,-0.11854 -0.321734,-0.12418 -0.541867,-0.33302 l 0.361244,-0.41204 q 0.389467,0.32737 0.880533,0.32737 0.265289,0 0.423333,-0.10724 0.158044,-0.11289 0.158044,-0.29916 0,-0.12417 -0.05644,-0.2032 -0.0508,-0.0847 -0.186266,-0.1524 -0.135467,-0.0677 -0.389467,-0.14111 -0.558799,-0.16369 -0.795866,-0.38946 -0.231422,-0.23142 -0.231422,-0.59267 0,-0.42333 0.338666,-0.66604 0.344311,-0.24836 0.8636,-0.24836 z m 3.754961,0.0677 -0.07338,0.51929 h -1.224844 v 0.79022 h 1.0668 v 0.51365 h -1.0668 v 0.84667 h 1.303866 v 0.52493 h -2.020709 v -3.19476 z m 1.689095,1.95298 h -0.3556 v 1.24178 h -0.722489 v -3.19476 h 1.049866 q 1.365958,0 1.365958,0.95392 0,0.32173 -0.16369,0.53622 -0.15805,0.20884 -0.49671,0.33866 l 0.86924,1.36596 h -0.81844 z m -0.3556,-0.50235 h 0.366888 q 0.293507,0 0.440267,-0.11289 0.14676,-0.11854 0.14676,-0.37254 0,-0.23706 -0.1524,-0.34431 -0.1524,-0.11289 -0.474138,-0.11289 h -0.327377 z m 4.635495,-1.45063 -0.97649,3.19476 h -0.87489 l -1.00471,-3.19476 h 0.762 l 0.69427,2.61903 0.66604,-2.61903 z m 2.33821,0 -0.0734,0.51929 h -1.22485 v 0.79022 h 1.0668 v 0.51365 h -1.0668 v 0.84667 h 1.30387 v 0.52493 h -2.02071 v -3.19476 z m 1.6891,1.95298 h -0.3556 v 1.24178 h -0.72249 v -3.19476 h 1.04987 q 1.36595,0 1.36595,0.95392 0,0.32173 -0.16369,0.53622 -0.15804,0.20884 -0.49671,0.33866 l 0.86925,1.36596 h -0.81845 z m -0.3556,-0.50235 h 0.36689 q 0.29351,0 0.44026,-0.11289 0.14676,-0.11854 0.14676,-0.37254 0,-0.23706 -0.1524,-0.34431 -0.1524,-0.11289 -0.47413,-0.11289 h -0.32738 z m 5.57953,-1.45063 -0.079,0.51929 h -1.16275 v 0.86925 h 1.01035 v 0.51929 h -1.01035 v 1.28693 h -0.72249 v -3.19476 z m 1.63265,-0.0677 q 0.69991,0 1.09502,0.44027 0.40076,0.43462 0.40076,1.2192 0,0.78457 -0.40076,1.23048 -0.40075,0.44592 -1.09502,0.44592 -0.69991,0 -1.10067,-0.44027 -0.40075,-0.44027 -0.40075,-1.23613 0,-0.508 0.18062,-0.88054 0.18627,-0.37817 0.52493,-0.57573 0.33867,-0.2032 0.79587,-0.2032 z m 0,0.53058 q -0.36689,0 -0.5588,0.27093 -0.19191,0.27094 -0.19191,0.85796 0,0.59831 0.19191,0.87489 0.19191,0.27093 0.5588,0.27093 0.37253,0 0.5588,-0.27093 0.18627,-0.27094 0.18627,-0.87489 0,-0.58702 -0.19192,-0.85796 -0.18626,-0.27093 -0.55315,-0.27093 z m 3.16794,1.49013 h -0.3556 v 1.24178 h -0.72248 v -3.19476 h 1.04986 q 1.36596,0 1.36596,0.95392 0,0.32173 -0.16369,0.53622 -0.15805,0.20884 -0.49671,0.33866 l 0.86924,1.36596 h -0.81844 z m -0.3556,-0.50235 h 0.36689 q 0.29351,0 0.44027,-0.11289 0.14676,-0.11854 0.14676,-0.37254 0,-0.23706 -0.1524,-0.34431 -0.1524,-0.11289 -0.47414,-0.11289 h -0.32738 z m 6.17784,-1.45063 v 3.19476 h -0.72249 v -1.38853 h -1.1176 v 1.38853 h -0.72248 v -3.19476 h 0.72248 v 1.24178 h 1.1176 v -1.24178 z m 2.81799,0 -0.0734,0.51929 h -1.22484 v 0.79022 h 1.0668 v 0.51365 h -1.0668 v 0.84667 h 1.30387 v 0.52493 h -2.02071 v -3.19476 z m 2.31563,3.19476 -0.19191,-0.70556 h -1.05552 l -0.19191,0.70556 H 126.832 l 1.04422,-3.19476 h 0.86925 l 1.03293,3.19476 z m -1.10631,-1.23049 h 0.77328 l -0.38946,-1.43933 z m 2.90829,-1.96427 v 2.61903 h 1.34338 l -0.079,0.57573 h -1.9812 v -3.19476 z m 3.5179,0 -0.0734,0.5588 h -0.85796 v 2.63596 h -0.72249 v -2.63596 h -0.89182 v -0.5588 z m 2.94217,0 v 3.19476 h -0.72249 v -1.38853 h -1.1176 v 1.38853 h -0.72249 v -3.19476 h 0.72249 v 1.24178 h 1.1176 v -1.24178 z m 3.1129,-0.0677 q 0.36125,0 0.63782,0.1016 0.27658,0.1016 0.50236,0.3048 l -0.34996,0.39511 q -0.34431,-0.27093 -0.73942,-0.27093 -0.23706,0 -0.37253,0.0847 -0.13547,0.0847 -0.13547,0.24835 0,0.10725 0.0508,0.17498 0.0565,0.0677 0.19191,0.12982 0.14112,0.0621 0.42334,0.14676 0.50235,0.1524 0.75071,0.38382 0.24835,0.22578 0.24835,0.63782 0,0.29351 -0.15804,0.51929 -0.1524,0.22578 -0.45156,0.3556 -0.29351,0.12418 -0.69426,0.12418 -0.4064,0 -0.72814,-0.11854 -0.32173,-0.12418 -0.54186,-0.33302 l 0.36124,-0.41204 q 0.38947,0.32737 0.88054,0.32737 0.26528,0 0.42333,-0.10724 0.15804,-0.11289 0.15804,-0.29916 0,-0.12417 -0.0564,-0.2032 -0.0508,-0.0847 -0.18627,-0.1524 -0.13546,-0.0677 -0.38946,-0.14111 -0.5588,-0.16369 -0.79587,-0.38946 -0.23142,-0.23142 -0.23142,-0.59267 0,-0.42333 0.33866,-0.66604 0.34431,-0.24836 0.8636,-0.24836 z m 3.02119,0 q 0.32173,0 0.5588,0.0903 0.23706,0.0847 0.4572,0.25965 l -0.3556,0.41769 q -0.28223,-0.23143 -0.62089,-0.23143 -0.3556,0 -0.57009,0.27658 -0.21449,0.27658 -0.21449,0.84102 0,0.57009 0.21449,0.84667 0.21449,0.27658 0.58138,0.27658 0.19191,0 0.33866,-0.0621 0.1524,-0.0677 0.33302,-0.19756 l 0.33867,0.41205 q -0.18627,0.18062 -0.45155,0.29351 -0.26529,0.11289 -0.59831,0.11289 -0.45156,0 -0.79023,-0.19192 -0.33866,-0.19755 -0.53057,-0.57573 -0.18627,-0.37818 -0.18627,-0.9144 0,-0.51364 0.19191,-0.88617 0.19756,-0.37818 0.53622,-0.57009 0.33867,-0.19756 0.76765,-0.19756 z m 2.20839,0.0677 v 3.19476 h -0.72249 v -3.19476 z m 2.81799,0 -0.0734,0.51929 h -1.22484 v 0.79022 h 1.06679 v 0.51365 h -1.06679 v 0.84667 h 1.30386 v 0.52493 h -2.02071 v -3.19476 z m 3.15664,3.19476 h -0.92569 l -1.08373,-2.54 0.0169,0.13547 q 0.0452,0.31044 0.0677,0.58137 0.0282,0.27094 0.0282,0.61525 v 1.20791 h -0.64911 v -3.19476 h 0.90311 l 1.10067,2.54565 q -0.10725,-0.59267 -0.10725,-1.20227 v -1.34338 h 0.64911 z m 2.08421,-3.26249 q 0.32173,0 0.5588,0.0903 0.23707,0.0847 0.4572,0.25965 l -0.3556,0.41769 q -0.28222,-0.23143 -0.62089,-0.23143 -0.3556,0 -0.57009,0.27658 -0.21448,0.27658 -0.21448,0.84102 0,0.57009 0.21448,0.84667 0.21449,0.27658 0.58138,0.27658 0.19191,0 0.33867,-0.0621 0.1524,-0.0677 0.33302,-0.19756 l 0.33867,0.41205 q -0.18627,0.18062 -0.45156,0.29351 -0.26529,0.11289 -0.59831,0.11289 -0.45156,0 -0.79022,-0.19192 -0.33867,-0.19755 -0.53058,-0.57573 -0.18627,-0.37818 -0.18627,-0.9144 0,-0.51364 0.19192,-0.88617 0.19755,-0.37818 0.53622,-0.57009 0.33866,-0.19756 0.76764,-0.19756 z m 3.50097,0.0677 -0.0734,0.51929 h -1.22484 v 0.79022 h 1.0668 v 0.51365 h -1.0668 v 0.84667 h 1.30386 v 0.52493 h -2.02071 v -3.19476 z m 1.58184,-0.0677 q 0.36125,0 0.63783,0.1016 0.27657,0.1016 0.50235,0.3048 l -0.34995,0.39511 q -0.34432,-0.27093 -0.73943,-0.27093 -0.23706,0 -0.37253,0.0847 -0.13547,0.0847 -0.13547,0.24835 0,0.10725 0.0508,0.17498 0.0565,0.0677 0.19192,0.12982 0.14111,0.0621 0.42333,0.14676 0.50235,0.1524 0.75071,0.38382 0.24835,0.22578 0.24835,0.63782 0,0.29351 -0.15804,0.51929 -0.1524,0.22578 -0.45156,0.3556 -0.29351,0.12418 -0.69426,0.12418 -0.4064,0 -0.72813,-0.11854 -0.32174,-0.12418 -0.54187,-0.33302 l 0.36124,-0.41204 q 0.38947,0.32737 0.88054,0.32737 0.26529,0 0.42333,-0.10724 0.15804,-0.11289 0.15804,-0.29916 0,-0.12417 -0.0564,-0.2032 -0.0508,-0.0847 -0.18627,-0.1524 -0.13546,-0.0677 -0.38946,-0.14111 -0.5588,-0.16369 -0.79587,-0.38946 -0.23142,-0.23142 -0.23142,-0.59267 0,-0.42333 0.33866,-0.66604 0.34432,-0.24836 0.8636,-0.24836 z"
       id="text3-4-0"
       aria-label="the preprint server for health sciences" />
  </g>
</svg>
