<?xml version="1.0" encoding="UTF-8" standalone="no"?>
<!-- Created with Inkscape (http://www.inkscape.org/) -->

<svg
   width="99.746338mm"
   height="22.520807mm"
   viewBox="0 0 99.746338 22.520807"
   version="1.1"
   id="svg1"
   xmlns="http://www.w3.org/2000/svg"
   xmlns:svg="http://www.w3.org/2000/svg">
  <desc property="dc:creator">Michael Koksharov: https://github.com/LuciferaseMaster/PrePrint-Template-for-AnyRxiv/tree/master/preprint_logos</desc>
  <defs
     id="defs1" />
  <g
     id="layer1"
     transform="translate(-60.706034,-128.5875)">
    <g
       id="text3-4"
       style="font-size:25.4px;line-height:10.3188px;font-family:'EB Garamond';-inkscape-font-specification:'EB Garamond';letter-spacing:0.232833px;fill:#bd2736;stroke-width:0.7"
       aria-label="medRχiv">
      <path
         style="font-size:21.8722px;font-family:Coconat;-inkscape-font-specification:Coconat;letter-spacing:1.45521px;fill:#000000;stroke:#000000"
         d="m 61.274756,145.2753 q 0.284339,-1.00612 0.328083,-5.05248 l 0.02187,-2.42781 q 0,-0.69991 -0.131233,-1.33421 -0.131233,-0.65616 -0.262466,-0.9405 -0.109361,-0.28434 -0.174978,-0.32809 l 2.340325,-1.31233 v 2.23097 q 0.743655,-0.98425 1.749776,-1.59667 1.027994,-0.61242 2.121604,-0.61242 2.821514,0 3.521424,2.55904 0.765527,-1.09361 1.837265,-1.81539 1.09361,-0.74365 2.296581,-0.74365 1.902881,0 2.821514,1.13735 0.940504,1.11548 0.940504,3.6964 v 1.48731 q 0,3.87138 0.328083,5.05248 h -2.427814 q 0.328083,-1.64042 0.328083,-5.05248 v -1.3342 q 0,-1.83727 -0.612422,-2.58092 -0.612421,-0.76553 -1.946625,-0.7874 -0.940505,-0.0219 -1.859137,0.50306 -0.896761,0.52493 -1.531054,1.39982 0.06562,0.63429 0.06562,1.31233 v 1.48731 q 0,3.87138 0.328083,5.05248 h -2.427814 q 0.328083,-1.64042 0.328083,-5.05248 v -1.3342 q 0,-1.83727 -0.612422,-2.58092 -0.612421,-0.76553 -1.946625,-0.7874 -0.896761,-0.0219 -1.793521,0.48119 -0.874888,0.50306 -1.531054,1.3342 v 2.88713 q -0.02187,3.32458 0.328083,5.05248 z"
         id="path7" />
      <path
         style="font-size:21.8722px;font-family:Coconat;-inkscape-font-specification:Coconat;letter-spacing:1.05833px;fill:#000000;stroke:#000000"
         d="m 87.598665,134.99537 q -2.952747,0 -3.149597,3.63078 l 6.014855,-0.30621 q -0.371828,-3.32457 -2.865258,-3.32457 z m -5.16184,4.85562 q 0,-2.55904 1.596671,-4.2432 1.596671,-1.70603 3.827635,-1.70603 2.165348,0 3.412063,1.44356 1.268588,1.42169 1.268588,4.13385 h -8.092714 q 0.08749,2.1216 1.159226,3.43393 1.09361,1.29046 3.083981,1.29046 2.18722,0 3.805762,-1.70603 l 0.06562,0.0437 q -1.421693,2.9965 -4.636906,2.9965 -2.449687,0 -3.980741,-1.55293 -1.509182,-1.55293 -1.509182,-4.13385 z"
         id="path8" />
      <path
         style="font-size:21.8722px;font-family:'Coconat Demi';-inkscape-font-specification:'Coconat Demi';letter-spacing:-0.264583px;fill:#000000"
         d="m 108.25449,141.71013 q 0,1.46544 0.56867,2.60279 l -3.12772,1.31233 v -2.16534 q -2.55905,2.09973 -4.63691,2.09973 -2.602789,0 -4.155715,-1.46544 -1.531054,-1.48731 -1.531054,-4.06823 0,-2.66841 2.121604,-4.39631 2.121603,-1.7279 4.811885,-1.7279 1.90288,0 3.39019,0.61242 v -2.09973 q 0,-1.66229 -0.54681,-2.49344 l 3.1496,-1.20297 z m -9.076966,-5.57741 q -1.115482,1.11548 -1.115482,3.1496 0,2.03411 1.159226,3.23708 1.181102,1.1811 2.755902,1.1811 2.03411,0 3.71827,-1.20297 v -6.03673 q -1.42169,-1.46543 -3.80576,-1.46543 -1.59667,0 -2.712156,1.13735 z"
         id="path9" />
      <path
         style="font-weight:500;-inkscape-font-specification:'EB Garamond, Medium';letter-spacing:-3.43958px;fill:#0e4c92"
         d="m 125.93008,145.8087 q -0.9144,0 -1.651,-0.2032 -0.7112,-0.1778 -1.2954,-0.5588 -0.5588,-0.381 -1.016,-0.9398 -0.5842,-0.762 -1.143,-1.4732 -0.5334,-0.7112 -1.1176,-1.6002 -0.5842,-0.9144 -1.3716,-2.2098 -0.3302,-0.635 -0.9398,-0.9398 -0.4318,-0.2286 -0.889,-0.3048 -0.4318,-0.1016 -0.7112,-0.127 -0.1778,0 -0.2794,0.1524 -0.0762,0.127 -0.0762,0.3556 v 4.5974 q 0,0.8128 0.4064,1.3462 0.4064,0.508 1.397,0.6858 0.3556,0.0762 0.5334,0.1778 0.2032,0.1016 0.2032,0.3048 0,0.1524 -0.1778,0.2286 -0.1778,0.0762 -0.4826,0.0762 -0.635,0 -1.143,-0.0508 -0.4826,-0.0254 -0.9398,-0.0508 -0.4318,-0.0508 -0.9144,-0.0508 -0.6096,0 -1.1684,0.0508 -0.5334,0.0254 -1.0922,0.0508 -0.5334,0.0508 -1.1938,0.0508 -0.2794,0 -0.4826,-0.0762 -0.1778,-0.0508 -0.1778,-0.2286 0,-0.3302 0.7366,-0.4826 0.9652,-0.1778 1.3716,-0.5588 0.4318,-0.381 0.4318,-1.27 v -11.0236 q 0,-0.8636 -0.1016,-1.2954 -0.1016,-0.4572 -0.4318,-0.635 -0.3048,-0.2032 -0.9906,-0.3048 -0.4064,-0.0508 -0.5842,-0.1778 -0.1778,-0.1524 -0.1778,-0.3302 0,-0.1524 0.1778,-0.2286 0.2032,-0.1016 0.4826,-0.1016 0.7366,0 1.143,0.0254 0.4064,0.0254 0.762,0.0508 0.381,0 0.9398,0 0.508,0 0.9144,-0.0254 0.4064,-0.0508 0.9144,-0.0762 0.508,-0.0508 1.2954,-0.0508 2.8448,0 4.3434,1.0414 1.524,1.016 1.524,3.0988 0,1.143 -0.4826,1.9558 -0.4572,0.8128 -1.1684,1.3462 -0.7112,0.5334 -1.4224,0.8382 -0.1016,0.0254 -0.1016,0.127 0.0254,0.0762 0.0762,0.2032 0.7874,1.1684 1.4986,2.2352 0.7366,1.0414 1.5494,2.032 0.8382,0.9652 1.905,1.9558 0.7112,0.6604 1.4732,0.7874 0.7874,0.127 1.6764,0.127 0.381,0 0.381,0.3556 0,0.4318 -0.4064,0.6604 -0.381,0.254 -0.9398,0.3556 -0.5588,0.1016 -1.0668,0.1016 z m -9.271,-9.017 q 1.0922,0 1.8542,-0.4826 0.7874,-0.508 1.1938,-1.3208 0.4318,-0.8382 0.4318,-1.8034 0,-1.0922 -0.2794,-1.9304 -0.2794,-0.8382 -1.016,-1.2954 -0.7366,-0.4826 -2.1082,-0.4826 -0.7112,0 -0.9652,0.508 -0.254,0.4826 -0.2794,1.8542 -0.0254,0.6096 -0.0508,1.6256 0,1.016 0,2.413 0,0.6096 0.3302,0.762 0.3302,0.1524 0.889,0.1524 z"
         id="path10" />
      <path
         style="font-family:'Palatino Linotype';-inkscape-font-specification:'Palatino Linotype';letter-spacing:0.79375px;fill:#000000"
         d="m 125.70666,136.2503 -0.23565,-0.35967 q 1.20303,-0.97978 2.04639,-1.48828 0.84336,-0.5209 1.56269,-0.5209 0.68213,0 1.16583,0.43408 0.48369,0.42168 1.16582,2.28203 0.69453,1.86036 1.27744,3.59668 h 0.18603 q 1.25264,-1.84794 4.08037,-6.56084 l 0.33487,-0.0868 q 0.40927,0.38447 0.86816,1.12861 -1.5875,1.68672 -5.15937,6.31279 0.50849,1.47588 1.41386,3.85713 0.91778,2.38125 1.27744,3.02618 0.35967,0.65732 0.83096,0.94257 0.48369,0.29766 1.09141,0.29766 0.44648,0 0.88056,-0.16123 0.43409,-0.14883 1.5503,-1.0666 l 0.0992,0.5209 q -2.0836,2.40605 -3.86954,2.40605 -0.66972,0 -1.12861,-0.28525 -0.44648,-0.28526 -0.74414,-0.70694 -0.28525,-0.42168 -0.5333,-0.95498 -0.24805,-0.5333 -0.90537,-2.43086 l -1.14102,-3.2122 h -0.14883 q -1.02939,1.82314 -2.29443,4.41523 -1.25264,2.60449 -1.52549,3.28662 l -0.28525,0.18604 q -0.75654,-0.40928 -1.20303,-1.0418 0.32246,-0.48369 1.67432,-2.53008 l 2.19521,-3.29902 q 0.83096,-1.26504 1.21543,-1.93477 -0.60771,-1.79834 -1.26504,-3.49746 -0.65732,-1.71152 -0.97978,-2.31924 -0.31006,-0.60771 -0.69453,-0.85576 -0.37207,-0.24804 -0.78135,-0.24804 -0.44648,0 -0.88057,0.19843 -0.43408,0.18604 -1.14101,0.66973 z"
         id="path11" />
      <path
         style="font-size:21.8722px;font-family:'Coconat Demi';-inkscape-font-specification:'Coconat Demi, Normal';font-variant-caps:small-caps;letter-spacing:0.396875px;fill:#000000"
         d="m 141.39973,145.1553 q 0.28434,-1.00612 0.32809,-5.05248 l 0.0219,-2.42781 q 0,-0.69991 -0.13123,-1.33421 -0.13124,-0.63429 -0.26247,-0.91863 -0.10936,-0.28434 -0.17498,-0.32808 l 3.06211,-1.31233 -0.0219,6.32106 q -0.0219,3.32458 0.32808,5.05248 z m 2.6028,-13.49515 q -0.45932,0.37183 -1.13736,0.37183 -0.67804,0 -1.15922,-0.3937 -0.45932,-0.3937 -0.45932,-0.94051 0,-0.5468 0.45932,-0.9405 0.48118,-0.3937 1.15922,-0.3937 0.67804,0 1.13736,0.3937 0.45931,0.37183 0.45931,0.9405 0,0.56868 -0.45931,0.96238 z"
         id="path12" />
      <path
         style="font-size:21.8722px;font-family:'Coconat Demi';-inkscape-font-specification:'Coconat Demi, Normal';font-variant-caps:small-caps;fill:#000000"
         d="m 154.43752,145.08717 -1.26859,0.17498 -5.11809,-8.94573 q -0.61242,-1.09361 -1.55293,-2.3622 h 3.65266 q 0.26247,1.04987 0.87489,2.31845 l 3.47768,6.27733 2.909,-5.68678 q 0.56868,-1.31233 0.91863,-2.909 h 2.12161 q -0.98425,1.50918 -1.68416,2.86526 z"
         id="path13" />
    </g>
  </g>
</svg>
