<?xml version="1.0" encoding="UTF-8" standalone="no"?>
<!-- Created with Inkscape (http://www.inkscape.org/) -->

<svg
   width="99.476158mm"
   height="22.119274mm"
   viewBox="0 0 99.476158 22.119274"
   version="1.1"
   id="svg1"
   xmlns="http://www.w3.org/2000/svg"
   xmlns:svg="http://www.w3.org/2000/svg">
  <desc property="dc:creator">Michael Koksharov: https://github.com/LuciferaseMaster/PrePrint-Template-for-AnyRxiv/tree/master/preprint_logos</desc>
  <defs
     id="defs1" />
  <g
     id="layer1"
     transform="translate(-71.47621,-8.9958313)">
    <g
       id="text3"
       style="font-size:24.6px;line-height:10.3188px;font-family:'EB Garamond';-inkscape-font-specification:'EB Garamond';letter-spacing:0.225499px;stroke-width:0.353503"
       aria-label="medRχiv&#10;">
      <path
         style="font-weight:500;letter-spacing:0.79375px;stroke:#000000"
         d="m 71.652961,14.436983 h 1.5744 q 1.107,0 1.5252,-0.3198 h 0.0738 v 1.9434 q 0.6642,-1.0086 1.4514,-1.476 0.8118,-0.4674 2.0172,-0.4674 2.4846,0 3.8376,2.1402 1.5498,-2.1402 3.936,-2.1402 2.4846,0 3.444,1.3038 0.9594,1.2792 0.9594,3.813 v 3.7884 q 0,0.0738 0,0.3936 0,0.3198 0,0.4182 0,0.0984 0.0246,0.3936 0.0246,0.2706 0.0492,0.3936 0.0492,0.0984 0.123,0.3198 0.0738,0.1968 0.1968,0.3198 0.123,0.0984 0.2952,0.2214 0.1722,0.123 0.3936,0.1968 v 0.0738 h -4.2558 v -0.0738 q 0.2214,-0.123 0.3936,-0.2706 0.1722,-0.1476 0.2706,-0.3444 0.0984,-0.1968 0.1476,-0.3198 0.0738,-0.123 0.0984,-0.3936 0.0246,-0.2952 0.0246,-0.3936 0,-0.0984 0,-0.4674 0,-0.369 0,-0.4674 v -3.1734 q 0,-4.1082 -2.7552,-4.1082 -1.5744,0 -2.214,0.9348 -0.615,0.9348 -0.615,2.7798 v 3.567 q 0,0.123 0,0.4182 0,0.2706 0,0.3936 0,0.123 0,0.369 0.0246,0.2214 0.0492,0.3444 0.0492,0.123 0.0984,0.3198 0.0738,0.1722 0.1722,0.2952 0.123,0.123 0.2706,0.2706 0.1476,0.123 0.3444,0.246 v 0.0738 h -4.1082 v -0.0738 q 0.2214,-0.123 0.3936,-0.2706 0.1722,-0.1476 0.2706,-0.3444 0.0984,-0.1968 0.1476,-0.3198 0.0738,-0.123 0.0984,-0.3936 0.0246,-0.2952 0.0246,-0.3936 0,-0.0984 0,-0.4674 0,-0.369 0,-0.4674 v -3.3948 q 0,-1.845 -0.8118,-2.8536 -0.7872,-1.0332 -1.9926,-1.0332 -2.7798,0 -2.7798,3.5178 v 3.7638 q 0,0.0984 0,0.4674 0,0.3444 0,0.4674 0,0.0984 0.0246,0.3936 0.0246,0.2706 0.0738,0.3936 0.0738,0.123 0.1722,0.3198 0.0984,0.1968 0.246,0.3444 0.1722,0.1476 0.3936,0.2706 v 0.0738 h -4.0836 v -0.0738 q 0.2214,-0.123 0.3936,-0.2706 0.1722,-0.1476 0.2706,-0.3444 0.0984,-0.1968 0.1476,-0.3198 0.0738,-0.123 0.0984,-0.3936 0.0246,-0.2952 0.0246,-0.3936 0,-0.0984 0,-0.4674 0,-0.369 0,-0.4674 v -5.8794 q 0,-0.0984 0,-0.4428 0,-0.369 0,-0.4674 0,-0.123 -0.0246,-0.3936 -0.0246,-0.2952 -0.0984,-0.3936 -0.0492,-0.123 -0.1476,-0.3198 -0.0984,-0.2214 -0.2706,-0.3444 -0.1722,-0.1476 -0.3936,-0.2706 z m 33.659369,5.2644 h -9.028203 q 0.0246,2.214 1.4022,3.4932 1.3776,1.2546 3.517803,1.2546 2.3616,0 4.0344,-1.3038 h 0.0738 l -1.23,2.3124 q -1.476,0.615 -3.3948,0.615 -3.099603,0 -5.092203,-1.722 -1.968,-1.7466 -1.968,-4.3296 0,-2.583 1.6974,-4.2312 1.722,-1.6728 4.4526,-1.6728 2.484603,0 4.034403,1.599 1.5744,1.599 1.5006,3.9852 z m -8.929803,-1.4268 h 6.346803 q -0.3936,-2.5338 -3.173403,-2.5338 -1.23,0 -2.091,0.6888 -0.861,0.6888 -1.0824,1.845 z"
         id="path10" />
      <path
         style="font-weight:500;letter-spacing:1.32292px;stroke:#000000"
         d="m 115.87229,9.5661828 h 1.6728 q 1.1562,0 1.4268,-0.3936 h 0.0738 V 23.046983 q 0,0.123 0,0.4182 0,0.2706 0,0.3936 0,0.123 0,0.369 0.0246,0.2214 0.0492,0.3444 0.0492,0.123 0.0984,0.3198 0.0738,0.1722 0.1722,0.2952 0.123,0.123 0.2706,0.2706 0.1476,0.123 0.3444,0.2214 v 0.0738 h -3.1734 v -5.2644 q 0,-0.0984 0,-0.4182 0,-0.3198 0,-0.4428 0,-0.1476 -0.0246,-0.4182 0,-0.2952 -0.0246,-0.4674 -0.0246,-0.1722 -0.0738,-0.3936 -0.0246,-0.246 -0.0984,-0.4428 -0.0738,-0.1968 -0.1722,-0.3936 -0.4428,-0.861 -1.3038,-1.3038 -0.861,-0.4674 -1.8696,-0.4674 -1.476,0 -2.5338,1.1808 -1.0332,1.1808 -1.0332,2.8536 0,1.9188 1.23,3.2964 1.23,1.3776 3.1242,1.3776 0.984,0 2.1156,-0.7134 l -1.4514,2.214 q -0.4182,0.123 -1.2792,0.123 -2.7306,0 -4.4772,-1.6236 -1.7466,-1.6236 -1.7466,-4.3296 0,-2.5092 1.6482,-4.2558 1.6728,-1.7466 4.182,-1.7466 2.1648,0 3.7884,1.4268 v -3.2472 q 0,-0.0984 0,-0.4428 0,-0.369 0,-0.4674 0,-0.123 -0.0246,-0.3936 -0.0246,-0.2952 -0.0984,-0.4182 -0.0492,-0.123 -0.1476,-0.3198 -0.0984,-0.1968 -0.2706,-0.3444002 -0.1722,-0.1476 -0.3936,-0.2706 z"
         id="path11" />
      <path
         style="font-weight:500;letter-spacing:0.79375px;fill:#0e4c92;stroke:#0e4c92"
         d="m 123.14841,9.9051581 h 5.8548 q 2.4108,0 3.7392,1.1069999 1.353,1.107 1.353,2.8536 0,1.5498 -1.1562,2.7552 -1.1562,1.2054 -2.7552,1.5744 l 3.5424,4.4526 q 1.5252,1.8942 3.9852,3.444 h -2.2632 q -1.845,0 -2.8536,-1.23 l -3.0012,-3.7146 -2.2632,-3.4686 q 1.7712,-0.2706 3.0012,-1.107 1.2546,-0.8364 1.2546,-2.4108 0,-1.2792 -0.9348,-2.0172 -0.9348,-0.7626 -2.2386,-0.7134 -0.7134,0.0246 -1.6728,0.1968 v 11.0208 q 0,0.0738 0,0.4428 0,0.369 0,0.5166 0,0.123 0.0246,0.492 0.0246,0.3444 0.0492,0.5166 0.0492,0.1476 0.123,0.4428 0.0984,0.2706 0.1968,0.4182 0.123,0.1476 0.2952,0.3198 0.1968,0.1476 0.4182,0.2214 v 0.0738 h -4.6986 v -0.0738 q 0.2706,-0.0984 0.4428,-0.246 0.1968,-0.1722 0.3198,-0.4428 0.123,-0.2706 0.1968,-0.4674 0.0738,-0.1968 0.0984,-0.5658 0.0246,-0.3936 0.0246,-0.5412 0.0246,-0.1722 0,-0.5904 0,-0.4428 0,-0.5166 v -9.2742 q 0,-0.0738 0,-0.492 0.0246,-0.4428 0,-0.5904 0,-0.1722 -0.0246,-0.5658 -0.0246,-0.3936 -0.0984,-0.5904 -0.0738,-0.1968 -0.1968,-0.4674 -0.123,-0.2706 -0.3198,-0.4182 -0.1722,-0.1722 -0.4428,-0.2705999 z"
         id="path12" />
      <path
         style="letter-spacing:1.32292px;stroke:#000000"
         d="m 144.31098,22.549753 1.9926,4.92 q 0.6396,1.599 1.0578,2.0664 0.4182,0.4674 1.0578,0.4674 0.8856,0 0.8856,0.3198 0,0.2952 -0.5658,0.4428 -0.5412,0.1722 -1.3284,0.1722 -1.3038,0 -2.0172,-0.738 -0.7134,-0.738 -1.6236,-3.075 l -1.1562,-2.952 q -0.738,0.861 -1.107,1.353 -0.369,0.4674 -1.0578,1.5252 -0.6642,1.0824 -1.6236,2.829 -0.0492,0.0984 -0.1476,0.246 -0.0738,0.1476 -0.123,0.2214 -0.0246,0.0984 -0.0984,0.1968 -0.0738,0.123 -0.123,0.1722 -0.0492,0.0492 -0.0984,0.0984 -0.0492,0.0738 -0.123,0.0984 -0.0492,0.0246 -0.123,0.0246 -0.4674,0 -0.4674,-0.5904 0,-2.0418 4.5756,-7.257 l -1.4022,-3.444 q -0.738,-1.845 -1.2054,-2.6076 -0.4428,-0.7626 -0.8364,-0.984 -0.3936,-0.2214 -1.1562,-0.2214 -0.5904,0 -0.5904,-0.2952 0,-0.6396 1.968,-0.6396 0.7626,0 1.3038,0.2214 0.5658,0.1968 0.9594,0.6888 0.3936,0.492 0.615,0.9102 0.2214,0.3936 0.5412,1.1808 l 1.476,3.4932 0.0738,0.0246 q 1.8942,-2.1894 3.936,-6.1008 0.2214,-0.4182 0.5904,-0.4182 0.3444,0 0.3444,0.615 0,1.0332 -1.599,3.3948 -1.599,2.3616 -2.8044,3.6408 z"
         id="path13" />
      <path
         style="font-weight:500;letter-spacing:1.05833px;stroke:#000000"
         d="m 151.95319,14.611313 h 1.5006 q 1.1562,0 1.599,-0.3936 h 0.0738 v 8.979 q 0,0.123 0,0.4182 0,0.2706 0,0.3936 0,0.123 0,0.369 0.0246,0.2214 0.0492,0.3444 0.0492,0.123 0.0984,0.3198 0.0738,0.1722 0.1722,0.2952 0.123,0.123 0.2706,0.2706 0.1476,0.123 0.3444,0.246 v 0.0738 h -4.1082 v -0.0738 q 0.2214,-0.123 0.3936,-0.2706 0.1722,-0.1476 0.2706,-0.3444 0.0984,-0.1968 0.1476,-0.3198 0.0738,-0.123 0.0984,-0.3936 0.0246,-0.2952 0.0246,-0.3936 0,-0.0984 0,-0.4674 0,-0.369 0,-0.4674 v -5.8794 q 0,-0.0984 0,-0.4428 0,-0.369 0,-0.4674 0,-0.123 -0.0246,-0.3936 -0.0246,-0.2952 -0.0984,-0.3936 -0.0492,-0.123 -0.1476,-0.3198 -0.0984,-0.2214 -0.2706,-0.3444 -0.1722,-0.1476 -0.3936,-0.2706 z m 3.0012,-4.0836 q 0.4428,0.4428 0.4428,1.0578 0,0.615 -0.4428,1.0824 -0.4182,0.4674 -1.0332,0.4674 -0.6888,0 -1.1562,-0.4674 -0.4428,-0.4674 -0.4428,-1.1562 0,-0.615 0.4674,-1.0332 0.492,-0.4182 1.1316,-0.4182 0.615,0 1.0332,0.4674 z"
         id="path14" />
      <path
         style="font-weight:500;stroke:#000000"
         d="m 157.34401,14.524148 h 1.3284 q 0.0984,0 0.369,0 0.2706,0 0.369,0 0.123,0 0.3444,0 0.2214,-0.0246 0.3444,-0.0492 0.1476,-0.0246 0.2952,-0.0738 0.1722,-0.0738 0.2952,-0.1722 h 0.0738 q 0.0492,0.4674 0.3936,1.23 l 3.567,7.9458 2.829,-6.0762 q 0.246,-0.5166 0.3444,-0.8118 0.123,-0.2952 0.1722,-0.7134 0.0738,-0.4182 -0.123,-0.7134 -0.1968,-0.2952 -0.6642,-0.492 v -0.0738 h 3.4932 l -5.5842,11.7588 q -1.476,-0.861 -1.8696,-1.2792 -0.4674,-0.492 -0.8118,-1.2792 l -2.9766,-6.4944 q -0.0738,-0.1476 -0.1968,-0.4182 -0.0984,-0.2706 -0.1476,-0.369 -0.0492,-0.0984 -0.1476,-0.2952 -0.0984,-0.2214 -0.1722,-0.2952 -0.0492,-0.0984 -0.1722,-0.246 -0.123,-0.1722 -0.246,-0.2706 -0.123,-0.0984 -0.2706,-0.2214 -0.1722,-0.1476 -0.369,-0.2706 -0.2214,-0.123 -0.4674,-0.246 z"
         id="path15" />
    </g>
  </g>
</svg>
