<?xml version="1.0" encoding="UTF-8" standalone="no"?>
<!-- Created with Inkscape (http://www.inkscape.org/) -->

<svg
   width="103.63635mm"
   height="29.599358mm"
   viewBox="0 0 103.63635 29.599358"
   version="1.1"
   id="svg1"
   xmlns="http://www.w3.org/2000/svg"
   xmlns:svg="http://www.w3.org/2000/svg">
  <desc property="dc:creator">Michael Koksharov: https://github.com/LuciferaseMaster/PrePrint-Template-for-AnyRxiv/tree/master/preprint_logos</desc>
  <defs
     id="defs1" />
  <g
     id="layer1"
     transform="translate(-62.482908,-48.549581)">
    <g
       id="text3-4"
       style="font-size:25.4px;line-height:10.3188px;font-family:'EB Garamond';-inkscape-font-specification:'EB Garamond';letter-spacing:0.232833px;fill:#bd2736;stroke-width:0.5"
       aria-label="openRχiv">
      <path
         style="font-size:22.5778px;font-family:Coconat;-inkscape-font-specification:Coconat;letter-spacing:0.531812px;fill:#000000;stroke:#000000"
         d="m 68.15158,65.485737 q -2.348091,0 -3.883382,-1.580446 -1.53529,-1.603024 -1.53529,-3.951115 0,-2.709336 1.761068,-4.560716 1.761069,-1.873958 4.334938,-1.873958 2.46098,0 3.90596,1.512713 1.467557,1.512713 1.467557,4.018849 0,2.731913 -1.738491,4.583293 -1.738491,1.85138 -4.31236,1.85138 z m 0.745067,-1.12889 q 1.490135,0 2.37067,-1.151468 0.903112,-1.174046 0.903112,-3.138314 0,-2.393247 -1.12889,-3.883382 -1.12889,-1.512713 -2.935115,-1.512713 -1.53529,0 -2.46098,1.174046 -0.92569,1.174046 -0.92569,3.138314 0,2.25778 1.196624,3.815649 1.219201,1.557868 2.980269,1.557868 z m 8.005049,6.660451 q 0.31609,-1.12889 0.31609,-5.215472 v -8.398942 q 0,-1.873957 -0.564445,-2.551291 l 2.415824,-1.354668 v 1.670757 q 1.873958,-1.670757 3.883382,-1.670757 1.919113,0 3.251203,1.512712 1.354668,1.512713 1.354668,3.815649 0,2.822225 -1.783646,4.763916 -1.783646,1.919113 -4.583293,1.919113 -1.106313,0 -2.122314,-0.338667 v 0.632178 q 0,3.454404 0.338667,5.215472 z m 2.167469,-7.789341 q 1.106313,1.196623 2.844803,1.196623 1.64818,0 2.619025,-1.174045 0.970846,-1.174046 0.970846,-3.296359 0,-2.235203 -0.948268,-3.567293 -0.92569,-1.354668 -2.619025,-1.354668 -1.557868,0 -2.867381,1.12889 z m 16.155669,-8.602142 q -3.048004,0 -3.251204,3.747915 l 6.208895,-0.31609 q -0.383822,-3.431825 -2.957691,-3.431825 z m -5.328361,5.012271 q 0,-2.641602 1.648179,-4.380093 1.648179,-1.761068 3.951115,-1.761068 2.235202,0 3.522137,1.490134 1.309516,1.467557 1.309516,4.267205 h -8.35379 q 0.09031,2.190046 1.196624,3.544715 1.12889,1.33209 3.18347,1.33209 2.25778,0 3.928536,-1.761069 l 0.0677,0.04516 q -1.467553,3.093159 -4.786489,3.093159 -2.528714,0 -4.10916,-1.603024 -1.557868,-1.603024 -1.557868,-4.267205 z m 13.017337,5.599295 q 0.29351,-1.038579 0.33867,-5.215472 l 0.0226,-2.506136 q 0,-0.722489 -0.13547,-1.377246 -0.13547,-0.654756 -0.27094,-0.948267 -0.11288,-0.293512 -0.18062,-0.338667 l 2.41583,-1.354668 v 2.573869 q 0.79022,-1.12889 1.89653,-1.85138 1.10631,-0.745067 2.32552,-0.745067 1.96426,0 2.91253,1.174045 0.97085,1.174046 0.97085,3.838227 v 1.53529 q 0,3.996271 0.33866,5.215472 h -2.50613 q 0.33867,-1.693335 0.33867,-5.215472 v -1.377246 q 0,-1.896535 -0.65476,-2.686758 -0.63218,-0.790223 -1.98685,-0.812801 -1.016,-0.02258 -2.00942,0.609601 -0.99342,0.6096 -1.64818,1.603024 v 2.66418 q 0,3.522137 0.33867,5.215472 z"
         id="path6" />
      <path
         style="font-weight:500;-inkscape-font-specification:'EB Garamond, Medium';letter-spacing:-3.43958px;fill:#02ad4e"
         d="m 131.46466,65.770781 q -0.9144,0 -1.651,-0.2032 -0.7112,-0.1778 -1.2954,-0.5588 -0.5588,-0.381 -1.016,-0.9398 -0.5842,-0.762 -1.143,-1.4732 -0.5334,-0.7112 -1.1176,-1.6002 -0.5842,-0.9144 -1.3716,-2.2098 -0.3302,-0.635 -0.9398,-0.9398 -0.4318,-0.2286 -0.889,-0.3048 -0.4318,-0.1016 -0.7112,-0.127 -0.1778,0 -0.2794,0.1524 -0.0762,0.127 -0.0762,0.3556 v 4.5974 q 0,0.8128 0.4064,1.3462 0.4064,0.508 1.397,0.6858 0.3556,0.0762 0.5334,0.1778 0.2032,0.1016 0.2032,0.3048 0,0.1524 -0.1778,0.2286 -0.1778,0.0762 -0.4826,0.0762 -0.635,0 -1.143,-0.0508 -0.4826,-0.0254 -0.9398,-0.0508 -0.4318,-0.0508 -0.9144,-0.0508 -0.6096,0 -1.1684,0.0508 -0.5334,0.0254 -1.0922,0.0508 -0.5334,0.0508 -1.1938,0.0508 -0.2794,0 -0.4826,-0.0762 -0.1778,-0.0508 -0.1778,-0.2286 0,-0.3302 0.7366,-0.4826 0.9652,-0.1778 1.3716,-0.5588 0.4318,-0.381 0.4318,-1.27 v -11.0236 q 0,-0.8636 -0.1016,-1.2954 -0.1016,-0.4572 -0.4318,-0.635 -0.3048,-0.2032 -0.9906,-0.3048 -0.4064,-0.0508 -0.5842,-0.1778 -0.1778,-0.1524 -0.1778,-0.3302 0,-0.1524 0.1778,-0.2286 0.2032,-0.1016 0.4826,-0.1016 0.7366,0 1.143,0.0254 0.4064,0.0254 0.762,0.0508 0.381,0 0.9398,0 0.508,0 0.9144,-0.0254 0.4064,-0.0508 0.9144,-0.0762 0.508,-0.0508 1.2954,-0.0508 2.8448,0 4.3434,1.0414 1.524,1.016 1.524,3.0988 0,1.143 -0.4826,1.9558 -0.4572,0.8128 -1.1684,1.3462 -0.7112,0.5334 -1.4224,0.8382 -0.1016,0.0254 -0.1016,0.127 0.0254,0.0762 0.0762,0.2032 0.7874,1.1684 1.4986,2.2352 0.7366,1.0414 1.5494,2.032 0.8382,0.9652 1.905,1.9558 0.7112,0.6604 1.4732,0.7874 0.7874,0.127 1.6764,0.127 0.381,0 0.381,0.3556 0,0.4318 -0.4064,0.6604 -0.381,0.254 -0.9398,0.3556 -0.5588,0.1016 -1.0668,0.1016 z m -9.271,-9.017 q 1.0922,0 1.8542,-0.4826 0.7874,-0.508 1.1938,-1.3208 0.4318,-0.8382 0.4318,-1.8034 0,-1.0922 -0.2794,-1.9304 -0.2794,-0.8382 -1.016,-1.2954 -0.7366,-0.4826 -2.1082,-0.4826 -0.7112,0 -0.9652,0.508 -0.254,0.4826 -0.2794,1.8542 -0.0254,0.6096 -0.0508,1.6256 0,1.016 0,2.413 0,0.6096 0.3302,0.762 0.3302,0.1524 0.889,0.1524 z"
         id="path7" />
      <path
         style="font-family:'Palatino Linotype';-inkscape-font-specification:'Palatino Linotype';letter-spacing:0.79375px;fill:#000000"
         d="m 131.24125,56.212381 -0.23565,-0.359668 q 1.20303,-0.979785 2.04639,-1.488281 0.84336,-0.520898 1.5627,-0.520898 0.68213,0 1.16582,0.434082 0.48369,0.421679 1.16582,2.282031 0.69453,1.860351 1.27744,3.596679 h 0.18603 q 1.25264,-1.847949 4.08037,-6.560839 l 0.33487,-0.08682 q 0.40928,0.384473 0.86816,1.128613 -1.5875,1.686719 -5.15937,6.312793 0.50849,1.475879 1.41386,3.857129 0.91778,2.38125 1.27745,3.026172 0.35966,0.657324 0.83095,0.942578 0.48369,0.297656 1.09141,0.297656 0.44648,0 0.88057,-0.16123 0.43408,-0.148828 1.55029,-1.066602 l 0.0992,0.520899 q -2.0836,2.406054 -3.86953,2.406054 -0.66973,0 -1.12862,-0.285253 -0.44648,-0.285254 -0.74414,-0.706934 -0.28525,-0.42168 -0.5333,-0.95498 -0.24805,-0.533301 -0.90537,-2.43086 l -1.14102,-3.212207 h -0.14882 q -1.0294,1.823145 -2.29444,4.415235 -1.25263,2.604492 -1.52549,3.286621 l -0.28525,0.186035 q -0.75654,-0.409278 -1.20303,-1.041797 0.32246,-0.483692 1.67432,-2.530078 l 2.19521,-3.299024 q 0.83096,-1.265039 1.21543,-1.934765 -0.60771,-1.79834 -1.26503,-3.497461 -0.65733,-1.711524 -0.97979,-2.319238 -0.31006,-0.607715 -0.69453,-0.855762 -0.37207,-0.248047 -0.78135,-0.248047 -0.44648,0 -0.88057,0.198438 -0.43408,0.186035 -1.14101,0.669726 z"
         id="path8" />
      <path
         style="font-size:21.8722px;font-family:'Coconat Demi';-inkscape-font-specification:'Coconat Demi, Normal';font-variant-caps:small-caps;letter-spacing:0.529167px;fill:#000000"
         d="m 146.93432,65.117381 q 0.28434,-1.006121 0.32808,-5.052478 l 0.0219,-2.427814 q 0,-0.699911 -0.13123,-1.334205 -0.13123,-0.634293 -0.26247,-0.918632 -0.10936,-0.284339 -0.17497,-0.328083 l 3.0621,-1.312332 -0.0219,6.321066 q -0.0219,3.324574 0.32809,5.052478 z m 2.60279,-13.495147 q -0.45932,0.371827 -1.13735,0.371827 -0.67804,0 -1.15923,-0.3937 -0.45932,-0.393699 -0.45932,-0.940504 0,-0.546805 0.45932,-0.940505 0.48119,-0.393699 1.15923,-0.393699 0.67803,0 1.13735,0.393699 0.45932,0.371828 0.45932,0.940505 0,0.568677 -0.45932,0.962377 z"
         id="path9" />
      <path
         style="font-size:21.8722px;font-family:'Coconat Demi';-inkscape-font-specification:'Coconat Demi, Normal';font-variant-caps:small-caps;fill:#000000"
         d="m 160.10441,65.049253 -1.26859,0.174978 -5.1181,-8.94573 q -0.61242,-1.09361 -1.55292,-2.362197 h 3.65265 q 0.26247,1.049865 0.87489,2.318453 l 3.47768,6.277321 2.90901,-5.686772 q 0.56867,-1.312332 0.91863,-2.909002 h 2.1216 q -0.98425,1.509181 -1.68416,2.865258 z"
         id="path10" />
    </g>
    <g
       id="text3-4-0"
       style="font-size:25.4px;line-height:10.3188px;font-family:'EB Garamond';-inkscape-font-specification:'EB Garamond';letter-spacing:0.232833px;fill:#bd2736;stroke-width:0.6"
       aria-label="preprints for life and health sciences">
      <path
         style="font-weight:500;font-size:5.64444px;font-family:'Fira Sans';-inkscape-font-specification:'Fira Sans, Medium';font-variant-caps:small-caps;letter-spacing:0.0449792px;fill:#000000"
         d="m 64.92713,74.880808 q 0.660399,0 1.021644,0.259645 0.366888,0.259644 0.366888,0.773288 0,0.541866 -0.366888,0.812799 -0.361245,0.270933 -0.9652,0.270933 h -0.383822 v 1.078089 h -0.716844 v -3.194754 z m 0,1.591733 q 0.316089,0 0.479777,-0.124178 0.163689,-0.129822 0.163689,-0.428978 0,-0.524933 -0.654755,-0.524933 h -0.316089 v 1.078089 z m 3.115555,0.361244 h -0.3556 v 1.241777 h -0.722488 v -3.194754 h 1.049866 q 1.365954,0 1.365954,0.953911 0,0.321733 -0.163689,0.536222 -0.158044,0.208844 -0.49671,0.338666 l 0.869244,1.365955 h -0.818444 z m -0.3556,-0.502355 h 0.366889 q 0.293511,0 0.440266,-0.112889 0.146756,-0.118534 0.146756,-0.372533 0,-0.237067 -0.1524,-0.344311 -0.1524,-0.112889 -0.474133,-0.112889 h -0.327378 z m 4.475864,-1.450622 -0.07338,0.519289 h -1.224844 v 0.790222 h 1.0668 v 0.513644 h -1.0668 v 0.846666 h 1.303866 v 0.524933 h -2.02071 v -3.194754 z m 1.80604,0 q 0.660399,0 1.021643,0.259645 0.366889,0.259644 0.366889,0.773288 0,0.541866 -0.366889,0.812799 -0.361244,0.270933 -0.965199,0.270933 h -0.383822 v 1.078089 h -0.716844 v -3.194754 z m 0,1.591733 q 0.316088,0 0.479777,-0.124178 0.163689,-0.129822 0.163689,-0.428978 0,-0.524933 -0.654755,-0.524933 h -0.316089 v 1.078089 z m 3.115555,0.361244 h -0.3556 v 1.241777 h -0.722488 v -3.194754 h 1.049866 q 1.365954,0 1.365954,0.953911 0,0.321733 -0.163688,0.536222 -0.158045,0.208844 -0.496711,0.338666 l 0.869244,1.365955 h -0.818444 z m -0.3556,-0.502355 h 0.366889 q 0.293511,0 0.440266,-0.112889 0.146756,-0.118534 0.146756,-0.372533 0,-0.237067 -0.1524,-0.344311 -0.1524,-0.112889 -0.474133,-0.112889 h -0.327378 z m 3.183287,-1.450622 v 3.194754 h -0.722488 v -3.194754 z m 3.499373,3.194754 h -0.925688 l -1.083733,-2.539999 0.01693,0.135467 q 0.04515,0.310444 0.06773,0.581377 0.02822,0.270933 0.02822,0.615244 v 1.207911 h -0.64911 v -3.194754 h 0.90311 l 1.100666,2.545643 q -0.107244,-0.592666 -0.107244,-1.202266 v -1.343377 h 0.64911 z m 3.109908,-3.194754 -0.07338,0.5588 H 85.59018 v 2.635954 H 84.867691 V 75.439608 H 83.97587 v -0.5588 z m 1.394006,-0.06773 q 0.361244,0 0.637821,0.1016 0.276578,0.1016 0.502355,0.3048 l -0.349955,0.395111 q -0.344311,-0.270934 -0.739421,-0.270934 -0.237067,0 -0.372534,0.08467 -0.135466,0.08467 -0.135466,0.248355 0,0.107245 0.0508,0.174978 0.05644,0.06773 0.191911,0.129822 0.141111,0.06209 0.423333,0.146756 0.502355,0.1524 0.75071,0.383822 0.248356,0.225777 0.248356,0.637821 0,0.293511 -0.158045,0.519289 -0.152399,0.225777 -0.451555,0.3556 -0.293511,0.124177 -0.694266,0.124177 -0.4064,0 -0.728133,-0.118533 -0.321733,-0.124178 -0.541866,-0.333022 l 0.361244,-0.412044 q 0.389467,0.327377 0.880533,0.327377 0.265289,0 0.423333,-0.107244 0.158044,-0.112889 0.158044,-0.299155 0,-0.124178 -0.05644,-0.2032 -0.0508,-0.08467 -0.186267,-0.1524 -0.135466,-0.06773 -0.389466,-0.141111 -0.5588,-0.163689 -0.795866,-0.389466 -0.231422,-0.231422 -0.231422,-0.592667 0,-0.423333 0.338666,-0.666044 0.344311,-0.248355 0.8636,-0.248355 z m 5.31106,0.06773 -0.07902,0.519289 h -1.162755 v 0.869244 h 1.010355 v 0.519288 h -1.010355 v 1.286933 h -0.722489 v -3.194754 z m 1.783463,-0.06773 q 0.699911,0 1.095022,0.440266 0.400755,0.434622 0.400755,1.2192 0,0.784577 -0.400755,1.230487 -0.400756,0.445911 -1.095022,0.445911 -0.69991,0 -1.100666,-0.440266 -0.400755,-0.440266 -0.400755,-1.236132 0,-0.508 0.180622,-0.880533 0.186267,-0.378178 0.524933,-0.575733 0.338667,-0.2032 0.795866,-0.2032 z m 0,0.530577 q -0.366888,0 -0.558799,0.270934 -0.191911,0.270933 -0.191911,0.857955 0,0.59831 0.191911,0.874888 0.191911,0.270933 0.558799,0.270933 0.372533,0 0.5588,-0.270933 0.186266,-0.270933 0.186266,-0.874888 0,-0.587022 -0.191911,-0.857955 -0.186266,-0.270934 -0.553155,-0.270934 z m 3.318757,1.490133 h -0.3556 v 1.241777 H 97.25071 v -3.194754 h 1.049866 q 1.365954,0 1.365954,0.953911 0,0.321733 -0.163688,0.536222 -0.158045,0.208844 -0.496711,0.338666 l 0.869244,1.365955 h -0.818444 z m -0.3556,-0.502355 h 0.366889 q 0.293511,0 0.440266,-0.112889 0.146756,-0.118534 0.146756,-0.372533 0,-0.237067 -0.1524,-0.344311 -0.1524,-0.112889 -0.474133,-0.112889 h -0.327378 z"
         id="path1" />
      <path
         style="font-weight:500;font-size:5.64444px;font-family:'Fira Sans';-inkscape-font-specification:'Fira Sans, Medium';font-variant-caps:small-caps;letter-spacing:0.0449792px"
         d="m 102.60693,74.880808 v 2.619021 h 1.34338 l -0.079,0.575733 h -1.9812 v -3.194754 z m 2.65836,0 v 3.194754 h -0.72249 v -3.194754 z m 2.91799,0 -0.079,0.519289 h -1.16275 v 0.869244 h 1.01035 v 0.519288 h -1.01035 v 1.286933 h -0.72249 v -3.194754 z m 2.6132,0 -0.0734,0.519289 h -1.22485 v 0.790222 h 1.0668 v 0.513644 h -1.0668 v 0.846666 h 1.30387 v 0.524933 h -2.02071 v -3.194754 z"
         id="path2" />
      <path
         style="font-weight:500;font-size:5.64444px;font-family:'Fira Sans';-inkscape-font-specification:'Fira Sans, Medium';font-variant-caps:small-caps;letter-spacing:0.0449792px;fill:#000000"
         d="m 114.71901,78.075562 -0.19191,-0.705555 h -1.05551 l -0.19192,0.705555 h -0.75071 l 1.04423,-3.194754 h 0.86924 l 1.03293,3.194754 z m -1.10631,-1.230488 h 0.77328 l -0.38946,-1.439333 z m 4.88791,1.230488 h -0.92569 l -1.08373,-2.539999 0.0169,0.135467 q 0.0451,0.310444 0.0677,0.581377 0.0282,0.270933 0.0282,0.615244 v 1.207911 h -0.64911 v -3.194754 h 0.90311 l 1.10067,2.545643 q -0.10724,-0.592666 -0.10724,-1.202266 v -1.343377 h 0.64911 z m 1.83991,-3.194754 q 0.78457,0 1.25871,0.338667 0.47977,0.338666 0.47977,1.236132 0,0.886177 -0.46849,1.253066 -0.46848,0.366889 -1.19097,0.366889 h -0.9652 v -3.194754 z m -0.16934,0.524933 v 2.144888 h 0.29916 q 0.41204,0 0.63782,-0.237067 0.22578,-0.242711 0.22578,-0.857955 0,-0.603955 -0.23142,-0.824088 -0.23143,-0.225778 -0.65476,-0.225778 z"
         id="path3" />
      <path
         style="font-weight:500;font-size:5.64444px;font-family:'Fira Sans';-inkscape-font-specification:'Fira Sans, Medium';font-variant-caps:small-caps;letter-spacing:0.0449792px;fill:#0e4c92"
         d="m 126.84256,74.880808 v 3.194754 h -0.72248 v -1.388533 h -1.1176 v 1.388533 h -0.72249 v -3.194754 h 0.72249 v 1.241777 h 1.1176 v -1.241777 z m 2.9688,0 -0.0734,0.519289 h -1.22484 v 0.790222 h 1.0668 v 0.513644 h -1.0668 v 0.846666 h 1.30387 v 0.524933 h -2.02071 v -3.194754 z m 2.46644,3.194754 -0.19191,-0.705555 h -1.05551 l -0.19191,0.705555 h -0.75071 l 1.04422,-3.194754 h 0.86924 l 1.03293,3.194754 z m -1.10631,-1.230488 h 0.77329 l -0.38947,-1.439333 z m 3.05911,-1.964266 v 2.619021 h 1.34338 l -0.079,0.575733 h -1.9812 v -3.194754 z m 3.66871,0 -0.0734,0.5588 h -0.85796 v 2.635954 h -0.72248 v -2.635954 h -0.89183 v -0.5588 z m 3.09298,0 v 3.194754 h -0.72249 v -1.388533 h -1.1176 v 1.388533 h -0.72249 v -3.194754 h 0.72249 v 1.241777 h 1.1176 v -1.241777 z"
         id="path4" />
      <path
         style="font-weight:500;font-size:5.64444px;font-family:'Fira Sans';-inkscape-font-specification:'Fira Sans, Medium';font-variant-caps:small-caps;letter-spacing:0.0449792px;fill:#000000"
         d="m 144.40682,74.813075 q 0.36125,0 0.63782,0.1016 0.27658,0.1016 0.50236,0.3048 l -0.34996,0.395111 q -0.34431,-0.270934 -0.73942,-0.270934 -0.23706,0 -0.37253,0.08467 -0.13547,0.08467 -0.13547,0.248355 0,0.107245 0.0508,0.174978 0.0565,0.06773 0.19191,0.129822 0.14111,0.06209 0.42334,0.146756 0.50235,0.1524 0.75071,0.383822 0.24835,0.225777 0.24835,0.637821 0,0.293511 -0.15804,0.519289 -0.1524,0.225777 -0.45156,0.3556 -0.29351,0.124177 -0.69426,0.124177 -0.4064,0 -0.72814,-0.118533 -0.32173,-0.124178 -0.54186,-0.333022 l 0.36124,-0.412044 q 0.38947,0.327377 0.88053,0.327377 0.26529,0 0.42334,-0.107244 0.15804,-0.112889 0.15804,-0.299155 0,-0.124178 -0.0564,-0.2032 -0.0508,-0.08467 -0.18627,-0.1524 -0.13547,-0.06773 -0.38947,-0.141111 -0.5588,-0.163689 -0.79586,-0.389466 -0.23142,-0.231422 -0.23142,-0.592667 0,-0.423333 0.33866,-0.666044 0.34431,-0.248355 0.8636,-0.248355 z m 3.172,0 q 0.32173,0 0.5588,0.09031 0.23706,0.08467 0.4572,0.259644 l -0.3556,0.417689 q -0.28223,-0.231422 -0.62089,-0.231422 -0.3556,0 -0.57009,0.276577 -0.21449,0.276578 -0.21449,0.841022 0,0.570089 0.21449,0.846666 0.21449,0.276578 0.58138,0.276578 0.19191,0 0.33866,-0.06209 0.1524,-0.06773 0.33302,-0.197556 l 0.33867,0.412045 q -0.18627,0.180622 -0.45155,0.29351 -0.26529,0.112889 -0.59832,0.112889 -0.45155,0 -0.79022,-0.191911 -0.33866,-0.197555 -0.53057,-0.575733 -0.18627,-0.378177 -0.18627,-0.914399 0,-0.513644 0.19191,-0.886177 0.19756,-0.378178 0.53622,-0.570088 0.33867,-0.197556 0.76765,-0.197556 z m 2.3592,0.06773 v 3.194754 h -0.72249 v -3.194754 z m 2.9688,0 -0.0734,0.519289 h -1.22485 v 0.790222 h 1.0668 v 0.513644 h -1.0668 v 0.846666 h 1.30387 v 0.524933 h -2.02071 v -3.194754 z m 3.30746,3.194754 h -0.92569 l -1.08373,-2.539999 0.0169,0.135467 q 0.0452,0.310444 0.0677,0.581377 0.0282,0.270933 0.0282,0.615244 v 1.207911 h -0.64911 v -3.194754 h 0.90311 l 1.10066,2.545643 q -0.10724,-0.592666 -0.10724,-1.202266 v -1.343377 h 0.64911 z m 2.23501,-3.262487 q 0.32173,0 0.5588,0.09031 0.23707,0.08467 0.4572,0.259644 l -0.3556,0.417689 q -0.28222,-0.231422 -0.62089,-0.231422 -0.3556,0 -0.57009,0.276577 -0.21448,0.276578 -0.21448,0.841022 0,0.570089 0.21448,0.846666 0.21449,0.276578 0.58138,0.276578 0.19191,0 0.33867,-0.06209 0.1524,-0.06773 0.33302,-0.197556 l 0.33867,0.412045 q -0.18627,0.180622 -0.45156,0.29351 -0.26529,0.112889 -0.59831,0.112889 -0.45155,0 -0.79022,-0.191911 -0.33867,-0.197555 -0.53058,-0.575733 -0.18627,-0.378177 -0.18627,-0.914399 0,-0.513644 0.19192,-0.886177 0.19755,-0.378178 0.53622,-0.570088 0.33866,-0.197556 0.76764,-0.197556 z m 3.65179,0.06773 -0.0734,0.519289 h -1.22485 v 0.790222 h 1.0668 v 0.513644 h -1.0668 v 0.846666 h 1.30387 v 0.524933 h -2.02071 v -3.194754 z m 1.73265,-0.06773 q 0.36125,0 0.63782,0.1016 0.27658,0.1016 0.50236,0.3048 l -0.34996,0.395111 q -0.34431,-0.270934 -0.73942,-0.270934 -0.23706,0 -0.37253,0.08467 -0.13547,0.08467 -0.13547,0.248355 0,0.107245 0.0508,0.174978 0.0564,0.06773 0.19191,0.129822 0.14111,0.06209 0.42334,0.146756 0.50235,0.1524 0.75071,0.383822 0.24835,0.225777 0.24835,0.637821 0,0.293511 -0.15804,0.519289 -0.1524,0.225777 -0.45156,0.3556 -0.29351,0.124177 -0.69426,0.124177 -0.4064,0 -0.72814,-0.118533 -0.32173,-0.124178 -0.54186,-0.333022 l 0.36124,-0.412044 q 0.38947,0.327377 0.88053,0.327377 0.26529,0 0.42334,-0.107244 0.15804,-0.112889 0.15804,-0.299155 0,-0.124178 -0.0564,-0.2032 -0.0508,-0.08467 -0.18627,-0.1524 -0.13547,-0.06773 -0.38947,-0.141111 -0.55879,-0.163689 -0.79586,-0.389466 -0.23142,-0.231422 -0.23142,-0.592667 0,-0.423333 0.33866,-0.666044 0.34431,-0.248355 0.8636,-0.248355 z"
         id="path5" />
    </g>
  </g>
</svg>
