<?xml version="1.0" encoding="UTF-8" standalone="no"?>
<!-- Created with Inkscape (http://www.inkscape.org/) -->

<svg
   width="89.116646mm"
   height="40.65089mm"
   viewBox="0 0 89.116646 40.65089"
   version="1.1"
   id="svg1"
   xmlns="http://www.w3.org/2000/svg"
   xmlns:svg="http://www.w3.org/2000/svg">
  <desc property="dc:creator">Michael Koksharov: https://github.com/LuciferaseMaster/PrePrint-Template-for-AnyRxiv/tree/master/preprint_logos</desc>
  <defs
     id="defs1" />
  <g
     id="layer1"
     transform="translate(-60.589584,-128.05834)">
    <path
       style="font-style:italic;font-weight:800;font-size:16.2278px;line-height:47.4661px;font-family:'EB Garamond';-inkscape-font-specification:'EB Garamond Ultra-Bold Italic';text-align:center;letter-spacing:0px;text-anchor:middle;fill:#00a09b;stroke-width:0.6"
       d="m 67.078466,164.31149 q -0.09737,0 -0.178506,-0.0974 -0.08114,-0.0974 -0.08114,-0.27588 0,-1.84996 -0.113594,-3.58634 -0.09737,-1.7526 -0.227189,-3.53766 -0.01623,-0.16228 -0.129823,-0.11359 -0.113594,0.0487 -0.194733,0.22718 -0.551746,1.1035 -1.054807,2.20699 -0.486834,1.10349 -0.876302,2.2232 -0.227189,0.66534 -0.275872,1.11972 -0.03246,0.45438 0.113594,0.71403 0.162278,0.24341 0.503062,0.34078 0.129823,0.0325 0.259645,0.11359 0.129822,0.0649 0.08114,0.22719 -0.03246,0.1136 -0.194734,0.17851 -0.14605,0.0649 -0.275872,0.0649 -0.438151,0 -0.681568,-0.0162 -0.243417,-0.0162 -0.43815,-0.0162 -0.194734,-0.0162 -0.535518,-0.0162 -0.373239,0 -0.81139,0.0162 -0.43815,0.0162 -0.746479,0.0325 -0.308328,0.0162 -0.308328,0.0162 -0.389467,0 -0.308328,-0.24342 0.04868,-0.14605 0.210961,-0.1785 0.162278,-0.0487 0.324556,-0.1136 0.389468,-0.14605 0.697796,-0.32456 0.324556,-0.1785 0.649112,-0.5842 0.324556,-0.40569 0.714023,-1.21708 l 2.645131,-5.40386 q 0.324556,-0.66534 0.357012,-1.05481 0.03246,-0.38946 -0.308328,-0.63288 -0.324556,-0.24342 -1.103491,-0.42192 -0.194733,-0.0487 -0.308328,-0.0974 -0.09737,-0.0487 -0.09737,-0.21096 0,-0.17851 0.194734,-0.21096 0.194734,-0.0325 0.373239,-0.0325 0.340784,0 0.941213,0.0162 0.600428,0.0162 1.233313,0.0487 0.632884,0.0162 1.038579,0.0162 0.454378,0 0.567973,0.25965 0.129822,0.25964 0.09737,0.64911 -0.01623,0.38947 0,0.79516 l 0.243417,5.17667 q 0.01623,0.14605 0.08114,0.19473 0.08114,0.0487 0.227189,-0.0974 0.860073,-0.86008 1.687691,-1.88243 0.827618,-1.03858 1.541641,-2.0447 0.714023,-1.00613 1.217085,-1.7526 0.227189,-0.34079 0.405695,-0.58421 0.178506,-0.25964 0.292101,-0.45437 0.14605,-0.21097 0.340783,-0.21097 h 0.81139 q 0.486834,0 0.924985,-0.0324 0.438151,-0.0325 0.81139,-0.0649 0.389467,-0.0325 0.681568,-0.0325 0.178506,0 0.275872,0.0487 0.09737,0.0325 0.09737,0.1785 0,0.14605 -0.227189,0.27587 -0.227189,0.1136 -0.66534,0.22719 -0.373239,0.0974 -0.632884,0.2921 -0.259645,0.19474 -0.438151,0.48684 -0.162278,0.2921 -0.275872,0.69779 -0.438151,1.67147 -0.843846,3.40784 -0.389467,1.73638 -0.746479,3.47275 -0.08114,0.4057 0.162278,0.66534 0.243417,0.24342 0.681568,0.37324 0.129822,0.0487 0.210961,0.11359 0.09737,0.0649 0.04868,0.22719 -0.03246,0.1136 -0.146051,0.17851 -0.113594,0.0649 -0.243417,0.0649 -0.340783,0 -0.843845,-0.0162 -0.486834,-0.0162 -0.973668,-0.0324 -0.470606,-0.0162 -0.795162,-0.0162 -0.324556,0 -0.762707,0.0162 -0.438151,0.0162 -0.892529,0.0324 -0.438151,0.0325 -0.795162,0.0325 -0.129823,0 -0.227189,-0.0649 -0.08114,-0.0649 -0.04868,-0.17851 0.04868,-0.14605 0.178506,-0.22719 0.129822,-0.0974 0.2921,-0.12982 0.66534,-0.16228 0.957441,-0.34078 0.2921,-0.19474 0.43815,-0.68157 0.275873,-0.90876 0.503062,-1.78506 0.227189,-0.89253 0.438151,-1.76883 0.227189,-0.89253 0.43815,-1.78506 0.03246,-0.0974 -0.01623,-0.0811 -0.04868,0 -0.14605,0.1136 l -4.040722,4.65738 -1.557869,2.14207 q -0.06491,0.0974 -0.194734,0.19473 -0.129822,0.11359 -0.227189,0.11359 z m 10.888846,0 q -0.227189,0 -0.470606,-0.12982 -0.243417,-0.12982 -0.405695,-0.32455 -0.162278,-0.21097 -0.162278,-0.38947 0,-0.47061 0.275872,-1.02235 0.259645,-0.56798 0.924985,-1.41182 0.66534,-0.86008 1.849969,-2.22321 0.66534,-0.76271 1.298224,-1.24954 0.632884,-0.48683 0.941212,-0.48683 0.470607,0 1.071035,0.4706 0.08114,0.0811 0.09737,0.0974 0.03246,0.0162 0.04868,0.0162 0.03245,0 0.03245,0 0.01623,-0.0162 0.06491,-0.1136 0.09737,-0.19473 0.146051,-0.2921 0.04868,-0.11359 0.09737,-0.22719 0.08114,-0.19473 0.438151,-0.19473 0.275873,0 0.584201,0.12982 0.308328,0.12982 0.519289,0.30833 0.22719,0.1785 0.22719,0.34078 0,0.0974 -0.01623,0.1136 l -1.574097,4.31659 q -0.129822,0.38947 0.162278,0.38947 0.162278,0 0.535518,-0.27587 0.389467,-0.27588 0.795162,-0.68157 0.04868,-0.0487 0.04868,-0.0487 0,0 0.01623,0 0.08114,0 0.14605,0.0811 0.06491,0.0811 0.06491,0.19474 0,0.25964 -0.324556,0.68157 -0.324556,0.40569 -0.860073,0.84384 -0.616656,0.50306 -1.217085,0.79516 -0.584201,0.2921 -0.95744,0.2921 -0.259645,0 -0.535518,-0.14605 -0.275872,-0.14605 -0.454378,-0.35701 -0.178506,-0.22719 -0.178506,-0.43815 0,-0.0974 0.08114,-0.37324 0.04868,-0.14605 0.113595,-0.30833 0.06491,-0.16227 0.129822,-0.32455 0.06491,-0.16228 0.129822,-0.32456 0.08114,-0.16228 0.146051,-0.32455 0.03245,-0.0649 -0.03246,-0.0974 -0.06491,-0.0325 -0.09737,0 -0.795162,0.92498 -1.47673,1.52541 -0.665339,0.60043 -1.217085,0.89253 -0.535517,0.27587 -1.006123,0.27587 z m 1.882425,-1.86619 q 0.259644,0 0.827617,-0.48684 0.584201,-0.50306 1.152174,-1.21708 0.503062,-0.61666 0.795162,-1.08726 0.292101,-0.48684 0.292101,-0.68157 0,-0.14605 -0.357012,-0.43815 -0.162278,-0.12983 -0.340784,-0.21096 -0.178505,-0.0974 -0.2921,-0.0974 -0.243417,0 -0.66534,0.2921 -0.421923,0.2921 -0.795162,0.66534 -0.2921,0.2921 -0.551745,0.76271 -0.243417,0.45437 -0.405695,0.97366 -0.14605,0.50307 -0.14605,0.94122 0,0.27587 0.129822,0.43815 0.129822,0.14605 0.357012,0.14605 z m 8.243715,1.86619 q -0.14605,0 -0.373239,-0.11359 -0.22719,-0.1136 -0.438151,-0.30833 -0.210961,-0.21096 -0.308328,-0.48683 -0.09737,-0.27588 0.03246,-0.5842 l 1.590325,-3.95959 q 0.129822,-0.34078 -0.194734,-0.34078 -0.09737,0 -0.324556,0.0162 -0.227189,0.0162 -0.503062,0.12982 -0.259644,0.11359 -0.503061,0.38947 -0.06491,0.0811 -0.210962,0.0811 -0.129822,-0.0162 -0.14605,-0.16228 0,-0.12982 0.113595,-0.32456 0.113594,-0.21096 0.275872,-0.42192 0.178506,-0.21096 0.292101,-0.30833 0.421922,-0.37324 1.006123,-0.64911 0.584201,-0.27587 1.395591,-0.27587 0.454378,0 0.681568,0.24341 0.243417,0.22719 0.2921,0.5842 0.04868,0.34079 -0.09737,0.71403 l -0.81139,1.99602 q -0.04868,0.11359 0.09737,0.12982 0.162278,0.0162 0.227189,-0.0974 0.551745,-0.98989 1.087263,-1.78506 0.551745,-0.81139 1.152174,-1.29822 0.616656,-0.48683 1.330679,-0.48683 0.697796,0 0.989896,0.38946 0.292101,0.37324 0.292101,0.90876 0.01623,0.53552 -0.194734,1.00612 l -1.168402,2.72627 q -0.194733,0.47061 0.06491,0.47061 0.08114,0 0.22719,-0.0811 0.162278,-0.0811 0.340783,-0.21096 0.178506,-0.12982 0.324556,-0.25964 0.162278,-0.12983 0.243417,-0.21097 0.09737,-0.0974 0.194734,-0.19473 0.113595,-0.0974 0.178506,-0.0974 0.04868,0 0.09737,0.0649 0.06491,0.0649 0.06491,0.14605 0,0.35702 -0.243417,0.64912 -0.486834,0.5842 -1.119718,1.03858 -0.616657,0.45437 -1.281997,0.71402 -0.649112,0.25964 -1.217085,0.25964 -0.227189,0 -0.470606,-0.14605 -0.227189,-0.14605 -0.340784,-0.34078 -0.113594,-0.21096 -0.03245,-0.42192 0.535517,-1.21709 1.119718,-2.38549 0.600429,-1.18463 1.054807,-2.41794 0.08114,-0.22719 0.06491,-0.34079 -0.01623,-0.12982 -0.194733,-0.12982 -0.210962,0 -0.470607,0.2921 -0.243417,0.27588 -0.519289,0.6978 -0.259645,0.40569 -0.551745,0.82762 -0.129823,0.19473 -0.37324,0.60042 -0.243417,0.38947 -0.535517,0.87631 -0.292101,0.4706 -0.567973,0.94121 -0.259645,0.45438 -0.454379,0.77893 -0.275872,0.48684 -0.567973,0.82762 -0.2921,0.34078 -0.616656,0.34078 z m 9.898964,0 q -0.357012,0 -0.66534,-0.30832 -0.292101,-0.30833 -0.421923,-0.71403 -0.113595,-0.42192 0.03246,-0.7627 l 1.476729,-3.29425 q 0.113595,-0.24341 0.08114,-0.35701 -0.01623,-0.11359 -0.14605,-0.11359 -0.09737,0 -0.373239,0.16227 -0.259645,0.14605 -0.535518,0.34079 -0.259644,0.19473 -0.373239,0.30833 -0.243417,0.24341 -0.389467,0.24341 -0.14605,0 -0.14605,-0.16227 0,-0.17851 0.09737,-0.34079 0.09737,-0.16228 0.210962,-0.30833 0.486834,-0.5842 1.022351,-1.03858 0.535518,-0.45437 1.087263,-0.71402 0.567973,-0.25964 1.135944,-0.25964 0.25965,0 0.50306,0.24341 0.25965,0.22719 0.37324,0.55175 0.12983,0.30833 0.0162,0.56797 -0.25964,0.5842 -0.71402,1.52541 -0.438153,0.92499 -1.022354,2.17453 -0.113594,0.22719 -0.08114,0.38947 0.03246,0.14605 0.194734,0.14605 0.162278,0 0.470606,-0.35701 0.308333,-0.35702 0.697793,-0.90876 0.4057,-0.56797 0.81139,-1.13595 0.24342,-0.32455 0.47061,-0.66534 0.22719,-0.35701 0.43815,-0.71402 0.22719,-0.35701 0.42192,-0.66534 0.30833,-0.48683 0.55175,-0.81139 0.24341,-0.34078 0.55174,-0.34078 0.35701,0 0.63289,0.19473 0.27587,0.19473 0.40569,0.47061 0.12982,0.25964 0.0325,0.51929 l -1.50919,4.07317 q -0.0324,0.0974 -0.0324,0.21096 0,0.0974 0.0811,0.0974 0.11359,0 0.43815,-0.19473 0.32455,-0.21096 0.68156,-0.48684 0.37324,-0.27587 0.5842,-0.48683 0.0487,-0.0487 0.0649,-0.0487 0.0974,0 0.16227,0.0811 0.0649,0.0811 0.0649,0.1785 0,0.24342 -0.27587,0.5842 -0.25964,0.34079 -0.69779,0.71403 -0.42193,0.37323 -0.92499,0.69779 -0.48683,0.30833 -0.95744,0.50306 -0.45438,0.21096 -0.79516,0.21096 -0.21096,0 -0.4057,-0.16227 -0.19473,-0.14605 -0.30832,-0.37324 -0.1136,-0.22719 -0.1136,-0.4057 0,-0.0811 0.0325,-0.16228 0.0325,-0.0974 0.0811,-0.21096 0.11359,-0.25964 0.25964,-0.5842 0.14605,-0.32455 0.32456,-0.73025 0.1785,-0.40569 0.37324,-0.90876 0.0487,-0.12982 -0.0325,-0.12982 -0.0811,-0.0162 -0.16228,0.0974 -0.38946,0.5842 -0.86007,1.21708 -0.45438,0.61666 -0.957441,1.15218 -0.486834,0.53551 -0.989895,0.8763 -0.503062,0.32455 -0.973668,0.32455 z m 9.249844,0 q -0.76271,0 -1.21709,-0.32455 -0.45437,-0.34079 -0.45437,-0.89253 0,-0.42192 0.19473,-0.73025 0.17851,-0.30833 0.53552,-0.30833 0.12982,0 0.2921,0.17851 0.1785,0.16227 0.38946,0.38946 0.24342,0.24342 0.55175,0.53552 0.30833,0.2921 0.61666,0.2921 0.22719,0 0.30832,-0.11359 0.0974,-0.12983 0.1136,-0.37324 0.0162,-0.22719 -0.25965,-0.61666 -0.25964,-0.40569 -0.53551,-0.76271 -0.30833,-0.42192 -0.55175,-0.92498 -0.22719,-0.50306 -0.22719,-1.00612 0,-0.42193 0.30833,-0.87631 0.30833,-0.45437 0.77894,-0.86007 0.4706,-0.42192 0.94121,-0.66534 0.4706,-0.25964 0.77893,-0.25964 0.45438,0 0.86008,0.19473 0.42192,0.17851 0.69779,0.43815 0.27587,0.25965 0.27587,0.47061 0,0.19473 -0.1785,0.4706 -0.17851,0.27588 -0.42193,0.48684 -0.22718,0.19473 -0.43815,0.19473 -0.21096,0 -0.38946,-0.16228 -0.17851,-0.1785 -0.30833,-0.35701 -0.16228,-0.24342 -0.4057,-0.40569 -0.22719,-0.17851 -0.45437,-0.17851 -0.21097,0 -0.32456,0.14605 -0.1136,0.14605 -0.1136,0.2921 0,0.12982 0.14605,0.34078 0.14606,0.19474 0.35702,0.43815 0.21096,0.24342 0.42192,0.51929 0.53552,0.66534 0.74648,1.07104 0.22719,0.38947 0.22719,0.79516 0,0.30833 -0.27588,0.74648 -0.27587,0.42192 -0.74647,0.84385 -0.45438,0.42192 -1.03858,0.69779 -0.5842,0.27587 -1.20086,0.27587 z m 6.52358,0 q -0.66534,0 -1.20086,-0.30832 -0.53551,-0.32456 -0.86007,-0.84385 -0.30833,-0.53552 -0.2921,-1.1684 0.0162,-0.82762 0.24342,-1.5741 0.24341,-0.7627 0.64911,-1.37936 0.42192,-0.63289 0.95744,-1.08726 0.55174,-0.45438 1.20086,-0.6978 0.66534,-0.25964 1.37936,-0.25964 0.66534,0 1.08726,0.30832 0.42192,0.2921 0.42192,0.76271 0,0.32456 -0.22719,0.63289 -0.22718,0.30832 -0.4706,0.30832 -0.12982,0 -0.22719,-0.0974 -0.0974,-0.0974 -0.2921,-0.42193 -0.16228,-0.30832 -0.38947,-0.51929 -0.21096,-0.22719 -0.40569,-0.22719 -0.34079,0 -0.64912,0.27588 -0.30832,0.27587 -0.56797,0.74648 -0.24342,0.45437 -0.38947,1.03858 -0.14605,0.56797 -0.16227,1.18462 -0.0162,0.61666 0.30832,0.9899 0.34079,0.35701 0.90876,0.35701 0.42192,0 0.81139,-0.19473 0.4057,-0.21096 0.66534,-0.56797 0.0649,-0.0811 0.14605,-0.12983 0.0974,-0.0649 0.16228,-0.0649 0.16228,0 0.16228,0.17851 0,0.45438 -0.27587,0.94121 -0.25965,0.48683 -0.71403,0.90876 -0.43815,0.40569 -0.95744,0.66534 -0.51929,0.24341 -1.02235,0.24341 z m 5.25781,0 q -0.16228,0 -0.42192,-0.0974 -0.24342,-0.0974 -0.43815,-0.27588 -0.19473,-0.19473 -0.19473,-0.43815 0,-0.0974 0.0162,-0.1785 0.0162,-0.0974 0.0487,-0.19474 l 1.67146,-4.31659 q 0.0649,-0.16228 0.0162,-0.24342 -0.0487,-0.0974 -0.21096,-0.0974 -0.35702,0 -0.55175,0.14605 -0.19473,0.14605 -0.45438,0.35701 -0.0811,0.0649 -0.21096,0.0649 -0.12982,0 -0.14605,-0.14605 -0.0324,-0.37324 0.2921,-0.74648 0.34079,-0.38947 0.84385,-0.66534 0.38946,-0.22719 0.82761,-0.35701 0.45438,-0.12982 0.86008,-0.12982 0.45438,0 0.66534,0.25964 0.22719,0.24342 0.22719,0.68157 0.0162,0.42192 -0.22719,0.97367 l -0.60043,1.39559 q -0.0487,0.11359 0.0325,0.12982 0.0974,0.0162 0.16227,-0.0974 0.55175,-0.98989 1.07104,-1.73637 0.51929,-0.74648 1.07103,-1.1684 0.56798,-0.43815 1.20086,-0.43815 0.53552,0 0.82762,0.30832 0.2921,0.30833 0.2921,0.77894 0,0.45438 -0.22719,0.8763 -0.21096,0.42192 -0.51929,0.68157 -0.2921,0.25964 -0.55175,0.25964 -0.19473,0 -0.30832,-0.16228 -0.0974,-0.1785 -0.17851,-0.53551 -0.0649,-0.2921 -0.16228,-0.51929 -0.0974,-0.24342 -0.30833,-0.24342 -0.30832,0 -0.60042,0.4057 -0.29211,0.40569 -0.66534,1.07103 -0.1136,0.19473 -0.34079,0.60043 -0.21096,0.38947 -0.48683,0.8763 -0.25965,0.47061 -0.51929,0.94121 -0.25965,0.45438 -0.45438,0.77894 -0.27587,0.48683 -0.64911,0.84384 -0.37324,0.35701 -0.6978,0.35701 z m 7.51349,0 q -0.4057,0 -0.73025,-0.30832 -0.32456,-0.32456 -0.32456,-0.63289 0,-0.0811 0.0162,-0.16228 0.0162,-0.0974 0.0649,-0.21096 0.42192,-0.95744 0.81139,-1.93111 0.40569,-0.97366 0.79516,-1.91488 0.0325,-0.0811 -0.0649,-0.0811 -0.12982,0 -0.2921,0.0811 -0.16228,0.0649 -0.34078,0.17851 -0.16228,0.0974 -0.34079,0.19473 -0.24342,0.12983 -0.34078,0.0649 -0.0974,-0.0811 -0.0974,-0.21096 0,-0.12982 0.22719,-0.37324 0.24342,-0.25964 0.61666,-0.55174 0.37324,-0.30833 0.79516,-0.60043 0.42192,-0.2921 0.79516,-0.50306 0.38947,-0.22719 0.61666,-0.30833 0.25964,-0.0974 0.53551,0.0325 0.27588,0.11359 0.42193,0.34078 0.16228,0.21096 0.0811,0.42192 l -1.78506,4.44642 q -0.0162,0.0487 -0.0325,0.11359 0,0.0487 0,0.0811 0,0.0487 0.0162,0.0811 0.0325,0.0325 0.0649,0.0325 0.1136,0 0.42192,-0.17851 0.30833,-0.19473 0.64912,-0.43815 0.34078,-0.25964 0.55174,-0.47061 0.0487,-0.0487 0.0649,-0.0487 0.0974,0 0.16228,0.0811 0.0649,0.0811 0.0649,0.17851 0,0.2921 -0.35701,0.73025 -0.35701,0.43815 -0.89253,0.8763 -0.53552,0.42192 -1.11972,0.71402 -0.5842,0.27587 -1.0548,0.27587 z m 2.921,-8.37354 q -0.38947,0 -0.64911,-0.2921 -0.25965,-0.30833 -0.25965,-0.68157 0,-0.5842 0.42193,-1.03858 0.42192,-0.45438 1.03858,-0.45438 0.42192,0 0.64911,0.34079 0.22719,0.34078 0.22719,0.71402 0,0.55175 -0.42193,0.9899 -0.42192,0.42192 -1.00612,0.42192 z m -0.47061,12.77128 q -0.0649,0 -0.11359,-0.0649 -0.0487,-0.0487 -0.0325,-0.12983 0.0162,-0.12982 0.1136,-0.19473 0.0811,-0.0649 0.21096,-0.0974 0.53552,-0.14605 0.77893,-0.2921 0.22719,-0.12982 0.35702,-0.53551 l 2.67758,-8.35732 q 0.0487,-0.14605 0.0811,-0.2921 0.0487,-0.14605 0.0162,-0.22719 -0.0162,-0.0974 -0.21096,-0.0487 -0.30833,0.0811 -0.53552,0.16227 -0.22719,0.0811 -0.60043,0.21097 -0.12982,0.0487 -0.27587,0.0325 -0.14605,-0.0162 -0.14605,-0.21096 0,-0.17851 0.14605,-0.2921 0.14605,-0.1136 0.30833,-0.17851 0.25964,-0.0974 0.55174,-0.24341 0.30833,-0.16228 0.90876,-0.42193 0.11359,-0.0487 0.21096,-0.1785 0.1136,-0.14605 0.22719,-0.50306 0.27587,-0.77894 0.74648,-1.15218 0.47061,-0.37324 1.00612,-0.37324 0.34079,0 0.45438,0.21096 0.12982,0.19474 0,0.66534 l -0.14605,0.56798 q -0.0325,0.16227 -0.0325,0.27587 0.0162,0.0974 0.0811,0.0811 0.21097,-0.0487 0.42193,-0.0811 0.22719,-0.0487 0.4706,-0.0487 0.87631,0 1.47673,0.2921 0.61666,0.2921 0.94122,0.79516 0.32455,0.50306 0.32455,1.15217 0,0.8763 -0.38946,1.78506 -0.37324,0.89253 -1.03858,1.63901 -0.64912,0.74648 -1.50919,1.20086 -0.84385,0.45437 -1.76883,0.45437 -0.30833,0 -0.55175,-0.11359 -0.24341,-0.1136 -0.37323,-0.21096 -0.22719,-0.17851 -0.34079,-0.14605 -0.11359,0.0325 -0.19473,0.34078 l -0.84385,3.05083 q -0.0974,0.30833 0.0811,0.51929 0.19474,0.22719 0.79516,0.40569 0.0974,0.0162 0.17851,0.0811 0.0974,0.0811 0.0974,0.25965 0,0.0811 -0.0974,0.12982 -0.0974,0.0649 -0.22719,0.0649 -0.27587,0 -0.71402,-0.0162 -0.42193,-0.0162 -0.82762,-0.0325 -0.4057,0 -0.66534,0 -0.4057,0 -0.9899,0.0325 -0.5842,0.0325 -1.03858,0.0325 z m 5.64728,-5.03062 q 0.2921,0 0.69779,-0.32456 0.42193,-0.32455 0.82762,-0.89253 0.42192,-0.5842 0.6978,-1.33067 0.27587,-0.76271 0.27587,-1.60656 0,-0.86007 -0.37324,-1.23331 -0.35701,-0.38947 -0.95744,-0.38947 -0.0974,0 -0.19473,0.0162 -0.0974,0 -0.19474,0.0162 l -1.37936,4.34905 q -0.0649,0.22719 -0.0649,0.45438 0.0162,0.22719 0.0974,0.42192 0.0974,0.22719 0.19473,0.37324 0.0974,0.14605 0.37324,0.14605 z m 6.4749,0.63288 q -0.27587,0 -0.51929,-0.1785 -0.24341,-0.17851 -0.40569,-0.42192 -0.14605,-0.25965 -0.14605,-0.45438 0,-0.0811 0.0162,-0.19474 0.0325,-0.12982 0.14605,-0.42192 l 1.52542,-4.04072 q 0.11359,-0.30833 0.0324,-0.4057 -0.0811,-0.0974 -0.21096,-0.0974 l -0.81139,-0.0325 q -0.2921,-0.0162 -0.35701,-0.12982 -0.0649,-0.1136 -0.0649,-0.21096 0,-0.0325 0.11359,-0.17851 0.1136,-0.14605 0.30833,-0.27587 0.19474,-0.12982 0.4057,-0.12982 h 0.82762 q 0.25964,0 0.34078,-0.0811 0.0811,-0.0811 0.22719,-0.35701 l 0.4706,-0.92499 q 0.14605,-0.27587 0.37324,-0.51929 0.22719,-0.24342 0.48684,-0.40569 0.25964,-0.16228 0.4706,-0.16228 0.2921,0 0.37324,0.25964 0.0974,0.25965 0.0162,0.53552 l -0.37324,1.282 q -0.0649,0.25964 0,0.34078 0.0649,0.0649 0.24342,0.0649 0.19473,0 0.42192,0.0325 0.24342,0.0162 0.55175,0.0487 0.38946,0.0487 0.45438,0.14605 0.0811,0.0811 0.0811,0.21096 0,0.0487 -0.0974,0.17851 -0.0974,0.11359 -0.37324,0.14605 -0.17851,0.0162 -0.38947,0.0487 -0.19473,0.0162 -0.48683,0.0325 -0.30833,0.0162 -0.47061,0.0811 -0.16228,0.0649 -0.24342,0.25964 l -1.15217,3.21311 q -0.12982,0.37324 -0.12982,0.55174 0,0.16228 0.0649,0.19473 0.0811,0.0325 0.14605,0.0325 0.19473,0 0.50306,-0.22719 0.32456,-0.22719 0.64911,-0.51929 0.34079,-0.2921 0.55175,-0.50306 0.0162,-0.0162 0.0324,-0.0325 0.0162,-0.0162 0.0325,-0.0162 0.0974,0 0.16228,0.0811 0.0649,0.0811 0.0649,0.1785 0,0.24342 -0.25965,0.61666 -0.24341,0.37324 -0.66534,0.79516 -0.42192,0.40569 -0.94121,0.77893 -0.50306,0.35702 -1.02235,0.5842 -0.51929,0.22719 -0.97367,0.22719 z"
       id="text7-0-4-3-0-8-3"
       aria-label="Manuscript" />
    <g
       id="text7-0-4-0-7-0-3"
       style="font-size:9.87778px;line-height:28.8925px;font-family:'LTC Goudy Oldstyle Pro';-inkscape-font-specification:'LTC Goudy Oldstyle Pro';text-align:center;letter-spacing:0.79375px;text-anchor:middle;fill:#bd2736;stroke-width:0.600001"
       aria-label="of the">
      <path
         style="font-weight:300;font-family:Teko;-inkscape-font-specification:'Teko Light';letter-spacing:0.529167px;fill:#000000;stroke-width:0.6"
         d="m 67.178962,146.76393 v -2.50896 q 0,-0.19756 -0.05927,-0.24695 -0.04939,-0.0593 -0.246945,-0.0593 h -0.335844 v -0.58279 h 0.5334 q 0.395111,0 0.582789,0.19755 0.197555,0.18768 0.197555,0.58279 v 2.61762 z m 0,0.50376 v -0.99765 h 0.671689 v 1.10631 q 0,0.39511 -0.197555,0.59266 -0.187678,0.18768 -0.582789,0.18768 h -0.602545 v -0.58279 h 0.404989 q 0.197556,0 0.246945,-0.0593 0.05927,-0.0593 0.05927,-0.24695 z m -1.224844,-3.01272 v 2.51883 h -0.671689 v -2.62749 q 0,-0.39511 0.187678,-0.58279 0.197555,-0.19755 0.592666,-0.19755 h 0.5334 v 0.58279 h -0.335844 q -0.187678,0 -0.246945,0.0593 -0.05927,0.0494 -0.05927,0.24695 z m 0,1.93604 v 1.07668 q 0,0.18768 0.05927,0.24695 0.05927,0.0593 0.246945,0.0593 h 0.306211 v 0.58279 h -0.503767 q -0.395111,0 -0.592666,-0.18768 -0.187678,-0.19755 -0.187678,-0.59266 v -1.18534 z"
         id="path4" />
      <path
         style="font-weight:300;font-family:Teko;-inkscape-font-specification:'Teko Light';letter-spacing:1.5875px;fill:#000000;stroke-width:0.6"
         d="m 69.98002,142.48685 v 5.66984 h -0.681567 v -5.82789 q 0,-0.39511 0.187678,-0.58279 0.197556,-0.19755 0.592667,-0.19755 h 0.592667 v 0.63218 h -0.385234 q -0.187677,0 -0.246944,0.0593 -0.05927,0.0494 -0.05927,0.24695 z m 0.691445,0.87912 v 0.58279 H 68.82432 v -0.58279 z"
         id="path5" />
      <path
         style="font-weight:300;font-family:Teko;-inkscape-font-specification:'Teko Light';letter-spacing:0.264583px;fill:#000000;stroke-width:0.6"
         d="m 75.55179,142.58562 v 4.63268 q 0,0.18768 0.05927,0.24695 0.05927,0.0593 0.246944,0.0593 h 0.375356 v 0.63218 h -0.582789 q -0.395111,0 -0.592667,-0.18768 -0.187678,-0.19755 -0.187678,-0.59266 v -4.79073 z m 0.681567,0.78035 v 0.58279 h -1.797756 v -0.58279 z m 3.208166,4.79072 h -0.681567 v -3.90172 q 0,-0.19756 -0.05927,-0.24695 -0.04939,-0.0593 -0.246945,-0.0593 h -0.395111 q -0.1778,0 -0.256822,0.079 -0.07902,0.079 -0.07902,0.27658 v 0.30621 h -0.03951 v -0.64206 q 0,-0.33584 0.158045,-0.46425 0.167922,-0.13829 0.424744,-0.13829 h 0.395111 q 0.395112,0 0.582789,0.19755 0.197556,0.18768 0.197556,0.58279 z m -1.718734,0 h -0.681566 v -6.60823 h 0.681566 z m 3.553886,-3.90172 v 3.01272 q 0,0.18768 0.05927,0.24695 0.05927,0.0593 0.246944,0.0593 h 0.237067 v 0.58279 h -0.4445 q -0.395112,0 -0.592667,-0.18768 -0.187678,-0.19755 -0.187678,-0.59266 v -3.23004 q 0,-0.39511 0.187678,-0.58279 0.197555,-0.19755 0.592667,-0.19755 h 0.513644 v 0.58279 h -0.306211 q -0.187678,0 -0.246944,0.0593 -0.05927,0.0494 -0.05927,0.24695 z m 1.106311,1.63971 v -1.63971 q 0,-0.19756 -0.05927,-0.24695 -0.04939,-0.0593 -0.246944,-0.0593 H 81.74093 v -0.58279 h 0.543278 q 0.395112,0 0.582789,0.19755 0.197556,0.18768 0.197556,0.58279 v 1.74837 z m -0.02963,1.37301 v -0.43462 h 0.681567 v 0.54328 q 0,0.39511 -0.197556,0.59266 -0.187678,0.18768 -0.582789,0.18768 H 81.74093 v -0.58279 h 0.306212 q 0.197555,0 0.246944,-0.0593 0.05927,-0.0593 0.05927,-0.24695 z m 0.7112,-1.85702 v 0.58279 h -2.173112 v -0.58279 z"
         id="path6" />
    </g>
    <g
       id="text1-9-0-3-9"
       style="font-size:21.8722px;line-height:63.9762px;font-family:'EB Garamond';-inkscape-font-specification:'EB Garamond';font-variant-caps:small-caps;text-align:center;letter-spacing:0px;text-anchor:middle;stroke:#000000;stroke-width:0.600001"
       aria-label="#postprint">
      <path
         style="font-size:15.875px;font-family:'Coconat Demi';-inkscape-font-specification:'Coconat Demi, Normal';font-variant-caps:normal;stroke:none;stroke-width:0.6"
         d="m 65.298916,129.16959 q -0.142875,0.60325 -0.619125,3.06387 h 0.53975 1.698625 0.635 l 0.142875,-0.85725 q 0.111125,-0.65087 0.34925,-2.20662 h 1.11125 q -0.3175,1.36525 -0.60325,3.06387 1.11125,-0.0318 1.666875,-0.0635 l -0.174625,1.06363 q -0.587375,-0.0476 -1.666875,-0.0794 l -0.619125,3.3655 q 1.143,-0.0318 1.7145,-0.0635 l -0.174625,1.06363 q -0.60325,-0.0476 -1.7145,-0.0794 l -0.111125,0.635 q -0.254,1.69863 -0.28575,2.20663 h -1.11125 q 0.269875,-1.15888 0.555625,-2.84163 h -0.460375 -1.698625 -0.746125 l -0.111125,0.635 q -0.01588,0.0635 -0.142875,0.92075 -0.111125,0.85725 -0.142875,1.28588 h -1.11125 q 0.1905,-0.80963 0.5715,-2.82575 -1.04775,0 -1.80975,0.0635 l 0.1905,-1.06363 q 0.60325,0.0317 1.778,0.0635 l 0.587375,-3.34962 q -1.04775,0 -1.793875,0.0635 l 0.174625,-1.06363 q 0.60325,0.0317 1.778,0.0635 l 0.142875,-0.85725 q 0.111125,-0.65087 0.34925,-2.20662 z m -0.07937,3.98462 h -0.6985 l -0.619125,3.3655 h 0.5715 1.698625 0.619125 l 0.587375,-3.3655 h -0.460375 z"
         id="path1" />
      <path
         style="font-weight:500;font-size:15.875px;font-family:Orbitron;-inkscape-font-specification:'Orbitron, Medium';font-variant-caps:normal;stroke:none;stroke-width:0.6"
         d="m 71.982282,143.93334 v 0 -12.85875 h 7.3025 q 0.5715,0 1.031875,0.28575 0.47625,0.28575 0.746125,0.74612 0.28575,0.46038 0.28575,1.03188 v 5.08 q 0,0.5715 -0.28575,1.03187 -0.269875,0.46038 -0.746125,0.74613 -0.460375,0.28575 -1.031875,0.28575 h -5.588 v 3.65125 z m 2.111375,-5.36575 h 5.1435 q 0.15875,0 0.269875,-0.11113 0.127,-0.127 0.127,-0.28575 v -4.98475 q 0,-0.15875 -0.127,-0.26987 -0.111125,-0.127 -0.269875,-0.127 h -5.1435 q -0.15875,0 -0.28575,0.127 -0.111125,0.11112 -0.111125,0.26987 v 4.98475 q 0,0.15875 0.111125,0.28575 0.127,0.11113 0.28575,0.11113 z m 10.445742,1.7145 q -0.5715,0 -1.031875,-0.28575 -0.460375,-0.28575 -0.746125,-0.74613 -0.28575,-0.46037 -0.28575,-1.03187 v -5.08 q 0,-0.5715 0.28575,-1.03188 0.28575,-0.46037 0.746125,-0.74612 0.460375,-0.28575 1.031875,-0.28575 h 5.23875 q 0.5715,0 1.031875,0.28575 0.47625,0.26987 0.746125,0.74612 0.28575,0.47625 0.28575,1.03188 v 5.08 q 0,0.5715 -0.28575,1.03187 -0.269875,0.46038 -0.746125,0.74613 -0.460375,0.28575 -1.031875,0.28575 h -5.23875 z m 0.04762,-1.7145 h 5.1435 q 0.15875,0 0.269875,-0.11113 0.111125,-0.127 0.111125,-0.28575 v -4.98475 q 0,-0.15875 -0.111125,-0.26987 -0.111125,-0.127 -0.269875,-0.127 h -5.1435 q -0.15875,0 -0.28575,0.127 -0.111125,0.11112 -0.111125,0.26987 v 4.98475 q 0,0.15875 0.111125,0.28575 0.127,0.11113 0.28575,0.11113 z m 10.556868,1.7145 q -0.5715,0 -1.031875,-0.28575 -0.460375,-0.28575 -0.746125,-0.74613 -0.28575,-0.46037 -0.28575,-1.03187 v -0.23813 h 1.7145 v 0.1905 q 0,0.15875 0.111125,0.28575 0.127,0.11113 0.28575,0.11113 h 5.143503 q 0.15875,0 0.26987,-0.11113 0.11113,-0.127 0.11113,-0.28575 v -1.23825 q 0,-0.15875 -0.11113,-0.26987 -0.11112,-0.127 -0.26987,-0.127 h -5.191128 q -0.5715,0 -1.031875,-0.26988 -0.460375,-0.28575 -0.746125,-0.74612 -0.28575,-0.47625 -0.28575,-1.04775 v -1.3335 q 0,-0.5715 0.28575,-1.03188 0.28575,-0.46037 0.746125,-0.74612 0.460375,-0.28575 1.031875,-0.28575 h 5.238748 q 0.5715,0 1.03188,0.28575 0.47625,0.28575 0.74612,0.74612 0.28575,0.46038 0.28575,1.03188 v 0.23812 h -1.73037 v -0.1905 q 0,-0.15875 -0.11113,-0.26987 -0.11112,-0.127 -0.26987,-0.127 h -5.143503 q -0.15875,0 -0.28575,0.127 -0.111125,0.11112 -0.111125,0.26987 v 1.23825 q 0,0.15875 0.111125,0.28575 0.127,0.11113 0.28575,0.11113 h 5.191123 q 0.5715,0 1.03188,0.28575 0.47625,0.26987 0.74612,0.74612 0.28575,0.46038 0.28575,1.03188 v 1.3335 q 0,0.5715 -0.28575,1.03187 -0.26987,0.46038 -0.74612,0.74613 -0.46038,0.28575 -1.03188,0.28575 h -5.238748 z m 10.969638,0 q -0.5715,0 -1.04775,-0.28575 -0.46037,-0.28575 -0.74612,-0.74613 -0.26988,-0.46037 -0.26988,-1.03187 v -10.04888 h 1.7145 v 2.90513 h 3.77825 v 1.7145 h -3.77825 v 5.38162 q 0,0.15875 0.11113,0.28575 0.127,0.11113 0.28575,0.11113 h 3.38137 v 1.7145 h -3.429 z"
         id="path2" />
      <path
         style="font-weight:500;font-size:15.875px;font-family:Orbitron;-inkscape-font-specification:'Orbitron, Medium';font-variant-caps:normal;fill:#bd2736;stroke:none;stroke-width:0.6"
         d="m 110.81252,143.93334 v 0 -12.85875 h 7.3025 q 0.5715,0 1.03187,0.28575 0.47625,0.28575 0.74613,0.74612 0.28575,0.46038 0.28575,1.03188 v 5.08 q 0,0.5715 -0.28575,1.03187 -0.26988,0.46038 -0.74613,0.74613 -0.46037,0.28575 -1.03187,0.28575 h -5.588 v 3.65125 z m 2.11137,-5.36575 h 5.1435 q 0.15875,0 0.26988,-0.11113 0.127,-0.127 0.127,-0.28575 v -4.98475 q 0,-0.15875 -0.127,-0.26987 -0.11113,-0.127 -0.26988,-0.127 h -5.1435 q -0.15875,0 -0.28575,0.127 -0.11112,0.11112 -0.11112,0.26987 v 4.98475 q 0,0.15875 0.11112,0.28575 0.127,0.11113 0.28575,0.11113 z m 8.39787,1.7145 v 0 -7.14375 q 0,-0.5715 0.28575,-1.03188 0.28575,-0.46037 0.74613,-0.74612 0.47625,-0.28575 1.03187,-0.28575 h 5.1435 v 1.7145 h -5.09587 q -0.15875,0 -0.28575,0.127 -0.11113,0.11112 -0.11113,0.26987 v 7.09613 z m 8.3185,0 v 0 -9.2075 h 1.7145 v 9.2075 z m 0,-10.50925 v 0 -1.7145 h 1.7145 v 1.7145 z m 3.54011,10.50925 v 0 -9.2075 h 7.3025 q 0.5715,0 1.03187,0.28575 0.47625,0.28575 0.74613,0.74612 0.28575,0.46038 0.28575,1.03188 v 7.14375 h -1.7145 v -7.09613 q 0,-0.15875 -0.127,-0.26987 -0.11113,-0.127 -0.26988,-0.127 h -5.1435 q -0.15875,0 -0.28575,0.127 -0.11112,0.11112 -0.11112,0.26987 v 7.09613 z m 13.09686,0 q -0.5715,0 -1.04775,-0.28575 -0.46037,-0.28575 -0.74612,-0.74613 -0.26988,-0.46037 -0.26988,-1.03187 v -10.04888 h 1.7145 v 2.90513 h 3.77825 v 1.7145 h -3.77825 v 5.38162 q 0,0.15875 0.11113,0.28575 0.127,0.11113 0.28575,0.11113 h 3.38137 v 1.7145 h -3.429 z"
         id="path3" />
    </g>
    <path
       style="font-weight:900;font-size:14.8167px;line-height:43.3387px;font-family:Roboto;-inkscape-font-specification:'Roboto Heavy';text-align:center;letter-spacing:0px;text-anchor:middle;fill:#0000ff;stroke-width:0.6"
       d="m 90.660588,144.29685 -2.568325,8.31993 h -2.727488 l 3.870573,-10.53375 h 1.729098 z m 2.127006,8.31993 -2.575559,-8.31993 -0.332797,-2.21382 h 1.750802 l 3.892277,10.53375 z m -0.101286,-3.92846 v 1.96061 h -5.404333 v -1.96061 z m 6.7934,2.19212 q 0.340031,0 0.578772,-0.12299 0.24599,-0.13022 0.36898,-0.36173 0.13022,-0.23875 0.12299,-0.57155 h 2.2934 q 0.007,0.88264 -0.43408,1.54823 -0.43409,0.65836 -1.1865,1.02733 -0.74517,0.36174 -1.685685,0.36174 -0.918809,0 -1.606107,-0.29662 -0.687298,-0.30386 -1.15032,-0.83923 -0.455787,-0.5426 -0.687298,-1.26608 -0.224276,-0.72347 -0.224276,-1.56993 v -0.1664 q 0,-0.84646 0.224276,-1.56993 0.231511,-0.73071 0.687298,-1.26608 0.463022,-0.5426 1.143085,-0.83922 0.687299,-0.30386 1.598873,-0.30386 0.976684,0 1.721864,0.36897 0.75241,0.36897 1.17926,1.07074 0.42685,0.70176 0.41961,1.70015 h -2.2934 q 0.007,-0.3545 -0.10853,-0.63665 -0.11575,-0.28215 -0.36173,-0.44855 -0.238747,-0.17364 -0.614952,-0.17364 -0.376205,0 -0.607716,0.1664 -0.231511,0.1664 -0.354501,0.46302 -0.115756,0.28939 -0.159164,0.6656 -0.03617,0.3762 -0.03617,0.80305 v 0.1664 q 0,0.43408 0.03617,0.81752 0.04341,0.37621 0.166399,0.6656 0.12299,0.28215 0.354501,0.44855 0.231511,0.15916 0.614951,0.15916 z m 7.704972,0 q 0.34003,0 0.57878,-0.12299 0.24598,-0.13022 0.36897,-0.36173 0.13022,-0.23875 0.12299,-0.57155 h 2.2934 q 0.007,0.88264 -0.43408,1.54823 -0.43408,0.65836 -1.18649,1.02733 -0.74518,0.36174 -1.68569,0.36174 -0.91881,0 -1.60611,-0.29662 -0.6873,-0.30386 -1.15032,-0.83923 -0.45579,-0.5426 -0.6873,-1.26608 -0.22427,-0.72347 -0.22427,-1.56993 v -0.1664 q 0,-0.84646 0.22427,-1.56993 0.23151,-0.73071 0.6873,-1.26608 0.46302,-0.5426 1.14309,-0.83922 0.68729,-0.30386 1.59887,-0.30386 0.97669,0 1.72186,0.36897 0.75241,0.36897 1.17926,1.07074 0.42685,0.70176 0.41961,1.70015 h -2.2934 q 0.007,-0.3545 -0.10852,-0.63665 -0.11576,-0.28215 -0.36174,-0.44855 -0.23874,-0.17364 -0.61495,-0.17364 -0.3762,0 -0.60771,0.1664 -0.23152,0.1664 -0.35451,0.46302 -0.11575,0.28939 -0.15916,0.6656 -0.0362,0.3762 -0.0362,0.80305 v 0.1664 q 0,0.43408 0.0362,0.81752 0.0434,0.37621 0.1664,0.6656 0.12299,0.28215 0.3545,0.44855 0.23151,0.15916 0.61495,0.15916 z m 8.1897,1.88103 q -0.95498,0 -1.70739,-0.29662 -0.75241,-0.30386 -1.27331,-0.832 -0.51367,-0.52813 -0.78859,-1.21543 -0.26768,-0.6873 -0.26768,-1.45418 v -0.27492 q 0,-0.86093 0.23874,-1.59163 0.23875,-0.73794 0.70901,-1.28778 0.47025,-0.54984 1.17925,-0.8537 0.70901,-0.31109 1.64952,-0.31109 0.83199,0 1.49035,0.26768 0.65836,0.26769 1.11415,0.76688 0.46302,0.4992 0.70177,1.2082 0.24598,0.709 0.24598,1.59164 v 0.99115 h -6.39549 v -1.52652 h 4.01526 v -0.1881 q 0.007,-0.39068 -0.13746,-0.6656 -0.13745,-0.27492 -0.40514,-0.41961 -0.26768,-0.1447 -0.65112,-0.1447 -0.39791,0 -0.65836,0.17364 -0.25322,0.17363 -0.39791,0.47749 -0.13746,0.29662 -0.19534,0.6873 -0.0579,0.39067 -0.0579,0.82475 v 0.27492 q 0,0.43409 0.11576,0.78859 0.12299,0.3545 0.34726,0.60771 0.23152,0.24598 0.54984,0.38344 0.32556,0.13746 0.73794,0.13746 0.4992,0 0.98393,-0.1881 0.48472,-0.1881 0.83199,-0.62218 l 1.10691,1.31671 q -0.23875,0.34004 -0.68006,0.65836 -0.43409,0.31833 -1.0418,0.5209 -0.60772,0.19534 -1.36013,0.19534 z m 6.74276,-6.46784 v 9.33279 h -2.4381 v -10.83761 h 2.2717 z m 4.80385,2.31511 v 0.15193 q 0,0.8537 -0.19534,1.5844 -0.19534,0.73071 -0.57878,1.27331 -0.38344,0.54261 -0.95498,0.84647 -0.56431,0.29662 -1.30948,0.29662 -0.70177,0 -1.2082,-0.31109 -0.50643,-0.3111 -0.84646,-0.86093 -0.34003,-0.54984 -0.54984,-1.25884 -0.20981,-0.70901 -0.3328,-1.49759 v -0.19534 q 0.12299,-0.84646 0.3328,-1.56993 0.20981,-0.73071 0.54984,-1.27331 0.34003,-0.54261 0.83922,-0.84646 0.50643,-0.30386 1.2082,-0.30386 0.74518,0 1.30949,0.28215 0.57154,0.28216 0.95498,0.81029 0.39067,0.5209 0.58601,1.25161 0.19534,0.7307 0.19534,1.62057 z m -2.4381,0.15193 v -0.15193 q 0,-0.45578 -0.0651,-0.83199 -0.0651,-0.38344 -0.20981,-0.66559 -0.13746,-0.28216 -0.36897,-0.43409 -0.23151,-0.15193 -0.57154,-0.15193 -0.39068,0 -0.65836,0.12299 -0.26045,0.11576 -0.41962,0.36174 -0.15193,0.23875 -0.21704,0.60048 -0.0579,0.3545 -0.0506,0.83199 v 0.59325 q -0.0145,0.54984 0.10852,0.96945 0.12299,0.41238 0.42685,0.64389 0.30386,0.23151 0.82476,0.23151 0.34726,0 0.57877,-0.15916 0.23151,-0.1664 0.36897,-0.45579 0.13746,-0.29662 0.19534,-0.68006 0.0579,-0.38344 0.0579,-0.82476 z m 7.63986,-3.97186 v 1.69293 h -4.71704 v -1.69293 z m -3.72588,-1.94614 h 2.4381 v 7.22025 q 0,0.31109 0.0724,0.48473 0.0723,0.16639 0.24598,0.23874 0.18087,0.0651 0.47749,0.0651 0.20981,0 0.34727,-0.007 0.13746,-0.0145 0.26045,-0.0362 v 1.74356 q -0.3111,0.10129 -0.65113,0.15193 -0.34003,0.0579 -0.72347,0.0579 -0.78135,0 -1.33842,-0.24598 -0.54984,-0.24598 -0.83923,-0.77412 -0.28939,-0.52813 -0.28939,-1.37459 z m 8.48632,9.9188 q -0.95498,0 -1.70739,-0.29662 -0.75241,-0.30386 -1.27331,-0.832 -0.51367,-0.52813 -0.78859,-1.21543 -0.26768,-0.6873 -0.26768,-1.45418 v -0.27492 q 0,-0.86093 0.23875,-1.59163 0.23874,-0.73794 0.709,-1.28778 0.47025,-0.54984 1.17926,-0.8537 0.709,-0.31109 1.64951,-0.31109 0.83199,0 1.49035,0.26768 0.65836,0.26769 1.11415,0.76688 0.46302,0.4992 0.70177,1.2082 0.24598,0.709 0.24598,1.59164 v 0.99115 h -6.39549 v -1.52652 h 4.01527 v -0.1881 q 0.007,-0.39068 -0.13746,-0.6656 -0.13746,-0.27492 -0.40515,-0.41961 -0.26768,-0.1447 -0.65112,-0.1447 -0.39791,0 -0.65836,0.17364 -0.25322,0.17363 -0.39791,0.47749 -0.13746,0.29662 -0.19534,0.6873 -0.0579,0.39067 -0.0579,0.82475 v 0.27492 q 0,0.43409 0.11576,0.78859 0.12299,0.3545 0.34727,0.60771 0.23151,0.24598 0.54983,0.38344 0.32557,0.13746 0.73795,0.13746 0.49919,0 0.98392,-0.1881 0.48472,-0.1881 0.83199,-0.62218 l 1.10691,1.31671 q -0.23874,0.34004 -0.68006,0.65836 -0.43409,0.31833 -1.0418,0.5209 -0.60772,0.19534 -1.36013,0.19534 z m 8.78295,-1.9389 v -9.31832 h 2.45257 v 11.11253 h -2.19936 z m -4.80385,-2.02572 v -0.15193 q 0,-0.88987 0.19533,-1.62058 0.19534,-0.73794 0.57878,-1.26608 0.38344,-0.53537 0.95498,-0.82475 0.57155,-0.28939 1.31672,-0.28939 0.6656,0 1.16479,0.31109 0.4992,0.30386 0.8537,0.8537 0.3545,0.54984 0.57878,1.28778 0.22427,0.7307 0.34003,1.57716 v 0.18087 q -0.11576,0.79582 -0.34003,1.50482 -0.22428,0.70177 -0.57878,1.24438 -0.3545,0.5426 -0.86093,0.85369 -0.4992,0.30386 -1.17203,0.30386 -0.74517,0 -1.31672,-0.29662 -0.5643,-0.29663 -0.94774,-0.832 -0.37621,-0.53537 -0.57155,-1.25884 -0.19533,-0.72347 -0.19533,-1.57716 z m 2.4381,-0.15193 v 0.15193 q 0,0.44131 0.0579,0.81752 0.0579,0.3762 0.19534,0.66559 0.1447,0.28216 0.37621,0.44132 0.23874,0.15916 0.58601,0.15916 0.47025,0 0.77411,-0.22427 0.3111,-0.22428 0.45579,-0.63666 0.15193,-0.41238 0.13023,-0.96945 v -0.57154 q 0.0145,-0.47749 -0.0651,-0.83923 -0.0796,-0.36897 -0.25321,-0.61495 -0.1664,-0.24598 -0.42685,-0.36897 -0.25322,-0.13023 -0.60048,-0.13023 -0.34003,0 -0.57878,0.15917 -0.23151,0.15916 -0.3762,0.44855 -0.1447,0.28215 -0.20981,0.67283 -0.0651,0.38344 -0.0651,0.83923 z"
       id="text7-0-4-31-0-1"
       aria-label="Accepted" />
  </g>
</svg>
