<?xml version="1.0" encoding="UTF-8" standalone="no"?>
<!-- Created with Inkscape (http://www.inkscape.org/) -->

<svg
   width="91.424072mm"
   height="28.255348mm"
   viewBox="0 0 91.424072 28.255348"
   version="1.1"
   id="svg1"
   xmlns="http://www.w3.org/2000/svg"
   xmlns:svg="http://www.w3.org/2000/svg">
  <desc property="dc:creator">Michael Koksharov: https://github.com/LuciferaseMaster/PrePrint-Template-for-AnyRxiv/tree/master/preprint_logos</desc>
  <defs
     id="defs1" />
  <g
     id="layer1"
     transform="translate(-59.266669,-134.40833)">
    <g
       id="text9"
       style="font-size:16.4021px;line-height:125%;font-family:'Coconat Demi';letter-spacing:0px;word-spacing:0px;stroke-width:1.02513"
       aria-label="#PrePrint ">
      <path
         d="m 63.72804,137.28239 q -0.147619,0.62328 -0.639682,3.1656 h 0.557672 1.755024 0.656084 l 0.147619,-0.88571 q 0.114815,-0.67249 0.360846,-2.27989 h 1.148147 q -0.328042,1.41058 -0.623279,3.1656 1.148147,-0.0328 1.72222,-0.0656 l -0.180423,1.09894 q -0.606878,-0.0492 -1.72222,-0.082 l -0.639682,3.47725 q 1.180951,-0.0328 1.771426,-0.0656 l -0.180423,1.09894 q -0.623279,-0.0492 -1.771426,-0.082 l -0.114815,0.65608 q -0.262434,1.75503 -0.295238,2.27989 h -1.148147 q 0.278836,-1.19735 0.574074,-2.93597 h -0.475661 -1.755025 -0.770899 l -0.114814,0.65608 q -0.0164,0.0656 -0.147619,0.95132 -0.114815,0.88572 -0.147619,1.32857 h -1.148147 q 0.196825,-0.8365 0.590476,-2.91957 -1.082539,0 -1.86984,0.0656 l 0.196825,-1.09894 q 0.62328,0.0328 1.837036,0.0656 l 0.606877,-3.46085 q -1.082538,0 -1.853437,0.0656 l 0.180423,-1.09894 q 0.62328,0.0328 1.837035,0.0656 l 0.147619,-0.88571 q 0.114815,-0.67249 0.360846,-2.27989 z m -0.08201,4.11692 h -0.721693 l -0.639682,3.47725 h 0.590476 1.755025 0.639682 l 0.606877,-3.47725 h -0.475661 z"
         id="path3" />
      <path
         style="font-weight:500;font-family:'Orbitron Medium'"
         d="m 70.666119,148.76385 v -11.7931 h 9.660837 q 0.590475,0 1.082538,0.29523 0.492063,0.29524 0.770899,0.7873 0.295238,0.47566 0.295238,1.04974 v 3.31322 q 0,0.59048 -0.295238,1.08254 -0.278836,0.47566 -0.770899,0.7709 -0.492063,0.27884 -1.082538,0.27884 l -7.88941,0.0164 v 4.19893 z m 2.181479,-6.00316 h 7.430151 q 0.180424,0 0.295238,-0.11482 0.114815,-0.11481 0.114815,-0.27883 v -3.21482 q 0,-0.16402 -0.114815,-0.27883 -0.114814,-0.13122 -0.295238,-0.13122 h -7.430151 q -0.164021,0 -0.295237,0.13122 -0.114815,0.11481 -0.114815,0.27883 v 3.21482 q 0,0.16402 0.114815,0.27883 0.131216,0.11482 0.295237,0.11482 z m 10.726979,6.00316 v 0 -7.38094 q 0,-0.59048 0.295238,-1.06614 0.295238,-0.47566 0.770899,-0.7709 0.492063,-0.29523 1.066136,-0.29523 h 5.314281 v 1.77142 h -5.265074 q -0.164021,0 -0.295238,0.13122 -0.114815,0.11482 -0.114815,0.27884 v 7.33173 z m 10.661365,0 q -0.590475,0 -1.066136,-0.29523 -0.475661,-0.29524 -0.770899,-0.7709 -0.295238,-0.47566 -0.295238,-1.06614 v -5.24867 q 0,-0.59048 0.295238,-1.06614 0.295238,-0.47566 0.770899,-0.7709 0.475661,-0.29523 1.066136,-0.29523 h 5.412693 q 0.590475,0 1.066135,0.29523 0.49206,0.27884 0.7709,0.7709 0.29524,0.49207 0.29524,1.06614 v 3.51005 h -7.905814 v 1.68942 q 0,0.16402 0.114815,0.29523 0.131217,0.11482 0.295238,0.11482 h 7.495761 v 1.77142 h -7.544968 z m -0.360846,-5.5275 h 6.117983 v -1.80423 q 0,-0.16402 -0.114814,-0.27884 -0.114815,-0.13122 -0.278836,-0.13122 h -5.31428 q -0.164021,0 -0.295238,0.13122 -0.114815,0.11482 -0.114815,0.27884 z"
         id="path4" />
      <path
         style="font-weight:600;font-size:21.7838px;font-family:'EB Garamond SemiBold';fill:#bd2736"
         d="m 103.53232,148.85099 q -0.19605,0 -0.34854,-0.0871 -0.15248,-0.0653 -0.15248,-0.19605 0,-0.32676 0.54459,-0.43568 0.82779,-0.17427 1.17633,-0.47924 0.34854,-0.30497 0.34854,-1.02384 v -9.58487 q 0,-0.82778 -0.28319,-1.21989 -0.26141,-0.39211 -1.04562,-0.56638 -0.30498,-0.0653 -0.43568,-0.17427 -0.1307,-0.1307 -0.1307,-0.26141 0,-0.15248 0.1307,-0.21784 0.15249,-0.0871 0.39211,-0.0871 0.52281,0 0.95849,0.0218 0.45746,0 0.87135,0.0218 0.41389,0.0218 0.84957,0.0218 0.47924,0 0.89313,-0.0436 0.43568,-0.0436 0.87135,-0.0871 0.45746,-0.0436 1.04563,-0.0436 2.59227,0 4.13892,1.08919 1.54665,1.08919 1.54665,3.00617 0,1.35059 -0.56638,2.50513 -0.5446,1.13276 -1.69914,1.82984 -1.13275,0.69708 -2.87546,0.69708 -0.54459,0 -0.82778,-0.15248 -0.28319,-0.17427 -0.28319,-0.37033 0,-0.1307 0.1307,-0.21784 0.15249,-0.10892 0.26141,-0.10892 0.19605,0 0.37032,0.0436 0.19605,0.0218 0.56638,0.0218 1.02384,0 1.54665,-1.04563 0.54459,-1.04562 0.54459,-2.78832 0,-1.91698 -0.78421,-2.78833 -0.76244,-0.89313 -2.06946,-0.89313 -0.60995,0 -0.95849,0.2614 -0.32676,0.23962 -0.32676,0.78422 l -0.0218,10.2166 q 0,0.71887 0.34854,1.08919 0.37032,0.34854 1.24168,0.54459 0.28319,0.0436 0.41389,0.15249 0.1307,0.0871 0.1307,0.26141 0,0.15248 -0.1307,0.21783 -0.10892,0.0654 -0.34854,0.0654 -0.50103,0 -1.02384,-0.0436 -0.52281,-0.0218 -1.02384,-0.0436 -0.47924,-0.0218 -0.91492,-0.0218 -0.47924,0 -1.00205,0.0218 -0.50103,0.0218 -1.02384,0.0653 -0.52281,0.0436 -1.04563,0.0436 z"
         id="path5" />
      <path
         style="font-weight:600;font-size:21.7838px;font-family:'EB Garamond SemiBold';fill:#bd2736"
         d="m 116.40657,148.82921 q -0.17428,0 -0.30498,-0.0654 -0.1307,-0.0871 -0.1307,-0.21783 0,-0.17427 0.1307,-0.26141 0.15249,-0.0871 0.37033,-0.15249 0.45746,-0.1307 0.63173,-0.30497 0.19605,-0.19605 0.19605,-0.52281 v -4.90135 q 0,-0.50103 -0.15249,-0.82779 -0.1307,-0.34854 -0.58816,-0.45746 -0.0871,-0.0436 -0.17427,-0.10892 -0.0871,-0.0871 -0.0871,-0.23962 0,-0.28319 0.23962,-0.34854 0.65351,-0.17427 1.41595,-0.45746 0.76243,-0.30497 1.28524,-0.58816 0.10892,-0.0654 0.23962,-0.13071 0.1307,-0.0653 0.19606,-0.0653 0.17427,0 0.17427,0.21784 0,0.0871 -0.0218,0.39211 0,0.30497 -0.0218,0.6753 0,0.34854 -0.0218,0.63173 0,0.1307 0.0654,0.1307 0.34854,-0.45746 0.78421,-0.84957 0.43568,-0.39211 0.91492,-0.65351 0.50103,-0.26141 1.00206,-0.26141 0.63173,0 0.9367,0.26141 0.32676,0.2614 0.32676,0.65351 0,0.30498 -0.17427,0.65352 -0.15249,0.34854 -0.4139,0.60994 -0.23962,0.23962 -0.54459,0.23962 -0.17427,0 -0.37032,-0.0653 -0.19606,-0.0871 -0.39211,-0.19605 -0.19606,-0.0871 -0.4139,-0.17427 -0.19605,-0.0871 -0.37032,-0.0871 -0.5446,0 -0.98027,0.4139 -0.43568,0.3921 -0.43568,1.56843 v 3.83395 q 0,0.39211 0.28319,0.60994 0.28319,0.19606 0.87135,0.37033 0.23963,0.0653 0.34855,0.15249 0.1307,0.0653 0.1307,0.23962 0,0.28319 -0.39211,0.28319 -0.65351,0 -1.24168,-0.0654 -0.56638,-0.0436 -1.13275,-0.0436 -0.37033,0 -0.71887,0.0218 -0.32676,0.0218 -0.6753,0.0436 -0.34854,0.0436 -0.78421,0.0436 z"
         id="path6" />
      <path
         style="font-size:17.6834px"
         d="m 125.68643,148.76385 q 0.22988,-0.81343 0.26525,-4.08486 l 0.0177,-1.96286 q 0,-0.56587 -0.1061,-1.07868 -0.1061,-0.51282 -0.2122,-0.74271 -0.0884,-0.22988 -0.14147,-0.26525 l 2.47568,-1.061 -0.0177,5.1105 q -0.0177,2.68788 0.26525,4.08486 z m 2.10432,-10.91065 q -0.37135,0.30062 -0.91953,0.30062 -0.54819,0 -0.93723,-0.31831 -0.37135,-0.3183 -0.37135,-0.76038 0,-0.44209 0.37135,-0.76039 0.38904,-0.3183 0.93723,-0.3183 0.54818,0 0.91953,0.3183 0.37135,0.30062 0.37135,0.76039 0,0.45977 -0.37135,0.77807 z m 2.44033,10.91065 q 0.22988,-0.81343 0.26525,-4.08486 l 0.0177,-1.96286 q 0,-0.56587 -0.1061,-1.07868 -0.1061,-0.51282 -0.2122,-0.74271 -0.0884,-0.22988 -0.14147,-0.26525 l 2.49336,-1.061 v 2.10432 q 0.58356,-0.72502 1.89213,-1.43235 1.30857,-0.70734 2.21042,-0.70734 1.87444,0 2.81166,0.91954 0.95491,0.91953 0.95491,3.02386 v 1.20247 q 0,3.18301 0.26525,4.08486 h -2.5641 q 0.26525,-1.061 0.26525,-3.81961 v -1.13174 q 0,-1.46772 -0.6366,-2.08664 -0.6366,-0.6366 -1.89212,-0.65428 -0.83112,0 -1.75066,0.4244 -0.90185,0.40672 -1.57382,1.13174 v 2.13969 q 0,2.67019 0.26525,3.99644 z m 11.45881,-8.70023 q 1.07869,-0.0884 2.08664,-0.77807 1.02564,-0.70733 1.52077,-1.8037 h 0.0884 v 2.38726 l 4.22633,-0.19452 -0.15915,1.13174 -4.06718,-0.12379 v 4.35012 q 0,1.3793 0.51282,2.03359 0.51282,0.6366 1.64455,0.6366 1.62688,0 2.86471,-1.45004 l 0.0707,0.0354 q -0.60124,1.20247 -1.52077,1.94517 -0.91954,0.74271 -2.458,0.74271 -1.46772,0 -2.29884,-0.83112 -0.83112,-0.83112 -0.83112,-2.31653 v -5.19892 l -1.67992,-0.0531 z"
         id="path7" />
    </g>
    <g
       id="text14"
       style="font-size:10.956px;line-height:125%;font-family:'Young Serif';letter-spacing:0px;word-spacing:0px;stroke-width:1.02513"
       aria-label="   Nullius in verba ">
      <path
         d="m 79.694121,155.29898 q 0.142428,0 0.142428,0.14243 v 0.13147 q 0,0.14243 -0.142428,0.14243 -0.361548,0 -0.536844,0.26294 -0.16434,0.25199 -0.16434,0.6464 v 5.76286 q 0,0.14243 -0.142428,0.14243 h -0.43824 q -0.10956,0 -0.175296,-0.0876 l -4.393356,-5.7519 v 4.51387 q 0,0.38346 0.175296,0.64641 0.186252,0.26294 0.536844,0.26294 0.142428,0 0.142428,0.14243 v 0.13147 q 0,0.14243 -0.142428,0.14243 h -2.048772 q -0.153384,0 -0.153384,-0.14243 v -0.13147 q 0,-0.14243 0.153384,-0.14243 0.350592,0 0.525888,-0.26294 0.175296,-0.26295 0.175296,-0.64641 v -5.24792 q -0.284856,-0.24103 -0.613536,-0.24103 -0.142428,0 -0.142428,-0.14243 v -0.13147 q 0,-0.14243 0.142428,-0.14243 h 1.270896 q 0.08765,0 0.16434,0.0876 l 4.32762,5.66425 v -4.42623 q 0,-0.39441 -0.186252,-0.6464 -0.175296,-0.26294 -0.525888,-0.26294 -0.142428,0 -0.142428,-0.14243 v -0.13147 q 0,-0.14243 0.142428,-0.14243 z m 2.366502,7.35147 q -0.65736,0 -1.073688,-0.3725 -0.416328,-0.38346 -0.416328,-1.17229 v -2.23503 q 0,-0.745 -0.71214,-0.745 h -0.03287 q -0.142428,0 -0.142428,-0.14243 v -0.13147 q 0,-0.14243 0.142428,-0.14243 h 1.522884 q 0.0986,0 0.0986,0.0876 v 3.31966 q 0,0.40538 0.186252,0.70119 0.197208,0.29581 0.701184,0.29581 0.460152,0 0.788832,-0.28486 0.339636,-0.28485 0.503976,-0.73405 v -2.21311 q 0,-0.75596 -0.71214,-0.75596 h -0.02191 q -0.142428,0 -0.142428,-0.14243 v -0.13147 q 0,-0.14243 0.153384,-0.14243 h 1.500972 q 0.0986,0 0.0986,0.0986 v 3.16629 q 0,0.40537 0.08765,0.62449 0.08765,0.20816 0.482064,0.25199 0.120516,0.0109 0.120516,0.13147 v 0.16434 q 0,0.12051 -0.142428,0.12051 -0.416328,0 -0.799788,0.0657 -0.38346,0.0657 -0.65736,0.2739 -0.04382,0.0438 -0.07669,0.0438 h -0.01096 q -0.02191,0 -0.02191,-0.011 0,-0.011 0.02191,-0.1753 0.03287,-0.16434 0.07669,-0.39441 0.04382,-0.24104 0.07669,-0.47111 -0.0986,0.21912 -0.317724,0.46015 -0.21912,0.24103 -0.536844,0.41633 -0.317724,0.17529 -0.745008,0.17529 z m 6.113453,-0.53684 q 0.142428,0 0.142428,0.14243 v 0.13147 q 0,0.14243 -0.16434,0.14243 H 85.86236 q -0.16434,0 -0.16434,-0.14243 v -0.13147 q 0,-0.14243 0.142428,-0.14243 h 0.02191 q 0.701184,0 0.701184,-0.74501 v -4.27284 q 0,-0.40537 -0.08765,-0.65736 -0.08765,-0.25199 -0.482064,-0.29581 -0.120516,-0.011 -0.120516,-0.13147 v -0.16434 q 0,-0.0548 0.03287,-0.0767 0.04382,-0.0219 0.10956,-0.0438 0.394416,-0.14243 0.71214,-0.32868 0.317724,-0.19721 0.60258,-0.53684 0.04382,-0.0438 0.07669,-0.0438 h 0.01096 q 0.02191,0 0.02191,0.011 v 6.52978 q 0,0.75596 0.701184,0.75596 z m 2.903333,0 q 0.142428,0 0.142428,0.14243 v 0.13147 q 0,0.14243 -0.16434,0.14243 h -2.289804 q -0.16434,0 -0.16434,-0.14243 v -0.13147 q 0,-0.14243 0.142428,-0.14243 h 0.02191 q 0.701184,0 0.701184,-0.74501 v -4.27284 q 0,-0.40537 -0.08765,-0.65736 -0.08765,-0.25199 -0.482064,-0.29581 -0.120516,-0.011 -0.120516,-0.13147 v -0.16434 q 0,-0.0548 0.03287,-0.0767 0.04382,-0.0219 0.10956,-0.0438 0.394416,-0.14243 0.71214,-0.32868 0.317724,-0.19721 0.60258,-0.53684 0.04382,-0.0438 0.07669,-0.0438 h 0.01096 q 0.02191,0 0.02191,0.011 v 6.52978 q 0,0.75596 0.701184,0.75596 z m 2.903334,0 q 0.142428,0 0.142428,0.14243 v 0.13147 q 0,0.14243 -0.16434,0.14243 h -2.289804 q -0.16434,0 -0.16434,-0.14243 v -0.13147 q 0,-0.14243 0.142428,-0.14243 h 0.02191 q 0.701184,0 0.701184,-0.74501 v -1.67627 q 0,-0.40537 -0.08765,-0.65736 -0.08765,-0.25198 -0.482064,-0.29581 -0.120516,-0.011 -0.120516,-0.13147 v -0.16434 q 0,-0.0548 0.03287,-0.0767 0.04382,-0.0219 0.10956,-0.0438 0.394416,-0.14242 0.71214,-0.32868 0.317724,-0.1972 0.60258,-0.53684 0.04382,-0.0438 0.07669,-0.0438 h 0.01096 q 0.02191,0 0.02191,0.011 v 3.93321 q 0,0.75596 0.701184,0.75596 z m -1.161336,-6.46404 q 0.241032,0 0.471108,0.23008 0.230076,0.23007 0.230076,0.46015 0,0.23007 -0.230076,0.46015 -0.230076,0.23008 -0.471108,0.23008 -0.21912,0 -0.460152,-0.23008 -0.230076,-0.21912 -0.230076,-0.46015 0,-0.23008 0.230076,-0.46015 0.230076,-0.23008 0.460152,-0.23008 z m 3.604522,7.00088 q -0.65736,0 -1.073688,-0.3725 -0.416328,-0.38346 -0.416328,-1.17229 v -2.23503 q 0,-0.745 -0.71214,-0.745 h -0.03287 q -0.142428,0 -0.142428,-0.14243 v -0.13147 q 0,-0.14243 0.142428,-0.14243 h 1.522884 q 0.0986,0 0.0986,0.0876 v 3.31966 q 0,0.40538 0.186252,0.70119 0.197208,0.29581 0.701184,0.29581 0.460152,0 0.788832,-0.28486 0.339636,-0.28485 0.503976,-0.73405 v -2.21311 q 0,-0.75596 -0.71214,-0.75596 h -0.02191 q -0.142428,0 -0.142428,-0.14243 v -0.13147 q 0,-0.14243 0.153384,-0.14243 h 1.500972 q 0.0986,0 0.0986,0.0986 v 3.16629 q 0,0.40537 0.08765,0.62449 0.08765,0.20816 0.482064,0.25199 0.120516,0.0109 0.120516,0.13147 v 0.16434 q 0,0.12051 -0.142428,0.12051 -0.416328,0 -0.799788,0.0657 -0.38346,0.0657 -0.65736,0.2739 -0.04382,0.0438 -0.07669,0.0438 h -0.01096 q -0.02191,0 -0.02191,-0.011 0,-0.011 0.02191,-0.1753 0.03287,-0.16434 0.07669,-0.39441 0.04382,-0.24104 0.07669,-0.47111 -0.0986,0.21912 -0.317724,0.46015 -0.21912,0.24103 -0.536844,0.41633 -0.317724,0.17529 -0.745008,0.17529 z m 7.526771,-3.51687 q -0.0657,0.0329 -0.0986,0.0329 -0.0767,0 -0.12052,-0.0657 -0.43824,-0.5478 -0.85457,-0.83266 -0.41633,-0.28485 -0.95317,-0.28485 -0.47111,0 -0.7231,0.19721 -0.24103,0.1972 -0.24103,0.51493 0,0.2739 0.21912,0.44919 0.23008,0.16434 0.5478,0.2739 0.31773,0.0986 0.58067,0.16434 0.35059,0.0876 0.7231,0.19721 0.38346,0.10956 0.70118,0.2739 0.32868,0.16434 0.52589,0.43824 0.19721,0.2739 0.19721,0.69023 0,0.60258 -0.50398,1.04082 -0.49302,0.42728 -1.44619,0.42728 -0.35059,0 -0.63545,-0.0767 -0.28486,-0.0657 -0.53684,-0.17529 -0.0767,-0.0329 -0.0877,-0.0329 -0.0657,0 -0.0657,0.0657 0,0.0219 0.0219,0.0767 0.0219,0.0657 0.0219,0.0767 0,0.0767 -0.12052,0.0767 h -0.18625 q -0.10956,0 -0.16434,-0.0876 l -0.821701,-1.55575 q -0.03287,-0.0657 -0.03287,-0.0876 0,-0.0767 0.07669,-0.12051 l 0.120517,-0.0657 q 0.0548,-0.0329 0.0876,-0.0329 0.0548,0 0.10956,0.0876 0.46015,0.71214 1.04082,1.06273 0.59162,0.35059 1.17229,0.35059 0.62449,0 0.89839,-0.24103 0.2739,-0.25199 0.2739,-0.59162 0,-0.32868 -0.26294,-0.51493 -0.25199,-0.19721 -0.6245,-0.29582 -0.36154,-0.10956 -0.70118,-0.1972 -0.77788,-0.18626 -1.17229,-0.43824 -0.39442,-0.25199 -0.52589,-0.52589 -0.13147,-0.28486 -0.13147,-0.55876 0,-0.52589 0.40537,-0.88743 0.41633,-0.37251 1.22707,-0.37251 0.4492,0 0.79979,0.12052 0.36155,0.10956 0.50398,0.19721 0.0438,0.0219 0.0657,0.0219 0.0329,0 0.0329,-0.0329 0,-0.0219 -0.0219,-0.0548 -0.011,-0.0329 -0.0219,-0.0767 -0.0219,-0.0438 -0.0219,-0.0657 0,-0.0329 0,-0.0438 0,-0.0986 0.10956,-0.0986 h 0.13148 q 0.0876,0 0.14242,0.10956 l 0.48207,1.21612 q 0.0109,0.0329 0.0109,0.0548 0.011,0.0219 0.011,0.0438 0,0.0657 -0.0767,0.10956 z m 5.77379,2.98003 q 0.14243,0 0.14243,0.14243 v 0.13147 q 0,0.14243 -0.16434,0.14243 h -2.2898 q -0.16434,0 -0.16434,-0.14243 v -0.13147 q 0,-0.14243 0.14243,-0.14243 h 0.0219 q 0.70118,0 0.70118,-0.74501 v -1.67627 q 0,-0.40537 -0.0877,-0.65736 -0.0876,-0.25198 -0.48206,-0.29581 -0.12052,-0.011 -0.12052,-0.13147 v -0.16434 q 0,-0.0548 0.0329,-0.0767 0.0438,-0.0219 0.10956,-0.0438 0.39442,-0.14242 0.71214,-0.32868 0.31773,-0.1972 0.60258,-0.53684 0.0438,-0.0438 0.0767,-0.0438 h 0.011 q 0.0219,0 0.0219,0.011 v 3.93321 q 0,0.75596 0.70119,0.75596 z m -1.16133,-6.46404 q 0.24103,0 0.47111,0.23008 0.23007,0.23007 0.23007,0.46015 0,0.23007 -0.23007,0.46015 -0.23008,0.23008 -0.47111,0.23008 -0.21912,0 -0.46015,-0.23008 -0.23008,-0.21912 -0.23008,-0.46015 0,-0.23008 0.23008,-0.46015 0.23007,-0.23008 0.46015,-0.23008 z m 1.87347,6.88037 q -0.16434,0 -0.16434,-0.14243 v -0.13147 q 0,-0.14243 0.14243,-0.14243 h 0.0219 q 0.70118,0 0.70118,-0.74501 v -1.96112 q 0,-0.39442 -0.0876,-0.60258 -0.0876,-0.20817 -0.48206,-0.25199 -0.12052,-0.011 -0.12052,-0.13147 v -0.16434 q 0,-0.0986 0.14243,-0.12052 0.41633,-0.0767 0.84361,-0.23007 0.42729,-0.15339 0.66832,-0.43824 0.0329,-0.0548 0.0767,-0.0548 h 0.011 q 0.0219,0 0.0219,0.0219 l -0.20816,1.17229 q 0.0986,-0.20816 0.30676,-0.43824 0.20817,-0.24103 0.52589,-0.40537 0.31773,-0.1753 0.74501,-0.1753 0.66832,0 1.08464,0.38346 0.41633,0.37251 0.41633,1.15038 v 2.24598 q 0,0.42729 0.1753,0.59163 0.17529,0.15338 0.50397,0.15338 h 0.0438 q 0.14243,0 0.14243,0.14243 v 0.13147 q 0,0.14243 -0.14243,0.14243 h -2.21311 q -0.14243,0 -0.14243,-0.14243 v -0.13147 q 0,-0.14243 0.14243,-0.14243 h 0.0438 q 0.24103,0 0.39442,-0.15338 0.16434,-0.16434 0.16434,-0.59163 v -2.24598 q 0,-0.41633 -0.19721,-0.70118 -0.19721,-0.29581 -0.69023,-0.29581 -0.46015,0 -0.79979,0.28485 -0.32868,0.28486 -0.48206,0.74501 v 2.20216 q 0,0.75596 0.67927,0.75596 h 0.0219 q 0.14243,0 0.14243,0.14243 v 0.13147 q 0,0.14243 -0.15338,0.14243 z m 13.20197,-4.82064 q 0.14243,0 0.14243,0.14243 v 0.13147 q 0,0.14243 -0.14243,0.14243 h -0.15338 q -0.15338,0 -0.28486,0.12051 -0.12051,0.12052 -0.2739,0.47111 l -1.47906,3.70313 q -0.0438,0.10956 -0.14242,0.10956 h -0.33964 q -0.10956,0 -0.15338,-0.10956 l -1.53384,-3.69217 q -0.15339,-0.37251 -0.26295,-0.48207 -0.10956,-0.12051 -0.29581,-0.12051 h -0.0219 q -0.14243,0 -0.14243,-0.14243 v -0.13147 q 0,-0.14243 0.14243,-0.14243 h 1.79678 q 0.14243,0 0.14243,0.14243 v 0.13147 q 0,0.14243 -0.14243,0.14243 h -0.0219 q -0.32868,0 -0.32868,0.2739 0,0.13147 0.0548,0.28485 0.0657,0.14243 0.15338,0.35059 l 1.00796,2.41032 0.94221,-2.41032 q 0.0876,-0.21912 0.14243,-0.40537 0.0657,-0.18625 0.0657,-0.30677 0,-0.1972 -0.21912,-0.1972 h -0.18626 q -0.15338,0 -0.15338,-0.14243 v -0.13147 q 0,-0.14243 0.15338,-0.14243 z m 4.5358,3.69217 q -0.2739,0.5478 -0.73406,0.89839 -0.44919,0.35059 -1.18324,0.35059 -0.71214,0 -1.25994,-0.35059 -0.5478,-0.36155 -0.85457,-0.94221 -0.30677,-0.59163 -0.30677,-1.28186 0,-0.89839 0.32868,-1.43523 0.33964,-0.5478 0.83266,-0.79979 0.49302,-0.25199 0.99699,-0.25199 0.66832,0 1.0956,0.29581 0.43824,0.29582 0.64641,0.71214 0.21912,0.41633 0.21912,0.77788 0,0.0876 -0.0876,0.12052 l -3.00195,1.28185 q 0.16434,0.55875 0.56972,0.97508 0.41632,0.41633 1.0189,0.41633 0.42729,0 0.79979,-0.21912 0.38346,-0.21912 0.66832,-0.71214 0.0438,-0.0657 0.10956,-0.0329 l 0.13147,0.0767 q 0.0548,0.0329 0.011,0.12052 z m -2.30076,-3.31967 q -0.41633,0 -0.67928,0.24103 -0.26294,0.24104 -0.38346,0.60258 -0.12051,0.36155 -0.12051,0.75597 0.011,0.39441 0.10956,0.71214 l 2.14737,-1.02987 q 0.011,-0.31772 -0.0986,-0.61353 -0.10956,-0.29581 -0.35059,-0.48207 -0.24103,-0.18625 -0.62449,-0.18625 z m 2.70612,4.44814 q -0.16434,0 -0.16434,-0.14243 v -0.13147 q 0,-0.14243 0.14243,-0.14243 h 0.0219 q 0.70119,0 0.70119,-0.74501 v -1.96112 q 0,-0.39442 -0.0876,-0.60258 -0.0876,-0.20817 -0.48206,-0.25199 -0.12052,-0.011 -0.12052,-0.13147 v -0.16434 q 0,-0.0986 0.14243,-0.12052 0.41633,-0.0767 0.84361,-0.23007 0.42728,-0.15339 0.66832,-0.43824 0.0329,-0.0548 0.0767,-0.0548 h 0.011 q 0.0219,0 0.0219,0.0219 l -0.23008,1.18325 q 0.12052,-0.24104 0.33964,-0.48207 0.21912,-0.24103 0.53684,-0.39441 0.31772,-0.15339 0.7231,-0.15339 0.38346,0 0.66831,0.23008 0.28486,0.21912 0.28486,0.72309 0,0.24104 -0.0438,0.3506 -0.0329,0.10956 -0.14242,0.15338 l -0.60258,0.23008 q -0.0657,0.0219 -0.0876,0.0219 -0.0876,0 -0.0876,-0.0876 0,-0.0219 0,-0.0329 0.011,-0.0219 0.0219,-0.0548 0.0548,-0.13147 0.0657,-0.25199 0.0219,-0.13147 0.0219,-0.23007 0,-0.51493 -0.55876,-0.51493 -0.35059,0 -0.6464,0.29581 -0.29581,0.28485 -0.4492,0.73405 v 2.20216 q 0,0.38346 0.20817,0.56971 0.21912,0.18625 0.56971,0.18625 h 0.0329 q 0.14243,0 0.14243,0.14243 v 0.13147 q 0,0.14243 -0.16434,0.14243 z m 6.90228,0.12051 q -0.95318,0 -1.50098,-0.50397 -0.53684,-0.51493 -0.53684,-1.52289 v -3.52783 q 0,-0.40537 -0.0876,-0.65736 -0.0876,-0.25199 -0.48206,-0.29581 -0.12052,-0.011 -0.12052,-0.13147 v -0.16434 q 0,-0.0548 0.0329,-0.0767 0.0438,-0.0219 0.10956,-0.0438 0.38346,-0.14243 0.70118,-0.32868 0.31773,-0.19721 0.61354,-0.53684 0.0329,-0.0438 0.0657,-0.0438 h 0.011 q 0.0219,0 0.0219,0.011 v 3.23202 q 0.20817,-0.19721 0.53685,-0.32868 0.32868,-0.14243 0.73405,-0.14243 0.39442,0 0.78883,0.14243 0.39442,0.13147 0.7231,0.42728 0.33963,0.29582 0.5478,0.78884 0.20816,0.48206 0.20816,1.18324 0,0.73406 -0.29581,1.30377 -0.29581,0.56971 -0.83266,0.89839 -0.52588,0.31772 -1.23802,0.31772 z m 0.0219,-0.41632 q 0.53684,0 0.84361,-0.26295 0.31772,-0.26294 0.4492,-0.67927 0.13147,-0.41633 0.13147,-0.87648 0,-1.06273 -0.4492,-1.68722 -0.44919,-0.6245 -1.30376,-0.6245 -0.48207,0 -0.86553,0.29582 v 2.26789 q 0,0.59162 0.16434,0.93126 0.16434,0.33963 0.43824,0.49302 0.2739,0.14243 0.59163,0.14243 z"
         id="path1" />
      <path
         style="font-family:'Palatino Linotype'"
         d="m 139.26751,158.9029 -0.20864,-0.0535 -0.0428,-0.0535 v -0.66335 q 0.95223,-0.70615 1.85096,-0.70615 0.61521,0 1.02178,0.23003 0.40657,0.23004 0.58846,0.57776 0.18188,0.34238 0.18188,0.80244 l -0.0268,1.07527 v 1.59419 q 0,0.32632 0.0428,0.39587 0.0482,0.0695 0.10699,0.0963 0.0589,0.0214 0.21934,0.0375 l 0.30492,0.0267 0.0428,0.0481 v 0.21399 l -0.0428,0.0428 q -0.39052,-0.0321 -0.72754,-0.0321 -0.32098,0 -0.77035,0.0321 l -0.0802,-0.0749 0.0214,-0.86129 -1.16622,0.90944 q -0.29423,0.12304 -0.64195,0.12304 -0.42797,0 -0.73825,-0.15514 -0.30492,-0.15514 -0.47076,-0.43332 -0.16049,-0.27818 -0.16049,-0.67405 0,-0.78639 0.49216,-1.22506 0.49217,-0.44402 2.68551,-0.7543 0,-0.79174 -0.35308,-1.11271 -0.35307,-0.32633 -0.94688,-0.32633 -0.31027,0 -0.56706,0.0909 -0.25143,0.0909 -0.28887,0.14979 -0.0375,0.0535 -0.28888,0.65265 z m 2.48222,0.84524 q -1.49789,0.25143 -1.86702,0.54031 -0.36912,0.28888 -0.36912,0.89339 0,0.83454 0.82919,0.83454 0.7115,0 1.40695,-0.82384 z m -0.90944,-2.65341 z m -0.11234,5.75618 z"
         id="path2" />
    </g>
  </g>
</svg>
