<?xml version="1.0" encoding="UTF-8" standalone="no"?>
<!-- Created with Inkscape (http://www.inkscape.org/) -->

<svg
   width="54.786442mm"
   height="33.879444mm"
   viewBox="0 0 54.786442 33.879444"
   version="1.1"
   id="svg1"
   xmlns="http://www.w3.org/2000/svg"
   xmlns:svg="http://www.w3.org/2000/svg">
  <desc property="dc:creator">Michael Koksharov: https://github.com/LuciferaseMaster/PrePrint-Template-for-AnyRxiv/tree/master/preprint_logos</desc>
  <defs
     id="defs1">
    <clipPath
       clipPathUnits="userSpaceOnUse"
       id="clipEmfPath1-1-1-9">
      <path
         d="M 0.63946054,0.63946054 H 92.082317 V 33.571678 H 0.63946054 Z"
         id="path1-8-9-66" />
    </clipPath>
  </defs>
  <g
     id="layer1"
     transform="translate(-32.54375,-20.637499)">
    <g
       id="text1-8-9"
       style="font-size:21.8722px;line-height:63.9762px;font-family:'EB Garamond';-inkscape-font-specification:'EB Garamond';font-variant-caps:small-caps;text-align:center;letter-spacing:0px;text-anchor:middle;stroke:#000000;stroke-width:0.600001"
       aria-label="Print">
      <path
         style="font-weight:600;font-size:35.2778px;-inkscape-font-specification:'EB Garamond, Semi-Bold';font-variant-caps:normal;letter-spacing:-3.175px;fill:#bd2736;stroke:none;stroke-width:0.6"
         d="m 33.35514,44.026682 q -0.317501,0 -0.564445,-0.141111 -0.246945,-0.105834 -0.246945,-0.317501 0,-0.529167 0.881945,-0.705556 1.340557,-0.282222 1.905001,-0.776111 0.564445,-0.49389 0.564445,-1.658057 V 24.906113 q 0,-1.340556 -0.458611,-1.975557 -0.423334,-0.635 -1.693335,-0.917222 -0.493889,-0.105834 -0.705556,-0.282223 -0.211666,-0.211667 -0.211666,-0.423333 0,-0.246945 0.211666,-0.352778 0.246945,-0.141112 0.635001,-0.141112 0.846667,0 1.552223,0.03528 0.740834,0 1.411112,0.03528 0.670278,0.03528 1.375834,0.03528 0.776112,0 1.44639,-0.07056 0.705556,-0.07055 1.411112,-0.141111 0.740834,-0.07056 1.693335,-0.07056 4.198058,0 6.702782,1.76389 2.504724,1.76389 2.504724,4.868337 0,2.187224 -0.917223,4.056947 -0.881945,1.834446 -2.751668,2.963336 -1.834446,1.128889 -4.65667,1.128889 -0.881945,0 -1.340557,-0.246944 -0.458611,-0.282223 -0.458611,-0.599723 0,-0.211667 0.211667,-0.352778 0.246944,-0.176389 0.423333,-0.176389 0.317501,0 0.599723,0.07056 0.3175,0.03528 0.917223,0.03528 1.658057,0 2.504724,-1.693334 0.881945,-1.693335 0.881945,-4.515559 0,-3.104446 -1.270001,-4.515558 -1.234723,-1.44639 -3.351391,-1.44639 -0.987779,0 -1.552223,0.423333 -0.529168,0.388056 -0.529168,1.270001 l -0.03528,16.545289 q 0,1.164168 0.564445,1.76389 0.599722,0.564445 2.010834,0.881945 0.458612,0.07056 0.670278,0.246945 0.211667,0.141111 0.211667,0.423334 0,0.246944 -0.211667,0.352778 -0.176389,0.105833 -0.564444,0.105833 -0.81139,0 -1.658057,-0.07056 -0.846667,-0.03528 -1.658057,-0.07055 -0.776111,-0.03528 -1.481667,-0.03528 -0.776112,0 -1.622779,0.03528 -0.81139,0.03528 -1.658057,0.105833 -0.846667,0.07056 -1.693334,0.07056 z"
         id="path47" />
      <path
         style="font-weight:500;font-size:21.1667px;-inkscape-font-specification:'EB Garamond, Medium';fill:#bd2736;stroke:none;stroke-width:0.6"
         d="m 59.721806,44.181904 q -0.550334,0 -1.016002,-0.169333 -0.465667,-0.169334 -0.825501,-0.465668 -0.359834,-0.3175 -0.656168,-0.656167 -0.211667,-0.254001 -0.529167,-0.719668 -0.296334,-0.465668 -0.613835,-0.973668 -0.296333,-0.529168 -0.508,-0.952502 -0.127001,-0.254 -0.465668,-0.423334 -0.3175,-0.1905 -0.740834,-0.1905 -0.105834,0 -0.254001,0.105833 -0.148167,0.105834 -0.148167,0.275167 v 2.264837 q 0,0.508001 0.232834,0.719668 0.254001,0.1905 0.846668,0.296334 0.169334,0.02117 0.317501,0.105833 0.148167,0.0635 0.148167,0.232834 0,0.127 -0.148167,0.211667 -0.127001,0.0635 -0.232834,0.0635 -0.296334,0 -0.592668,-0.02117 -0.275167,0 -0.571501,-0.02117 -0.275167,-0.02117 -0.5715,-0.02117 -0.275168,0 -0.550335,0 -0.402167,0 -0.783168,0.02117 -0.381,0.02117 -0.762001,0.04233 -0.381,0.02117 -0.783168,0.02117 -0.127,0 -0.275167,-0.08467 -0.127,-0.08467 -0.127,-0.1905 0,-0.169334 0.148167,-0.254001 0.169333,-0.08467 0.3175,-0.105833 0.571501,-0.105834 0.889002,-0.296334 0.338667,-0.211667 0.338667,-0.740834 v -6.053677 q 0,-0.550334 -0.254,-0.825501 -0.232834,-0.296334 -0.846668,-0.402167 -0.190501,-0.04233 -0.338668,-0.148167 -0.127,-0.105834 -0.127,-0.254001 0,-0.127 0.127,-0.1905 0.148167,-0.08467 0.275167,-0.08467 0.465668,0 0.783168,0.04233 0.338668,0.02117 0.635001,0.0635 0.317501,0.02117 0.719668,0.02117 0.508001,0 1.164169,-0.0635 0.677334,-0.0635 1.439335,-0.0635 1.058335,0 1.905003,0.232834 0.867835,0.211667 1.375836,0.740834 0.508001,0.529168 0.508001,1.418169 0.02117,0.613835 -0.254001,1.100669 -0.275167,0.465667 -0.677334,0.762001 -0.402167,0.296334 -0.825501,0.444501 -0.211667,0.0635 -0.127001,0.254 0.211667,0.486834 0.550335,1.079502 0.338667,0.571501 0.719667,1.100668 0.381001,0.508001 0.698502,0.889002 0.232833,0.254 0.592667,0.486834 0.381001,0.232834 0.719668,0.381 0.359834,0.148167 0.529167,0.169334 0.105834,0.02117 0.232834,0.08467 0.148167,0.04233 0.148167,0.211667 0,0.169333 -0.254,0.275167 -0.254001,0.127 -0.656168,0.1905 -0.402167,0.0635 -0.846668,0.0635 z m -5.122342,-5.249341 q 1.079502,0 1.756837,-0.444501 0.677334,-0.444501 0.656167,-1.566336 0,-0.677334 -0.338667,-1.079502 -0.338667,-0.423334 -0.846668,-0.635001 -0.508001,-0.211667 -1.079502,-0.211667 -0.381,0 -0.592667,0.127001 -0.211667,0.127 -0.211667,0.486834 l 0.02117,2.730504 q 0,0.381001 0.190501,0.486834 0.1905,0.105834 0.4445,0.105834 z"
         id="path48" />
      <path
         style="font-size:17.6389px;font-family:'Coconat Demi';-inkscape-font-specification:'Coconat Demi, Normal';font-variant-caps:normal;stroke:none;stroke-width:0.6"
         d="m 62.600469,43.885571 q 0.229306,-0.81139 0.264584,-4.074587 l 0.01764,-1.957918 q 0,-0.564444 -0.105833,-1.075972 -0.105833,-0.511529 -0.211667,-0.740834 -0.08819,-0.229306 -0.141111,-0.264584 l 2.469446,-1.058334 -0.01764,5.097642 q -0.01764,2.681113 0.264584,4.074587 z m 2.099029,-10.883202 q -0.370417,0.299861 -0.917223,0.299861 -0.546806,0 -0.934861,-0.3175 -0.370417,-0.3175 -0.370417,-0.758473 0,-0.440972 0.370417,-0.758473 0.388055,-0.3175 0.934861,-0.3175 0.546806,0 0.917223,0.3175 0.370417,0.299862 0.370417,0.758473 0,0.458612 -0.370417,0.776112 z m 2.434182,10.883202 q 0.229306,-0.81139 0.264584,-4.074587 l 0.01764,-1.957918 q 0,-0.564444 -0.105834,-1.075972 -0.105833,-0.511529 -0.211667,-0.740834 -0.08819,-0.229306 -0.141111,-0.264584 l 2.487085,-1.058334 v 2.099029 q 0.582084,-0.723195 1.887363,-1.428751 1.305278,-0.705556 2.204862,-0.705556 1.869724,0 2.804585,0.917223 0.952501,0.917223 0.952501,3.016252 v 1.199445 q 0,3.175003 0.264584,4.074587 H 75.00063 q 0.264584,-1.058335 0.264584,-3.810003 v -1.12889 q 0,-1.464028 -0.635001,-2.08139 -0.635,-0.635 -1.887362,-0.652639 -0.829029,0 -1.746251,0.423333 -0.899584,0.405695 -1.569863,1.12889 v 2.134307 q 0,2.663474 0.264584,3.986392 z m 11.429978,-8.67834 q 1.075973,-0.08819 2.08139,-0.776111 1.023057,-0.705556 1.516946,-1.799168 h 0.08819 v 2.381251 l 4.215698,-0.194027 -0.15875,1.128889 -4.056948,-0.123472 v 4.339169 q 0,1.375835 0.511529,2.028474 0.511528,0.635 1.640417,0.635 1.622779,0 2.857502,-1.446389 l 0.07056,0.03528 q -0.599723,1.199446 -1.516946,1.94028 -0.917222,0.740833 -2.451807,0.740833 -1.464029,0 -2.293057,-0.829028 -0.829028,-0.829028 -0.829028,-2.310696 v -5.185837 l -1.675696,-0.05292 z"
         id="path49" />
    </g>
    <path
       style="font-style:italic;font-size:5.29167px;line-height:125%;font-family:Lora;-inkscape-font-specification:'Lora, Italic';letter-spacing:0px;word-spacing:0px;stroke-width:0.94314"
       d="m 37.230541,49.586519 -0.01058,0.174625 q -0.232834,0.01058 -0.359834,0.121708 -0.127,0.111125 -0.248708,0.396875 -0.01058,0.02646 -0.03175,0.07408 -0.01588,0.04233 -0.05821,0.142875 -0.04233,0.100542 -0.121708,0.296333 -0.07937,0.195792 -0.216959,0.523876 -0.137583,0.328083 -0.34925,0.8255 -0.206375,0.497417 -0.502709,1.206501 h -0.137583 l -1.037167,-2.82046 q -0.100542,-0.269875 -0.142875,-0.433917 -0.03704,-0.169333 -0.04762,-0.28575 -0.07408,0.0053 -0.148167,0.0053 -0.07408,0 -0.148167,0.0053 l 0.01058,-0.232833 h 1.2065 l -0.01058,0.179916 q -0.269875,0.01588 -0.333375,0.164042 -0.0635,0.142875 0.03175,0.407459 l 0.433917,1.232959 q 0.116416,0.296333 0.216958,0.5715 0.100542,0.269875 0.15875,0.449792 h 0.01058 q 0.07408,-0.185208 0.142875,-0.354542 0.06879,-0.169333 0.164041,-0.402167 0.179917,-0.4445 0.306917,-0.751417 0.127,-0.306917 0.216959,-0.523875 0.08996,-0.216959 0.153458,-0.370417 0.05821,-0.137583 0.09525,-0.232833 0.04233,-0.09525 0.07937,-0.158751 -0.100541,0.0053 -0.201083,0.01058 -0.100542,0.0053 -0.206375,0.01058 l 0.01058,-0.232833 z m 0.99484,1.000125 q 0.1905,0 0.359834,0.05821 0.169333,0.05821 0.275166,0.1905 0.105834,0.132291 0.105834,0.359833 0,0.216959 -0.148167,0.375709 -0.148167,0.15875 -0.386292,0.264583 -0.238125,0.100542 -0.508,0.164042 -0.269875,0.0635 -0.518584,0.08996 0,0.328083 0.0635,0.550333 0.06879,0.22225 0.201084,0.333375 0.132292,0.111125 0.338667,0.111125 0.153458,0 0.306917,-0.06879 0.15875,-0.06879 0.301625,-0.206375 0.142875,-0.142875 0.259292,-0.365126 l 0.174625,0.100542 q -0.148167,0.275167 -0.317501,0.455084 -0.169333,0.179916 -0.370416,0.264583 -0.201084,0.08467 -0.444501,0.08467 -0.502708,0 -0.740834,-0.312209 -0.238125,-0.3175 -0.238125,-0.830792 0,-0.306917 0.07938,-0.597958 0.07937,-0.291042 0.238126,-0.518584 0.15875,-0.232834 0.402166,-0.365125 0.243417,-0.137584 0.566209,-0.137584 z m -0.07408,0.179917 q -0.243417,0 -0.402167,0.164042 -0.153459,0.164042 -0.238125,0.423333 -0.07937,0.259292 -0.100542,0.545042 0.280458,-0.03704 0.534459,-0.132291 0.254,-0.09525 0.418042,-0.243417 0.164041,-0.153459 0.164041,-0.354542 0,-0.169333 -0.09525,-0.28575 -0.08996,-0.116417 -0.280458,-0.116417 z m 1.640413,2.524127 q -0.0053,-0.03704 -0.0053,-0.0635 0,-0.03175 0,-0.07408 0,-0.08996 0.0053,-0.211667 0.0053,-0.127 0.02117,-0.333375 0.02117,-0.206375 0.05821,-0.53975 0.03704,-0.343959 0.05821,-0.518584 0.02117,-0.174625 0.03175,-0.254 0.01058,-0.08467 0.01058,-0.137583 0.0053,-0.105834 -0.01588,-0.206376 -0.01588,-0.100541 -0.127,-0.100541 -0.08467,0 -0.195792,0.116416 -0.111125,0.116417 -0.1905,0.396876 l -0.148167,-0.03175 q 0.01588,-0.09525 0.0635,-0.216959 0.05292,-0.127 0.137584,-0.248708 0.08467,-0.121709 0.206375,-0.201084 0.121708,-0.07937 0.280458,-0.07937 0.238126,0 0.317501,0.164042 0.07937,0.164042 0.06879,0.439209 -0.0053,0.116416 -0.03175,0.259291 -0.02117,0.137584 -0.04763,0.291042 h 0.01588 q 0.153459,-0.460375 0.317501,-0.709083 0.169333,-0.248709 0.338666,-0.343959 0.174625,-0.100542 0.343959,-0.100542 0.15875,0 0.264583,0.08467 0.105834,0.07937 0.105834,0.22225 0,0.09525 -0.06879,0.174625 -0.0635,0.07938 -0.174625,0.07938 -0.09525,0 -0.164042,-0.05821 -0.06879,-0.05821 -0.07937,-0.164042 -0.148167,-0.03175 -0.291042,0.09525 -0.137583,0.127 -0.264583,0.365125 -0.121709,0.232834 -0.216959,0.523876 -0.08996,0.291042 -0.142875,0.592667 -0.05292,0.301625 -0.05292,0.560917 0,0.07937 0,0.121708 0.0053,0.03704 0.01058,0.105834 z m 2.577044,-2.704044 q 0.22225,0 0.333375,0.153459 0.111125,0.148166 0.111125,0.396875 0,0.15875 -0.03175,0.365125 -0.02646,0.201084 -0.06879,0.433917 -0.04233,0.232834 -0.07408,0.470959 -0.02646,0.232833 -0.02646,0.455083 0,0.105834 0.03704,0.164042 0.04233,0.05821 0.127,0.05821 0.08996,0 0.195792,-0.116416 0.111125,-0.116417 0.1905,-0.396876 l 0.148167,0.03175 q -0.02117,0.111126 -0.07408,0.243417 -0.04763,0.127 -0.127,0.243417 -0.07937,0.111125 -0.195792,0.185209 -0.111125,0.07408 -0.259292,0.07408 -0.243417,0 -0.359834,-0.127 -0.116416,-0.127 -0.116416,-0.370417 0,-0.232834 0.03175,-0.449792 0.03175,-0.22225 0.06879,-0.433917 0.04233,-0.216958 0.07408,-0.433917 0.03175,-0.216958 0.03175,-0.4445 0,-0.06879 -0.03175,-0.153459 -0.02646,-0.08467 -0.116417,-0.08467 -0.08467,0 -0.195792,0.116416 -0.111125,0.116417 -0.1905,0.396876 l -0.148167,-0.03175 q 0.01588,-0.09525 0.0635,-0.216959 0.04763,-0.127 0.127001,-0.248708 0.08467,-0.121709 0.201083,-0.201084 0.116417,-0.07937 0.275167,-0.07937 z m 0.301625,-1.143 q 0.121708,0 0.201083,0.08467 0.07938,0.07937 0.07938,0.216959 0,0.132292 -0.08467,0.216958 -0.08467,0.07937 -0.201084,0.07937 -0.116416,0 -0.201083,-0.07937 -0.07937,-0.08467 -0.07937,-0.216958 0,-0.137584 0.08467,-0.216959 0.08467,-0.08467 0.201083,-0.08467 z m 1.857373,0.455083 -0.09525,0.746126 h 0.841375 l -0.01588,0.201083 -0.846667,0.01058 q -0.02117,0.222251 -0.05292,0.460376 -0.02646,0.232833 -0.04762,0.465667 -0.02117,0.232833 -0.03704,0.449792 -0.01588,0.211666 -0.01588,0.386291 0,0.100542 0.01058,0.211667 0.01588,0.105834 0.06879,0.179917 0.05292,0.06879 0.169333,0.06879 0.05292,0 0.127,-0.02117 0.07937,-0.02117 0.174625,-0.100542 0.09525,-0.07937 0.195792,-0.248708 l 0.137583,0.08996 q -0.153458,0.269875 -0.333375,0.412751 -0.174625,0.137583 -0.428625,0.137583 -0.206375,0 -0.328084,-0.08467 -0.116416,-0.08996 -0.169333,-0.232833 -0.05292,-0.142875 -0.05292,-0.306917 0,-0.201084 0.01588,-0.486834 0.01588,-0.291042 0.04763,-0.640292 0.03175,-0.354542 0.07408,-0.735542 l -0.470959,0.0053 0.01588,-0.22225 q 0.365125,0 0.53975,-0.195792 0.174626,-0.195792 0.275167,-0.550334 z m 2.518836,0.687917 q 0.15875,0 0.34925,0.02646 0.1905,0.02117 0.359834,0.0635 -0.04233,0.3175 -0.08467,0.635 -0.03704,0.312209 -0.07408,0.597959 -0.03175,0.280458 -0.05292,0.508 -0.02117,0.22225 -0.02117,0.34925 0,0.105834 0.01588,0.211667 0.01588,0.105833 0.132292,0.105833 0.08996,0 0.195792,-0.116416 0.111125,-0.116417 0.1905,-0.396876 l 0.148167,0.03175 q -0.01587,0.09525 -0.06879,0.222251 -0.04763,0.121708 -0.132292,0.243416 -0.08467,0.121709 -0.206375,0.201084 -0.121708,0.07938 -0.280458,0.07938 -0.211667,0 -0.301625,-0.132292 -0.08996,-0.132292 -0.08996,-0.343958 0,-0.153459 0.02646,-0.333376 0.03175,-0.179916 0.06879,-0.375708 h -0.01588 q -0.127,0.391583 -0.264583,0.629709 -0.132292,0.232833 -0.269875,0.354541 -0.132292,0.121709 -0.259292,0.158751 -0.127,0.04233 -0.238125,0.04233 -0.285751,0 -0.481542,-0.211667 -0.1905,-0.211667 -0.1905,-0.709084 0,-0.370417 0.09525,-0.703792 0.09525,-0.333375 0.28575,-0.587375 0.195792,-0.259292 0.486833,-0.402167 0.291042,-0.148167 0.677334,-0.148167 z m -0.164042,0.1905 q -0.238125,0 -0.418042,0.132292 -0.174625,0.132292 -0.291041,0.359834 -0.116417,0.22225 -0.174626,0.502708 -0.05292,0.275167 -0.05292,0.566209 0,0.338667 0.07408,0.560917 0.07408,0.216958 0.269875,0.216958 0.142875,0 0.28575,-0.142875 0.148167,-0.142875 0.275167,-0.381 0.127,-0.243417 0.227542,-0.53975 0.100542,-0.301625 0.15875,-0.613834 0.05821,-0.312208 0.05821,-0.597959 -0.07938,-0.03175 -0.185209,-0.04762 -0.105833,-0.01588 -0.227542,-0.01588 z m 2.328337,2.571752 q -0.211667,0 -0.407459,-0.0635 -0.195792,-0.06879 -0.3175,-0.195792 -0.121709,-0.127 -0.121709,-0.306917 0,-0.116416 0.0635,-0.185208 0.06879,-0.07408 0.164042,-0.07408 0.105834,0 0.15875,0.06879 0.05821,0.06879 0.05821,0.153459 0,0.03704 -0.01058,0.07937 -0.01058,0.04233 -0.03704,0.08467 0.04233,0.116417 0.169333,0.179917 0.127,0.0635 0.269875,0.0635 0.28575,0 0.428625,-0.132292 0.142876,-0.132291 0.142876,-0.370416 0,-0.142876 -0.100542,-0.254001 -0.100542,-0.111125 -0.254,-0.206375 -0.153459,-0.100541 -0.317501,-0.195792 -0.153458,-0.09525 -0.296333,-0.195791 -0.137583,-0.100542 -0.227542,-0.22225 -0.08467,-0.121709 -0.08467,-0.275167 0,-0.195792 0.116417,-0.354542 0.116417,-0.164042 0.322792,-0.259292 0.206375,-0.100542 0.47625,-0.100542 0.201084,0 0.375709,0.0635 0.179917,0.0635 0.291042,0.179917 0.116416,0.116417 0.116416,0.275167 0,0.111125 -0.0635,0.179917 -0.0635,0.0635 -0.15875,0.0635 -0.09525,0 -0.153458,-0.0635 -0.05821,-0.0635 -0.05821,-0.148167 0,-0.04233 0.01058,-0.07937 0.01058,-0.04233 0.03704,-0.08467 -0.02646,-0.08996 -0.132292,-0.148167 -0.100542,-0.0635 -0.280459,-0.0635 -0.116416,0 -0.227541,0.05292 -0.111126,0.05292 -0.185209,0.148167 -0.07408,0.08996 -0.07408,0.216958 0,0.100542 0.05821,0.185209 0.0635,0.08467 0.164042,0.15875 0.100542,0.07408 0.216958,0.148167 0.1905,0.111125 0.391584,0.238125 0.201083,0.121708 0.333375,0.280458 0.137583,0.15875 0.137583,0.386292 0,0.22225 -0.127,0.396875 -0.121708,0.174625 -0.34925,0.275167 -0.22225,0.100542 -0.518583,0.100542 z m 1.81504,-0.640292 q 0.127,0 0.206375,0.100542 0.07937,0.09525 0.06879,0.232833 -0.0053,0.142875 -0.100542,0.238125 -0.09525,0.09525 -0.216958,0.09525 -0.121709,0 -0.206375,-0.09525 -0.08467,-0.09525 -0.07938,-0.238125 0.01058,-0.137583 0.105833,-0.232833 0.100542,-0.100542 0.22225,-0.100542 z m 3.884083,-3.122085 -0.01058,0.174625 q -0.232834,0.01058 -0.359834,0.121708 -0.127,0.111125 -0.248708,0.396875 -0.01058,0.02646 -0.03175,0.07408 -0.01588,0.04233 -0.05821,0.142875 -0.04233,0.100542 -0.121708,0.296333 -0.07937,0.195792 -0.216958,0.523876 -0.137584,0.328083 -0.349251,0.8255 -0.206375,0.497417 -0.502708,1.206501 h -0.137584 l -1.037167,-2.82046 q -0.100542,-0.269875 -0.142875,-0.433917 -0.03704,-0.169333 -0.04763,-0.28575 -0.07408,0.0053 -0.148167,0.0053 -0.07408,0 -0.148167,0.0053 l 0.01058,-0.232833 h 1.2065 l -0.01058,0.179916 q -0.269875,0.01588 -0.333375,0.164042 -0.0635,0.142875 0.03175,0.407459 l 0.433917,1.232959 q 0.116417,0.296333 0.216958,0.5715 0.100542,0.269875 0.15875,0.449792 h 0.01058 q 0.07408,-0.185208 0.142875,-0.354542 0.06879,-0.169333 0.164042,-0.402167 0.179916,-0.4445 0.306916,-0.751417 0.127001,-0.306917 0.216959,-0.523875 0.08996,-0.216959 0.153458,-0.370417 0.05821,-0.137583 0.09525,-0.232833 0.04233,-0.09525 0.07937,-0.158751 -0.100541,0.0053 -0.201083,0.01058 -0.100542,0.0053 -0.206375,0.01058 l 0.01058,-0.232833 z m 0.492126,1.000125 q 0.222251,0 0.333376,0.153459 0.111125,0.148166 0.111125,0.396875 0,0.15875 -0.03175,0.365125 -0.02646,0.201084 -0.06879,0.433917 -0.04233,0.232834 -0.07408,0.470959 -0.02646,0.232833 -0.02646,0.455083 0,0.105834 0.03704,0.164042 0.04233,0.05821 0.127,0.05821 0.08996,0 0.195792,-0.116416 0.111125,-0.116417 0.1905,-0.396876 l 0.148167,0.03175 q -0.02117,0.111126 -0.07408,0.243417 -0.04763,0.127 -0.127,0.243417 -0.07937,0.111125 -0.195792,0.185209 -0.111125,0.07408 -0.259291,0.07408 -0.243417,0 -0.359834,-0.127 -0.116417,-0.127 -0.116417,-0.370417 0,-0.232834 0.03175,-0.449792 0.03175,-0.22225 0.06879,-0.433917 0.04233,-0.216958 0.07408,-0.433917 0.03175,-0.216958 0.03175,-0.4445 0,-0.06879 -0.03175,-0.153459 -0.02646,-0.08467 -0.116416,-0.08467 -0.08467,0 -0.195792,0.116416 -0.111125,0.116417 -0.1905,0.396876 l -0.148167,-0.03175 q 0.01588,-0.09525 0.0635,-0.216959 0.04763,-0.127 0.127,-0.248708 0.08467,-0.121709 0.201084,-0.201084 0.116416,-0.07937 0.275166,-0.07937 z m 0.301626,-1.143 q 0.121708,0 0.201083,0.08467 0.07937,0.07937 0.07937,0.216959 0,0.132292 -0.08467,0.216958 -0.08467,0.07937 -0.201083,0.07937 -0.116417,0 -0.201083,-0.07937 -0.07938,-0.08467 -0.07938,-0.216958 0,-0.137584 0.08467,-0.216959 0.08467,-0.08467 0.201084,-0.08467 z m 1.24354,3.847044 q -0.0053,-0.03704 -0.0053,-0.0635 0,-0.03175 0,-0.07408 0,-0.08996 0.0053,-0.211667 0.0053,-0.127 0.02117,-0.333375 0.02117,-0.206375 0.05821,-0.53975 0.03704,-0.343959 0.05821,-0.518584 0.02117,-0.174625 0.03175,-0.254 0.01058,-0.08467 0.01058,-0.137583 0.0053,-0.105834 -0.01588,-0.206376 -0.01588,-0.100541 -0.127,-0.100541 -0.08467,0 -0.195792,0.116416 -0.111125,0.116417 -0.1905,0.396876 l -0.148166,-0.03175 q 0.01588,-0.09525 0.0635,-0.216959 0.05292,-0.127 0.137583,-0.248708 0.08467,-0.121709 0.206375,-0.201084 0.121709,-0.07937 0.280459,-0.07937 0.238125,0 0.3175,0.164042 0.07938,0.164042 0.06879,0.439209 -0.0053,0.116416 -0.03175,0.259291 -0.02117,0.137584 -0.04763,0.291042 h 0.01588 q 0.153458,-0.460375 0.3175,-0.709083 0.169333,-0.248709 0.338667,-0.343959 0.174625,-0.100542 0.343958,-0.100542 0.15875,0 0.264584,0.08467 0.105833,0.07937 0.105833,0.22225 0,0.09525 -0.06879,0.174625 -0.0635,0.07938 -0.174625,0.07938 -0.09525,0 -0.164042,-0.05821 -0.06879,-0.05821 -0.07937,-0.164042 -0.148166,-0.03175 -0.291041,0.09525 -0.137584,0.127 -0.264584,0.365125 -0.121708,0.232834 -0.216958,0.523876 -0.08996,0.291042 -0.142876,0.592667 -0.05292,0.301625 -0.05292,0.560917 0,0.07937 0,0.121708 0.0053,0.03704 0.01058,0.105834 z m 3.021542,-3.391961 -0.09525,0.746126 h 0.841376 l -0.01588,0.201083 -0.846667,0.01058 q -0.02117,0.222251 -0.05292,0.460376 -0.02646,0.232833 -0.04763,0.465667 -0.02117,0.232833 -0.03704,0.449792 -0.01588,0.211666 -0.01588,0.386291 0,0.100542 0.01058,0.211667 0.01588,0.105834 0.06879,0.179917 0.05292,0.06879 0.169334,0.06879 0.05292,0 0.127,-0.02117 0.07937,-0.02117 0.174625,-0.100542 0.09525,-0.07937 0.195792,-0.248708 l 0.137583,0.08996 q -0.153458,0.269875 -0.333375,0.412751 -0.174625,0.137583 -0.428625,0.137583 -0.206376,0 -0.328084,-0.08467 -0.116417,-0.08996 -0.169333,-0.232833 -0.05292,-0.142875 -0.05292,-0.306917 0,-0.201084 0.01588,-0.486834 0.01587,-0.291042 0.04762,-0.640292 0.03175,-0.354542 0.07408,-0.735542 l -0.470958,0.0053 0.01588,-0.22225 q 0.365125,0 0.53975,-0.195792 0.174625,-0.195792 0.275167,-0.550334 z m 1.878546,3.450169 q -0.211667,0 -0.338667,-0.09525 -0.127,-0.09525 -0.185209,-0.254 -0.05292,-0.15875 -0.05292,-0.338667 0,-0.296334 0.04233,-0.597959 0.04233,-0.301625 0.08467,-0.555625 0.04233,-0.259292 0.04233,-0.407459 0,-0.100541 -0.02646,-0.174625 -0.02117,-0.07408 -0.116417,-0.07408 -0.08467,0 -0.1905,0.116416 -0.100542,0.116417 -0.179917,0.396876 l -0.148167,-0.03175 q 0.01588,-0.09525 0.0635,-0.216959 0.04763,-0.127 0.127,-0.248708 0.08467,-0.121709 0.201084,-0.201084 0.121708,-0.07937 0.280458,-0.07937 0.211667,0 0.317501,0.132292 0.111125,0.132292 0.111125,0.381 0,0.148167 -0.02646,0.365125 -0.02646,0.216959 -0.0635,0.455084 -0.03175,0.232834 -0.05821,0.455084 -0.02646,0.22225 -0.02646,0.391583 0,0.05821 0.01588,0.137584 0.02117,0.07937 0.07408,0.137583 0.05821,0.05821 0.15875,0.05821 0.148167,0 0.291042,-0.137583 0.142875,-0.137583 0.269875,-0.370417 0.127,-0.232833 0.227542,-0.513292 0.100542,-0.28575 0.153458,-0.582084 0.05821,-0.301625 0.05821,-0.5715 0,-0.07937 -0.0053,-0.142875 0,-0.06879 -0.0053,-0.137583 h 0.444501 q 0.0053,0.03704 0.0053,0.06879 0,0.02646 0,0.06879 0,0.08996 -0.01058,0.216959 -0.01058,0.121708 -0.03175,0.328083 -0.02117,0.201084 -0.0635,0.534459 -0.03704,0.306917 -0.05821,0.481542 -0.01588,0.174625 -0.02646,0.264583 -0.01058,0.08467 -0.01587,0.132292 0,0.04762 0,0.105833 0,0.09525 0.02646,0.164042 0.03175,0.06879 0.116416,0.06879 0.08996,0 0.195792,-0.111125 0.111125,-0.116417 0.1905,-0.396876 l 0.148167,0.03175 q -0.01587,0.09525 -0.06879,0.222251 -0.04763,0.121708 -0.132292,0.243416 -0.08467,0.121709 -0.206375,0.201084 -0.121708,0.07938 -0.280458,0.07938 -0.211667,0 -0.312209,-0.132292 -0.09525,-0.132292 -0.09525,-0.343958 0,-0.153459 0.02646,-0.333376 0.03175,-0.179916 0.06879,-0.375708 h -0.01588 q -0.179916,0.481542 -0.343958,0.740834 -0.164042,0.254 -0.322792,0.34925 -0.15875,0.09525 -0.333375,0.09525 z m 3.042712,0 q -0.211667,0 -0.407459,-0.0635 -0.195791,-0.06879 -0.3175,-0.195792 -0.121708,-0.127 -0.121708,-0.306917 0,-0.116416 0.0635,-0.185208 0.06879,-0.07408 0.164042,-0.07408 0.105833,0 0.15875,0.06879 0.05821,0.06879 0.05821,0.153459 0,0.03704 -0.01058,0.07937 -0.01058,0.04233 -0.03704,0.08467 0.04233,0.116417 0.169333,0.179917 0.127001,0.0635 0.269876,0.0635 0.28575,0 0.428625,-0.132292 0.142875,-0.132291 0.142875,-0.370416 0,-0.142876 -0.100542,-0.254001 -0.100541,-0.111125 -0.254,-0.206375 -0.153458,-0.100541 -0.3175,-0.195792 -0.153459,-0.09525 -0.296334,-0.195791 -0.137583,-0.100542 -0.227541,-0.22225 -0.08467,-0.121709 -0.08467,-0.275167 0,-0.195792 0.116417,-0.354542 0.116416,-0.164042 0.322791,-0.259292 0.206376,-0.100542 0.476251,-0.100542 0.201083,0 0.375708,0.0635 0.179917,0.0635 0.291042,0.179917 0.116417,0.116417 0.116417,0.275167 0,0.111125 -0.0635,0.179917 -0.0635,0.0635 -0.15875,0.0635 -0.09525,0 -0.153459,-0.0635 -0.05821,-0.0635 -0.05821,-0.148167 0,-0.04233 0.01058,-0.07937 0.01058,-0.04233 0.03704,-0.08467 -0.02646,-0.08996 -0.132292,-0.148167 -0.100541,-0.0635 -0.280458,-0.0635 -0.116417,0 -0.227542,0.05292 -0.111125,0.05292 -0.185209,0.148167 -0.07408,0.08996 -0.07408,0.216958 0,0.100542 0.05821,0.185209 0.0635,0.08467 0.164042,0.15875 0.100542,0.07408 0.216959,0.148167 0.1905,0.111125 0.391583,0.238125 0.201084,0.121708 0.333375,0.280458 0.137584,0.15875 0.137584,0.386292 0,0.22225 -0.127,0.396875 -0.121709,0.174625 -0.34925,0.275167 -0.222251,0.100542 -0.518584,0.100542 z m 1.81504,-0.640292 q 0.127,0 0.206375,0.100542 0.07937,0.09525 0.06879,0.232833 -0.0053,0.142875 -0.100541,0.238125 -0.09525,0.09525 -0.216959,0.09525 -0.121708,0 -0.206375,-0.09525 -0.08467,-0.09525 -0.07937,-0.238125 0.01058,-0.137583 0.105833,-0.232833 0.100542,-0.100542 0.222251,-0.100542 z m 0.88371,0.582084 0.01058,-0.174626 q 0.201084,-0.01058 0.275167,-0.08996 0.07937,-0.08467 0.09525,-0.227542 0.01588,-0.148166 0.02646,-0.333375 l 0.127,-2.286001 q 0.01058,-0.105834 0.01588,-0.201084 0.0053,-0.100541 0.02117,-0.179917 -0.09525,0.0053 -0.1905,0.01058 -0.08996,0.0053 -0.185208,0.01058 V 49.586519 H 68.9541 l -0.01058,0.174625 q -0.185208,0.0053 -0.264583,0.08996 -0.07937,0.08467 -0.100542,0.227542 -0.02117,0.142875 -0.03175,0.333375 l -0.121708,2.270127 q -0.0053,0.142875 -0.01587,0.243416 -0.01058,0.100542 -0.02117,0.169334 l 0.989542,-0.01588 q 0.333375,-0.0053 0.518584,-0.206375 0.185208,-0.206375 0.206375,-0.677334 h 0.179917 l -0.08996,1.095376 z m 3.503089,-2.704044 q 0.22225,0 0.333375,0.153459 0.111125,0.148166 0.111125,0.396875 0,0.15875 -0.03175,0.365125 -0.02646,0.201084 -0.06879,0.433917 -0.04233,0.232834 -0.07408,0.470959 -0.02646,0.232833 -0.02646,0.455083 0,0.105834 0.03704,0.164042 0.04233,0.05821 0.127,0.05821 0.08996,0 0.195792,-0.116416 0.111125,-0.116417 0.1905,-0.396876 l 0.148167,0.03175 q -0.02117,0.111126 -0.07408,0.243417 -0.04762,0.127 -0.127,0.243417 -0.07937,0.111125 -0.195791,0.185209 -0.111126,0.07408 -0.259292,0.07408 -0.243417,0 -0.359834,-0.127 -0.116417,-0.127 -0.116417,-0.370417 0,-0.232834 0.03175,-0.449792 0.03175,-0.22225 0.06879,-0.433917 0.04233,-0.216958 0.07408,-0.433917 0.03175,-0.216958 0.03175,-0.4445 0,-0.06879 -0.03175,-0.153459 -0.02646,-0.08467 -0.116417,-0.08467 -0.08467,0 -0.195792,0.116416 -0.111125,0.116417 -0.1905,0.396876 l -0.148167,-0.03175 q 0.01588,-0.09525 0.0635,-0.216959 0.04762,-0.127 0.127,-0.248708 0.08467,-0.121709 0.201084,-0.201084 0.116416,-0.07937 0.275167,-0.07937 z m 0.301625,-1.143 q 0.121708,0 0.201083,0.08467 0.07937,0.07937 0.07937,0.216959 0,0.132292 -0.08467,0.216958 -0.08467,0.07937 -0.201084,0.07937 -0.116417,0 -0.201083,-0.07937 -0.07938,-0.08467 -0.07938,-0.216958 0,-0.137584 0.08467,-0.216959 0.08467,-0.08467 0.201084,-0.08467 z m 1.740955,-0.148167 q -0.02117,0.148167 -0.04762,0.312208 -0.02117,0.15875 -0.03704,0.312209 -0.01588,0.148167 -0.03175,0.269875 -0.02117,0.232834 -0.04762,0.47625 -0.02646,0.243417 -0.05292,0.508001 -0.02646,0.259291 -0.05292,0.53975 h 0.01587 q 0.105833,-0.381 0.232833,-0.608542 0.127,-0.227542 0.264583,-0.338667 0.137584,-0.111125 0.269876,-0.142875 0.137583,-0.03704 0.254,-0.03704 0.243417,0 0.386292,0.137584 0.148166,0.137583 0.211666,0.359833 0.0635,0.216959 0.0635,0.476251 0,0.365125 -0.08467,0.687917 -0.07937,0.322791 -0.254,0.5715 -0.174625,0.248708 -0.455084,0.391584 -0.280458,0.137583 -0.672042,0.137583 -0.08467,0 -0.206375,-0.01058 -0.121709,-0.01058 -0.248709,-0.03704 -0.127,-0.02117 -0.238125,-0.0635 0.03704,-0.518584 0.0635,-0.931334 0.02646,-0.41275 0.04763,-0.788459 0.02646,-0.375708 0.05292,-0.762 0.03175,-0.386292 0.06879,-0.846667 0.01058,-0.137584 0.01587,-0.174626 0.0053,-0.03704 0.01588,-0.105833 -0.09525,0.0053 -0.1905,0.01058 -0.09525,0.0053 -0.1905,0.01058 l 0.02117,-0.211667 q 0.232834,0 0.365125,-0.02117 0.132292,-0.02117 0.195792,-0.05292 0.06879,-0.03175 0.111125,-0.06879 z m 0.613833,1.539876 q -0.148166,0.0053 -0.291041,0.153458 -0.137584,0.142875 -0.254001,0.381 -0.116416,0.232834 -0.206375,0.523876 -0.08996,0.28575 -0.142875,0.587375 -0.05292,0.296334 -0.05821,0.560917 0.0635,0.0635 0.174625,0.09525 0.116417,0.02646 0.216958,0.02646 0.232834,-0.0053 0.391584,-0.100541 0.164042,-0.100542 0.269875,-0.264584 0.105834,-0.169333 0.164042,-0.370417 0.05821,-0.206375 0.07937,-0.418042 0.02117,-0.211666 0.01588,-0.407458 -0.0053,-0.359834 -0.08996,-0.566209 -0.08467,-0.211667 -0.269876,-0.201083 z m 2.550582,-0.248709 q 0.190501,0 0.359834,0.05821 0.169333,0.05821 0.275167,0.1905 0.105833,0.132291 0.105833,0.359833 0,0.216959 -0.148166,0.375709 -0.148167,0.15875 -0.386292,0.264583 -0.238126,0.100542 -0.508001,0.164042 -0.269875,0.0635 -0.518583,0.08996 0,0.328083 0.0635,0.550333 0.06879,0.22225 0.201083,0.333375 0.132292,0.111125 0.338667,0.111125 0.153458,0 0.306917,-0.06879 0.15875,-0.06879 0.301625,-0.206375 0.142875,-0.142875 0.259292,-0.365126 l 0.174625,0.100542 q -0.148167,0.275167 -0.3175,0.455084 -0.169334,0.179916 -0.370417,0.264583 -0.201084,0.08467 -0.4445,0.08467 -0.502709,0 -0.740834,-0.312209 -0.238125,-0.3175 -0.238125,-0.830792 0,-0.306917 0.07937,-0.597958 0.07937,-0.291042 0.238125,-0.518584 0.15875,-0.232834 0.402167,-0.365125 0.243417,-0.137584 0.566208,-0.137584 z m -0.07408,0.179917 q -0.243417,0 -0.402167,0.164042 -0.153458,0.164042 -0.238125,0.423333 -0.07937,0.259292 -0.100542,0.545042 0.280459,-0.03704 0.534459,-0.132291 0.254,-0.09525 0.418042,-0.243417 0.164042,-0.153459 0.164042,-0.354542 0,-0.169333 -0.09525,-0.28575 -0.08996,-0.116417 -0.280459,-0.116417 z m 1.640415,2.524127 q -0.0053,-0.03704 -0.0053,-0.0635 0,-0.03175 0,-0.07408 0,-0.08996 0.0053,-0.211667 0.0053,-0.127 0.02117,-0.333375 0.02117,-0.206375 0.05821,-0.53975 0.03704,-0.343959 0.05821,-0.518584 0.02117,-0.174625 0.03175,-0.254 0.01058,-0.08467 0.01058,-0.137583 0.0053,-0.105834 -0.01587,-0.206376 -0.01588,-0.100541 -0.127,-0.100541 -0.08467,0 -0.195792,0.116416 -0.111125,0.116417 -0.1905,0.396876 l -0.148167,-0.03175 q 0.01588,-0.09525 0.0635,-0.216959 0.05292,-0.127 0.137584,-0.248708 0.08467,-0.121709 0.206375,-0.201084 0.121708,-0.07937 0.280459,-0.07937 0.238125,0 0.3175,0.164042 0.07937,0.164042 0.06879,0.439209 -0.0053,0.116416 -0.03175,0.259291 -0.02117,0.137584 -0.04762,0.291042 h 0.01587 q 0.153459,-0.460375 0.317501,-0.709083 0.169333,-0.248709 0.338666,-0.343959 0.174626,-0.100542 0.343959,-0.100542 0.15875,0 0.264583,0.08467 0.105834,0.07937 0.105834,0.22225 0,0.09525 -0.06879,0.174625 -0.0635,0.07938 -0.174625,0.07938 -0.09525,0 -0.164042,-0.05821 -0.06879,-0.05821 -0.07937,-0.164042 -0.148167,-0.03175 -0.291042,0.09525 -0.137583,0.127 -0.264583,0.365125 -0.121709,0.232834 -0.216959,0.523876 -0.08996,0.291042 -0.142875,0.592667 -0.05292,0.301625 -0.05292,0.560917 0,0.07937 0,0.121708 0.0053,0.03704 0.01058,0.105834 z m 3.021541,-3.391961 -0.09525,0.746126 h 0.841376 l -0.01587,0.201083 -0.846667,0.01058 q -0.02117,0.222251 -0.05292,0.460376 -0.02646,0.232833 -0.04762,0.465667 -0.02117,0.232833 -0.03704,0.449792 -0.01588,0.211666 -0.01588,0.386291 0,0.100542 0.01058,0.211667 0.01587,0.105834 0.06879,0.179917 0.05292,0.06879 0.169334,0.06879 0.05292,0 0.127,-0.02117 0.07937,-0.02117 0.174625,-0.100542 0.09525,-0.07937 0.195792,-0.248708 l 0.137583,0.08996 q -0.153458,0.269875 -0.333375,0.412751 -0.174625,0.137583 -0.428625,0.137583 -0.206376,0 -0.328084,-0.08467 -0.116417,-0.08996 -0.169333,-0.232833 -0.05292,-0.142875 -0.05292,-0.306917 0,-0.201084 0.01588,-0.486834 0.01587,-0.291042 0.04762,-0.640292 0.03175,-0.354542 0.07408,-0.735542 l -0.470958,0.0053 0.01588,-0.22225 q 0.365125,0 0.53975,-0.195792 0.174625,-0.195792 0.275167,-0.550334 z m 2.518838,0.687917 q 0.15875,0 0.34925,0.02646 0.1905,0.02117 0.359833,0.0635 -0.04233,0.3175 -0.08467,0.635 -0.03704,0.312209 -0.07408,0.597959 -0.03175,0.280458 -0.05292,0.508 -0.02117,0.22225 -0.02117,0.34925 0,0.105834 0.01587,0.211667 0.01588,0.105833 0.132292,0.105833 0.08996,0 0.195792,-0.116416 0.111125,-0.116417 0.1905,-0.396876 l 0.148166,0.03175 q -0.01588,0.09525 -0.06879,0.222251 -0.04762,0.121708 -0.132292,0.243416 -0.08467,0.121709 -0.206375,0.201084 -0.121709,0.07938 -0.280459,0.07938 -0.211667,0 -0.301625,-0.132292 -0.08996,-0.132292 -0.08996,-0.343958 0,-0.153459 0.02646,-0.333376 0.03175,-0.179916 0.06879,-0.375708 h -0.01588 q -0.127,0.391583 -0.264584,0.629709 -0.132291,0.232833 -0.269875,0.354541 -0.132292,0.121709 -0.259292,0.158751 -0.127,0.04233 -0.238125,0.04233 -0.28575,0 -0.481542,-0.211667 -0.1905,-0.211667 -0.1905,-0.709084 0,-0.370417 0.09525,-0.703792 0.09525,-0.333375 0.28575,-0.587375 0.195792,-0.259292 0.486834,-0.402167 0.291042,-0.148167 0.677334,-0.148167 z m -0.164042,0.1905 q -0.238125,0 -0.418042,0.132292 -0.174625,0.132292 -0.291042,0.359834 -0.116417,0.22225 -0.174625,0.502708 -0.05292,0.275167 -0.05292,0.566209 0,0.338667 0.07408,0.560917 0.07408,0.216958 0.269875,0.216958 0.142875,0 0.28575,-0.142875 0.148167,-0.142875 0.275167,-0.381 0.127,-0.243417 0.227542,-0.53975 0.100541,-0.301625 0.15875,-0.613834 0.05821,-0.312208 0.05821,-0.597959 -0.07937,-0.03175 -0.185208,-0.04762 -0.105834,-0.01588 -0.227542,-0.01588 z m 2.328337,2.571752 q -0.211667,0 -0.407459,-0.0635 -0.195791,-0.06879 -0.3175,-0.195792 -0.121708,-0.127 -0.121708,-0.306917 0,-0.116416 0.0635,-0.185208 0.06879,-0.07408 0.164042,-0.07408 0.105833,0 0.15875,0.06879 0.05821,0.06879 0.05821,0.153459 0,0.03704 -0.01058,0.07937 -0.01058,0.04233 -0.03704,0.08467 0.04233,0.116417 0.169334,0.179917 0.127,0.0635 0.269875,0.0635 0.28575,0 0.428625,-0.132292 0.142875,-0.132291 0.142875,-0.370416 0,-0.142876 -0.100542,-0.254001 -0.100541,-0.111125 -0.254,-0.206375 -0.153458,-0.100541 -0.3175,-0.195792 -0.153458,-0.09525 -0.296334,-0.195791 -0.137583,-0.100542 -0.227541,-0.22225 -0.08467,-0.121709 -0.08467,-0.275167 0,-0.195792 0.116417,-0.354542 0.116416,-0.164042 0.322792,-0.259292 0.206375,-0.100542 0.47625,-0.100542 0.201083,0 0.375708,0.0635 0.179917,0.0635 0.291042,0.179917 0.116417,0.116417 0.116417,0.275167 0,0.111125 -0.0635,0.179917 -0.0635,0.0635 -0.15875,0.0635 -0.09525,0 -0.153459,-0.0635 -0.05821,-0.0635 -0.05821,-0.148167 0,-0.04233 0.01058,-0.07937 0.01058,-0.04233 0.03704,-0.08467 -0.02646,-0.08996 -0.132292,-0.148167 -0.100541,-0.0635 -0.280458,-0.0635 -0.116417,0 -0.227542,0.05292 -0.111125,0.05292 -0.185208,0.148167 -0.07408,0.08996 -0.07408,0.216958 0,0.100542 0.05821,0.185209 0.0635,0.08467 0.164041,0.15875 0.100542,0.07408 0.216959,0.148167 0.1905,0.111125 0.391583,0.238125 0.201084,0.121708 0.333376,0.280458 0.137583,0.15875 0.137583,0.386292 0,0.22225 -0.127,0.396875 -0.121708,0.174625 -0.34925,0.275167 -0.22225,0.100542 -0.518584,0.100542 z"
       id="text14-3-52"
       aria-label="Veritas.Virtus.Libertas " />
    <path
       id="rect25"
       style="fill:#ffffff;fill-rule:evenodd;stroke-width:0.182103"
       d="m 46.372913,24.267498 h 5.61 v 7.92 h -5.61 z" />
    <g
       id="text1-8-0-72"
       style="font-size:11.2889px;line-height:33.02px;font-family:'EB Garamond';-inkscape-font-specification:'EB Garamond';font-variant-caps:small-caps;text-align:center;letter-spacing:0px;text-anchor:middle;stroke:#000000;stroke-width:0.600001"
       aria-label="#pre">
      <path
         style="font-family:'Coconat Demi';-inkscape-font-specification:'Coconat Demi, Normal';font-variant-caps:normal;fill:#0000ff;stroke:none;stroke-width:0.6"
         d="m 48.526918,24.08707 q -0.1016,0.428978 -0.440267,2.178757 h 0.383822 1.207913 0.451556 l 0.1016,-0.6096 q 0.07902,-0.462845 0.248356,-1.569157 h 0.790223 q -0.225778,0.970845 -0.428979,2.178757 0.790223,-0.02258 1.185335,-0.04516 l -0.124178,0.756356 q -0.417689,-0.03387 -1.185335,-0.05644 l -0.440267,2.393246 q 0.812801,-0.02258 1.219202,-0.04515 l -0.124178,0.756356 q -0.428979,-0.03387 -1.219202,-0.05644 l -0.07902,0.451556 q -0.180622,1.207912 -0.2032,1.569157 h -0.790223 q 0.191911,-0.82409 0.395111,-2.020713 h -0.327378 -1.207912 -0.530578 l -0.07902,0.451556 q -0.01129,0.04516 -0.1016,0.654756 -0.07902,0.6096 -0.1016,0.914401 h -0.790223 q 0.135467,-0.575734 0.4064,-2.009424 -0.745067,0 -1.286934,0.04515 l 0.135467,-0.756356 q 0.428978,0.02258 1.264356,0.04515 l 0.41769,-2.381958 q -0.745068,0 -1.275646,0.04516 l 0.124178,-0.756356 q 0.428978,0.02258 1.264357,0.04516 l 0.1016,-0.6096 q 0.07902,-0.462845 0.248356,-1.569157 z m -0.05645,2.833514 h -0.496711 l -0.440267,2.393246 h 0.4064 1.207912 0.440267 l 0.41769,-2.393246 h -0.327378 z"
         id="path50" />
      <path
         style="font-weight:500;font-size:10.5833px;font-family:Orbitron;-inkscape-font-specification:'Orbitron, Medium';font-variant-caps:normal;letter-spacing:0.529167px;fill:#0000ff;stroke:none;stroke-width:0.6"
         d="m 53.241435,32.423459 v 0 -8.572473 h 4.868318 q 0.380999,0 0.687915,0.190499 0.317499,0.1905 0.497415,0.497415 0.190499,0.306916 0.190499,0.687915 v 3.386656 q 0,0.380999 -0.190499,0.687914 -0.179916,0.306916 -0.497415,0.497415 -0.306916,0.1905 -0.687915,0.1905 h -3.725321 v 2.434159 z m 1.407579,-3.577156 h 3.428989 q 0.105833,0 0.179917,-0.07408 0.08467,-0.08467 0.08467,-0.190499 v -3.323156 q 0,-0.105833 -0.08467,-0.179916 -0.07408,-0.08467 -0.179917,-0.08467 h -3.428989 q -0.105833,0 -0.190499,0.08467 -0.07408,0.07408 -0.07408,0.179916 v 3.323156 q 0,0.105833 0.07408,0.190499 0.08467,0.07408 0.190499,0.07408 z m 6.127728,1.142997 v 0 -4.762485 q 0,-0.380999 0.1905,-0.687915 0.190499,-0.306915 0.497415,-0.497415 0.317499,-0.190499 0.687914,-0.190499 h 3.428989 v 1.142996 h -3.397239 q -0.105833,0 -0.190499,0.08467 -0.07408,0.07408 -0.07408,0.179916 V 29.9893 Z m 7.408311,0 q -0.380999,0 -0.687915,-0.1905 -0.306915,-0.190499 -0.497415,-0.497415 -0.190499,-0.306915 -0.190499,-0.687914 v -3.386656 q 0,-0.380999 0.190499,-0.687915 0.1905,-0.306915 0.497415,-0.497415 0.306916,-0.190499 0.687915,-0.190499 h 3.492489 q 0.380999,0 0.687914,0.190499 0.317499,0.179916 0.497415,0.497415 0.1905,0.317499 0.1905,0.687915 v 2.264826 H 67.95222 v 1.09008 q 0,0.105833 0.07408,0.190499 0.08467,0.07408 0.1905,0.07408 h 4.836568 V 29.9893 H 68.185053 Z M 67.95222,26.422728 h 3.947571 v -1.164163 q 0,-0.105833 -0.07408,-0.179916 -0.07408,-0.08467 -0.179916,-0.08467 h -3.428989 q -0.105833,0 -0.1905,0.08467 -0.07408,0.07408 -0.07408,0.179916 z"
         id="path51" />
    </g>
  </g>
</svg>
