<?xml version="1.0" encoding="UTF-8" standalone="no"?>
<!-- Created with Inkscape (http://www.inkscape.org/) -->

<svg
   width="54.786442mm"
   height="33.879444mm"
   viewBox="0 0 54.786442 33.879444"
   version="1.1"
   id="svg1"
   xmlns="http://www.w3.org/2000/svg"
   xmlns:svg="http://www.w3.org/2000/svg">
  <desc property="dc:creator">Michael Koksharov: https://github.com/LuciferaseMaster/PrePrint-Template-for-AnyRxiv/tree/master/preprint_logos</desc>
  <defs
     id="defs1">
    <clipPath
       clipPathUnits="userSpaceOnUse"
       id="clipEmfPath1-1-1-9">
      <path
         d="M 0.63946054,0.63946054 H 92.082317 V 33.571678 H 0.63946054 Z"
         id="path1-8-9-66" />
    </clipPath>
  </defs>
  <g
     id="layer1"
     transform="translate(-32.54375,-20.637499)">
    <g
       id="text1-8-9"
       style="font-size:21.8722px;line-height:63.9762px;font-family:'EB Garamond';-inkscape-font-specification:'EB Garamond';font-variant-caps:small-caps;text-align:center;letter-spacing:0px;text-anchor:middle;stroke:#000000;stroke-width:0.600001"
       aria-label="Print">
      <path
         style="font-weight:600;font-size:35.2778px;-inkscape-font-specification:'EB Garamond, Semi-Bold';font-variant-caps:normal;letter-spacing:-3.175px;fill:#bd2736;stroke:none;stroke-width:0.6"
         d="m 33.35514,44.026682 q -0.317501,0 -0.564445,-0.141111 -0.246945,-0.105834 -0.246945,-0.317501 0,-0.529167 0.881945,-0.705556 1.340557,-0.282222 1.905001,-0.776111 0.564445,-0.49389 0.564445,-1.658057 V 24.906113 q 0,-1.340556 -0.458611,-1.975557 -0.423334,-0.635 -1.693335,-0.917222 -0.493889,-0.105834 -0.705556,-0.282223 -0.211666,-0.211667 -0.211666,-0.423333 0,-0.246945 0.211666,-0.352778 0.246945,-0.141112 0.635001,-0.141112 0.846667,0 1.552223,0.03528 0.740834,0 1.411112,0.03528 0.670278,0.03528 1.375834,0.03528 0.776112,0 1.44639,-0.07056 0.705556,-0.07055 1.411112,-0.141111 0.740834,-0.07056 1.693335,-0.07056 4.198058,0 6.702782,1.76389 2.504724,1.76389 2.504724,4.868337 0,2.187224 -0.917223,4.056947 -0.881945,1.834446 -2.751668,2.963336 -1.834446,1.128889 -4.65667,1.128889 -0.881945,0 -1.340557,-0.246944 -0.458611,-0.282223 -0.458611,-0.599723 0,-0.211667 0.211667,-0.352778 0.246944,-0.176389 0.423333,-0.176389 0.317501,0 0.599723,0.07056 0.3175,0.03528 0.917223,0.03528 1.658057,0 2.504724,-1.693334 0.881945,-1.693335 0.881945,-4.515559 0,-3.104446 -1.270001,-4.515558 -1.234723,-1.44639 -3.351391,-1.44639 -0.987779,0 -1.552223,0.423333 -0.529168,0.388056 -0.529168,1.270001 l -0.03528,16.545289 q 0,1.164168 0.564445,1.76389 0.599722,0.564445 2.010834,0.881945 0.458612,0.07056 0.670278,0.246945 0.211667,0.141111 0.211667,0.423334 0,0.246944 -0.211667,0.352778 -0.176389,0.105833 -0.564444,0.105833 -0.81139,0 -1.658057,-0.07056 -0.846667,-0.03528 -1.658057,-0.07055 -0.776111,-0.03528 -1.481667,-0.03528 -0.776112,0 -1.622779,0.03528 -0.81139,0.03528 -1.658057,0.105833 -0.846667,0.07056 -1.693334,0.07056 z"
         id="path32" />
      <path
         style="font-weight:500;font-size:21.1667px;-inkscape-font-specification:'EB Garamond, Medium';fill:#bd2736;stroke:none;stroke-width:0.6"
         d="m 59.721806,44.181904 q -0.550334,0 -1.016002,-0.169333 -0.465667,-0.169334 -0.825501,-0.465668 -0.359834,-0.3175 -0.656168,-0.656167 -0.211667,-0.254001 -0.529167,-0.719668 -0.296334,-0.465668 -0.613835,-0.973668 -0.296333,-0.529168 -0.508,-0.952502 -0.127001,-0.254 -0.465668,-0.423334 -0.3175,-0.1905 -0.740834,-0.1905 -0.105834,0 -0.254001,0.105833 -0.148167,0.105834 -0.148167,0.275167 v 2.264837 q 0,0.508001 0.232834,0.719668 0.254001,0.1905 0.846668,0.296334 0.169334,0.02117 0.317501,0.105833 0.148167,0.0635 0.148167,0.232834 0,0.127 -0.148167,0.211667 -0.127001,0.0635 -0.232834,0.0635 -0.296334,0 -0.592668,-0.02117 -0.275167,0 -0.571501,-0.02117 -0.275167,-0.02117 -0.5715,-0.02117 -0.275168,0 -0.550335,0 -0.402167,0 -0.783168,0.02117 -0.381,0.02117 -0.762001,0.04233 -0.381,0.02117 -0.783168,0.02117 -0.127,0 -0.275167,-0.08467 -0.127,-0.08467 -0.127,-0.1905 0,-0.169334 0.148167,-0.254001 0.169333,-0.08467 0.3175,-0.105833 0.571501,-0.105834 0.889002,-0.296334 0.338667,-0.211667 0.338667,-0.740834 v -6.053677 q 0,-0.550334 -0.254,-0.825501 -0.232834,-0.296334 -0.846668,-0.402167 -0.190501,-0.04233 -0.338668,-0.148167 -0.127,-0.105834 -0.127,-0.254001 0,-0.127 0.127,-0.1905 0.148167,-0.08467 0.275167,-0.08467 0.465668,0 0.783168,0.04233 0.338668,0.02117 0.635001,0.0635 0.317501,0.02117 0.719668,0.02117 0.508001,0 1.164169,-0.0635 0.677334,-0.0635 1.439335,-0.0635 1.058335,0 1.905003,0.232834 0.867835,0.211667 1.375836,0.740834 0.508001,0.529168 0.508001,1.418169 0.02117,0.613835 -0.254001,1.100669 -0.275167,0.465667 -0.677334,0.762001 -0.402167,0.296334 -0.825501,0.444501 -0.211667,0.0635 -0.127001,0.254 0.211667,0.486834 0.550335,1.079502 0.338667,0.571501 0.719667,1.100668 0.381001,0.508001 0.698502,0.889002 0.232833,0.254 0.592667,0.486834 0.381001,0.232834 0.719668,0.381 0.359834,0.148167 0.529167,0.169334 0.105834,0.02117 0.232834,0.08467 0.148167,0.04233 0.148167,0.211667 0,0.169333 -0.254,0.275167 -0.254001,0.127 -0.656168,0.1905 -0.402167,0.0635 -0.846668,0.0635 z m -5.122342,-5.249341 q 1.079502,0 1.756837,-0.444501 0.677334,-0.444501 0.656167,-1.566336 0,-0.677334 -0.338667,-1.079502 -0.338667,-0.423334 -0.846668,-0.635001 -0.508001,-0.211667 -1.079502,-0.211667 -0.381,0 -0.592667,0.127001 -0.211667,0.127 -0.211667,0.486834 l 0.02117,2.730504 q 0,0.381001 0.190501,0.486834 0.1905,0.105834 0.4445,0.105834 z"
         id="path33" />
      <path
         style="font-size:17.6389px;font-family:'Coconat Demi';-inkscape-font-specification:'Coconat Demi, Normal';font-variant-caps:normal;stroke:none;stroke-width:0.6"
         d="m 62.600469,43.885571 q 0.229306,-0.81139 0.264584,-4.074587 l 0.01764,-1.957918 q 0,-0.564444 -0.105833,-1.075972 -0.105833,-0.511529 -0.211667,-0.740834 -0.08819,-0.229306 -0.141111,-0.264584 l 2.469446,-1.058334 -0.01764,5.097642 q -0.01764,2.681113 0.264584,4.074587 z m 2.099029,-10.883202 q -0.370417,0.299861 -0.917223,0.299861 -0.546806,0 -0.934861,-0.3175 -0.370417,-0.3175 -0.370417,-0.758473 0,-0.440972 0.370417,-0.758473 0.388055,-0.3175 0.934861,-0.3175 0.546806,0 0.917223,0.3175 0.370417,0.299862 0.370417,0.758473 0,0.458612 -0.370417,0.776112 z m 2.434182,10.883202 q 0.229306,-0.81139 0.264584,-4.074587 l 0.01764,-1.957918 q 0,-0.564444 -0.105834,-1.075972 -0.105833,-0.511529 -0.211667,-0.740834 -0.08819,-0.229306 -0.141111,-0.264584 l 2.487085,-1.058334 v 2.099029 q 0.582084,-0.723195 1.887363,-1.428751 1.305278,-0.705556 2.204862,-0.705556 1.869724,0 2.804585,0.917223 0.952501,0.917223 0.952501,3.016252 v 1.199445 q 0,3.175003 0.264584,4.074587 H 75.00063 q 0.264584,-1.058335 0.264584,-3.810003 v -1.12889 q 0,-1.464028 -0.635001,-2.08139 -0.635,-0.635 -1.887362,-0.652639 -0.829029,0 -1.746251,0.423333 -0.899584,0.405695 -1.569863,1.12889 v 2.134307 q 0,2.663474 0.264584,3.986392 z m 11.429978,-8.67834 q 1.075973,-0.08819 2.08139,-0.776111 1.023057,-0.705556 1.516946,-1.799168 h 0.08819 v 2.381251 l 4.215698,-0.194027 -0.15875,1.128889 -4.056948,-0.123472 v 4.339169 q 0,1.375835 0.511529,2.028474 0.511528,0.635 1.640417,0.635 1.622779,0 2.857502,-1.446389 l 0.07056,0.03528 q -0.599723,1.199446 -1.516946,1.94028 -0.917222,0.740833 -2.451807,0.740833 -1.464029,0 -2.293057,-0.829028 -0.829028,-0.829028 -0.829028,-2.310696 v -5.185837 l -1.675696,-0.05292 z"
         id="path34" />
    </g>
    <path
       style="font-style:italic;font-size:8.04199px;line-height:125%;font-family:Lora;-inkscape-font-specification:'Lora, Italic';letter-spacing:0px;word-spacing:0px"
       d="m 16.763076,26.924701 -2.734277,-3.908408 q -0.136714,-0.201049 -0.28147,-0.394057 -0.136714,-0.193008 -0.273427,-0.394058 h -0.01608 l -0.128672,3.490224 q -0.008,0.20105 -0.01608,0.410142 -0.008,0.201049 -0.04021,0.386015 0.144756,-0.008 0.289511,-0.01608 0.144756,-0.008 0.289512,-0.01608 l -0.01608,0.353848 h -1.471684 l 0.008,-0.265386 q 0.249302,0 0.361889,-0.104546 0.12063,-0.112588 0.16084,-0.257343 0.04021,-0.152798 0.04021,-0.273428 l 0.176924,-3.59477 q 0.01608,-0.209091 0.02413,-0.410141 0.008,-0.20105 0.01608,-0.4021 -0.128672,0.008 -0.265386,0.01608 -0.136714,0.008 -0.273427,0.01608 l 0.01608,-0.353847 h 0.956996 l 2.557353,3.634979 q 0.168882,0.24126 0.337764,0.48252 0.168882,0.241259 0.337763,0.482519 h 0.01608 l 0.168882,-3.699315 q 0.01608,-0.176924 0.02413,-0.32168 0.01608,-0.144756 0.03217,-0.257344 -0.144756,0.008 -0.289511,0.01608 -0.144756,0.008 -0.289512,0.01608 l 0.01608,-0.353847 h 1.479726 l -0.01608,0.265385 q -0.297554,0.008 -0.418183,0.136714 -0.112588,0.128672 -0.136714,0.345806 -0.01608,0.217133 -0.03217,0.506645 l -0.225176,4.463305 z m 3.039865,0 q -0.32168,0 -0.514687,-0.144756 -0.193008,-0.144756 -0.28147,-0.386016 -0.08042,-0.241259 -0.08042,-0.514687 0,-0.450351 0.06434,-0.908745 0.06434,-0.458393 0.128672,-0.844409 0.06434,-0.394057 0.06434,-0.619233 0,-0.152798 -0.04021,-0.265386 -0.03217,-0.112588 -0.176924,-0.112588 -0.128672,0 -0.289512,0.176924 -0.152797,0.176924 -0.273427,0.603149 l -0.225176,-0.04825 q 0.02413,-0.144755 0.0965,-0.329721 0.07238,-0.193008 0.193008,-0.377974 0.128671,-0.184965 0.305595,-0.305595 0.184966,-0.12063 0.426226,-0.12063 0.321679,0 0.482519,0.20105 0.168882,0.201049 0.168882,0.579023 0,0.225176 -0.04021,0.554897 -0.04021,0.329722 -0.0965,0.691611 -0.04825,0.353848 -0.08846,0.691612 -0.04021,0.337763 -0.04021,0.595107 0,0.08846 0.02413,0.209092 0.03217,0.120629 0.112588,0.209091 0.08846,0.08846 0.24126,0.08846 0.225176,0 0.442309,-0.209092 0.217134,-0.209091 0.410142,-0.562939 0.193008,-0.353847 0.345805,-0.780073 0.152798,-0.434267 0.233218,-0.884619 0.08846,-0.458393 0.08846,-0.868535 0,-0.12063 -0.008,-0.217134 0,-0.104545 -0.008,-0.209091 h 0.675527 q 0.008,0.05629 0.008,0.104546 0,0.04021 0,0.104545 0,0.136714 -0.01608,0.329722 -0.01608,0.184966 -0.04825,0.498603 -0.03217,0.305596 -0.0965,0.812241 -0.05629,0.466436 -0.08846,0.731822 -0.02413,0.265385 -0.04021,0.402099 -0.01608,0.128672 -0.02413,0.20105 0,0.07238 0,0.16084 0,0.144756 0.04021,0.249301 0.04825,0.104546 0.176923,0.104546 0.136714,0 0.297554,-0.168882 0.168882,-0.176923 0.289512,-0.603149 l 0.225175,0.04825 q -0.02413,0.144756 -0.104546,0.337764 -0.07238,0.184965 -0.201049,0.369931 -0.128672,0.184966 -0.313638,0.305596 -0.184966,0.12063 -0.426225,0.12063 -0.32168,0 -0.474478,-0.20105 -0.144756,-0.20105 -0.144756,-0.522729 0,-0.233218 0.04021,-0.506646 0.04825,-0.273427 0.104546,-0.570981 h -0.02413 q -0.273427,0.731821 -0.522729,1.125879 -0.249302,0.386015 -0.490562,0.530771 -0.241259,0.144756 -0.506645,0.144756 z m 4.817156,-6.160165 q -0.02413,0.20105 -0.07238,0.450352 -0.04021,0.249301 -0.08042,0.490561 -0.03217,0.24126 -0.05629,0.426226 -0.04825,0.337763 -0.0965,0.772031 -0.04825,0.426225 -0.0965,0.892661 -0.04825,0.458393 -0.08846,0.900702 -0.03217,0.44231 -0.05629,0.812241 -0.02413,0.36189 -0.02413,0.595108 0,0.152798 0.03217,0.289511 0.03217,0.128672 0.184966,0.128672 0.136714,0 0.297554,-0.168882 0.168882,-0.176923 0.289511,-0.611191 l 0.225176,0.05629 q -0.02413,0.136714 -0.104546,0.329722 -0.07238,0.193007 -0.201049,0.377973 -0.128672,0.176924 -0.313638,0.297554 -0.176924,0.12063 -0.418184,0.12063 -0.329721,0 -0.482519,-0.16084 -0.152798,-0.168882 -0.16084,-0.490561 -0.008,-0.20105 0.01608,-0.595108 0.03217,-0.394057 0.07238,-0.892661 0.04825,-0.506645 0.104546,-1.0535 0.05629,-0.554898 0.12063,-1.077627 0.06434,-0.522729 0.12063,-0.948955 0.04021,-0.217134 0.04825,-0.28147 0.01608,-0.07238 0.02413,-0.152797 -0.144756,0.008 -0.289512,0.01608 -0.136714,0.008 -0.28147,0.01608 l 0.04021,-0.32168 q 0.353848,0 0.546856,-0.03217 0.201049,-0.03217 0.305595,-0.08042 0.104546,-0.04825 0.168882,-0.104546 z m 2.275891,0 q -0.02413,0.20105 -0.07238,0.450352 -0.04021,0.249301 -0.08042,0.490561 -0.03217,0.24126 -0.05629,0.426226 -0.04825,0.337763 -0.0965,0.772031 -0.04825,0.426225 -0.0965,0.892661 -0.04825,0.458393 -0.08846,0.900702 -0.03217,0.44231 -0.05629,0.812241 -0.02413,0.36189 -0.02413,0.595108 0,0.152798 0.03217,0.289511 0.03217,0.128672 0.184965,0.128672 0.136714,0 0.297554,-0.168882 0.168882,-0.176923 0.289512,-0.611191 l 0.225175,0.05629 q -0.02413,0.136714 -0.104545,0.329722 -0.07238,0.193007 -0.20105,0.377973 -0.128672,0.176924 -0.313638,0.297554 -0.176924,0.12063 -0.418183,0.12063 -0.329722,0 -0.48252,-0.16084 -0.152798,-0.168882 -0.16084,-0.490561 -0.008,-0.20105 0.01608,-0.595108 0.03217,-0.394057 0.07238,-0.892661 0.04825,-0.506645 0.104546,-1.0535 0.05629,-0.554898 0.12063,-1.077627 0.06434,-0.522729 0.12063,-0.948955 0.04021,-0.217134 0.04825,-0.28147 0.01608,-0.07238 0.02413,-0.152797 -0.144756,0.008 -0.289512,0.01608 -0.136714,0.008 -0.281469,0.01608 l 0.04021,-0.32168 q 0.353847,0 0.546855,-0.03217 0.20105,-0.03217 0.305595,-0.08042 0.104546,-0.04825 0.168882,-0.104546 z m 1.624489,1.962246 q 0.337764,0 0.506646,0.233218 0.168881,0.225175 0.168881,0.603149 0,0.24126 -0.04825,0.554897 -0.04021,0.305596 -0.104545,0.659443 -0.06434,0.353848 -0.112588,0.715737 -0.04021,0.353848 -0.04021,0.691612 0,0.160839 0.05629,0.249301 0.06434,0.08846 0.193007,0.08846 0.136714,0 0.297554,-0.176924 0.168882,-0.176923 0.289512,-0.603149 l 0.225175,0.04825 q -0.03217,0.168882 -0.112587,0.369932 -0.07238,0.193007 -0.193008,0.369931 -0.12063,0.168882 -0.297554,0.28147 -0.168882,0.112588 -0.394057,0.112588 -0.369932,0 -0.546856,-0.193008 -0.176923,-0.193008 -0.176923,-0.562939 0,-0.353848 0.04825,-0.68357 0.04825,-0.337763 0.104546,-0.659443 0.06434,-0.329721 0.112588,-0.659443 0.04825,-0.329722 0.04825,-0.675527 0,-0.104546 -0.04825,-0.233218 -0.04021,-0.128672 -0.176924,-0.128672 -0.128671,0 -0.297553,0.176924 -0.168882,0.176924 -0.289512,0.603149 l -0.225176,-0.04825 q 0.02413,-0.144755 0.0965,-0.329721 0.07238,-0.193008 0.193008,-0.377974 0.128672,-0.184965 0.305596,-0.305595 0.176923,-0.12063 0.418183,-0.12063 z m 0.458394,-1.73707 q 0.184965,0 0.305595,0.128672 0.12063,0.12063 0.12063,0.329721 0,0.20105 -0.128672,0.329722 -0.128672,0.12063 -0.305595,0.12063 -0.176924,0 -0.305596,-0.12063 -0.12063,-0.128672 -0.12063,-0.329722 0,-0.209091 0.128672,-0.329721 0.128672,-0.128672 0.305596,-0.128672 z m 2.750356,5.934989 q -0.32168,0 -0.514688,-0.144756 -0.193007,-0.144756 -0.281469,-0.386016 -0.08042,-0.241259 -0.08042,-0.514687 0,-0.450351 0.06434,-0.908745 0.06434,-0.458393 0.128672,-0.844409 0.06434,-0.394057 0.06434,-0.619233 0,-0.152798 -0.04021,-0.265386 -0.03217,-0.112588 -0.176924,-0.112588 -0.128672,0 -0.289512,0.176924 -0.152798,0.176924 -0.273428,0.603149 l -0.225175,-0.04825 q 0.02413,-0.144755 0.0965,-0.329721 0.07238,-0.193008 0.193007,-0.377974 0.128672,-0.184965 0.305596,-0.305595 0.184966,-0.12063 0.426226,-0.12063 0.321679,0 0.482519,0.20105 0.168882,0.201049 0.168882,0.579023 0,0.225176 -0.04021,0.554897 -0.04021,0.329722 -0.0965,0.691611 -0.04825,0.353848 -0.08846,0.691612 -0.04021,0.337763 -0.04021,0.595107 0,0.08846 0.02413,0.209092 0.03217,0.120629 0.112588,0.209091 0.08846,0.08846 0.24126,0.08846 0.225175,0 0.442309,-0.209092 0.217134,-0.209091 0.410142,-0.562939 0.193007,-0.353847 0.345805,-0.780073 0.152798,-0.434267 0.233218,-0.884619 0.08846,-0.458393 0.08846,-0.868535 0,-0.12063 -0.008,-0.217134 0,-0.104545 -0.008,-0.209091 h 0.675527 q 0.008,0.05629 0.008,0.104546 0,0.04021 0,0.104545 0,0.136714 -0.01608,0.329722 -0.01608,0.184966 -0.04825,0.498603 -0.03217,0.305596 -0.0965,0.812241 -0.05629,0.466436 -0.08846,0.731822 -0.02413,0.265385 -0.04021,0.402099 -0.01608,0.128672 -0.02413,0.20105 0,0.07238 0,0.16084 0,0.144756 0.04021,0.249301 0.04825,0.104546 0.176924,0.104546 0.136714,0 0.297554,-0.168882 0.168881,-0.176923 0.289511,-0.603149 l 0.225176,0.04825 q -0.02413,0.144756 -0.104546,0.337764 -0.07238,0.184965 -0.20105,0.369931 -0.128671,0.184966 -0.313637,0.305596 -0.184966,0.12063 -0.426226,0.12063 -0.321679,0 -0.474477,-0.20105 -0.144756,-0.20105 -0.144756,-0.522729 0,-0.233218 0.04021,-0.506646 0.04825,-0.273427 0.104546,-0.570981 h -0.02413 q -0.273428,0.731821 -0.522729,1.125879 -0.249302,0.386015 -0.490562,0.530771 -0.24126,0.144756 -0.506645,0.144756 z m 4.624148,0 q -0.32168,0 -0.619234,-0.0965 -0.297553,-0.104546 -0.482519,-0.297554 -0.184966,-0.193008 -0.184966,-0.466435 0,-0.176924 0.0965,-0.28147 0.104546,-0.112588 0.249302,-0.112588 0.16084,0 0.24126,0.104546 0.08846,0.104546 0.08846,0.233218 0,0.05629 -0.01608,0.12063 -0.01608,0.06434 -0.05629,0.128672 0.06433,0.176923 0.257343,0.273427 0.193008,0.0965 0.410142,0.0965 0.434267,0 0.651401,-0.20105 0.217134,-0.201049 0.217134,-0.562939 0,-0.217134 -0.152798,-0.386015 -0.152798,-0.168882 -0.386016,-0.313638 -0.233217,-0.152798 -0.482519,-0.297554 -0.233218,-0.144756 -0.450352,-0.297553 -0.209091,-0.152798 -0.345805,-0.337764 -0.128672,-0.184966 -0.128672,-0.418183 0,-0.297554 0.176924,-0.538814 0.176924,-0.249302 0.490561,-0.394057 0.313638,-0.152798 0.723779,-0.152798 0.305596,0 0.570982,0.0965 0.273427,0.0965 0.442309,0.273427 0.176924,0.176924 0.176924,0.418184 0,0.168882 -0.0965,0.273428 -0.0965,0.0965 -0.24126,0.0965 -0.144756,0 -0.233217,-0.0965 -0.08846,-0.0965 -0.08846,-0.225176 0,-0.06434 0.01608,-0.12063 0.01608,-0.06434 0.05629,-0.128672 -0.04021,-0.136714 -0.20105,-0.225176 -0.152798,-0.0965 -0.426226,-0.0965 -0.176923,0 -0.345805,0.08042 -0.168882,0.08042 -0.28147,0.225176 -0.112588,0.136714 -0.112588,0.329722 0,0.152798 0.08846,0.281469 0.0965,0.128672 0.249302,0.24126 0.152798,0.112588 0.329721,0.225176 0.289512,0.168882 0.595108,0.361889 0.305595,0.184966 0.506645,0.426226 0.209092,0.24126 0.209092,0.587065 0,0.337764 -0.193008,0.603149 -0.184966,0.265386 -0.530771,0.418184 -0.337764,0.152798 -0.788115,0.152798 z m 5.098621,-4.197919 q 0.337763,0 0.506645,0.233218 0.168882,0.225175 0.168882,0.603149 0,0.24126 -0.04825,0.554897 -0.04021,0.305596 -0.104546,0.659443 -0.06434,0.353848 -0.112588,0.715737 -0.04021,0.353848 -0.04021,0.691612 0,0.160839 0.05629,0.249301 0.06434,0.08846 0.193008,0.08846 0.136714,0 0.297554,-0.176924 0.168881,-0.176923 0.289511,-0.603149 l 0.225176,0.04825 q -0.03217,0.168882 -0.112588,0.369932 -0.07238,0.193007 -0.193008,0.369931 -0.12063,0.168882 -0.297553,0.28147 -0.168882,0.112588 -0.394058,0.112588 -0.369931,0 -0.546855,-0.193008 -0.176924,-0.193008 -0.176924,-0.562939 0,-0.353848 0.04825,-0.68357 0.04825,-0.337763 0.104546,-0.659443 0.06434,-0.329721 0.112588,-0.659443 0.04825,-0.329722 0.04825,-0.675527 0,-0.104546 -0.04825,-0.233218 -0.04021,-0.128672 -0.176924,-0.128672 -0.128672,0 -0.297554,0.176924 -0.168881,0.176924 -0.289511,0.603149 l -0.225176,-0.04825 q 0.02413,-0.144755 0.0965,-0.329721 0.07238,-0.193008 0.193008,-0.377974 0.128671,-0.184965 0.305595,-0.305595 0.176924,-0.12063 0.418184,-0.12063 z m 0.458393,-1.73707 q 0.184966,0 0.305596,0.128672 0.12063,0.12063 0.12063,0.329721 0,0.20105 -0.128672,0.329722 -0.128672,0.12063 -0.305596,0.12063 -0.176924,0 -0.305595,-0.12063 -0.12063,-0.128672 -0.12063,-0.329722 0,-0.209091 0.128672,-0.329721 0.128671,-0.128672 0.305595,-0.128672 z m 4.881484,5.934989 q -0.377974,0 -0.514688,-0.20105 -0.136713,-0.20105 -0.136713,-0.570981 0,-0.225176 0.03217,-0.530772 0.04021,-0.305595 0.08846,-0.651401 0.05629,-0.345805 0.08846,-0.699653 0.04021,-0.353848 0.04021,-0.675527 0,-0.0965 -0.03217,-0.209092 -0.02413,-0.112588 -0.104546,-0.193008 -0.08042,-0.08846 -0.241259,-0.08846 -0.225176,0 -0.450352,0.209092 -0.225175,0.209092 -0.426225,0.562939 -0.20105,0.353848 -0.36189,0.788115 -0.16084,0.426226 -0.257343,0.884619 -0.08846,0.450352 -0.08846,0.860493 0,0.12063 0,0.225176 0.008,0.0965 0.01608,0.20105 h -0.675528 q -0.008,-0.05629 -0.008,-0.0965 0,-0.04825 0,-0.112588 0,-0.136714 0.01608,-0.313638 0.01608,-0.184965 0.04825,-0.482519 0.04021,-0.305596 0.0965,-0.812241 0.05629,-0.474477 0.08042,-0.739863 0.03217,-0.265386 0.04825,-0.4021 0.01608,-0.144755 0.01608,-0.217133 0.008,-0.08042 0.008,-0.168882 0,-0.144756 -0.04021,-0.249302 -0.04021,-0.112588 -0.176924,-0.112588 -0.128672,0 -0.297553,0.176924 -0.168882,0.176924 -0.289512,0.603149 l -0.225176,-0.04825 q 0.02413,-0.144755 0.0965,-0.329721 0.08042,-0.193008 0.209092,-0.377974 0.128672,-0.184965 0.313638,-0.305595 0.184965,-0.12063 0.426225,-0.12063 0.273428,0 0.4021,0.152798 0.136713,0.144755 0.168881,0.377973 0.04021,0.233218 0.02413,0.498604 -0.01608,0.225175 -0.05629,0.434267 -0.03217,0.209092 -0.06434,0.369932 h 0.02413 q 0.273428,-0.731822 0.538814,-1.125879 0.265385,-0.4021 0.522729,-0.554897 0.265386,-0.152798 0.52273,-0.152798 0.321679,0 0.514687,0.144756 0.193008,0.144755 0.273428,0.386015 0.08846,0.233218 0.08846,0.514688 0,0.442309 -0.06433,0.908744 -0.05629,0.458394 -0.12063,0.852451 -0.05629,0.386016 -0.05629,0.619234 0,0.144756 0.03217,0.257343 0.04021,0.112588 0.184965,0.112588 0.136714,0 0.297554,-0.168882 0.168882,-0.176923 0.289512,-0.611191 l 0.225175,0.05629 q -0.02412,0.136714 -0.104545,0.329722 -0.07238,0.193007 -0.20105,0.377973 -0.128672,0.176924 -0.313638,0.297554 -0.184966,0.12063 -0.426225,0.12063 z m 6.176252,-4.197919 q 0.36189,0 0.587065,0.233218 0.233218,0.225175 0.32168,0.603149 0.0965,0.369931 0.06434,0.804199 -0.03217,0.434267 -0.193008,0.852451 -0.12063,0.321679 -0.32168,0.627275 -0.193007,0.297554 -0.450351,0.546855 -0.249302,0.24126 -0.538813,0.386016 -0.289512,0.144756 -0.60315,0.144756 -0.329721,0 -0.530771,-0.136714 -0.20105,-0.144756 -0.289512,-0.377974 -0.08846,-0.241259 -0.0965,-0.514687 -0.008,-0.337764 0.01608,-0.683569 0.02413,-0.345806 0.05629,-0.667485 0.03217,-0.329722 0.05629,-0.595108 0.03217,-0.273427 0.03217,-0.450351 0,-0.144756 -0.04021,-0.249302 -0.04021,-0.112588 -0.184965,-0.112588 -0.128672,0 -0.28147,0.176924 -0.152798,0.176924 -0.265386,0.611191 l -0.225176,-0.05629 q 0.02413,-0.144755 0.08846,-0.329721 0.07238,-0.193008 0.193008,-0.377974 0.12063,-0.184965 0.297554,-0.305595 0.176924,-0.12063 0.418183,-0.128672 0.217134,-0.008 0.36189,0.08042 0.144756,0.08846 0.217134,0.265385 0.08042,0.168882 0.08846,0.418184 0,0.24126 -0.02413,0.570981 -0.01608,0.32168 -0.04825,0.667485 -0.02413,0.337764 -0.04825,0.64336 -0.02413,0.297553 -0.03217,0.506645 0,0.128672 0.01608,0.273428 0.01608,0.144756 0.0965,0.241259 0.08042,0.0965 0.273428,0.0965 0.20105,0 0.418184,-0.12063 0.217133,-0.120629 0.418183,-0.321679 0.209092,-0.20105 0.369932,-0.458394 0.168881,-0.265385 0.257343,-0.554897 0.04825,-0.16084 0.08846,-0.418183 0.04021,-0.265386 0.02413,-0.538814 -0.008,-0.281469 -0.0965,-0.506645 -0.08846,-0.225176 -0.289511,-0.305596 -0.04825,0.104546 -0.136714,0.152798 -0.08042,0.04825 -0.184966,0.04825 -0.104546,0 -0.217134,-0.08042 -0.112587,-0.08042 -0.120629,-0.257344 0,-0.08042 0.04021,-0.168881 0.04825,-0.0965 0.144756,-0.16084 0.104546,-0.07238 0.273428,-0.07238 z m 3.578694,0 q 0.289511,0 0.546855,0.08846 0.257344,0.08846 0.418183,0.289511 0.16084,0.20105 0.16084,0.546856 0,0.329721 -0.225175,0.570981 -0.225176,0.24126 -0.587066,0.4021 -0.361889,0.152797 -0.772031,0.249301 -0.410141,0.0965 -0.788115,0.136714 0,0.498603 0.0965,0.836367 0.104546,0.337764 0.305596,0.506645 0.201049,0.168882 0.514687,0.168882 0.233218,0 0.466435,-0.104546 0.24126,-0.104546 0.458394,-0.313637 0.217134,-0.217134 0.394057,-0.554898 l 0.265386,0.152798 q -0.225176,0.418184 -0.482519,0.691611 -0.257344,0.273428 -0.56294,0.4021 -0.305595,0.128672 -0.675527,0.128672 -0.763989,0 -1.125878,-0.474478 -0.36189,-0.482519 -0.36189,-1.262592 0,-0.466436 0.12063,-0.908745 0.12063,-0.44231 0.361889,-0.788115 0.24126,-0.353848 0.611192,-0.554897 0.369931,-0.209092 0.860493,-0.209092 z m -0.112588,0.273427 q -0.369932,0 -0.611191,0.249302 -0.233218,0.249302 -0.36189,0.643359 -0.12063,0.394058 -0.152798,0.828325 0.426226,-0.05629 0.812241,-0.201049 0.386016,-0.144756 0.635317,-0.369932 0.249302,-0.233218 0.249302,-0.538813 0,-0.257344 -0.144756,-0.434268 -0.136714,-0.176924 -0.426225,-0.176924 z m 2.493009,3.83603 q -0.008,-0.05629 -0.008,-0.0965 0,-0.04825 0,-0.112588 0,-0.136714 0.008,-0.321679 0.008,-0.193008 0.03217,-0.506646 0.03217,-0.313638 0.08846,-0.820283 0.05629,-0.522729 0.08846,-0.788115 0.03217,-0.265386 0.04825,-0.386015 0.01608,-0.128672 0.01608,-0.209092 0.008,-0.16084 -0.02413,-0.313638 -0.02413,-0.152798 -0.193008,-0.152798 -0.128672,0 -0.297554,0.176924 -0.168882,0.176924 -0.289512,0.603149 l -0.225175,-0.04825 q 0.02413,-0.144755 0.0965,-0.329721 0.08042,-0.193008 0.209091,-0.377974 0.128672,-0.184965 0.313638,-0.305595 0.184966,-0.12063 0.426225,-0.12063 0.36189,0 0.48252,0.249302 0.12063,0.249301 0.104546,0.667485 -0.008,0.176924 -0.04825,0.394057 -0.03217,0.209092 -0.07238,0.44231 h 0.02413 q 0.233218,-0.699653 0.482519,-1.077627 0.257344,-0.377974 0.514688,-0.522729 0.265385,-0.152798 0.522729,-0.152798 0.24126,0 0.4021,0.128672 0.160839,0.12063 0.160839,0.337763 0,0.144756 -0.104545,0.265386 -0.0965,0.12063 -0.265386,0.12063 -0.144756,0 -0.249302,-0.08846 -0.104546,-0.08846 -0.12063,-0.249302 -0.225175,-0.04825 -0.442309,0.144756 -0.209092,0.193008 -0.4021,0.554897 -0.184965,0.353848 -0.329721,0.796157 -0.136714,0.44231 -0.217134,0.900703 -0.08042,0.458394 -0.08042,0.852451 0,0.12063 0,0.184966 0.008,0.05629 0.01608,0.16084 z m 4.382889,-6.071703 q -0.03217,0.225176 -0.07238,0.474478 -0.03217,0.241259 -0.05629,0.474477 -0.02413,0.225176 -0.04825,0.410142 -0.03217,0.353847 -0.07238,0.723779 -0.04021,0.369931 -0.08042,0.772031 -0.04021,0.394057 -0.08042,0.820283 h 0.02413 q 0.16084,-0.579024 0.353848,-0.924829 0.193007,-0.345806 0.402099,-0.514688 0.209092,-0.168881 0.410142,-0.217133 0.209091,-0.05629 0.386015,-0.05629 0.369932,0 0.587065,0.209092 0.225176,0.209091 0.32168,0.546855 0.0965,0.329722 0.0965,0.723779 0,0.554897 -0.128672,1.045459 -0.12063,0.490561 -0.386015,0.868535 -0.265386,0.377973 -0.691612,0.595107 -0.426225,0.209092 -1.021332,0.209092 -0.128672,0 -0.313638,-0.01608 -0.184966,-0.01608 -0.377973,-0.05629 -0.193008,-0.03217 -0.36189,-0.0965 0.05629,-0.788115 0.0965,-1.41539 0.04021,-0.627276 0.07238,-1.198257 0.04021,-0.570981 0.08042,-1.158046 0.04825,-0.587066 0.104546,-1.286719 0.01608,-0.209092 0.02413,-0.265386 0.008,-0.05629 0.02413,-0.160839 -0.144755,0.008 -0.289511,0.01608 -0.144756,0.008 -0.289512,0.01608 l 0.03217,-0.32168 q 0.353848,0 0.554897,-0.03217 0.20105,-0.03217 0.297554,-0.08042 0.104546,-0.04825 0.168882,-0.104546 z m 0.93287,2.340219 q -0.225175,0.008 -0.442309,0.233218 -0.209092,0.217134 -0.386016,0.579023 -0.176923,0.353848 -0.313637,0.796157 -0.136714,0.434268 -0.217134,0.892661 -0.08042,0.450352 -0.08846,0.852451 0.0965,0.0965 0.265386,0.144756 0.176924,0.04021 0.329722,0.04021 0.353847,-0.008 0.595107,-0.152798 0.249301,-0.152798 0.410141,-0.402099 0.16084,-0.257344 0.249302,-0.56294 0.08846,-0.313637 0.12063,-0.635317 0.03217,-0.321679 0.02413,-0.619233 -0.008,-0.546855 -0.136714,-0.860493 -0.128672,-0.32168 -0.410142,-0.305596 z m 4.254208,-0.377973 q 0.241259,0 0.530771,0.04021 0.289512,0.03217 0.546855,0.0965 -0.06434,0.482519 -0.128672,0.965038 -0.05629,0.474478 -0.112587,0.908745 -0.04825,0.426226 -0.08042,0.772031 -0.03217,0.337764 -0.03217,0.530772 0,0.16084 0.02413,0.321679 0.02413,0.16084 0.201049,0.16084 0.136714,0 0.297554,-0.176924 0.168882,-0.176923 0.289512,-0.603149 l 0.225175,0.04825 q -0.02413,0.144756 -0.104545,0.337764 -0.07238,0.184965 -0.20105,0.369931 -0.128672,0.184966 -0.313638,0.305596 -0.184966,0.12063 -0.426225,0.12063 -0.32168,0 -0.458394,-0.20105 -0.136714,-0.20105 -0.136714,-0.522729 0,-0.233218 0.04021,-0.506646 0.04825,-0.273427 0.104546,-0.570981 h -0.02413 q -0.193007,0.595107 -0.402099,0.956997 -0.20105,0.353847 -0.410142,0.538813 -0.201049,0.184966 -0.394057,0.24126 -0.193008,0.06434 -0.36189,0.06434 -0.434267,0 -0.731821,-0.32168 -0.289512,-0.321679 -0.289512,-1.077627 0,-0.562939 0.144756,-1.069584 0.144756,-0.506646 0.434268,-0.892661 0.297553,-0.394058 0.739863,-0.611191 0.442309,-0.225176 1.029375,-0.225176 z m -0.249302,0.289511 q -0.36189,0 -0.635317,0.20105 -0.265386,0.20105 -0.44231,0.546856 -0.176924,0.337763 -0.265385,0.763989 -0.08042,0.418183 -0.08042,0.860493 0,0.514687 0.112587,0.852451 0.112588,0.329721 0.410142,0.329721 0.217134,0 0.434267,-0.217134 0.225176,-0.217133 0.418184,-0.579023 0.193008,-0.369931 0.345806,-0.820283 0.152797,-0.458393 0.241259,-0.932871 0.08846,-0.474477 0.08846,-0.908745 -0.12063,-0.04825 -0.28147,-0.07238 -0.160839,-0.02413 -0.345805,-0.02413 z"
       id="text14-3-52"
       transform="matrix(0.94313976,0,0,0.94313976,21.169437,28.50953)"
       aria-label="Nullius in verba " />
    <path
       id="rect25"
       style="fill:#ffffff;fill-rule:evenodd;stroke-width:0.182103"
       d="m 46.372913,24.267498 h 5.61 v 7.92 h -5.61 z" />
    <g
       id="text1-8-0-72"
       style="font-size:11.2889px;line-height:33.02px;font-family:'EB Garamond';-inkscape-font-specification:'EB Garamond';font-variant-caps:small-caps;text-align:center;letter-spacing:0px;text-anchor:middle;stroke:#000000;stroke-width:0.600001"
       aria-label="#pre">
      <path
         style="font-family:'Coconat Demi';-inkscape-font-specification:'Coconat Demi, Normal';font-variant-caps:normal;fill:#0000ff;stroke:none;stroke-width:0.6"
         d="m 48.526918,24.08707 q -0.1016,0.428978 -0.440267,2.178757 h 0.383822 1.207913 0.451556 l 0.1016,-0.6096 q 0.07902,-0.462845 0.248356,-1.569157 h 0.790223 q -0.225778,0.970845 -0.428979,2.178757 0.790223,-0.02258 1.185335,-0.04516 l -0.124178,0.756356 q -0.417689,-0.03387 -1.185335,-0.05644 l -0.440267,2.393246 q 0.812801,-0.02258 1.219202,-0.04515 l -0.124178,0.756356 q -0.428979,-0.03387 -1.219202,-0.05644 l -0.07902,0.451556 q -0.180622,1.207912 -0.2032,1.569157 h -0.790223 q 0.191911,-0.82409 0.395111,-2.020713 h -0.327378 -1.207912 -0.530578 l -0.07902,0.451556 q -0.01129,0.04516 -0.1016,0.654756 -0.07902,0.6096 -0.1016,0.914401 h -0.790223 q 0.135467,-0.575734 0.4064,-2.009424 -0.745067,0 -1.286934,0.04515 l 0.135467,-0.756356 q 0.428978,0.02258 1.264356,0.04515 l 0.41769,-2.381958 q -0.745068,0 -1.275646,0.04516 l 0.124178,-0.756356 q 0.428978,0.02258 1.264357,0.04516 l 0.1016,-0.6096 q 0.07902,-0.462845 0.248356,-1.569157 z m -0.05645,2.833514 h -0.496711 l -0.440267,2.393246 h 0.4064 1.207912 0.440267 l 0.41769,-2.393246 h -0.327378 z"
         id="path35" />
      <path
         style="font-weight:500;font-size:10.5833px;font-family:Orbitron;-inkscape-font-specification:'Orbitron, Medium';font-variant-caps:normal;letter-spacing:0.529167px;fill:#0000ff;stroke:none;stroke-width:0.6"
         d="m 53.241435,32.423459 v 0 -8.572473 h 4.868318 q 0.380999,0 0.687915,0.190499 0.317499,0.1905 0.497415,0.497415 0.190499,0.306916 0.190499,0.687915 v 3.386656 q 0,0.380999 -0.190499,0.687914 -0.179916,0.306916 -0.497415,0.497415 -0.306916,0.1905 -0.687915,0.1905 h -3.725321 v 2.434159 z m 1.407579,-3.577156 h 3.428989 q 0.105833,0 0.179917,-0.07408 0.08467,-0.08467 0.08467,-0.190499 v -3.323156 q 0,-0.105833 -0.08467,-0.179916 -0.07408,-0.08467 -0.179917,-0.08467 h -3.428989 q -0.105833,0 -0.190499,0.08467 -0.07408,0.07408 -0.07408,0.179916 v 3.323156 q 0,0.105833 0.07408,0.190499 0.08467,0.07408 0.190499,0.07408 z m 6.127728,1.142997 v 0 -4.762485 q 0,-0.380999 0.1905,-0.687915 0.190499,-0.306915 0.497415,-0.497415 0.317499,-0.190499 0.687914,-0.190499 h 3.428989 v 1.142996 h -3.397239 q -0.105833,0 -0.190499,0.08467 -0.07408,0.07408 -0.07408,0.179916 V 29.9893 Z m 7.408311,0 q -0.380999,0 -0.687915,-0.1905 -0.306915,-0.190499 -0.497415,-0.497415 -0.190499,-0.306915 -0.190499,-0.687914 v -3.386656 q 0,-0.380999 0.190499,-0.687915 0.1905,-0.306915 0.497415,-0.497415 0.306916,-0.190499 0.687915,-0.190499 h 3.492489 q 0.380999,0 0.687914,0.190499 0.317499,0.179916 0.497415,0.497415 0.1905,0.317499 0.1905,0.687915 v 2.264826 H 67.95222 v 1.09008 q 0,0.105833 0.07408,0.190499 0.08467,0.07408 0.1905,0.07408 h 4.836568 V 29.9893 H 68.185053 Z M 67.95222,26.422728 h 3.947571 v -1.164163 q 0,-0.105833 -0.07408,-0.179916 -0.07408,-0.08467 -0.179916,-0.08467 h -3.428989 q -0.105833,0 -0.1905,0.08467 -0.07408,0.07408 -0.07408,0.179916 z"
         id="path36" />
    </g>
  </g>
</svg>
