<?xml version="1.0" encoding="UTF-8" standalone="no"?>
<!-- Created with Inkscape (http://www.inkscape.org/) -->

<svg
   width="91.424072mm"
   height="28.255348mm"
   viewBox="0 0 91.424072 28.255348"
   version="1.1"
   id="svg1"
   xmlns="http://www.w3.org/2000/svg"
   xmlns:svg="http://www.w3.org/2000/svg">
  <desc property="dc:creator">Michael Koksharov: https://github.com/LuciferaseMaster/PrePrint-Template-for-AnyRxiv/tree/master/preprint_logos</desc>
  <defs
     id="defs1" />
  <g
     id="layer1"
     transform="translate(-59.266669,-134.40833)">
    <g
       id="text9"
       style="font-size:16.4021px;line-height:125%;font-family:'Coconat Demi';letter-spacing:0px;word-spacing:0px;stroke-width:1.02513"
       aria-label="#PrePrint ">
      <path
         d="m 63.72804,137.28239 q -0.147619,0.62328 -0.639682,3.1656 h 0.557672 1.755024 0.656084 l 0.147619,-0.88571 q 0.114815,-0.67249 0.360846,-2.27989 h 1.148147 q -0.328042,1.41058 -0.623279,3.1656 1.148147,-0.0328 1.72222,-0.0656 l -0.180423,1.09894 q -0.606878,-0.0492 -1.72222,-0.082 l -0.639682,3.47725 q 1.180951,-0.0328 1.771426,-0.0656 l -0.180423,1.09894 q -0.623279,-0.0492 -1.771426,-0.082 l -0.114815,0.65608 q -0.262434,1.75503 -0.295238,2.27989 h -1.148147 q 0.278836,-1.19735 0.574074,-2.93597 h -0.475661 -1.755025 -0.770899 l -0.114814,0.65608 q -0.0164,0.0656 -0.147619,0.95132 -0.114815,0.88572 -0.147619,1.32857 h -1.148147 q 0.196825,-0.8365 0.590476,-2.91957 -1.082539,0 -1.86984,0.0656 l 0.196825,-1.09894 q 0.62328,0.0328 1.837036,0.0656 l 0.606877,-3.46085 q -1.082538,0 -1.853437,0.0656 l 0.180423,-1.09894 q 0.62328,0.0328 1.837035,0.0656 l 0.147619,-0.88571 q 0.114815,-0.67249 0.360846,-2.27989 z m -0.08201,4.11692 h -0.721693 l -0.639682,3.47725 h 0.590476 1.755025 0.639682 l 0.606877,-3.47725 h -0.475661 z"
         id="path11" />
      <path
         style="font-weight:500;font-family:'Orbitron Medium'"
         d="m 70.666119,148.76385 v -11.7931 h 9.660837 q 0.590475,0 1.082538,0.29523 0.492063,0.29524 0.770899,0.7873 0.295238,0.47566 0.295238,1.04974 v 3.31322 q 0,0.59048 -0.295238,1.08254 -0.278836,0.47566 -0.770899,0.7709 -0.492063,0.27884 -1.082538,0.27884 l -7.88941,0.0164 v 4.19893 z m 2.181479,-6.00316 h 7.430151 q 0.180424,0 0.295238,-0.11482 0.114815,-0.11481 0.114815,-0.27883 v -3.21482 q 0,-0.16402 -0.114815,-0.27883 -0.114814,-0.13122 -0.295238,-0.13122 h -7.430151 q -0.164021,0 -0.295237,0.13122 -0.114815,0.11481 -0.114815,0.27883 v 3.21482 q 0,0.16402 0.114815,0.27883 0.131216,0.11482 0.295237,0.11482 z m 10.726979,6.00316 v 0 -7.38094 q 0,-0.59048 0.295238,-1.06614 0.295238,-0.47566 0.770899,-0.7709 0.492063,-0.29523 1.066136,-0.29523 h 5.314281 v 1.77142 h -5.265074 q -0.164021,0 -0.295238,0.13122 -0.114815,0.11482 -0.114815,0.27884 v 7.33173 z m 10.661365,0 q -0.590475,0 -1.066136,-0.29523 -0.475661,-0.29524 -0.770899,-0.7709 -0.295238,-0.47566 -0.295238,-1.06614 v -5.24867 q 0,-0.59048 0.295238,-1.06614 0.295238,-0.47566 0.770899,-0.7709 0.475661,-0.29523 1.066136,-0.29523 h 5.412693 q 0.590475,0 1.066135,0.29523 0.49206,0.27884 0.7709,0.7709 0.29524,0.49207 0.29524,1.06614 v 3.51005 h -7.905814 v 1.68942 q 0,0.16402 0.114815,0.29523 0.131217,0.11482 0.295238,0.11482 h 7.495761 v 1.77142 h -7.544968 z m -0.360846,-5.5275 h 6.117983 v -1.80423 q 0,-0.16402 -0.114814,-0.27884 -0.114815,-0.13122 -0.278836,-0.13122 h -5.31428 q -0.164021,0 -0.295238,0.13122 -0.114815,0.11482 -0.114815,0.27884 z"
         id="path12" />
      <path
         style="font-weight:600;font-size:21.7838px;font-family:'EB Garamond SemiBold';fill:#bd2736"
         d="m 103.53232,148.85099 q -0.19605,0 -0.34854,-0.0871 -0.15248,-0.0653 -0.15248,-0.19605 0,-0.32676 0.54459,-0.43568 0.82779,-0.17427 1.17633,-0.47924 0.34854,-0.30497 0.34854,-1.02384 v -9.58487 q 0,-0.82778 -0.28319,-1.21989 -0.26141,-0.39211 -1.04562,-0.56638 -0.30498,-0.0653 -0.43568,-0.17427 -0.1307,-0.1307 -0.1307,-0.26141 0,-0.15248 0.1307,-0.21784 0.15249,-0.0871 0.39211,-0.0871 0.52281,0 0.95849,0.0218 0.45746,0 0.87135,0.0218 0.41389,0.0218 0.84957,0.0218 0.47924,0 0.89313,-0.0436 0.43568,-0.0436 0.87135,-0.0871 0.45746,-0.0436 1.04563,-0.0436 2.59227,0 4.13892,1.08919 1.54665,1.08919 1.54665,3.00617 0,1.35059 -0.56638,2.50513 -0.5446,1.13276 -1.69914,1.82984 -1.13275,0.69708 -2.87546,0.69708 -0.54459,0 -0.82778,-0.15248 -0.28319,-0.17427 -0.28319,-0.37033 0,-0.1307 0.1307,-0.21784 0.15249,-0.10892 0.26141,-0.10892 0.19605,0 0.37032,0.0436 0.19605,0.0218 0.56638,0.0218 1.02384,0 1.54665,-1.04563 0.54459,-1.04562 0.54459,-2.78832 0,-1.91698 -0.78421,-2.78833 -0.76244,-0.89313 -2.06946,-0.89313 -0.60995,0 -0.95849,0.2614 -0.32676,0.23962 -0.32676,0.78422 l -0.0218,10.2166 q 0,0.71887 0.34854,1.08919 0.37032,0.34854 1.24168,0.54459 0.28319,0.0436 0.41389,0.15249 0.1307,0.0871 0.1307,0.26141 0,0.15248 -0.1307,0.21783 -0.10892,0.0654 -0.34854,0.0654 -0.50103,0 -1.02384,-0.0436 -0.52281,-0.0218 -1.02384,-0.0436 -0.47924,-0.0218 -0.91492,-0.0218 -0.47924,0 -1.00205,0.0218 -0.50103,0.0218 -1.02384,0.0653 -0.52281,0.0436 -1.04563,0.0436 z"
         id="path13" />
      <path
         style="font-weight:600;font-size:21.7838px;font-family:'EB Garamond SemiBold';fill:#bd2736"
         d="m 116.40657,148.82921 q -0.17428,0 -0.30498,-0.0654 -0.1307,-0.0871 -0.1307,-0.21783 0,-0.17427 0.1307,-0.26141 0.15249,-0.0871 0.37033,-0.15249 0.45746,-0.1307 0.63173,-0.30497 0.19605,-0.19605 0.19605,-0.52281 v -4.90135 q 0,-0.50103 -0.15249,-0.82779 -0.1307,-0.34854 -0.58816,-0.45746 -0.0871,-0.0436 -0.17427,-0.10892 -0.0871,-0.0871 -0.0871,-0.23962 0,-0.28319 0.23962,-0.34854 0.65351,-0.17427 1.41595,-0.45746 0.76243,-0.30497 1.28524,-0.58816 0.10892,-0.0654 0.23962,-0.13071 0.1307,-0.0653 0.19606,-0.0653 0.17427,0 0.17427,0.21784 0,0.0871 -0.0218,0.39211 0,0.30497 -0.0218,0.6753 0,0.34854 -0.0218,0.63173 0,0.1307 0.0654,0.1307 0.34854,-0.45746 0.78421,-0.84957 0.43568,-0.39211 0.91492,-0.65351 0.50103,-0.26141 1.00206,-0.26141 0.63173,0 0.9367,0.26141 0.32676,0.2614 0.32676,0.65351 0,0.30498 -0.17427,0.65352 -0.15249,0.34854 -0.4139,0.60994 -0.23962,0.23962 -0.54459,0.23962 -0.17427,0 -0.37032,-0.0653 -0.19606,-0.0871 -0.39211,-0.19605 -0.19606,-0.0871 -0.4139,-0.17427 -0.19605,-0.0871 -0.37032,-0.0871 -0.5446,0 -0.98027,0.4139 -0.43568,0.3921 -0.43568,1.56843 v 3.83395 q 0,0.39211 0.28319,0.60994 0.28319,0.19606 0.87135,0.37033 0.23963,0.0653 0.34855,0.15249 0.1307,0.0653 0.1307,0.23962 0,0.28319 -0.39211,0.28319 -0.65351,0 -1.24168,-0.0654 -0.56638,-0.0436 -1.13275,-0.0436 -0.37033,0 -0.71887,0.0218 -0.32676,0.0218 -0.6753,0.0436 -0.34854,0.0436 -0.78421,0.0436 z"
         id="path14" />
      <path
         style="font-size:17.6834px"
         d="m 125.68643,148.76385 q 0.22988,-0.81343 0.26525,-4.08486 l 0.0177,-1.96286 q 0,-0.56587 -0.1061,-1.07868 -0.1061,-0.51282 -0.2122,-0.74271 -0.0884,-0.22988 -0.14147,-0.26525 l 2.47568,-1.061 -0.0177,5.1105 q -0.0177,2.68788 0.26525,4.08486 z m 2.10432,-10.91065 q -0.37135,0.30062 -0.91953,0.30062 -0.54819,0 -0.93723,-0.31831 -0.37135,-0.3183 -0.37135,-0.76038 0,-0.44209 0.37135,-0.76039 0.38904,-0.3183 0.93723,-0.3183 0.54818,0 0.91953,0.3183 0.37135,0.30062 0.37135,0.76039 0,0.45977 -0.37135,0.77807 z m 2.44033,10.91065 q 0.22988,-0.81343 0.26525,-4.08486 l 0.0177,-1.96286 q 0,-0.56587 -0.1061,-1.07868 -0.1061,-0.51282 -0.2122,-0.74271 -0.0884,-0.22988 -0.14147,-0.26525 l 2.49336,-1.061 v 2.10432 q 0.58356,-0.72502 1.89213,-1.43235 1.30857,-0.70734 2.21042,-0.70734 1.87444,0 2.81166,0.91954 0.95491,0.91953 0.95491,3.02386 v 1.20247 q 0,3.18301 0.26525,4.08486 h -2.5641 q 0.26525,-1.061 0.26525,-3.81961 v -1.13174 q 0,-1.46772 -0.6366,-2.08664 -0.6366,-0.6366 -1.89212,-0.65428 -0.83112,0 -1.75066,0.4244 -0.90185,0.40672 -1.57382,1.13174 v 2.13969 q 0,2.67019 0.26525,3.99644 z m 11.45881,-8.70023 q 1.07869,-0.0884 2.08664,-0.77807 1.02564,-0.70733 1.52077,-1.8037 h 0.0884 v 2.38726 l 4.22633,-0.19452 -0.15915,1.13174 -4.06718,-0.12379 v 4.35012 q 0,1.3793 0.51282,2.03359 0.51282,0.6366 1.64455,0.6366 1.62688,0 2.86471,-1.45004 l 0.0707,0.0354 q -0.60124,1.20247 -1.52077,1.94517 -0.91954,0.74271 -2.458,0.74271 -1.46772,0 -2.29884,-0.83112 -0.83112,-0.83112 -0.83112,-2.31653 v -5.19892 l -1.67992,-0.0531 z"
         id="path15" />
    </g>
    <g
       id="text14"
       style="font-size:10.956px;line-height:125%;font-family:'Young Serif';letter-spacing:0px;word-spacing:0px;stroke-width:1.02513"
       aria-label="   Veritas. Virtus. Libertas. ">
      <path
         style="font-size:8.81944px"
         d="m 66.424287,156.70911 q 0.123472,0 0.123472,0.11465 v 0.10583 q 0,0.11466 -0.123472,0.11466 -0.220486,0 -0.352778,0.22048 -0.123472,0.21167 -0.229305,0.50271 l -1.719791,4.66548 q -0.03528,0.097 -0.132292,0.097 h -0.370416 q -0.09701,0 -0.132292,-0.097 l -1.799166,-4.66548 q -0.114652,-0.30868 -0.238124,-0.51153 -0.123473,-0.21166 -0.335139,-0.21166 -0.123472,0 -0.123472,-0.11466 v -0.10583 q 0,-0.11465 0.123472,-0.11465 h 2.04611 q 0.114653,0 0.114653,0.11465 v 0.10583 q 0,0.11466 -0.114653,0.11466 -0.388055,0 -0.546805,0.1852 -0.15875,0.17639 0.0088,0.60855 l 1.367013,3.59833 1.296458,-3.66889 q 0.123472,-0.35278 -0.0441,-0.53799 -0.16757,-0.1852 -0.529167,-0.1852 -0.114652,0 -0.114652,-0.11466 v -0.10583 q 0,-0.11465 0.114652,-0.11465 z m 3.2632,4.91243 q -0.220486,0.44097 -0.590903,0.72319 -0.361597,0.28222 -0.952499,0.28222 -0.573264,0 -1.014236,-0.28222 -0.440972,-0.29104 -0.687916,-0.75847 -0.246945,-0.47625 -0.246945,-1.03188 0,-0.72319 0.264584,-1.15534 0.273402,-0.44098 0.670277,-0.64382 0.396875,-0.20285 0.802569,-0.20285 0.537986,0 0.881944,0.23813 0.352778,0.23812 0.520347,0.57326 0.176389,0.33514 0.176389,0.62618 0,0.0705 -0.07056,0.097 l -2.416526,1.03188 q 0.132291,0.44979 0.458611,0.78493 0.335138,0.33514 0.820208,0.33514 0.343958,0 0.643819,-0.17639 0.30868,-0.17639 0.537985,-0.57327 0.03528,-0.0529 0.08819,-0.0264 l 0.105833,0.0617 q 0.0441,0.0265 0.0088,0.097 z m -1.852083,-2.67229 q -0.335138,0 -0.546805,0.19402 -0.211667,0.19403 -0.30868,0.48507 -0.09701,0.29104 -0.09701,0.60854 0.0088,0.3175 0.08819,0.57327 l 1.72861,-0.82903 q 0.0088,-0.25576 -0.07937,-0.49389 -0.08819,-0.23812 -0.282222,-0.38805 -0.194027,-0.14993 -0.502708,-0.14993 z m 2.178399,3.58069 q -0.132291,0 -0.132291,-0.11465 v -0.10584 q 0,-0.11465 0.114652,-0.11465 h 0.01764 q 0.564445,0 0.564445,-0.59972 v -1.57868 q 0,-0.3175 -0.07056,-0.48507 -0.07056,-0.16757 -0.388055,-0.20285 -0.09701,-0.009 -0.09701,-0.10583 v -0.13229 q 0,-0.0794 0.114653,-0.097 0.335138,-0.0617 0.679096,-0.18521 0.343959,-0.12347 0.537986,-0.35277 0.02646,-0.0441 0.06174,-0.0441 h 0.0088 q 0.01764,0 0.01764,0.0176 l -0.185209,0.9525 q 0.09701,-0.19403 0.273403,-0.38806 0.176389,-0.19403 0.432153,-0.3175 0.255763,-0.12347 0.582083,-0.12347 0.30868,0 0.537985,0.18521 0.229306,0.17639 0.229306,0.58208 0,0.19403 -0.03528,0.28222 -0.02646,0.0882 -0.114653,0.12348 l -0.485069,0.1852 q -0.05292,0.0176 -0.07055,0.0176 -0.07056,0 -0.07056,-0.0705 0,-0.0176 0,-0.0265 0.0088,-0.0176 0.01764,-0.0441 0.0441,-0.10583 0.05292,-0.20285 0.01764,-0.10583 0.01764,-0.1852 0,-0.41452 -0.449792,-0.41452 -0.282222,0 -0.520347,0.23813 -0.238125,0.2293 -0.361597,0.5909 v 1.77271 q 0,0.30868 0.16757,0.45861 0.176388,0.14993 0.45861,0.14993 h 0.02646 q 0.114652,0 0.114652,0.11465 v 0.10584 q 0,0.11465 -0.132291,0.11465 z m 5.503332,-0.33514 q 0.114652,0 0.114652,0.11465 v 0.10584 q 0,0.11465 -0.132291,0.11465 h -1.843263 q -0.132292,0 -0.132292,-0.11465 v -0.10584 q 0,-0.11465 0.114653,-0.11465 h 0.01764 q 0.564444,0 0.564444,-0.59972 v -1.34938 q 0,-0.32632 -0.07056,-0.52916 -0.07055,-0.20285 -0.388055,-0.23813 -0.09701,-0.009 -0.09701,-0.10583 v -0.13229 q 0,-0.0441 0.02646,-0.0617 0.03528,-0.0176 0.0882,-0.0353 0.3175,-0.11465 0.573263,-0.26458 0.255764,-0.15875 0.48507,-0.43215 0.03528,-0.0353 0.06174,-0.0353 h 0.0088 q 0.01764,0 0.01764,0.009 v 3.16618 q 0,0.60854 0.564444,0.60854 z m -0.934861,-5.20347 q 0.194028,0 0.379236,0.18521 0.185208,0.18521 0.185208,0.37041 0,0.18521 -0.185208,0.37042 -0.185208,0.18521 -0.379236,0.18521 -0.176389,0 -0.370417,-0.18521 -0.185208,-0.17639 -0.185208,-0.37042 0,-0.1852 0.185208,-0.37041 0.185209,-0.18521 0.370417,-0.18521 z m 3.712982,5.00062 q 0.01764,0.0353 0.01764,0.0706 0,0.0441 -0.06174,0.0882 l -0.229305,0.14111 q -0.211667,0.13229 -0.440972,0.23813 -0.229306,0.097 -0.493889,0.097 -0.291041,0 -0.485069,-0.20285 -0.194028,-0.21166 -0.194028,-0.64381 v -2.10785 q 0,-0.17639 -0.02646,-0.33514 -0.02646,-0.15875 -0.141111,-0.25576 -0.114653,-0.097 -0.396875,-0.097 -0.114653,0 -0.114653,-0.11465 v -0.10583 q 0,-0.11466 0.114653,-0.11466 h 0.564444 v -0.65263 q 0,-0.0794 0.07056,-0.14112 0.167569,-0.14111 0.30868,-0.23812 0.149931,-0.10583 0.273403,-0.2734 0.0088,-0.0176 0.02646,-0.0176 h 0.01764 q 0.0088,0 0.0088,0.0265 v 1.29645 h 1.040693 q 0.123473,0 0.123473,0.11466 v 0.20284 q 0,0.11466 -0.123473,0.11466 h -1.040693 v 2.63701 q 0,0.23812 0.09701,0.30868 0.09701,0.0706 0.229306,0.0706 0.132291,0 0.3175,-0.0617 0.185208,-0.0706 0.30868,-0.14993 0.02646,-0.0176 0.0441,-0.0265 0.02646,-0.0176 0.05292,-0.0176 0.0441,0 0.07937,0.0617 z"
         id="path6" />
      <path
         style="font-size:8.81944px;font-family:'Palatino Linotype';-inkscape-font-specification:'Palatino Linotype'"
         d="m 79.305227,159.61022 -0.167949,-0.0431 -0.03445,-0.0431 v -0.53399 q 0.766534,-0.56844 1.490003,-0.56844 0.495233,0 0.822516,0.18518 0.327284,0.18517 0.473701,0.46508 0.146416,0.27561 0.146416,0.64596 l -0.02153,0.86558 v 1.2833 q 0,0.26269 0.03445,0.31867 0.03876,0.056 0.08613,0.0775 0.04737,0.0172 0.176561,0.0302 l 0.245463,0.0215 0.03445,0.0388 v 0.17225 l -0.03445,0.0344 q -0.314365,-0.0258 -0.585666,-0.0258 -0.258382,0 -0.620117,0.0258 l -0.0646,-0.0603 0.01723,-0.69332 -0.938788,0.73208 q -0.23685,0.0991 -0.516764,0.0991 -0.34451,0 -0.594279,-0.12489 -0.245463,-0.12488 -0.37896,-0.34881 -0.129191,-0.22393 -0.129191,-0.54261 0,-0.63303 0.396186,-0.98615 0.396185,-0.35743 2.161796,-0.6072 0,-0.63734 -0.28422,-0.89573 -0.284221,-0.26268 -0.762227,-0.26268 -0.24977,0 -0.456475,0.0732 -0.202399,0.0732 -0.232544,0.12058 -0.03015,0.0431 -0.232544,0.52538 z m 1.998154,0.68041 q -1.205783,0.2024 -1.502922,0.43494 -0.29714,0.23254 -0.29714,0.71916 0,0.6718 0.667487,0.6718 0.572747,0 1.132575,-0.66318 z m -0.732082,-2.13596 z m -0.09043,4.63365 z"
         id="path7" />
      <path
         style="font-size:8.81944px"
         d="m 86.259219,159.79591 q -0.05292,0.0265 -0.07937,0.0265 -0.06174,0 -0.09701,-0.0529 -0.352778,-0.44097 -0.687917,-0.67027 -0.335138,-0.22931 -0.767291,-0.22931 -0.379236,0 -0.582083,0.15875 -0.194028,0.15875 -0.194028,0.41451 0,0.22049 0.176389,0.3616 0.185209,0.13229 0.440972,0.22049 0.255764,0.0794 0.467431,0.13229 0.282222,0.0705 0.582083,0.15875 0.30868,0.0882 0.564444,0.22048 0.264583,0.1323 0.423333,0.35278 0.15875,0.22049 0.15875,0.55563 0,0.48507 -0.405694,0.83784 -0.396875,0.34396 -1.164166,0.34396 -0.282223,0 -0.511528,-0.0617 -0.229305,-0.0529 -0.432153,-0.14112 -0.06174,-0.0265 -0.07055,-0.0265 -0.05292,0 -0.05292,0.0529 0,0.0176 0.01764,0.0617 0.01764,0.0529 0.01764,0.0617 0,0.0617 -0.09701,0.0617 h -0.14993 q -0.08819,0 -0.132292,-0.0705 l -0.661458,-1.25236 q -0.02646,-0.0529 -0.02646,-0.0706 0,-0.0617 0.06174,-0.097 l 0.09701,-0.0529 q 0.0441,-0.0265 0.07055,-0.0265 0.0441,0 0.08819,0.0706 0.370416,0.57326 0.837846,0.85548 0.47625,0.28222 0.943681,0.28222 0.502708,0 0.723194,-0.19402 0.220486,-0.20285 0.220486,-0.47625 0,-0.26459 -0.211667,-0.41452 -0.202847,-0.15875 -0.502708,-0.23812 -0.291042,-0.0882 -0.564444,-0.15875 -0.62618,-0.14993 -0.94368,-0.35278 -0.3175,-0.20285 -0.423333,-0.42333 -0.105834,-0.22931 -0.105834,-0.44979 0,-0.42334 0.32632,-0.71438 0.335138,-0.29986 0.987777,-0.29986 0.361597,0 0.643819,0.097 0.291042,0.0882 0.405694,0.15875 0.03528,0.0176 0.05292,0.0176 0.02646,0 0.02646,-0.0265 0,-0.0176 -0.01764,-0.0441 -0.0088,-0.0265 -0.01764,-0.0617 -0.01764,-0.0353 -0.01764,-0.0529 0,-0.0264 0,-0.0353 0,-0.0794 0.08819,-0.0794 h 0.105833 q 0.07056,0 0.114653,0.0882 l 0.388055,0.97895 q 0.0088,0.0265 0.0088,0.0441 0.0088,0.0176 0.0088,0.0353 0,0.0529 -0.06174,0.0882 z m 1.314088,1.79035 q 0.114653,-0.12347 0.229306,-0.12347 0.123472,0 0.246944,0.12347 l 0.229305,0.2293 q 0.114653,0.12348 0.114653,0.23813 0,0.11465 -0.114653,0.23812 l -0.229305,0.23813 q -0.132292,0.11465 -0.246944,0.11465 -0.105834,0 -0.229306,-0.11465 l -0.238125,-0.23813 q -0.114652,-0.10583 -0.114652,-0.23812 0,-0.12347 0.114652,-0.23813 z m 8.590127,-4.87715 q 0.123472,0 0.123472,0.11465 v 0.10583 q 0,0.11466 -0.123472,0.11466 -0.220486,0 -0.352778,0.22048 -0.123472,0.21167 -0.229305,0.50271 l -1.719791,4.66548 q -0.03528,0.097 -0.132292,0.097 h -0.370416 q -0.09701,0 -0.132292,-0.097 l -1.799165,-4.66548 q -0.114653,-0.30868 -0.238125,-0.51153 -0.123472,-0.21166 -0.335139,-0.21166 -0.123472,0 -0.123472,-0.11466 v -0.10583 q 0,-0.11465 0.123472,-0.11465 h 2.04611 q 0.114653,0 0.114653,0.11465 v 0.10583 q 0,0.11466 -0.114653,0.11466 -0.388055,0 -0.546805,0.1852 -0.15875,0.17639 0.0088,0.60855 l 1.367013,3.59833 1.296458,-3.66889 q 0.123472,-0.35278 -0.0441,-0.53799 -0.167569,-0.1852 -0.529166,-0.1852 -0.114653,0 -0.114653,-0.11466 v -0.10583 q 0,-0.11465 0.114653,-0.11465 z m 1.957924,5.48569 q 0.114653,0 0.114653,0.11465 v 0.10584 q 0,0.11465 -0.132292,0.11465 h -1.843263 q -0.132292,0 -0.132292,-0.11465 v -0.10584 q 0,-0.11465 0.114653,-0.11465 h 0.01764 q 0.564444,0 0.564444,-0.59972 v -1.34938 q 0,-0.32632 -0.07055,-0.52916 -0.07056,-0.20285 -0.388056,-0.23813 -0.09701,-0.009 -0.09701,-0.10583 v -0.13229 q 0,-0.0441 0.02646,-0.0617 0.03528,-0.0176 0.08819,-0.0353 0.3175,-0.11465 0.573264,-0.26458 0.255763,-0.15875 0.485069,-0.43215 0.03528,-0.0353 0.06174,-0.0353 h 0.0088 q 0.01764,0 0.01764,0.009 v 3.16618 q 0,0.60854 0.564444,0.60854 z m -0.934861,-5.20347 q 0.194028,0 0.379236,0.18521 0.185208,0.18521 0.185208,0.37041 0,0.18521 -0.185208,0.37042 -0.185208,0.18521 -0.379236,0.18521 -0.176389,0 -0.370416,-0.18521 -0.185209,-0.17639 -0.185209,-0.37042 0,-0.1852 0.185209,-0.37041 0.185208,-0.18521 0.370416,-0.18521 z m 1.508117,5.53861 q -0.132291,0 -0.132291,-0.11465 v -0.10584 q 0,-0.11465 0.114652,-0.11465 h 0.01764 q 0.564444,0 0.564444,-0.59972 v -1.57868 q 0,-0.3175 -0.07055,-0.48507 -0.07056,-0.16757 -0.388055,-0.20285 -0.09701,-0.009 -0.09701,-0.10583 v -0.13229 q 0,-0.0794 0.114652,-0.097 0.335139,-0.0617 0.679097,-0.18521 0.343958,-0.12347 0.537987,-0.35277 0.0265,-0.0441 0.0617,-0.0441 h 0.009 q 0.0176,0 0.0176,0.0176 l -0.185205,0.9525 q 0.09701,-0.19403 0.273405,-0.38806 0.17639,-0.19403 0.43215,-0.3175 0.25576,-0.12347 0.58208,-0.12347 0.30868,0 0.53799,0.18521 0.2293,0.17639 0.2293,0.58208 0,0.19403 -0.0353,0.28222 -0.0265,0.0882 -0.11466,0.12348 l -0.48506,0.1852 q -0.0529,0.0176 -0.0706,0.0176 -0.0706,0 -0.0706,-0.0705 0,-0.0176 0,-0.0265 0.009,-0.0176 0.0176,-0.0441 0.0441,-0.10583 0.0529,-0.20285 0.0176,-0.10583 0.0176,-0.1852 0,-0.41452 -0.44979,-0.41452 -0.28223,0 -0.52035,0.23813 -0.23812,0.2293 -0.361597,0.5909 v 1.77271 q 0,0.30868 0.167567,0.45861 0.17639,0.14993 0.45861,0.14993 h 0.0265 q 0.11465,0 0.11465,0.11465 v 0.10584 q 0,0.11465 -0.13229,0.11465 z m 6.182436,-0.53799 q 0.0176,0.0353 0.0176,0.0706 0,0.0441 -0.0617,0.0882 l -0.22931,0.14111 q -0.21166,0.13229 -0.44097,0.23813 -0.2293,0.097 -0.49389,0.097 -0.29104,0 -0.48507,-0.20285 -0.19402,-0.21166 -0.19402,-0.64381 v -2.10785 q 0,-0.17639 -0.0265,-0.33514 -0.0265,-0.15875 -0.14111,-0.25576 -0.11465,-0.097 -0.39688,-0.097 -0.11465,0 -0.11465,-0.11465 v -0.10583 q 0,-0.11466 0.11465,-0.11466 h 0.56445 v -0.65263 q 0,-0.0794 0.0705,-0.14112 0.16757,-0.14111 0.30868,-0.23812 0.14993,-0.10583 0.27341,-0.2734 0.009,-0.0176 0.0264,-0.0176 h 0.0176 q 0.009,0 0.009,0.0265 v 1.29645 h 1.0407 q 0.12347,0 0.12347,0.11466 v 0.20284 q 0,0.11466 -0.12347,0.11466 h -1.0407 v 2.63701 q 0,0.23812 0.097,0.30868 0.097,0.0706 0.2293,0.0706 0.13229,0 0.3175,-0.0617 0.18521,-0.0706 0.30868,-0.14993 0.0265,-0.0176 0.0441,-0.0265 0.0265,-0.0176 0.0529,-0.0176 0.0441,0 0.0794,0.0617 z m 2.27542,0.635 q -0.52917,0 -0.86431,-0.29986 -0.33514,-0.30868 -0.33514,-0.94368 v -1.79917 q 0,-0.59972 -0.57326,-0.59972 h -0.0265 q -0.11465,0 -0.11465,-0.11465 v -0.10583 q 0,-0.11466 0.11465,-0.11466 h 1.2259 q 0.0794,0 0.0794,0.0706 v 2.67229 q 0,0.32632 0.14993,0.56444 0.15875,0.23813 0.56444,0.23813 0.37042,0 0.635,-0.22931 0.27341,-0.2293 0.4057,-0.5909 v -1.78153 q 0,-0.60854 -0.57327,-0.60854 h -0.0176 q -0.11466,0 -0.11466,-0.11465 v -0.10583 q 0,-0.11466 0.12347,-0.11466 h 1.20827 q 0.0794,0 0.0794,0.0794 v 2.54882 q 0,0.32632 0.0706,0.50271 0.0705,0.16756 0.38805,0.20284 0.097,0.009 0.097,0.10584 v 0.13229 q 0,0.097 -0.11465,0.097 -0.33514,0 -0.64382,0.0529 -0.30868,0.0529 -0.52917,0.22048 -0.0353,0.0353 -0.0617,0.0353 h -0.009 q -0.0176,0 -0.0176,-0.009 0,-0.009 0.0176,-0.14111 0.0265,-0.13229 0.0617,-0.3175 0.0353,-0.19403 0.0617,-0.37923 -0.0794,0.17638 -0.25577,0.37041 -0.17639,0.19403 -0.43215,0.33514 -0.25576,0.14111 -0.59972,0.14111 z m 6.05895,-2.83104 q -0.0529,0.0265 -0.0794,0.0265 -0.0617,0 -0.097,-0.0529 -0.35278,-0.44097 -0.68792,-0.67027 -0.33514,-0.22931 -0.76729,-0.22931 -0.37924,0 -0.58209,0.15875 -0.19402,0.15875 -0.19402,0.41451 0,0.22049 0.17639,0.3616 0.1852,0.13229 0.44097,0.22049 0.25576,0.0794 0.46743,0.13229 0.28222,0.0705 0.58208,0.15875 0.30868,0.0882 0.56445,0.22048 0.26458,0.1323 0.42333,0.35278 0.15875,0.22049 0.15875,0.55563 0,0.48507 -0.4057,0.83784 -0.39687,0.34396 -1.16416,0.34396 -0.28222,0 -0.51153,-0.0617 -0.2293,-0.0529 -0.43215,-0.14112 -0.0617,-0.0265 -0.0706,-0.0265 -0.0529,0 -0.0529,0.0529 0,0.0176 0.0176,0.0617 0.0176,0.0529 0.0176,0.0617 0,0.0617 -0.097,0.0617 h -0.14993 q -0.0882,0 -0.13229,-0.0705 l -0.66146,-1.25236 q -0.0265,-0.0529 -0.0265,-0.0706 0,-0.0617 0.0617,-0.097 l 0.097,-0.0529 q 0.0441,-0.0265 0.0706,-0.0265 0.0441,0 0.0882,0.0706 0.37042,0.57326 0.83785,0.85548 0.47625,0.28222 0.94368,0.28222 0.50271,0 0.72319,-0.19402 0.22049,-0.20285 0.22049,-0.47625 0,-0.26459 -0.21167,-0.41452 -0.20285,-0.15875 -0.50271,-0.23812 -0.29104,-0.0882 -0.56444,-0.15875 -0.62618,-0.14993 -0.94368,-0.35278 -0.3175,-0.20285 -0.42333,-0.42333 -0.10584,-0.22931 -0.10584,-0.44979 0,-0.42334 0.32632,-0.71438 0.33514,-0.29986 0.98778,-0.29986 0.3616,0 0.64382,0.097 0.29104,0.0882 0.40569,0.15875 0.0353,0.0176 0.0529,0.0176 0.0265,0 0.0265,-0.0265 0,-0.0176 -0.0176,-0.0441 -0.009,-0.0265 -0.0176,-0.0617 -0.0176,-0.0353 -0.0176,-0.0529 0,-0.0264 0,-0.0353 0,-0.0794 0.0882,-0.0794 h 0.10583 q 0.0705,0 0.11465,0.0882 l 0.38806,0.97895 q 0.009,0.0265 0.009,0.0441 0.009,0.0176 0.009,0.0353 0,0.0529 -0.0617,0.0882 z m 1.31409,1.79035 q 0.11466,-0.12347 0.22931,-0.12347 0.12347,0 0.24694,0.12347 l 0.22931,0.2293 q 0.11465,0.12348 0.11465,0.23813 0,0.11465 -0.11465,0.23812 l -0.22931,0.23813 q -0.13229,0.11465 -0.24694,0.11465 -0.10584,0 -0.22931,-0.11465 l -0.23812,-0.23813 q -0.11465,-0.10583 -0.11465,-0.23812 0,-0.12347 0.11465,-0.23813 z m 8.13152,-0.71438 q 0.0706,0.0353 0.0706,0.0882 0,0.009 0,0.0265 0,0.009 -0.0176,0.0441 l -0.73201,1.53459 q -0.0353,0.0705 -0.097,0.0705 -0.009,0 -0.0353,-0.0176 -0.0264,-0.009 -0.0705,-0.0529 -0.0353,-0.0353 -0.15875,-0.0353 h -3.61597 q -0.12347,0 -0.12347,-0.11465 v -0.10584 q 0,-0.11465 0.12347,-0.11465 0.57326,0 0.57326,-0.73201 v -3.67771 q 0,-0.73201 -0.57326,-0.73201 -0.12347,0 -0.12347,-0.12348 v -0.097 q 0,-0.12347 0.12347,-0.12347 h 1.96673 q 0.14993,0 0.14993,0.12347 v 0.097 q 0,0.12348 -0.14111,0.12348 h -0.5468 v 4.38326 q 0,0.74083 0.52916,0.74083 h 0.30868 q 0.37924,0 0.75848,-0.10583 0.38805,-0.10584 0.73201,-0.37924 0.35278,-0.28222 0.59972,-0.78493 l 0.0265,-0.0529 q 0.0265,-0.0705 0.0882,-0.0705 0.0265,0 0.0706,0.0265 z m 2.25777,1.32292 q 0.11465,0 0.11465,0.11465 v 0.10584 q 0,0.11465 -0.13229,0.11465 h -1.84326 q -0.13229,0 -0.13229,-0.11465 v -0.10584 q 0,-0.11465 0.11465,-0.11465 h 0.0176 q 0.56444,0 0.56444,-0.59972 v -1.34938 q 0,-0.32632 -0.0705,-0.52916 -0.0706,-0.20285 -0.38806,-0.23813 -0.097,-0.009 -0.097,-0.10583 v -0.13229 q 0,-0.0441 0.0265,-0.0617 0.0353,-0.0176 0.0882,-0.0353 0.3175,-0.11465 0.57326,-0.26458 0.25577,-0.15875 0.48507,-0.43215 0.0353,-0.0353 0.0617,-0.0353 h 0.009 q 0.0176,0 0.0176,0.009 v 3.16618 q 0,0.60854 0.56444,0.60854 z m -0.93486,-5.20347 q 0.19403,0 0.37923,0.18521 0.18521,0.18521 0.18521,0.37041 0,0.18521 -0.18521,0.37042 -0.1852,0.18521 -0.37923,0.18521 -0.17639,0 -0.37042,-0.18521 -0.18521,-0.17639 -0.18521,-0.37042 0,-0.1852 0.18521,-0.37041 0.18521,-0.18521 0.37042,-0.18521 z m 3.09562,5.63562 q -0.76729,0 -1.20827,-0.40569 -0.43215,-0.41452 -0.43215,-1.2259 v -2.83986 q 0,-0.32632 -0.0705,-0.52917 -0.0706,-0.20285 -0.38806,-0.23813 -0.097,-0.009 -0.097,-0.10583 v -0.13229 q 0,-0.0441 0.0264,-0.0617 0.0353,-0.0176 0.0882,-0.0353 0.30868,-0.11466 0.56444,-0.26459 0.25577,-0.15875 0.49389,-0.43215 0.0265,-0.0353 0.0529,-0.0353 h 0.009 q 0.0176,0 0.0176,0.009 v 2.60174 q 0.16757,-0.15875 0.43215,-0.26459 0.26458,-0.11465 0.5909,-0.11465 0.3175,0 0.635,0.11465 0.3175,0.10584 0.58208,0.34396 0.27341,0.23813 0.44098,0.635 0.16757,0.38806 0.16757,0.9525 0,0.5909 -0.23813,1.04951 -0.23812,0.45861 -0.67028,0.7232 -0.42333,0.25576 -0.99659,0.25576 z m 0.0176,-0.33514 q 0.43215,0 0.67909,-0.21166 0.25577,-0.21167 0.3616,-0.54681 0.10583,-0.33514 0.10583,-0.70555 0,-0.85549 -0.36159,-1.3582 -0.3616,-0.50271 -1.04952,-0.50271 -0.38805,0 -0.69673,0.23813 v 1.82562 q 0,0.47625 0.13229,0.74966 0.13229,0.2734 0.35278,0.39687 0.22048,0.11465 0.47625,0.11465 z m 5.83847,-0.67027 q -0.22048,0.44097 -0.5909,0.72319 -0.3616,0.28222 -0.9525,0.28222 -0.57326,0 -1.01423,-0.28222 -0.44098,-0.29104 -0.68792,-0.75847 -0.24695,-0.47625 -0.24695,-1.03188 0,-0.72319 0.26459,-1.15534 0.2734,-0.44098 0.67028,-0.64382 0.39687,-0.20285 0.80256,-0.20285 0.53799,0 0.88195,0.23813 0.35278,0.23812 0.52035,0.57326 0.17638,0.33514 0.17638,0.62618 0,0.0705 -0.0705,0.097 l -2.41653,1.03188 q 0.13229,0.44979 0.45861,0.78493 0.33514,0.33514 0.82021,0.33514 0.34396,0 0.64382,-0.17639 0.30868,-0.17639 0.53799,-0.57327 0.0353,-0.0529 0.0882,-0.0264 l 0.10583,0.0617 q 0.0441,0.0265 0.009,0.097 z m -1.85208,-2.67229 q -0.33514,0 -0.5468,0.19402 -0.21167,0.19403 -0.30869,0.48507 -0.097,0.29104 -0.097,0.60854 0.009,0.3175 0.0882,0.57327 l 1.72861,-0.82903 q 0.009,-0.25576 -0.0794,-0.49389 -0.0882,-0.23812 -0.28222,-0.38805 -0.19403,-0.14993 -0.50271,-0.14993 z m 2.17839,3.58069 q -0.13229,0 -0.13229,-0.11465 v -0.10584 q 0,-0.11465 0.11466,-0.11465 h 0.0176 q 0.56445,0 0.56445,-0.59972 v -1.57868 q 0,-0.3175 -0.0706,-0.48507 -0.0705,-0.16757 -0.38805,-0.20285 -0.097,-0.009 -0.097,-0.10583 v -0.13229 q 0,-0.0794 0.11466,-0.097 0.33513,-0.0617 0.67909,-0.18521 0.34396,-0.12347 0.53799,-0.35277 0.0265,-0.0441 0.0617,-0.0441 h 0.009 q 0.0176,0 0.0176,0.0176 l -0.1852,0.9525 q 0.097,-0.19403 0.2734,-0.38806 0.17639,-0.19403 0.43215,-0.3175 0.25576,-0.12347 0.58208,-0.12347 0.30868,0 0.53799,0.18521 0.2293,0.17639 0.2293,0.58208 0,0.19403 -0.0353,0.28222 -0.0265,0.0882 -0.11466,0.12348 l -0.48507,0.1852 q -0.0529,0.0176 -0.0705,0.0176 -0.0706,0 -0.0706,-0.0705 0,-0.0176 0,-0.0265 0.009,-0.0176 0.0176,-0.0441 0.0441,-0.10583 0.0529,-0.20285 0.0176,-0.10583 0.0176,-0.1852 0,-0.41452 -0.44979,-0.41452 -0.28223,0 -0.52035,0.23813 -0.23813,0.2293 -0.3616,0.5909 v 1.77271 q 0,0.30868 0.16757,0.45861 0.17639,0.14993 0.45861,0.14993 h 0.0265 q 0.11465,0 0.11465,0.11465 v 0.10584 q 0,0.11465 -0.13229,0.11465 z m 6.18244,-0.53799 q 0.0176,0.0353 0.0176,0.0706 0,0.0441 -0.0617,0.0882 l -0.22931,0.14111 q -0.21166,0.13229 -0.44097,0.23813 -0.22931,0.097 -0.49389,0.097 -0.29104,0 -0.48507,-0.20285 -0.19403,-0.21166 -0.19403,-0.64381 v -2.10785 q 0,-0.17639 -0.0264,-0.33514 -0.0265,-0.15875 -0.14111,-0.25576 -0.11466,-0.097 -0.39688,-0.097 -0.11465,0 -0.11465,-0.11465 v -0.10583 q 0,-0.11466 0.11465,-0.11466 h 0.56444 v -0.65263 q 0,-0.0794 0.0706,-0.14112 0.16757,-0.14111 0.30868,-0.23812 0.14993,-0.10583 0.2734,-0.2734 0.009,-0.0176 0.0265,-0.0176 h 0.0176 q 0.009,0 0.009,0.0265 v 1.29645 h 1.04069 q 0.12348,0 0.12348,0.11466 v 0.20284 q 0,0.11466 -0.12348,0.11466 h -1.04069 v 2.63701 q 0,0.23812 0.097,0.30868 0.097,0.0706 0.22931,0.0706 0.13229,0 0.3175,-0.0617 0.18521,-0.0706 0.30868,-0.14993 0.0265,-0.0176 0.0441,-0.0265 0.0264,-0.0176 0.0529,-0.0176 0.0441,0 0.0794,0.0617 z"
         id="path8" />
      <path
         style="font-size:8.81944px;font-family:'Palatino Linotype';-inkscape-font-specification:'Palatino Linotype'"
         d="m 140.45039,159.61022 -0.16794,-0.0431 -0.0345,-0.0431 v -0.53399 q 0.76653,-0.56844 1.49,-0.56844 0.49523,0 0.82251,0.18518 0.32729,0.18517 0.47371,0.46508 0.14641,0.27561 0.14641,0.64596 l -0.0215,0.86558 v 1.2833 q 0,0.26269 0.0344,0.31867 0.0388,0.056 0.0861,0.0775 0.0474,0.0172 0.17656,0.0302 l 0.24546,0.0215 0.0345,0.0388 v 0.17225 l -0.0345,0.0344 q -0.31436,-0.0258 -0.58566,-0.0258 -0.25839,0 -0.62012,0.0258 l -0.0646,-0.0603 0.0172,-0.69332 -0.93879,0.73208 q -0.23685,0.0991 -0.51676,0.0991 -0.34451,0 -0.59428,-0.12489 -0.24546,-0.12488 -0.37896,-0.34881 -0.12919,-0.22393 -0.12919,-0.54261 0,-0.63303 0.39618,-0.98615 0.39619,-0.35743 2.1618,-0.6072 0,-0.63734 -0.28422,-0.89573 -0.28422,-0.26268 -0.76223,-0.26268 -0.24977,0 -0.45647,0.0732 -0.2024,0.0732 -0.23255,0.12058 -0.0301,0.0431 -0.23254,0.52538 z m 1.99816,0.68041 q -1.20578,0.2024 -1.50292,0.43494 -0.29714,0.23254 -0.29714,0.71916 0,0.6718 0.66748,0.6718 0.57275,0 1.13258,-0.66318 z m -0.73208,-2.13596 z m -0.0904,4.63365 z"
         id="path9" />
      <path
         style="font-size:8.81944px"
         d="m 147.40438,159.79591 q -0.0529,0.0265 -0.0794,0.0265 -0.0617,0 -0.097,-0.0529 -0.35278,-0.44097 -0.68792,-0.67027 -0.33513,-0.22931 -0.76729,-0.22931 -0.37923,0 -0.58208,0.15875 -0.19403,0.15875 -0.19403,0.41451 0,0.22049 0.17639,0.3616 0.18521,0.13229 0.44097,0.22049 0.25577,0.0794 0.46743,0.13229 0.28223,0.0705 0.58209,0.15875 0.30868,0.0882 0.56444,0.22048 0.26458,0.1323 0.42333,0.35278 0.15875,0.22049 0.15875,0.55563 0,0.48507 -0.40569,0.83784 -0.39688,0.34396 -1.16417,0.34396 -0.28222,0 -0.51152,-0.0617 -0.22931,-0.0529 -0.43216,-0.14112 -0.0617,-0.0265 -0.0705,-0.0265 -0.0529,0 -0.0529,0.0529 0,0.0176 0.0176,0.0617 0.0176,0.0529 0.0176,0.0617 0,0.0617 -0.097,0.0617 h -0.14993 q -0.0882,0 -0.13229,-0.0705 l -0.66146,-1.25236 q -0.0265,-0.0529 -0.0265,-0.0706 0,-0.0617 0.0617,-0.097 l 0.097,-0.0529 q 0.0441,-0.0265 0.0705,-0.0265 0.0441,0 0.0882,0.0706 0.37041,0.57326 0.83784,0.85548 0.47625,0.28222 0.94368,0.28222 0.50271,0 0.7232,-0.19402 0.22048,-0.20285 0.22048,-0.47625 0,-0.26459 -0.21166,-0.41452 -0.20285,-0.15875 -0.50271,-0.23812 -0.29104,-0.0882 -0.56445,-0.15875 -0.62618,-0.14993 -0.94368,-0.35278 -0.3175,-0.20285 -0.42333,-0.42333 -0.10583,-0.22931 -0.10583,-0.44979 0,-0.42334 0.32632,-0.71438 0.33514,-0.29986 0.98777,-0.29986 0.3616,0 0.64382,0.097 0.29105,0.0882 0.4057,0.15875 0.0353,0.0176 0.0529,0.0176 0.0265,0 0.0265,-0.0265 0,-0.0176 -0.0176,-0.0441 -0.009,-0.0265 -0.0176,-0.0617 -0.0176,-0.0353 -0.0176,-0.0529 0,-0.0264 0,-0.0353 0,-0.0794 0.0882,-0.0794 h 0.10583 q 0.0706,0 0.11466,0.0882 l 0.38805,0.97895 q 0.009,0.0265 0.009,0.0441 0.009,0.0176 0.009,0.0353 0,0.0529 -0.0617,0.0882 z m 1.31409,1.79035 q 0.11465,-0.12347 0.22931,-0.12347 0.12347,0 0.24694,0.12347 l 0.22931,0.2293 q 0.11465,0.12348 0.11465,0.23813 0,0.11465 -0.11465,0.23812 l -0.22931,0.23813 q -0.13229,0.11465 -0.24694,0.11465 -0.10584,0 -0.22931,-0.11465 l -0.23812,-0.23813 q -0.11466,-0.10583 -0.11466,-0.23812 0,-0.12347 0.11466,-0.23813 z"
         id="path10" />
    </g>
  </g>
</svg>
