<?xml version="1.0" encoding="UTF-8" standalone="no"?>
<!-- Created with Inkscape (http://www.inkscape.org/) -->

<svg
   width="91.424072mm"
   height="39.100056mm"
   viewBox="0 0 91.424073 39.100056"
   version="1.1"
   id="svg1"
   xmlns="http://www.w3.org/2000/svg"
   xmlns:svg="http://www.w3.org/2000/svg">
  <desc property="dc:creator">Michael Koksharov: https://github.com/LuciferaseMaster/PrePrint-Template-for-AnyRxiv/tree/master/preprint_logos</desc>
  <defs
     id="defs1" />
  <g
     id="layer1"
     transform="translate(-81.722941,-96.308326)">
    <g
       id="text9-1"
       style="font-size:16.4021px;line-height:125%;font-family:'Coconat Demi';letter-spacing:0px;word-spacing:0px;stroke-width:1.02513"
       aria-label="#PrePrint ">
      <path
         d="m 86.184312,110.02709 q -0.147619,0.62328 -0.639682,3.16561 h 0.557672 1.755025 0.656084 l 0.147618,-0.88572 q 0.114815,-0.67248 0.360847,-2.27989 h 1.148147 q -0.328042,1.41058 -0.62328,3.16561 1.148147,-0.0328 1.72222,-0.0656 l -0.180423,1.09894 q -0.606878,-0.0492 -1.72222,-0.082 l -0.639682,3.47724 q 1.180951,-0.0328 1.771427,-0.0656 l -0.180424,1.09894 q -0.623279,-0.0492 -1.771426,-0.082 l -0.114815,0.65609 q -0.262434,1.75502 -0.295238,2.27989 h -1.148147 q 0.278836,-1.19735 0.574074,-2.93598 h -0.475661 -1.755025 -0.770898 l -0.114815,0.65609 q -0.0164,0.0656 -0.147619,0.95132 -0.114815,0.88571 -0.147619,1.32857 h -1.148147 q 0.196825,-0.83651 0.590476,-2.91957 -1.082539,0 -1.86984,0.0656 l 0.196825,-1.09894 q 0.62328,0.0328 1.837036,0.0656 l 0.606877,-3.46084 q -1.082538,0 -1.853437,0.0656 l 0.180423,-1.09894 q 0.62328,0.0328 1.837035,0.0656 l 0.147619,-0.88572 q 0.114815,-0.67248 0.360846,-2.27989 z m -0.08201,4.11693 h -0.721693 l -0.639681,3.47724 h 0.590475 1.755025 0.639682 l 0.606877,-3.47724 h -0.47566 z"
         id="path1" />
      <path
         style="font-weight:500;font-family:'Orbitron Medium'"
         d="m 93.122391,121.50856 v -11.79311 h 9.660839 q 0.59047,0 1.08254,0.29524 0.49206,0.29524 0.7709,0.7873 0.29523,0.47566 0.29523,1.04973 v 3.31323 q 0,0.59047 -0.29523,1.08254 -0.27884,0.47566 -0.7709,0.77089 -0.49207,0.27884 -1.08254,0.27884 l -7.889412,0.0164 v 4.19894 z m 2.181479,-6.00317 h 7.43015 q 0.18042,0 0.29524,-0.11481 0.11481,-0.11482 0.11481,-0.27884 v -3.21481 q 0,-0.16402 -0.11481,-0.27884 -0.11482,-0.13121 -0.29524,-0.13121 h -7.43015 q -0.164021,0 -0.295237,0.13121 -0.114815,0.11482 -0.114815,0.27884 v 3.21481 q 0,0.16402 0.114815,0.27884 0.131216,0.11481 0.295237,0.11481 z m 10.72698,6.00317 v 0 -7.38094 q 0,-0.59048 0.29524,-1.06614 0.29524,-0.47566 0.7709,-0.7709 0.49206,-0.29524 1.06613,-0.29524 h 5.31428 v 1.77143 h -5.26507 q -0.16402,0 -0.29524,0.13122 -0.11481,0.11481 -0.11481,0.27883 v 7.33174 z m 10.66136,0 q -0.59047,0 -1.06613,-0.29524 -0.47566,-0.29524 -0.7709,-0.7709 -0.29524,-0.47566 -0.29524,-1.06613 v -5.24867 q 0,-0.59048 0.29524,-1.06614 0.29524,-0.47566 0.7709,-0.7709 0.47566,-0.29524 1.06613,-0.29524 h 5.4127 q 0.59047,0 1.06613,0.29524 0.49207,0.27884 0.7709,0.7709 0.29524,0.49206 0.29524,1.06614 v 3.51004 h -7.90581 v 1.68942 q 0,0.16402 0.11481,0.29524 0.13122,0.11481 0.29524,0.11481 h 7.49576 v 1.77143 h -7.54497 z m -0.36084,-5.52751 h 6.11798 v -1.80423 q 0,-0.16402 -0.11481,-0.27883 -0.11482,-0.13122 -0.27884,-0.13122 h -5.31428 q -0.16402,0 -0.29524,0.13122 -0.11481,0.11481 -0.11481,0.27883 z"
         id="path2" />
      <path
         style="font-weight:600;font-size:21.7838px;font-family:'EB Garamond SemiBold';fill:#bd2736"
         d="m 125.9886,121.5957 q -0.19606,0 -0.34854,-0.0871 -0.15249,-0.0654 -0.15249,-0.19605 0,-0.32676 0.54459,-0.43568 0.82779,-0.17427 1.17633,-0.47924 0.34854,-0.30498 0.34854,-1.02384 v -9.58487 q 0,-0.82779 -0.28319,-1.2199 -0.2614,-0.39211 -1.04562,-0.56638 -0.30497,-0.0653 -0.43568,-0.17427 -0.1307,-0.1307 -0.1307,-0.2614 0,-0.15249 0.1307,-0.21784 0.15249,-0.0871 0.39211,-0.0871 0.52281,0 0.95849,0.0218 0.45746,0 0.87135,0.0218 0.41389,0.0218 0.84957,0.0218 0.47924,0 0.89313,-0.0436 0.43568,-0.0436 0.87136,-0.0871 0.45746,-0.0436 1.04562,-0.0436 2.59227,0 4.13892,1.08919 1.54665,1.08919 1.54665,3.00616 0,1.3506 -0.56638,2.50514 -0.54459,1.13275 -1.69913,1.82984 -1.13276,0.69708 -2.87547,0.69708 -0.54459,0 -0.82778,-0.15249 -0.28319,-0.17427 -0.28319,-0.37032 0,-0.13071 0.1307,-0.21784 0.15249,-0.10892 0.26141,-0.10892 0.19605,0 0.37032,0.0436 0.19606,0.0218 0.56638,0.0218 1.02384,0 1.54665,-1.04562 0.5446,-1.04562 0.5446,-2.78833 0,-1.91697 -0.78422,-2.78832 -0.76243,-0.89314 -2.06946,-0.89314 -0.60995,0 -0.95849,0.26141 -0.32676,0.23962 -0.32676,0.78421 l -0.0218,10.2166 q 0,0.71887 0.34854,1.08919 0.37033,0.34855 1.24168,0.5446 0.28319,0.0436 0.41389,0.15249 0.1307,0.0871 0.1307,0.2614 0,0.15249 -0.1307,0.21784 -0.10892,0.0653 -0.34854,0.0653 -0.50103,0 -1.02384,-0.0436 -0.52281,-0.0218 -1.02384,-0.0436 -0.47924,-0.0218 -0.91492,-0.0218 -0.47924,0 -1.00205,0.0218 -0.50103,0.0218 -1.02384,0.0654 -0.52281,0.0436 -1.04562,0.0436 z"
         id="path3" />
      <path
         style="font-weight:600;font-size:21.7838px;font-family:'EB Garamond SemiBold';fill:#bd2736"
         d="m 138.86284,121.57391 q -0.17427,0 -0.30498,-0.0653 -0.1307,-0.0871 -0.1307,-0.21784 0,-0.17427 0.1307,-0.2614 0.15249,-0.0871 0.37033,-0.15249 0.45746,-0.1307 0.63173,-0.30497 0.19605,-0.19606 0.19605,-0.52281 v -4.90136 q 0,-0.50103 -0.15248,-0.82778 -0.13071,-0.34854 -0.58817,-0.45746 -0.0871,-0.0436 -0.17427,-0.10892 -0.0871,-0.0871 -0.0871,-0.23962 0,-0.28319 0.23962,-0.34855 0.65351,-0.17427 1.41595,-0.45746 0.76243,-0.30497 1.28524,-0.58816 0.10892,-0.0653 0.23962,-0.1307 0.13071,-0.0654 0.19606,-0.0654 0.17427,0 0.17427,0.21784 0,0.0871 -0.0218,0.3921 0,0.30498 -0.0218,0.6753 0,0.34854 -0.0218,0.63173 0,0.13071 0.0653,0.13071 0.34854,-0.45746 0.78421,-0.84957 0.43568,-0.39211 0.91492,-0.65352 0.50103,-0.2614 1.00206,-0.2614 0.63173,0 0.9367,0.2614 0.32676,0.26141 0.32676,0.65352 0,0.30497 -0.17427,0.65351 -0.15249,0.34854 -0.41389,0.60995 -0.23962,0.23962 -0.5446,0.23962 -0.17427,0 -0.37032,-0.0654 -0.19606,-0.0871 -0.39211,-0.19606 -0.19606,-0.0871 -0.41389,-0.17427 -0.19606,-0.0871 -0.37033,-0.0871 -0.54459,0 -0.98027,0.41389 -0.43567,0.39211 -0.43567,1.56843 v 3.83395 q 0,0.39211 0.28318,0.60995 0.28319,0.19605 0.87136,0.37032 0.23962,0.0654 0.34854,0.15249 0.1307,0.0653 0.1307,0.23962 0,0.28319 -0.39211,0.28319 -0.65351,0 -1.24167,-0.0653 -0.56638,-0.0436 -1.13276,-0.0436 -0.37033,0 -0.71887,0.0218 -0.32675,0.0218 -0.6753,0.0436 -0.34854,0.0436 -0.78421,0.0436 z"
         id="path4" />
      <path
         style="font-size:17.6834px"
         d="m 148.1427,121.50856 q 0.22988,-0.81344 0.26525,-4.08487 l 0.0177,-1.96285 q 0,-0.56587 -0.1061,-1.07869 -0.1061,-0.51282 -0.2122,-0.7427 -0.0884,-0.22989 -0.14146,-0.26525 l 2.47567,-1.06101 -0.0177,5.1105 q -0.0177,2.68788 0.26525,4.08487 z m 2.10432,-10.91066 q -0.37135,0.30062 -0.91953,0.30062 -0.54819,0 -0.93722,-0.3183 -0.37135,-0.3183 -0.37135,-0.76039 0,-0.44208 0.37135,-0.76038 0.38903,-0.3183 0.93722,-0.3183 0.54818,0 0.91953,0.3183 0.37136,0.30061 0.37136,0.76038 0,0.45977 -0.37136,0.77807 z m 2.44033,10.91066 q 0.22988,-0.81344 0.26525,-4.08487 l 0.0177,-1.96285 q 0,-0.56587 -0.1061,-1.07869 -0.1061,-0.51282 -0.2122,-0.7427 -0.0884,-0.22989 -0.14146,-0.26525 l 2.49336,-1.06101 v 2.10433 q 0.58355,-0.72502 1.89212,-1.43236 1.30857,-0.70733 2.21042,-0.70733 1.87444,0 2.81166,0.91953 0.95491,0.91954 0.95491,3.02386 v 1.20247 q 0,3.18302 0.26525,4.08487 h -2.56409 q 0.26525,-1.061 0.26525,-3.81961 v -1.13174 q 0,-1.46772 -0.63661,-2.08664 -0.6366,-0.63661 -1.89212,-0.65429 -0.83112,0 -1.75066,0.4244 -0.90185,0.40672 -1.57382,1.13174 v 2.13969 q 0,2.6702 0.26525,3.99645 z m 11.45881,-8.70023 q 1.07869,-0.0884 2.08664,-0.77807 1.02564,-0.70734 1.52077,-1.80371 h 0.0884 v 2.38726 l 4.22633,-0.19452 -0.15915,1.13174 -4.06718,-0.12378 v 4.35011 q 0,1.37931 0.51282,2.03359 0.51282,0.63661 1.64456,0.63661 1.62687,0 2.86471,-1.45004 l 0.0707,0.0354 q -0.60124,1.20248 -1.52077,1.94518 -0.91954,0.7427 -2.45799,0.7427 -1.46773,0 -2.29885,-0.83112 -0.83112,-0.83112 -0.83112,-2.31652 v -5.19892 l -1.67992,-0.053 z"
         id="path5" />
    </g>
    <g
       id="text14-8"
       style="font-size:10.956px;line-height:125%;font-family:'Young Serif';letter-spacing:0px;word-spacing:0px;stroke-width:1.02513"
       aria-label="   Nullius in verba ">
      <path
         d="m 102.1504,128.04368 q 0.14242,0 0.14242,0.14243 v 0.13147 q 0,0.14243 -0.14242,0.14243 -0.36155,0 -0.53685,0.26294 -0.16434,0.25199 -0.16434,0.64641 v 5.76285 q 0,0.14243 -0.14243,0.14243 h -0.43824 q -0.10956,0 -0.17529,-0.0876 l -4.393357,-5.7519 v 4.51388 q 0,0.38346 0.175296,0.6464 0.186252,0.26294 0.536844,0.26294 0.142428,0 0.142428,0.14243 v 0.13147 q 0,0.14243 -0.142428,0.14243 h -2.048772 q -0.153384,0 -0.153384,-0.14243 v -0.13147 q 0,-0.14243 0.153384,-0.14243 0.350592,0 0.525888,-0.26294 0.175296,-0.26294 0.175296,-0.6464 v -5.24793 q -0.284856,-0.24103 -0.613536,-0.24103 -0.142428,0 -0.142428,-0.14243 v -0.13147 q 0,-0.14243 0.142428,-0.14243 h 1.270896 q 0.08765,0 0.16434,0.0876 l 4.327615,5.66425 v -4.42622 q 0,-0.39442 -0.18625,-0.64641 -0.17529,-0.26294 -0.52589,-0.26294 -0.142423,0 -0.142423,-0.14243 v -0.13147 q 0,-0.14243 0.142423,-0.14243 z m 2.3665,7.35148 q -0.65736,0 -1.07369,-0.37251 -0.41633,-0.38346 -0.41633,-1.17229 v -2.23502 q 0,-0.74501 -0.71214,-0.74501 h -0.0329 q -0.14242,0 -0.14242,-0.14243 v -0.13147 q 0,-0.14243 0.14242,-0.14243 h 1.52289 q 0.0986,0 0.0986,0.0876 v 3.31967 q 0,0.40537 0.18625,0.70118 0.19721,0.29581 0.70119,0.29581 0.46015,0 0.78883,-0.28485 0.33964,-0.28486 0.50398,-0.73405 v -2.21312 q 0,-0.75596 -0.71214,-0.75596 h -0.0219 q -0.14242,0 -0.14242,-0.14243 v -0.13147 q 0,-0.14243 0.15338,-0.14243 h 1.50097 q 0.0986,0 0.0986,0.0986 v 3.16628 q 0,0.40537 0.0876,0.62449 0.0876,0.20817 0.48207,0.25199 0.12051,0.011 0.12051,0.13147 v 0.16434 q 0,0.12052 -0.14242,0.12052 -0.41633,0 -0.79979,0.0657 -0.38346,0.0657 -0.65736,0.2739 -0.0438,0.0438 -0.0767,0.0438 h -0.011 q -0.0219,0 -0.0219,-0.011 0,-0.0109 0.0219,-0.17529 0.0329,-0.16434 0.0767,-0.39442 0.0438,-0.24103 0.0767,-0.47111 -0.0986,0.21912 -0.31772,0.46015 -0.21912,0.24104 -0.53684,0.41633 -0.31773,0.1753 -0.74501,0.1753 z m 6.11345,-0.53685 q 0.14243,0 0.14243,0.14243 v 0.13147 q 0,0.14243 -0.16434,0.14243 h -2.2898 q -0.16434,0 -0.16434,-0.14243 v -0.13147 q 0,-0.14243 0.14242,-0.14243 h 0.0219 q 0.70118,0 0.70118,-0.745 v -4.27284 q 0,-0.40538 -0.0876,-0.65736 -0.0876,-0.25199 -0.48206,-0.29582 -0.12052,-0.011 -0.12052,-0.13147 v -0.16434 q 0,-0.0548 0.0329,-0.0767 0.0438,-0.0219 0.10956,-0.0438 0.39442,-0.14243 0.71214,-0.32868 0.31772,-0.19721 0.60258,-0.53685 0.0438,-0.0438 0.0767,-0.0438 h 0.011 q 0.0219,0 0.0219,0.0109 v 6.52978 q 0,0.75596 0.70118,0.75596 z m 2.90334,0 q 0.14242,0 0.14242,0.14243 v 0.13147 q 0,0.14243 -0.16434,0.14243 h -2.2898 q -0.16434,0 -0.16434,-0.14243 v -0.13147 q 0,-0.14243 0.14243,-0.14243 h 0.0219 q 0.70118,0 0.70118,-0.745 v -4.27284 q 0,-0.40538 -0.0876,-0.65736 -0.0876,-0.25199 -0.48207,-0.29582 -0.12051,-0.011 -0.12051,-0.13147 v -0.16434 q 0,-0.0548 0.0329,-0.0767 0.0438,-0.0219 0.10956,-0.0438 0.39442,-0.14243 0.71214,-0.32868 0.31773,-0.19721 0.60258,-0.53685 0.0438,-0.0438 0.0767,-0.0438 h 0.011 q 0.0219,0 0.0219,0.0109 v 6.52978 q 0,0.75596 0.70119,0.75596 z m 2.90333,0 q 0.14243,0 0.14243,0.14243 v 0.13147 q 0,0.14243 -0.16434,0.14243 h -2.28981 q -0.16434,0 -0.16434,-0.14243 v -0.13147 q 0,-0.14243 0.14243,-0.14243 h 0.0219 q 0.70119,0 0.70119,-0.745 v -1.67627 q 0,-0.40537 -0.0877,-0.65736 -0.0876,-0.25199 -0.48207,-0.29581 -0.12051,-0.011 -0.12051,-0.13148 v -0.16434 q 0,-0.0548 0.0329,-0.0767 0.0438,-0.0219 0.10956,-0.0438 0.39441,-0.14243 0.71214,-0.32868 0.31772,-0.19721 0.60258,-0.53685 0.0438,-0.0438 0.0767,-0.0438 h 0.0109 q 0.0219,0 0.0219,0.011 v 3.9332 q 0,0.75596 0.70118,0.75596 z m -1.16134,-6.46404 q 0.24103,0 0.47111,0.23008 0.23008,0.23008 0.23008,0.46015 0,0.23008 -0.23008,0.46015 -0.23008,0.23008 -0.47111,0.23008 -0.21912,0 -0.46015,-0.23008 -0.23008,-0.21912 -0.23008,-0.46015 0,-0.23007 0.23008,-0.46015 0.23008,-0.23008 0.46015,-0.23008 z m 3.60452,7.00089 q -0.65736,0 -1.07368,-0.37251 -0.41633,-0.38346 -0.41633,-1.17229 v -2.23502 q 0,-0.74501 -0.71214,-0.74501 h -0.0329 q -0.14243,0 -0.14243,-0.14243 v -0.13147 q 0,-0.14243 0.14243,-0.14243 h 1.52288 q 0.0986,0 0.0986,0.0876 v 3.31967 q 0,0.40537 0.18625,0.70118 0.19721,0.29581 0.70118,0.29581 0.46016,0 0.78884,-0.28485 0.33963,-0.28486 0.50397,-0.73405 v -2.21312 q 0,-0.75596 -0.71214,-0.75596 h -0.0219 q -0.14243,0 -0.14243,-0.14243 v -0.13147 q 0,-0.14243 0.15339,-0.14243 h 1.50097 q 0.0986,0 0.0986,0.0986 v 3.16628 q 0,0.40537 0.0876,0.62449 0.0876,0.20817 0.48206,0.25199 0.12052,0.011 0.12052,0.13147 v 0.16434 q 0,0.12052 -0.14243,0.12052 -0.41633,0 -0.79979,0.0657 -0.38346,0.0657 -0.65736,0.2739 -0.0438,0.0438 -0.0767,0.0438 h -0.0109 q -0.0219,0 -0.0219,-0.011 0,-0.0109 0.0219,-0.17529 0.0329,-0.16434 0.0767,-0.39442 0.0438,-0.24103 0.0767,-0.47111 -0.0986,0.21912 -0.31772,0.46015 -0.21912,0.24104 -0.53685,0.41633 -0.31772,0.1753 -0.74501,0.1753 z m 7.52678,-3.51688 q -0.0657,0.0329 -0.0986,0.0329 -0.0767,0 -0.12051,-0.0657 -0.43824,-0.5478 -0.85457,-0.83265 -0.41633,-0.28486 -0.95317,-0.28486 -0.47111,0 -0.7231,0.19721 -0.24103,0.19721 -0.24103,0.51493 0,0.2739 0.21912,0.4492 0.23007,0.16434 0.5478,0.2739 0.31772,0.0986 0.58067,0.16434 0.35059,0.0876 0.72309,0.19721 0.38346,0.10956 0.70119,0.2739 0.32868,0.16434 0.52588,0.43824 0.19721,0.2739 0.19721,0.69022 0,0.60258 -0.50397,1.04082 -0.49302,0.42729 -1.4462,0.42729 -0.35059,0 -0.63544,-0.0767 -0.28486,-0.0657 -0.53685,-0.1753 -0.0767,-0.0329 -0.0876,-0.0329 -0.0657,0 -0.0657,0.0657 0,0.0219 0.0219,0.0767 0.0219,0.0657 0.0219,0.0767 0,0.0767 -0.12051,0.0767 h -0.18626 q -0.10956,0 -0.16434,-0.0876 l -0.8217,-1.55576 q -0.0329,-0.0657 -0.0329,-0.0876 0,-0.0767 0.0767,-0.12052 l 0.12051,-0.0657 q 0.0548,-0.0329 0.0876,-0.0329 0.0548,0 0.10956,0.0876 0.46015,0.71214 1.04082,1.06274 0.59163,0.35059 1.17229,0.35059 0.6245,0 0.8984,-0.24103 0.2739,-0.25199 0.2739,-0.59163 0,-0.32868 -0.26295,-0.51493 -0.25199,-0.19721 -0.62449,-0.29581 -0.36155,-0.10956 -0.70118,-0.19721 -0.77788,-0.18625 -1.1723,-0.43824 -0.39441,-0.25199 -0.52588,-0.52589 -0.13148,-0.28485 -0.13148,-0.55875 0,-0.52589 0.40538,-0.88744 0.41632,-0.3725 1.22707,-0.3725 0.44919,0 0.79979,0.12051 0.36154,0.10956 0.50397,0.19721 0.0438,0.0219 0.0657,0.0219 0.0329,0 0.0329,-0.0329 0,-0.0219 -0.0219,-0.0548 -0.0109,-0.0329 -0.0219,-0.0767 -0.0219,-0.0438 -0.0219,-0.0657 0,-0.0329 0,-0.0438 0,-0.0986 0.10956,-0.0986 h 0.13147 q 0.0876,0 0.14243,0.10956 l 0.48206,1.21611 q 0.011,0.0329 0.011,0.0548 0.011,0.0219 0.011,0.0438 0,0.0657 -0.0767,0.10956 z m 5.77379,2.98003 q 0.14243,0 0.14243,0.14243 v 0.13147 q 0,0.14243 -0.16434,0.14243 h -2.28981 q -0.16434,0 -0.16434,-0.14243 v -0.13147 q 0,-0.14243 0.14243,-0.14243 h 0.0219 q 0.70119,0 0.70119,-0.745 v -1.67627 q 0,-0.40537 -0.0877,-0.65736 -0.0876,-0.25199 -0.48206,-0.29581 -0.12052,-0.011 -0.12052,-0.13148 v -0.16434 q 0,-0.0548 0.0329,-0.0767 0.0438,-0.0219 0.10956,-0.0438 0.39441,-0.14243 0.71214,-0.32868 0.31772,-0.19721 0.60258,-0.53685 0.0438,-0.0438 0.0767,-0.0438 h 0.011 q 0.0219,0 0.0219,0.011 v 3.9332 q 0,0.75596 0.70118,0.75596 z m -1.16134,-6.46404 q 0.24104,0 0.47111,0.23008 0.23008,0.23008 0.23008,0.46015 0,0.23008 -0.23008,0.46015 -0.23007,0.23008 -0.47111,0.23008 -0.21912,0 -0.46015,-0.23008 -0.23007,-0.21912 -0.23007,-0.46015 0,-0.23007 0.23007,-0.46015 0.23008,-0.23008 0.46015,-0.23008 z m 1.87347,6.88037 q -0.16434,0 -0.16434,-0.14243 v -0.13147 q 0,-0.14243 0.14243,-0.14243 h 0.0219 q 0.70119,0 0.70119,-0.745 v -1.96113 q 0,-0.39441 -0.0876,-0.60258 -0.0876,-0.20816 -0.48206,-0.25199 -0.12052,-0.0109 -0.12052,-0.13147 v -0.16434 q 0,-0.0986 0.14243,-0.12051 0.41633,-0.0767 0.84361,-0.23008 0.42728,-0.15338 0.66832,-0.43824 0.0329,-0.0548 0.0767,-0.0548 h 0.011 q 0.0219,0 0.0219,0.0219 l -0.20817,1.17229 q 0.0986,-0.20816 0.30677,-0.43824 0.20816,-0.24103 0.52589,-0.40537 0.31772,-0.17529 0.74501,-0.17529 0.66831,0 1.08464,0.38346 0.41633,0.3725 0.41633,1.15038 v 2.24598 q 0,0.42728 0.17529,0.59162 0.1753,0.15338 0.50398,0.15338 h 0.0438 q 0.14243,0 0.14243,0.14243 v 0.13147 q 0,0.14243 -0.14243,0.14243 h -2.21311 q -0.14243,0 -0.14243,-0.14243 v -0.13147 q 0,-0.14243 0.14243,-0.14243 h 0.0438 q 0.24103,0 0.39441,-0.15338 0.16434,-0.16434 0.16434,-0.59162 v -2.24598 q 0,-0.41633 -0.19721,-0.70119 -0.1972,-0.29581 -0.69022,-0.29581 -0.46016,0 -0.79979,0.28486 -0.32868,0.28485 -0.48207,0.745 v 2.20216 q 0,0.75596 0.67928,0.75596 h 0.0219 q 0.14243,0 0.14243,0.14243 v 0.13147 q 0,0.14243 -0.15339,0.14243 z m 13.20198,-4.82064 q 0.14243,0 0.14243,0.14243 v 0.13147 q 0,0.14243 -0.14243,0.14243 h -0.15338 q -0.15339,0 -0.28486,0.12052 -0.12052,0.12051 -0.2739,0.4711 l -1.47906,3.70313 q -0.0438,0.10956 -0.14243,0.10956 h -0.33963 q -0.10956,0 -0.15339,-0.10956 l -1.53384,-3.69217 q -0.15338,-0.3725 -0.26294,-0.48206 -0.10956,-0.12052 -0.29581,-0.12052 h -0.0219 q -0.14242,0 -0.14242,-0.14243 v -0.13147 q 0,-0.14243 0.14242,-0.14243 h 1.79679 q 0.14243,0 0.14243,0.14243 v 0.13147 q 0,0.14243 -0.14243,0.14243 h -0.0219 q -0.32868,0 -0.32868,0.2739 0,0.13147 0.0548,0.28486 0.0657,0.14242 0.15338,0.35059 l 1.00795,2.41032 0.94222,-2.41032 q 0.0876,-0.21912 0.14243,-0.40537 0.0657,-0.18626 0.0657,-0.30677 0,-0.19721 -0.21912,-0.19721 h -0.18625 q -0.15338,0 -0.15338,-0.14243 v -0.13147 q 0,-0.14243 0.15338,-0.14243 z m 4.53579,3.69217 q -0.2739,0.5478 -0.73405,0.8984 -0.4492,0.35059 -1.18325,0.35059 -0.71214,0 -1.25994,-0.35059 -0.5478,-0.36155 -0.85457,-0.94222 -0.30676,-0.59162 -0.30676,-1.28185 0,-0.89839 0.32868,-1.43524 0.33963,-0.5478 0.83265,-0.79979 0.49302,-0.25198 0.997,-0.25198 0.66831,0 1.0956,0.29581 0.43824,0.29581 0.6464,0.71214 0.21912,0.41633 0.21912,0.77787 0,0.0876 -0.0876,0.12052 l -3.00194,1.28185 q 0.16434,0.55876 0.56971,0.97509 0.41633,0.41632 1.01891,0.41632 0.42728,0 0.79979,-0.21912 0.38346,-0.21912 0.66831,-0.71214 0.0438,-0.0657 0.10956,-0.0329 l 0.13148,0.0767 q 0.0548,0.0329 0.011,0.12051 z m -2.30076,-3.31966 q -0.41633,0 -0.67927,0.24103 -0.26294,0.24103 -0.38346,0.60258 -0.12052,0.36155 -0.12052,0.75596 0.011,0.39442 0.10956,0.71214 l 2.14738,-1.02986 q 0.011,-0.31773 -0.0986,-0.61354 -0.10956,-0.29581 -0.3506,-0.48206 -0.24103,-0.18625 -0.62449,-0.18625 z m 2.70613,4.44813 q -0.16434,0 -0.16434,-0.14243 v -0.13147 q 0,-0.14243 0.14243,-0.14243 h 0.0219 q 0.70118,0 0.70118,-0.745 v -1.96113 q 0,-0.39441 -0.0876,-0.60258 -0.0876,-0.20816 -0.48206,-0.25199 -0.12052,-0.0109 -0.12052,-0.13147 v -0.16434 q 0,-0.0986 0.14243,-0.12051 0.41633,-0.0767 0.84361,-0.23008 0.42729,-0.15338 0.66832,-0.43824 0.0329,-0.0548 0.0767,-0.0548 h 0.011 q 0.0219,0 0.0219,0.0219 l -0.23008,1.18325 q 0.12052,-0.24103 0.33964,-0.48206 0.21912,-0.24104 0.53685,-0.39442 0.31772,-0.15338 0.72309,-0.15338 0.38346,0 0.66832,0.23007 0.28485,0.21912 0.28485,0.7231 0,0.24103 -0.0438,0.35059 -0.0329,0.10956 -0.14243,0.15338 l -0.60258,0.23008 q -0.0657,0.0219 -0.0876,0.0219 -0.0876,0 -0.0876,-0.0876 0,-0.0219 0,-0.0329 0.011,-0.0219 0.0219,-0.0548 0.0548,-0.13148 0.0657,-0.25199 0.0219,-0.13147 0.0219,-0.23008 0,-0.51493 -0.55876,-0.51493 -0.35059,0 -0.6464,0.29581 -0.29582,0.28486 -0.4492,0.73405 v 2.20216 q 0,0.38346 0.20816,0.56971 0.21912,0.18625 0.56972,0.18625 h 0.0329 q 0.14243,0 0.14243,0.14243 v 0.13147 q 0,0.14243 -0.16434,0.14243 z m 6.90227,0.12052 q -0.95317,0 -1.50097,-0.50398 -0.53684,-0.51493 -0.53684,-1.52288 v -3.52783 q 0,-0.40538 -0.0876,-0.65736 -0.0876,-0.25199 -0.48207,-0.29582 -0.12051,-0.011 -0.12051,-0.13147 v -0.16434 q 0,-0.0548 0.0329,-0.0767 0.0438,-0.0219 0.10956,-0.0438 0.38346,-0.14243 0.70118,-0.32868 0.31772,-0.19721 0.61354,-0.53685 0.0329,-0.0438 0.0657,-0.0438 h 0.011 q 0.0219,0 0.0219,0.0109 v 3.23202 q 0.20816,-0.1972 0.53684,-0.32868 0.32868,-0.14242 0.73406,-0.14242 0.39441,0 0.78883,0.14242 0.39441,0.13148 0.72309,0.42729 0.33964,0.29581 0.5478,0.78883 0.20817,0.48206 0.20817,1.18325 0,0.73405 -0.29581,1.30376 -0.29582,0.56971 -0.83266,0.89839 -0.52589,0.31773 -1.23803,0.31773 z m 0.0219,-0.41633 q 0.53685,0 0.84362,-0.26294 0.31772,-0.26295 0.44919,-0.67928 0.13147,-0.41632 0.13147,-0.87648 0,-1.06273 -0.44919,-1.68722 -0.4492,-0.62449 -1.30377,-0.62449 -0.48206,0 -0.86552,0.29581 v 2.26789 q 0,0.59163 0.16434,0.93126 0.16434,0.33964 0.43824,0.49302 0.2739,0.14243 0.59162,0.14243 z"
         id="path6" />
      <path
         style="font-family:'Palatino Linotype'"
         d="m 161.72379,131.64761 -0.20864,-0.0535 -0.0428,-0.0535 v -0.66336 q 0.95223,-0.70614 1.85097,-0.70614 0.6152,0 1.02177,0.23003 0.40657,0.23003 0.58846,0.57776 0.18189,0.34237 0.18189,0.80244 l -0.0267,1.07527 v 1.59418 q 0,0.32633 0.0428,0.39587 0.0481,0.0696 0.10699,0.0963 0.0588,0.0214 0.21933,0.0374 l 0.30493,0.0267 0.0428,0.0481 v 0.21398 l -0.0428,0.0428 q -0.39052,-0.0321 -0.72755,-0.0321 -0.32097,0 -0.77034,0.0321 l -0.0802,-0.0749 0.0214,-0.86129 -1.16621,0.90943 q -0.29423,0.12304 -0.64195,0.12304 -0.42797,0 -0.73825,-0.15514 -0.30493,-0.15513 -0.47077,-0.43331 -0.16048,-0.27818 -0.16048,-0.67405 0,-0.7864 0.49216,-1.22507 0.49216,-0.44401 2.6855,-0.75429 0,-0.79174 -0.35307,-1.11272 -0.35307,-0.32633 -0.94688,-0.32633 -0.31028,0 -0.56706,0.0909 -0.25143,0.0909 -0.28888,0.14979 -0.0374,0.0535 -0.28888,0.65265 z m 2.48221,0.84524 q -1.49789,0.25143 -1.86701,0.54031 -0.36912,0.28888 -0.36912,0.89338 0,0.83454 0.82919,0.83454 0.7115,0 1.40694,-0.82384 z m -0.90943,-2.65341 z m -0.11234,5.75618 z"
         id="path7" />
    </g>
    <g
       id="text14-5"
       style="font-size:10.956px;line-height:125%;font-family:'Young Serif';letter-spacing:0px;word-spacing:0px;stroke-width:1.02513"
       aria-label="Veritas. Virtus. Libertas. ">
      <path
         style="font-size:8.81944px"
         d="m 89.340978,96.696382 q 0.123472,0 0.123472,0.114652 v 0.105834 q 0,0.114652 -0.123472,0.114652 -0.220486,0 -0.352778,0.220486 -0.123472,0.211667 -0.229305,0.502708 l -1.719791,4.665486 q -0.03528,0.097 -0.132292,0.097 h -0.370416 q -0.09701,0 -0.132292,-0.097 l -1.799166,-4.665486 q -0.114652,-0.30868 -0.238125,-0.511527 -0.123472,-0.211667 -0.335138,-0.211667 -0.123472,0 -0.123472,-0.114652 v -0.105834 q 0,-0.114652 0.123472,-0.114652 h 2.04611 q 0.114652,0 0.114652,0.114652 v 0.105834 q 0,0.114652 -0.114652,0.114652 -0.388056,0 -0.546805,0.185209 -0.15875,0.176388 0.0088,0.608541 l 1.367013,3.59833 1.296458,-3.668886 q 0.123472,-0.352777 -0.0441,-0.537985 -0.16757,-0.185209 -0.529167,-0.185209 -0.114653,0 -0.114653,-0.114652 v -0.105834 q 0,-0.114652 0.114653,-0.114652 z m 3.263199,4.912428 q -0.220486,0.44097 -0.590902,0.72319 -0.361597,0.28223 -0.9525,0.28223 -0.573263,0 -1.014235,-0.28223 -0.440972,-0.29104 -0.687916,-0.75847 -0.246945,-0.47625 -0.246945,-1.03187 0,-0.723197 0.264583,-1.155349 0.273403,-0.440972 0.670278,-0.643819 0.396875,-0.202847 0.802569,-0.202847 0.537986,0 0.881944,0.238124 0.352777,0.238125 0.520347,0.573264 0.176389,0.335139 0.176389,0.62618 0,0.07056 -0.07056,0.09702 l -2.416526,1.03187 q 0.132291,0.44979 0.45861,0.78493 0.335139,0.33514 0.820208,0.33514 0.343959,0 0.643819,-0.17639 0.308681,-0.17639 0.537986,-0.57326 0.03528,-0.0529 0.08819,-0.0265 l 0.105833,0.0617 q 0.0441,0.0265 0.0088,0.097 z m -1.852082,-2.672291 q -0.335139,0 -0.546805,0.194028 -0.211667,0.194028 -0.308681,0.485069 -0.09701,0.291042 -0.09701,0.608544 0.0088,0.3175 0.08819,0.57326 l 1.72861,-0.829026 q 0.0088,-0.255764 -0.07937,-0.493889 -0.08819,-0.238125 -0.282222,-0.388055 -0.194028,-0.149931 -0.502708,-0.149931 z m 2.178399,3.580691 q -0.132291,0 -0.132291,-0.11465 v -0.10583 q 0,-0.11466 0.114652,-0.11466 h 0.01764 q 0.564444,0 0.564444,-0.59972 v -1.57868 q 0,-0.317498 -0.07055,-0.485068 -0.07056,-0.167569 -0.388056,-0.202847 -0.09701,-0.0088 -0.09701,-0.105833 V 99.07763 q 0,-0.07937 0.114652,-0.09701 0.335139,-0.06174 0.679097,-0.185209 0.343958,-0.123472 0.537986,-0.352777 0.02646,-0.0441 0.06174,-0.0441 h 0.0088 q 0.01764,0 0.01764,0.01764 l -0.185208,0.9525 q 0.09701,-0.194028 0.273403,-0.388055 0.176389,-0.194028 0.432152,-0.3175 0.255764,-0.123472 0.582083,-0.123472 0.308681,0 0.537986,0.185208 0.229306,0.176389 0.229306,0.582083 0,0.194027 -0.03528,0.282222 -0.02646,0.08819 -0.114653,0.123472 l -0.485069,0.185208 q -0.05292,0.01764 -0.07055,0.01764 -0.07056,0 -0.07056,-0.07055 0,-0.01764 0,-0.02646 0.0088,-0.01764 0.01764,-0.0441 0.0441,-0.105833 0.05292,-0.202847 0.01764,-0.105833 0.01764,-0.185208 0,-0.414514 -0.449791,-0.414514 -0.282222,0 -0.520347,0.238125 -0.238125,0.229305 -0.361597,0.590902 v 1.772706 q 0,0.30868 0.167569,0.45861 0.176389,0.14993 0.458611,0.14993 h 0.02646 q 0.114652,0 0.114652,0.11466 v 0.10583 q 0,0.11465 -0.132291,0.11465 z m 5.503332,-0.33514 q 0.114653,0 0.114653,0.11466 v 0.10583 q 0,0.11465 -0.132292,0.11465 h -1.843262 q -0.132292,0 -0.132292,-0.11465 v -0.10583 q 0,-0.11466 0.114653,-0.11466 h 0.01764 q 0.564444,0 0.564444,-0.59972 v -1.34937 q 0,-0.326322 -0.07056,-0.529169 -0.07055,-0.202848 -0.388055,-0.238125 -0.09701,-0.0088 -0.09701,-0.105834 v -0.132291 q 0,-0.0441 0.02646,-0.06174 0.03528,-0.01764 0.08819,-0.03528 0.317499,-0.114653 0.573263,-0.264583 0.255764,-0.15875 0.485069,-0.432153 0.03528,-0.03528 0.06174,-0.03528 h 0.0088 q 0.01764,0 0.01764,0.0088 v 3.166177 q 0,0.60854 0.564444,0.60854 z m -0.93486,-5.203466 q 0.194027,0 0.379236,0.185208 0.185208,0.185208 0.185208,0.370416 0,0.185209 -0.185208,0.370417 -0.185209,0.185208 -0.379236,0.185208 -0.176389,0 -0.370417,-0.185208 -0.185208,-0.176389 -0.185208,-0.370417 0,-0.185208 0.185208,-0.370416 0.185208,-0.185208 0.370417,-0.185208 z m 3.712984,5.000626 q 0.0176,0.0353 0.0176,0.0705 0,0.0441 -0.0617,0.0882 l -0.22931,0.14111 q -0.21166,0.13229 -0.44097,0.23812 -0.2293,0.097 -0.49389,0.097 -0.291037,0 -0.485065,-0.20285 -0.194028,-0.21167 -0.194028,-0.64382 v -2.107847 q 0,-0.176388 -0.02646,-0.335138 -0.02646,-0.15875 -0.141111,-0.255764 -0.114653,-0.09701 -0.396875,-0.09701 -0.114653,0 -0.114653,-0.114653 v -0.105833 q 0,-0.114653 0.114653,-0.114653 h 0.564444 V 97.98402 q 0,-0.07937 0.07056,-0.141111 0.167569,-0.141111 0.30868,-0.238125 0.149931,-0.105833 0.273403,-0.273403 0.0088,-0.01764 0.02645,-0.01764 h 0.0176 q 0.009,0 0.009,0.02646 v 1.296457 h 1.0407 q 0.12347,0 0.12347,0.114653 v 0.202847 q 0,0.114653 -0.12347,0.114653 h -1.0407 v 2.637009 q 0,0.23813 0.097,0.30868 0.097,0.0706 0.2293,0.0706 0.13229,0 0.3175,-0.0617 0.18521,-0.0705 0.30868,-0.14993 0.0265,-0.0176 0.0441,-0.0265 0.0265,-0.0176 0.0529,-0.0176 0.0441,0 0.0794,0.0617 z"
         id="path8" />
      <path
         style="font-size:8.81944px;font-family:'Palatino Linotype';-inkscape-font-specification:'Palatino Linotype'"
         d="m 102.22192,99.597495 -0.16795,-0.04306 -0.0345,-0.04306 v -0.53399 q 0.76653,-0.56844 1.49,-0.56844 0.49523,0 0.82252,0.185173 0.32728,0.185174 0.4737,0.465088 0.14641,0.275608 0.14641,0.645955 l -0.0215,0.865576 v 1.2833 q 0,0.26269 0.0344,0.31867 0.0388,0.056 0.0861,0.0775 0.0474,0.0172 0.17656,0.0301 l 0.24546,0.0215 0.0345,0.0388 v 0.17226 l -0.0345,0.0344 q -0.31436,-0.0258 -0.58566,-0.0258 -0.25838,0 -0.62012,0.0258 l -0.0646,-0.0603 0.0172,-0.69333 -0.93879,0.73208 q -0.23685,0.0991 -0.51676,0.0991 -0.34451,0 -0.59428,-0.12488 -0.24546,-0.12489 -0.37896,-0.34882 -0.12919,-0.22393 -0.12919,-0.5426 0,-0.63304 0.39619,-0.98616 0.39618,-0.35743 2.16179,-0.6072 0,-0.63734 -0.28422,-0.895722 -0.28422,-0.262688 -0.76223,-0.262688 -0.24976,0 -0.45647,0.07321 -0.2024,0.07321 -0.23254,0.120578 -0.0302,0.04306 -0.23255,0.525377 z m 1.99815,0.680405 q -1.20578,0.2024 -1.50292,0.43494 -0.29714,0.23255 -0.29714,0.71917 0,0.67179 0.66749,0.67179 0.57274,0 1.13257,-0.66318 z m -0.73208,-2.135957 z m -0.0904,4.633647 z"
         id="path9" />
      <path
         style="font-size:8.81944px"
         d="m 109.17591,99.783186 q -0.0529,0.02646 -0.0794,0.02646 -0.0617,0 -0.097,-0.05292 -0.35278,-0.440972 -0.68792,-0.670277 -0.33513,-0.229306 -0.76729,-0.229306 -0.37923,0 -0.58208,0.15875 -0.19403,0.15875 -0.19403,0.414514 0,0.220486 0.17639,0.361597 0.18521,0.132292 0.44097,0.220485 0.25577,0.0794 0.46743,0.13229 0.28223,0.0706 0.58209,0.15875 0.30868,0.0882 0.56444,0.22049 0.26458,0.13229 0.42333,0.35278 0.15875,0.22048 0.15875,0.55562 0,0.48507 -0.40569,0.83785 -0.39688,0.34396 -1.16417,0.34396 -0.28222,0 -0.51152,-0.0617 -0.22931,-0.0529 -0.43216,-0.14111 -0.0617,-0.0265 -0.0705,-0.0265 -0.0529,0 -0.0529,0.0529 0,0.0176 0.0176,0.0617 0.0176,0.0529 0.0176,0.0617 0,0.0617 -0.097,0.0617 h -0.14994 q -0.0882,0 -0.13229,-0.0706 l -0.66146,-1.25236 q -0.0265,-0.0529 -0.0265,-0.0706 0,-0.0617 0.0617,-0.097 l 0.097,-0.0529 q 0.0441,-0.0265 0.0705,-0.0265 0.0441,0 0.0882,0.0706 0.37041,0.57326 0.83784,0.85549 0.47625,0.28222 0.94368,0.28222 0.50271,0 0.7232,-0.19403 0.22048,-0.20285 0.22048,-0.47625 0,-0.26458 -0.21166,-0.41451 -0.20285,-0.15875 -0.50271,-0.23813 -0.29104,-0.0882 -0.56445,-0.15875 -0.62618,-0.14993 -0.94368,-0.35278 -0.3175,-0.20284 -0.42333,-0.42333 -0.10583,-0.229304 -0.10583,-0.44979 0,-0.423333 0.32632,-0.714375 0.33514,-0.29986 0.98777,-0.29986 0.3616,0 0.64382,0.09701 0.29105,0.08819 0.4057,0.15875 0.0353,0.01764 0.0529,0.01764 0.0265,0 0.0265,-0.02646 0,-0.01764 -0.0176,-0.0441 -0.009,-0.02646 -0.0176,-0.06174 -0.0176,-0.03528 -0.0176,-0.05292 0,-0.02646 0,-0.03528 0,-0.07937 0.0882,-0.07937 h 0.10583 q 0.0706,0 0.11466,0.08819 l 0.38805,0.978957 q 0.009,0.02646 0.009,0.0441 0.009,0.01764 0.009,0.03528 0,0.05292 -0.0617,0.08819 z m 1.31409,1.790344 q 0.11465,-0.12347 0.2293,-0.12347 0.12348,0 0.24695,0.12347 l 0.2293,0.22931 q 0.11466,0.12347 0.11466,0.23812 0,0.11465 -0.11466,0.23813 l -0.2293,0.23812 q -0.13229,0.11465 -0.24695,0.11465 -0.10583,0 -0.2293,-0.11465 l -0.23813,-0.23812 q -0.11465,-0.10584 -0.11465,-0.23813 0,-0.12347 0.11465,-0.23812 z m 8.59013,-4.877148 q 0.12347,0 0.12347,0.114652 v 0.105834 q 0,0.114652 -0.12347,0.114652 -0.22049,0 -0.35278,0.220486 -0.12347,0.211667 -0.22931,0.502708 l -1.71979,4.665486 q -0.0353,0.097 -0.13229,0.097 h -0.37042 q -0.097,0 -0.13229,-0.097 l -1.79916,-4.665486 q -0.11466,-0.30868 -0.23813,-0.511527 -0.12347,-0.211667 -0.33514,-0.211667 -0.12347,0 -0.12347,-0.114652 v -0.105834 q 0,-0.114652 0.12347,-0.114652 h 2.04611 q 0.11466,0 0.11466,0.114652 v 0.105834 q 0,0.114652 -0.11466,0.114652 -0.38805,0 -0.5468,0.185209 -0.15875,0.176388 0.009,0.608541 l 1.36701,3.59833 1.29646,-3.668886 q 0.12347,-0.352777 -0.0441,-0.537985 -0.16757,-0.185209 -0.52916,-0.185209 -0.11466,0 -0.11466,-0.114652 v -0.105834 q 0,-0.114652 0.11466,-0.114652 z m 1.95792,5.485688 q 0.11465,0 0.11465,0.11466 v 0.10583 q 0,0.11465 -0.13229,0.11465 h -1.84326 q -0.13229,0 -0.13229,-0.11465 v -0.10583 q 0,-0.11466 0.11465,-0.11466 h 0.0176 q 0.56444,0 0.56444,-0.59972 v -1.34937 q 0,-0.326322 -0.0705,-0.529169 -0.0706,-0.202848 -0.38806,-0.238125 -0.097,-0.0088 -0.097,-0.105834 v -0.132291 q 0,-0.0441 0.0264,-0.06174 0.0353,-0.01764 0.0882,-0.03528 0.3175,-0.114653 0.57326,-0.264583 0.25577,-0.15875 0.48507,-0.432153 0.0353,-0.03528 0.0617,-0.03528 h 0.009 q 0.0176,0 0.0176,0.0088 v 3.166177 q 0,0.60854 0.56444,0.60854 z m -0.93486,-5.203466 q 0.19403,0 0.37923,0.185208 0.18521,0.185208 0.18521,0.370416 0,0.185209 -0.18521,0.370417 -0.1852,0.185208 -0.37923,0.185208 -0.17639,0 -0.37042,-0.185208 -0.18521,-0.176389 -0.18521,-0.370417 0,-0.185208 0.18521,-0.370416 0.18521,-0.185208 0.37042,-0.185208 z m 1.50812,5.538606 q -0.1323,0 -0.1323,-0.11465 v -0.10583 q 0,-0.11466 0.11466,-0.11466 h 0.0176 q 0.56444,0 0.56444,-0.59972 v -1.57868 q 0,-0.317498 -0.0706,-0.485068 -0.0705,-0.167569 -0.38805,-0.202847 -0.097,-0.0088 -0.097,-0.105833 V 99.07763 q 0,-0.07937 0.11466,-0.09701 0.33514,-0.06174 0.67909,-0.185209 0.34396,-0.123472 0.53799,-0.352777 0.0265,-0.0441 0.0617,-0.0441 h 0.009 q 0.0176,0 0.0176,0.01764 l -0.1852,0.9525 q 0.097,-0.194028 0.2734,-0.388055 0.17639,-0.194028 0.43215,-0.3175 0.25577,-0.123472 0.58208,-0.123472 0.30868,0 0.53799,0.185208 0.22931,0.176389 0.22931,0.582083 0,0.194027 -0.0353,0.282222 -0.0265,0.08819 -0.11465,0.123472 l -0.48507,0.185208 q -0.0529,0.01764 -0.0706,0.01764 -0.0706,0 -0.0706,-0.07055 0,-0.01764 0,-0.02646 0.009,-0.01764 0.0176,-0.0441 0.0441,-0.105833 0.0529,-0.202847 0.0176,-0.105833 0.0176,-0.185208 0,-0.414514 -0.44979,-0.414514 -0.28222,0 -0.52035,0.238125 -0.23812,0.229305 -0.3616,0.590902 v 1.772706 q 0,0.30868 0.16757,0.45861 0.17639,0.14993 0.45861,0.14993 h 0.0265 q 0.11466,0 0.11466,0.11466 v 0.10583 q 0,0.11465 -0.1323,0.11465 z m 6.18243,-0.53798 q 0.0176,0.0353 0.0176,0.0705 0,0.0441 -0.0617,0.0882 l -0.2293,0.14111 q -0.21167,0.13229 -0.44098,0.23812 -0.2293,0.097 -0.49389,0.097 -0.29104,0 -0.48506,-0.20285 -0.19403,-0.21167 -0.19403,-0.64382 v -2.107847 q 0,-0.176388 -0.0265,-0.335138 -0.0265,-0.15875 -0.14111,-0.255764 -0.11465,-0.09701 -0.39688,-0.09701 -0.11465,0 -0.11465,-0.114653 v -0.105833 q 0,-0.114653 0.11465,-0.114653 h 0.56445 V 97.98402 q 0,-0.07937 0.0705,-0.141111 0.16757,-0.141111 0.30868,-0.238125 0.14993,-0.105833 0.27341,-0.273403 0.009,-0.01764 0.0264,-0.01764 h 0.0176 q 0.009,0 0.009,0.02646 v 1.296457 h 1.0407 q 0.12347,0 0.12347,0.114653 v 0.202847 q 0,0.114653 -0.12347,0.114653 h -1.0407 v 2.637009 q 0,0.23813 0.097,0.30868 0.097,0.0706 0.2293,0.0706 0.13229,0 0.3175,-0.0617 0.18521,-0.0705 0.30868,-0.14993 0.0265,-0.0176 0.0441,-0.0265 0.0265,-0.0176 0.0529,-0.0176 0.0441,0 0.0794,0.0617 z m 2.27542,0.635 q -0.52917,0 -0.86431,-0.29987 -0.33513,-0.30868 -0.33513,-0.94368 v -1.799161 q 0,-0.599722 -0.57327,-0.599722 h -0.0265 q -0.11465,0 -0.11465,-0.114653 v -0.105833 q 0,-0.114653 0.11465,-0.114653 h 1.22591 q 0.0794,0 0.0794,0.07056 v 2.672286 q 0,0.32632 0.14993,0.56445 0.15875,0.23812 0.56444,0.23812 0.37042,0 0.635,-0.2293 0.27341,-0.22931 0.4057,-0.5909 v -1.781532 q 0,-0.608541 -0.57326,-0.608541 h -0.0176 q -0.11466,0 -0.11466,-0.114653 v -0.105833 q 0,-0.114653 0.12348,-0.114653 h 1.20826 q 0.0794,0 0.0794,0.07937 v 2.548817 q 0,0.32632 0.0706,0.50271 0.0706,0.16757 0.38805,0.20285 0.097,0.009 0.097,0.10583 v 0.13229 q 0,0.097 -0.11465,0.097 -0.33514,0 -0.64382,0.0529 -0.30868,0.0529 -0.52917,0.22049 -0.0353,0.0353 -0.0617,0.0353 h -0.009 q -0.0176,0 -0.0176,-0.009 0,-0.009 0.0176,-0.14111 0.0265,-0.1323 0.0617,-0.3175 0.0353,-0.19403 0.0617,-0.37924 -0.0794,0.17639 -0.25577,0.37042 -0.17639,0.19402 -0.43215,0.33513 -0.25576,0.14112 -0.59972,0.14112 z m 6.05896,-2.831044 q -0.0529,0.02646 -0.0794,0.02646 -0.0617,0 -0.097,-0.05292 -0.35278,-0.440972 -0.68792,-0.670277 -0.33514,-0.229306 -0.76729,-0.229306 -0.37924,0 -0.58208,0.15875 -0.19403,0.15875 -0.19403,0.414514 0,0.220486 0.17639,0.361597 0.18521,0.132292 0.44097,0.220485 0.25576,0.0794 0.46743,0.13229 0.28222,0.0706 0.58208,0.15875 0.30868,0.0882 0.56445,0.22049 0.26458,0.13229 0.42333,0.35278 0.15875,0.22048 0.15875,0.55562 0,0.48507 -0.40569,0.83785 -0.39688,0.34396 -1.16417,0.34396 -0.28222,0 -0.51153,-0.0617 -0.2293,-0.0529 -0.43215,-0.14111 -0.0617,-0.0265 -0.0706,-0.0265 -0.0529,0 -0.0529,0.0529 0,0.0176 0.0176,0.0617 0.0176,0.0529 0.0176,0.0617 0,0.0617 -0.097,0.0617 h -0.14993 q -0.0882,0 -0.13229,-0.0706 l -0.66146,-1.25236 q -0.0265,-0.0529 -0.0265,-0.0706 0,-0.0617 0.0617,-0.097 l 0.097,-0.0529 q 0.0441,-0.0265 0.0706,-0.0265 0.0441,0 0.0882,0.0706 0.37042,0.57326 0.83785,0.85549 0.47625,0.28222 0.94368,0.28222 0.50271,0 0.72319,-0.19403 0.22049,-0.20285 0.22049,-0.47625 0,-0.26458 -0.21167,-0.41451 -0.20284,-0.15875 -0.50271,-0.23813 -0.29104,-0.0882 -0.56444,-0.15875 -0.62618,-0.14993 -0.94368,-0.35278 -0.3175,-0.20284 -0.42333,-0.42333 -0.10584,-0.229304 -0.10584,-0.44979 0,-0.423333 0.32632,-0.714375 0.33514,-0.29986 0.98778,-0.29986 0.3616,0 0.64382,0.09701 0.29104,0.08819 0.40569,0.15875 0.0353,0.01764 0.0529,0.01764 0.0265,0 0.0265,-0.02646 0,-0.01764 -0.0176,-0.0441 -0.009,-0.02646 -0.0176,-0.06174 -0.0176,-0.03528 -0.0176,-0.05292 0,-0.02646 0,-0.03528 0,-0.07937 0.0882,-0.07937 h 0.10583 q 0.0706,0 0.11465,0.08819 l 0.38806,0.978957 q 0.009,0.02646 0.009,0.0441 0.009,0.01764 0.009,0.03528 0,0.05292 -0.0617,0.08819 z m 1.31408,1.790344 q 0.11466,-0.12347 0.22931,-0.12347 0.12347,0 0.24694,0.12347 l 0.22931,0.22931 q 0.11465,0.12347 0.11465,0.23812 0,0.11465 -0.11465,0.23813 l -0.22931,0.23812 q -0.13229,0.11465 -0.24694,0.11465 -0.10583,0 -0.22931,-0.11465 l -0.23812,-0.23812 q -0.11465,-0.10584 -0.11465,-0.23813 0,-0.12347 0.11465,-0.23812 z m 8.13152,-0.71437 q 0.0706,0.0353 0.0706,0.0882 0,0.009 0,0.0265 0,0.009 -0.0176,0.0441 l -0.73201,1.53458 q -0.0353,0.0706 -0.097,0.0706 -0.009,0 -0.0353,-0.0176 -0.0264,-0.009 -0.0705,-0.0529 -0.0353,-0.0353 -0.15875,-0.0353 h -3.61597 q -0.12347,0 -0.12347,-0.11465 v -0.10583 q 0,-0.11466 0.12347,-0.11466 0.57326,0 0.57326,-0.73201 v -3.677707 q 0,-0.732013 -0.57326,-0.732013 -0.12347,0 -0.12347,-0.123472 v -0.09701 q 0,-0.123472 0.12347,-0.123472 h 1.96673 q 0.14993,0 0.14993,0.123472 v 0.09701 q 0,0.123472 -0.14111,0.123472 h -0.5468 v 4.38326 q 0,0.74083 0.52916,0.74083 h 0.30869 q 0.37923,0 0.75847,-0.10583 0.38805,-0.10583 0.73201,-0.37923 0.35278,-0.28223 0.59972,-0.78494 l 0.0265,-0.0529 q 0.0265,-0.0706 0.0882,-0.0706 0.0265,0 0.0705,0.0265 z m 2.25777,1.32291 q 0.11465,0 0.11465,0.11466 v 0.10583 q 0,0.11465 -0.13229,0.11465 h -1.84326 q -0.13229,0 -0.13229,-0.11465 v -0.10583 q 0,-0.11466 0.11465,-0.11466 h 0.0176 q 0.56444,0 0.56444,-0.59972 v -1.34937 q 0,-0.326322 -0.0705,-0.529169 -0.0706,-0.202848 -0.38806,-0.238125 -0.097,-0.0088 -0.097,-0.105834 v -0.132291 q 0,-0.0441 0.0265,-0.06174 0.0353,-0.01764 0.0882,-0.03528 0.3175,-0.114653 0.57326,-0.264583 0.25577,-0.15875 0.48507,-0.432153 0.0353,-0.03528 0.0617,-0.03528 h 0.009 q 0.0176,0 0.0176,0.0088 v 3.166177 q 0,0.60854 0.56444,0.60854 z m -0.93486,-5.203466 q 0.19403,0 0.37924,0.185208 0.1852,0.185208 0.1852,0.370416 0,0.185209 -0.1852,0.370417 -0.18521,0.185208 -0.37924,0.185208 -0.17639,0 -0.37042,-0.185208 -0.1852,-0.176389 -0.1852,-0.370417 0,-0.185208 0.1852,-0.370416 0.18521,-0.185208 0.37042,-0.185208 z m 3.09562,5.635626 q -0.76729,0 -1.20826,-0.4057 -0.43215,-0.41451 -0.43215,-1.2259 v -2.83986 q 0,-0.32632 -0.0706,-0.529167 -0.0706,-0.202847 -0.38806,-0.238125 -0.097,-0.0088 -0.097,-0.105833 v -0.132291 q 0,-0.0441 0.0265,-0.06174 0.0353,-0.01764 0.0882,-0.03528 0.30868,-0.114653 0.56445,-0.264583 0.25576,-0.15875 0.49389,-0.432153 0.0265,-0.03528 0.0529,-0.03528 h 0.009 q 0.0176,0 0.0176,0.0088 v 2.601734 q 0.16757,-0.158749 0.43215,-0.264583 0.26459,-0.114652 0.59091,-0.114652 0.3175,0 0.635,0.114652 0.3175,0.105834 0.58208,0.343958 0.2734,0.238125 0.44097,0.635 0.16757,0.388055 0.16757,0.952495 0,0.59091 -0.23812,1.04952 -0.23813,0.45861 -0.67028,0.72319 -0.42334,0.25577 -0.9966,0.25577 z m 0.0176,-0.33514 q 0.43215,0 0.6791,-0.21167 0.25576,-0.21167 0.36159,-0.5468 0.10584,-0.33514 0.10584,-0.70556 0,-0.855486 -0.3616,-1.358194 -0.3616,-0.502708 -1.04951,-0.502708 -0.38806,0 -0.69674,0.238125 v 1.825627 q 0,0.47625 0.13229,0.74965 0.13229,0.2734 0.35278,0.39687 0.22049,0.11466 0.47625,0.11466 z m 5.83847,-0.67028 q -0.22049,0.44097 -0.5909,0.72319 -0.3616,0.28223 -0.9525,0.28223 -0.57327,0 -1.01424,-0.28223 -0.44097,-0.29104 -0.68791,-0.75847 -0.24695,-0.47625 -0.24695,-1.03187 0,-0.723197 0.26459,-1.155349 0.2734,-0.440972 0.67027,-0.643819 0.39688,-0.202847 0.80257,-0.202847 0.53799,0 0.88195,0.238124 0.35277,0.238125 0.52034,0.573264 0.17639,0.335139 0.17639,0.62618 0,0.07056 -0.0705,0.09702 l -2.41653,1.03187 q 0.13229,0.44979 0.45861,0.78493 0.33514,0.33514 0.82021,0.33514 0.34396,0 0.64382,-0.17639 0.30868,-0.17639 0.53798,-0.57326 0.0353,-0.0529 0.0882,-0.0265 l 0.10583,0.0617 q 0.0441,0.0265 0.009,0.097 z m -1.85208,-2.672291 q -0.33514,0 -0.54681,0.194028 -0.21166,0.194028 -0.30868,0.485069 -0.097,0.291042 -0.097,0.608544 0.009,0.3175 0.0882,0.57326 l 1.72861,-0.829026 q 0.009,-0.255764 -0.0794,-0.493889 -0.0882,-0.238125 -0.28222,-0.388055 -0.19403,-0.149931 -0.50271,-0.149931 z m 2.1784,3.580691 q -0.13229,0 -0.13229,-0.11465 v -0.10583 q 0,-0.11466 0.11465,-0.11466 h 0.0176 q 0.56444,0 0.56444,-0.59972 v -1.57868 q 0,-0.317498 -0.0706,-0.485068 -0.0706,-0.167569 -0.38806,-0.202847 -0.097,-0.0088 -0.097,-0.105833 V 99.07763 q 0,-0.07937 0.11465,-0.09701 0.33514,-0.06174 0.6791,-0.185209 0.34396,-0.123472 0.53798,-0.352777 0.0265,-0.0441 0.0617,-0.0441 h 0.009 q 0.0176,0 0.0176,0.01764 l -0.18521,0.9525 q 0.097,-0.194028 0.2734,-0.388055 0.17639,-0.194028 0.43215,-0.3175 0.25577,-0.123472 0.58209,-0.123472 0.30868,0 0.53798,0.185208 0.22931,0.176389 0.22931,0.582083 0,0.194027 -0.0353,0.282222 -0.0265,0.08819 -0.11465,0.123472 l -0.48507,0.185208 q -0.0529,0.01764 -0.0706,0.01764 -0.0706,0 -0.0706,-0.07055 0,-0.01764 0,-0.02646 0.009,-0.01764 0.0176,-0.0441 0.0441,-0.105833 0.0529,-0.202847 0.0176,-0.105833 0.0176,-0.185208 0,-0.414514 -0.44979,-0.414514 -0.28222,0 -0.52035,0.238125 -0.23812,0.229305 -0.36159,0.590902 v 1.772706 q 0,0.30868 0.16757,0.45861 0.17639,0.14993 0.45861,0.14993 h 0.0265 q 0.11465,0 0.11465,0.11466 v 0.10583 q 0,0.11465 -0.13229,0.11465 z m 6.18243,-0.53798 q 0.0176,0.0353 0.0176,0.0705 0,0.0441 -0.0617,0.0882 l -0.2293,0.14111 q -0.21167,0.13229 -0.44097,0.23812 -0.22931,0.097 -0.49389,0.097 -0.29104,0 -0.48507,-0.20285 -0.19403,-0.21167 -0.19403,-0.64382 v -2.107847 q 0,-0.176388 -0.0265,-0.335138 -0.0264,-0.15875 -0.14111,-0.255764 -0.11465,-0.09701 -0.39687,-0.09701 -0.11466,0 -0.11466,-0.114653 v -0.105833 q 0,-0.114653 0.11466,-0.114653 h 0.56444 V 97.98402 q 0,-0.07937 0.0706,-0.141111 0.16757,-0.141111 0.30868,-0.238125 0.14993,-0.105833 0.2734,-0.273403 0.009,-0.01764 0.0265,-0.01764 h 0.0176 q 0.009,0 0.009,0.02646 v 1.296457 h 1.04069 q 0.12347,0 0.12347,0.114653 v 0.202847 q 0,0.114653 -0.12347,0.114653 h -1.04069 v 2.637009 q 0,0.23813 0.097,0.30868 0.097,0.0706 0.22931,0.0706 0.13229,0 0.3175,-0.0617 0.1852,-0.0705 0.30868,-0.14993 0.0264,-0.0176 0.0441,-0.0265 0.0265,-0.0176 0.0529,-0.0176 0.0441,0 0.0794,0.0617 z"
         id="path10" />
      <path
         style="font-size:8.81944px;font-family:'Palatino Linotype';-inkscape-font-specification:'Palatino Linotype'"
         d="m 163.36708,99.597495 -0.16795,-0.04306 -0.0344,-0.04306 v -0.53399 q 0.76654,-0.56844 1.49001,-0.56844 0.49523,0 0.82251,0.185173 0.32729,0.185174 0.4737,0.465088 0.14642,0.275608 0.14642,0.645955 l -0.0215,0.865576 v 1.2833 q 0,0.26269 0.0344,0.31867 0.0388,0.056 0.0861,0.0775 0.0474,0.0172 0.17656,0.0301 l 0.24546,0.0215 0.0344,0.0388 v 0.17226 l -0.0344,0.0344 q -0.31437,-0.0258 -0.58567,-0.0258 -0.25838,0 -0.62011,0.0258 l -0.0646,-0.0603 0.0172,-0.69333 -0.93879,0.73208 q -0.23685,0.0991 -0.51677,0.0991 -0.34451,0 -0.59427,-0.12488 -0.24547,-0.12489 -0.37896,-0.34882 -0.1292,-0.22393 -0.1292,-0.5426 0,-0.63304 0.39619,-0.98616 0.39619,-0.35743 2.1618,-0.6072 0,-0.63734 -0.28422,-0.895722 -0.28422,-0.262688 -0.76223,-0.262688 -0.24977,0 -0.45648,0.07321 -0.2024,0.07321 -0.23254,0.120578 -0.0301,0.04306 -0.23254,0.525377 z m 1.99816,0.680405 q -1.20579,0.2024 -1.50293,0.43494 -0.29714,0.23255 -0.29714,0.71917 0,0.67179 0.66749,0.67179 0.57275,0 1.13258,-0.66318 z m -0.73209,-2.135957 z m -0.0904,4.633647 z"
         id="path11" />
      <path
         style="font-size:8.81944px"
         d="m 170.32107,99.783186 q -0.0529,0.02646 -0.0794,0.02646 -0.0617,0 -0.097,-0.05292 -0.35278,-0.440972 -0.68792,-0.670277 -0.33514,-0.229306 -0.76729,-0.229306 -0.37924,0 -0.58209,0.15875 -0.19402,0.15875 -0.19402,0.414514 0,0.220486 0.17639,0.361597 0.1852,0.132292 0.44097,0.220485 0.25576,0.0794 0.46743,0.13229 0.28222,0.0706 0.58208,0.15875 0.30868,0.0882 0.56445,0.22049 0.26458,0.13229 0.42333,0.35278 0.15875,0.22048 0.15875,0.55562 0,0.48507 -0.4057,0.83785 -0.39687,0.34396 -1.16416,0.34396 -0.28222,0 -0.51153,-0.0617 -0.22931,-0.0529 -0.43215,-0.14111 -0.0617,-0.0265 -0.0706,-0.0265 -0.0529,0 -0.0529,0.0529 0,0.0176 0.0176,0.0617 0.0176,0.0529 0.0176,0.0617 0,0.0617 -0.097,0.0617 h -0.14993 q -0.0882,0 -0.13229,-0.0706 l -0.66146,-1.25236 q -0.0265,-0.0529 -0.0265,-0.0706 0,-0.0617 0.0617,-0.097 l 0.097,-0.0529 q 0.0441,-0.0265 0.0706,-0.0265 0.0441,0 0.0882,0.0706 0.37042,0.57326 0.83785,0.85549 0.47625,0.28222 0.94368,0.28222 0.50271,0 0.72319,-0.19403 0.22049,-0.20285 0.22049,-0.47625 0,-0.26458 -0.21167,-0.41451 -0.20285,-0.15875 -0.50271,-0.23813 -0.29104,-0.0882 -0.56444,-0.15875 -0.62618,-0.14993 -0.94368,-0.35278 -0.3175,-0.20284 -0.42333,-0.42333 -0.10584,-0.229304 -0.10584,-0.44979 0,-0.423333 0.32632,-0.714375 0.33514,-0.29986 0.98778,-0.29986 0.3616,0 0.64382,0.09701 0.29104,0.08819 0.40569,0.15875 0.0353,0.01764 0.0529,0.01764 0.0265,0 0.0265,-0.02646 0,-0.01764 -0.0176,-0.0441 -0.009,-0.02646 -0.0176,-0.06174 -0.0176,-0.03528 -0.0176,-0.05292 0,-0.02646 0,-0.03528 0,-0.07937 0.0882,-0.07937 h 0.10583 q 0.0705,0 0.11465,0.08819 l 0.38806,0.978957 q 0.009,0.02646 0.009,0.0441 0.009,0.01764 0.009,0.03528 0,0.05292 -0.0617,0.08819 z m 1.3141,1.790344 q 0.11465,-0.12347 0.2293,-0.12347 0.12347,0 0.24695,0.12347 l 0.2293,0.22931 q 0.11465,0.12347 0.11465,0.23812 0,0.11465 -0.11465,0.23813 l -0.2293,0.23812 q -0.1323,0.11465 -0.24695,0.11465 -0.10583,0 -0.2293,-0.11465 l -0.23813,-0.23812 q -0.11465,-0.10584 -0.11465,-0.23813 0,-0.12347 0.11465,-0.23812 z"
         id="path12" />
    </g>
  </g>
</svg>
