<?xml version="1.0" encoding="UTF-8" standalone="no"?>
<!-- Created with Inkscape (http://www.inkscape.org/) -->

<svg
   width="36mm"
   height="30.215219mm"
   viewBox="0 0 36 30.215219"
   version="1.1"
   id="svg1"
   xmlns="http://www.w3.org/2000/svg"
   xmlns:svg="http://www.w3.org/2000/svg">
   <desc property="dc:creator">Michael Koksharov: https://github.com/LuciferaseMaster/PrePrint-Template-for-AnyRxiv/tree/master/preprint_logos</desc>
  <defs
     id="defs1">
    <clipPath
       clipPathUnits="userSpaceOnUse"
       id="clipEmfPath1">
      <path
         d="M 29.25532,53.394955 H 72.099176 V 106.31031 H 29.25532 Z"
         id="path1" />
    </clipPath>
    <pattern
       id="EMFhbasepattern"
       patternUnits="userSpaceOnUse"
       width="6"
       height="6"
       x="0"
       y="0" />
  </defs>
  <g
     id="layer1"
     transform="translate(-84.768986,-100.97677)">
    <path
       id="text7"
       style="font-style:normal;font-variant:normal;font-weight:400;font-size:30.389px;line-height:125%;font-family:'Noto Emoji';text-align:start;letter-spacing:0px;word-spacing:0px;text-anchor:start;fill:#000000;fill-opacity:1;stroke:none;stroke-width:0.38016"
       d="m 94.622649,107.74743 h -8.266162 v 23.44456 h 33.060003 v -23.44456 h -8.14214 v 1.18701 h 5.90145 L 102.88675,120.9089 88.612163,108.93444 h 6.010486 z m -7.078638,1.85467 8.175729,6.91482 -8.175729,12.16721 z m 30.685479,0 v 19.08203 l -8.17573,-12.16721 z m -21.574924,7.67136 6.232184,5.17901 6.23218,-5.17901 8.60619,12.73152 H 88.06336 Z" />
    <g
       clip-path="url(#clipEmfPath1)"
       id="g10"
       transform="matrix(0.38016011,0,0,0.38016011,83.417602,75.987922)">
      <path
         d="m 21.939,-25.4535 q -2.6625,0 -4.26,2.6625 -1.5975,2.60925 -1.5975,5.751 0,1.8105 0.852,3.3015 0.90525,1.43775 2.982,1.43775 2.0235,0 3.46125,-1.3845 1.43775,-1.43775 1.97025,-3.14175 0.5325,-1.75725 0.5325,-3.5145 0,-5.112 -3.9405,-5.112 z m 14.3775,17.19975 2.4495,2.82225 q -6.0705,6.39 -16.66725,6.39 -9.10575,0 -14.75025,-5.48475 -5.59125,-5.538 -5.59125,-14.271 0,-8.46675 5.91075,-14.1645 5.964,-5.69775 14.43075,-5.69775 3.7275,0 7.029,1.11825 3.35475,1.065 6.01725,3.14175 2.6625,2.0235 4.20675,5.37825 1.5975,3.3015 1.5975,7.455 0,6.12375 -3.03525,9.585 -3.03525,3.46125 -7.40175,3.46125 -2.13,0 -3.408,-1.065 -1.22475,-1.065 -1.22475,-2.6625 h -0.26625 q -0.7455,1.43775 -2.50275,2.60925 -1.75725,1.11825 -4.047,1.11825 -3.56775,0 -5.6445,-2.39625 -2.0235,-2.39625 -2.0235,-6.2835 0,-4.73925 2.982,-8.36025 2.982,-3.67425 7.5615,-3.67425 1.97025,0 3.408,0.852 1.491,0.852 1.97025,2.18325 h 0.1065 l 0.47925,-2.2365 h 4.047 l -2.07675,10.011 q -0.5325,2.39625 -0.5325,3.78075 0,2.39625 2.13,2.39625 2.343,0 3.834,-2.50275 1.491,-2.50275 1.491,-6.39 0,-6.4965 -4.10025,-10.06425 -4.047,-3.621 -10.65,-3.621 -6.9225,0 -11.289,4.5795 -4.3665,4.5795 -4.3665,11.55525 0,7.18875 4.473,11.502 4.473,4.31325 11.66175,4.31325 8.094,0 13.79175,-5.37825 z"
         id="text10"
         style="font-weight:500;font-size:53.25px;line-height:125%;font-family:'AvenirNext LT Pro Medium';letter-spacing:0px;word-spacing:0px"
         transform="translate(29.25532,104.39193)"
         aria-label="@ " />
    </g>
    <g
       id="text11"
       style="font-size:7.05556px;line-height:2.86631px;font-family:'PT Astra Sans';-inkscape-font-specification:'PT Astra Sans, Normal';text-align:center;letter-spacing:-0.079375px;text-anchor:middle;fill:#0e4c92;stroke:#000000;stroke-width:0.499999"
       aria-label="e-m@il">
      <path
         style="font-family:'PT Astra Serif';-inkscape-font-specification:'PT Astra Serif, Normal';fill:#000000;stroke:none;stroke-width:0.5"
         d="m 95.227845,128.0016 q -0.05168,0.11024 -0.155029,0.21704 -0.103353,0.10335 -0.251492,0.18604 -0.14814,0.0827 -0.33762,0.13436 -0.186035,0.0517 -0.409967,0.0517 -0.344509,0 -0.623562,-0.11713 -0.275608,-0.11713 -0.471979,-0.33418 -0.19637,-0.21704 -0.303168,-0.52021 -0.103353,-0.30661 -0.103353,-0.68213 0,-0.39963 0.09646,-0.70624 0.09646,-0.31006 0.279053,-0.52021 0.182591,-0.21015 0.447863,-0.31695 0.265273,-0.11024 0.602892,-0.11024 0.16881,0 0.33762,0.0344 0.172255,0.0345 0.323839,0.11369 0.155029,0.0758 0.282498,0.20326 0.127469,0.12402 0.206706,0.31006 0.07924,0.18259 0.09991,0.43063 0.02067,0.24461 -0.03445,0.56155 h -2.036053 q 0,0.26528 0.07579,0.4961 0.07924,0.23082 0.223931,0.40308 0.144695,0.16881 0.354845,0.26527 0.210151,0.0965 0.482314,0.0965 0.110243,0 0.223932,-0.0207 0.113688,-0.0207 0.220486,-0.0586 0.110243,-0.0413 0.206706,-0.093 0.09646,-0.0551 0.1757,-0.12403 z m -1.257461,-2.43913 q -0.1757,0 -0.313503,0.0586 -0.137804,0.0551 -0.234267,0.18603 -0.09646,0.12747 -0.15503,0.33762 -0.05512,0.21015 -0.07235,0.51332 h 1.450387 q 0.02067,-0.24804 -0.01723,-0.44786 -0.03445,-0.20326 -0.124023,-0.34451 -0.08613,-0.14469 -0.223932,-0.22393 -0.134359,-0.0792 -0.310059,-0.0792 z m 1.663845,0.86128 h 1.884468 v 0.4203 h -1.884468 z m 5.501681,2.08772 h -1.347031 v -0.15502 q 0.06201,-0.0379 0.155029,-0.0792 0.09302,-0.0413 0.217042,-0.0758 v -1.45384 q 0,-0.25838 -0.0241,-0.45819 -0.0207,-0.19982 -0.0827,-0.33418 -0.06201,-0.1378 -0.175698,-0.21015 -0.113689,-0.0724 -0.296279,-0.0724 -0.134359,0 -0.251492,0.0586 -0.113688,0.0551 -0.206706,0.15159 -0.09302,0.093 -0.158474,0.21704 -0.06546,0.12057 -0.103353,0.25149 v 1.85002 q 0.09991,0.031 0.18948,0.0654 0.08957,0.0344 0.179145,0.0896 v 0.15502 h -1.357368 v -0.15502 q 0.08957,-0.0448 0.199815,-0.0827 0.110244,-0.0379 0.220487,-0.0723 v -2.47703 l -0.420302,-0.0517 v -0.16192 q 0.206706,-0.0861 0.416857,-0.1378 0.213596,-0.0551 0.413411,-0.0896 h 0.158475 v 0.71313 h 0.0034 q 0.05168,-0.14814 0.137804,-0.2756 0.08957,-0.13092 0.210151,-0.22738 0.120578,-0.0965 0.272162,-0.15159 0.151585,-0.0586 0.327285,-0.0586 0.148139,0 0.289385,0.031 0.14125,0.031 0.25839,0.11714 0.11713,0.0827 0.19981,0.23426 0.0861,0.15159 0.12402,0.3893 0.0551,-0.17225 0.14814,-0.3135 0.093,-0.14125 0.21704,-0.24116 0.12747,-0.10335 0.28595,-0.15848 0.15847,-0.0586 0.34451,-0.0586 0.23426,0 0.40652,0.062 0.17225,0.0586 0.28594,0.2136 0.11369,0.15158 0.16881,0.40996 0.0551,0.25838 0.0551,0.65113 v 1.5813 q 0.1068,0.0207 0.21015,0.0586 0.1068,0.0379 0.20327,0.0965 v 0.15502 h -1.35737 v -0.15502 q 0.0965,-0.0551 0.18948,-0.0896 0.0965,-0.0379 0.18603,-0.0654 v -1.56752 q 0,-0.22738 -0.0241,-0.40308 -0.0207,-0.17915 -0.0827,-0.30317 -0.062,-0.12402 -0.17914,-0.18948 -0.11369,-0.0655 -0.29972,-0.0655 -0.14814,0 -0.26528,0.0551 -0.11368,0.0551 -0.20326,0.15503 -0.0861,0.0965 -0.14814,0.23426 -0.062,0.13436 -0.0999,0.29284 v 1.79145 q 0.12057,0.0344 0.22048,0.0723 0.0999,0.0379 0.18948,0.0827 z"
         id="path14" />
      <path
         style="font-weight:bold;font-size:6.35px;font-family:'PT Astra Serif';-inkscape-font-specification:'PT Astra Serif, Bold';fill:#000000;stroke:none;stroke-width:0.5"
         d="m 106.68789,125.81707 q 0.13953,-0.0682 0.33176,-0.0961 0.19534,-0.0279 0.39378,-0.0217 l -0.28216,1.61231 q -0.0713,0.36897 -0.0651,0.5519 0.009,0.18294 0.17674,0.18294 0.13022,0 0.30075,-0.0868 0.17364,-0.0868 0.32246,-0.26355 0.15193,-0.17673 0.25425,-0.44648 0.10542,-0.27286 0.10542,-0.63252 0,-0.43719 -0.16123,-0.78445 -0.15813,-0.35037 -0.44028,-0.58601 -0.28216,-0.23875 -0.66663,-0.36277 -0.38447,-0.12402 -0.83406,-0.12402 -0.50229,0 -0.92397,0.17673 -0.42168,0.17673 -0.72244,0.48989 -0.30075,0.31006 -0.47129,0.74414 -0.16743,0.43408 -0.16743,0.93638 0,0.5178 0.17053,0.90227 0.17364,0.38447 0.47439,0.64492 0.30076,0.26045 0.71624,0.39068 0.41548,0.13332 0.90227,0.13332 0.17053,0 0.38447,-0.0403 0.21394,-0.0403 0.39068,-0.12402 l 0.0899,0.33486 q -0.20153,0.11472 -0.44648,0.16123 -0.24495,0.0465 -0.5395,0.0465 -0.5147,0 -0.98289,-0.15193 -0.46819,-0.14882 -0.82475,-0.45268 -0.35347,-0.30386 -0.56121,-0.75344 -0.20774,-0.44959 -0.20774,-1.0542 0,-0.63562 0.21704,-1.14412 0.21704,-0.5116 0.59221,-0.87126 0.37828,-0.35967 0.87437,-0.55191 0.49919,-0.19534 1.0697,-0.19534 0.5488,0 1.00769,0.15193 0.46199,0.15193 0.79375,0.44029 0.33176,0.28835 0.5147,0.70383 0.18603,0.41238 0.18603,0.93948 0,0.41237 -0.14882,0.74414 -0.14573,0.33176 -0.38448,0.57361 -0.23874,0.23874 -0.5395,0.36897 -0.30076,0.13022 -0.60771,0.13022 -0.17674,0 -0.30386,-0.0403 -0.12713,-0.0434 -0.20774,-0.14883 -0.0806,-0.10542 -0.10852,-0.27285 -0.0248,-0.16743 0.009,-0.41858 h -0.0217 q -0.0527,0.15503 -0.15503,0.31626 -0.0992,0.15813 -0.22945,0.28526 -0.13022,0.12402 -0.28835,0.20154 -0.15813,0.0775 -0.31936,0.0775 -0.39378,0 -0.59531,-0.25425 -0.20154,-0.25425 -0.20154,-0.64802 0,-0.34417 0.11162,-0.67903 0.11472,-0.33796 0.31626,-0.60151 0.20154,-0.26355 0.48059,-0.42788 0.27905,-0.16743 0.60772,-0.16743 0.20153,0 0.33796,0.0403 0.13642,0.0372 0.27595,0.12093 z m -0.11472,0.28525 q -0.062,-0.0434 -0.13333,-0.0682 -0.0713,-0.0248 -0.16743,-0.0248 -0.19843,0 -0.36587,0.15193 -0.16743,0.15193 -0.29145,0.38447 -0.12403,0.23255 -0.19224,0.5023 -0.0682,0.26975 -0.0682,0.49919 0,0.20154 0.0682,0.31316 0.0682,0.11162 0.23875,0.11162 0.0961,0 0.19843,-0.0806 0.10232,-0.0837 0.19844,-0.21394 0.0992,-0.13023 0.18604,-0.29456 0.0899,-0.16433 0.16743,-0.32556 z"
         id="path15" />
      <path
         style="font-family:'PT Astra Serif';-inkscape-font-specification:'PT Astra Serif, Normal';fill:#000000;stroke:none;stroke-width:0.5"
         d="M 110.62171,128.51147 H 109.223 v -0.15502 q 0.0965,-0.0551 0.19637,-0.0896 0.0999,-0.0345 0.21704,-0.0654 v -2.47703 l -0.41341,-0.0517 v -0.16192 q 0.18604,-0.0792 0.39619,-0.13435 0.21359,-0.0551 0.42719,-0.093 h 0.15847 v 2.918 q 0.12403,0.031 0.22738,0.0654 0.10335,0.0344 0.18948,0.0896 z m -1.18511,-4.39249 q 0,-0.17226 0.11024,-0.26872 0.11024,-0.0999 0.29283,-0.0999 0.17915,0 0.28595,0.0999 0.11024,0.0965 0.11024,0.26872 0,0.1757 -0.11024,0.27216 -0.1068,0.0965 -0.28595,0.0965 -0.18259,0 -0.29283,-0.0965 -0.11024,-0.0965 -0.11024,-0.27216 z m 3.0281,4.39249 h -1.39871 v -0.15502 q 0.10335,-0.0551 0.2067,-0.0896 0.10336,-0.0379 0.20671,-0.0654 v -3.99287 l -0.47887,-0.0482 v -0.16537 q 0.0827,-0.0379 0.18948,-0.0689 0.1068,-0.0345 0.22393,-0.062 0.11714,-0.031 0.23771,-0.0551 0.12403,-0.0241 0.23772,-0.0413 h 0.15847 v 4.43384 q 0.1068,0.0276 0.21015,0.0654 0.1068,0.0344 0.20671,0.0896 z"
         id="path16" />
    </g>
  </g>
</svg>
