<?xml version="1.0" encoding="UTF-8" standalone="no"?>
<svg
   width="40"
   height="32"
   fill="none"
   version="1.1"
   id="svg2"
   xmlns="http://www.w3.org/2000/svg"
   xmlns:svg="http://www.w3.org/2000/svg">
  <defs
     id="defs2" />
  <path
     fill-rule="evenodd"
     clip-rule="evenodd"
     d="M 40,16 C 40,24.837 32.837,32 24,32 15.162,32 8,24.837 8,16 8,7.162 15.162,0 24,0 32.837,0 40,7.162 40,16 Z"
     fill="#a6ce39"
     id="path1" />
  <path
     fill-rule="evenodd"
     clip-rule="evenodd"
     d="m 26.813,9.637 h -5.45 v 13.9 h 5.474 c 4.555,0 7.35,-3.378 7.35,-6.95 0,-1.635 -0.562,-3.372 -1.77,-4.704 C 31.202,10.547 29.352,9.637 26.812,9.637 Z M 26.6,21.3 H 23.787 V 11.875 H 26.5 c 1.823,0 3.12,0.552 3.96,1.4 0.842,0.849 1.252,2.021 1.252,3.312 0,0.784 -0.239,1.967 -0.993,2.948 -0.745,0.969 -2.01,1.765 -4.119,1.765 z m 5.311,-4.026 C 31.66,19.014 30.417,21.55 26.6,21.55 H 23.537 26.6 c 3.817,0 5.06,-2.536 5.311,-4.276 z m 1.812,-2.405 c -0.657,-2.601 -2.85,-4.982 -6.91,-4.982 h -5.2 5.2 c 4.06,0 6.253,2.38 6.91,4.982 z m 0.215,1.718 z M 16.363,9.675 v 13.887 h 2.425 V 9.675 Z m 2.175,13.637 h -1.926 1.925 z M 17.575,8.65 c 0.84,0 1.513,-0.689 1.513,-1.513 0,-0.823 -0.673,-1.512 -1.513,-1.512 -0.838,0 -1.512,0.674 -1.512,1.513 0,0.823 0.672,1.512 1.512,1.512 z"
     fill="#ffffff"
     id="path2" />
</svg>
